<svg width="61" height="64" viewBox="0 0 61 64" fill="none" xmlns="http://www.w3.org/2000/svg">
<path d="M25.7679 36.8405C25.4051 36.913 25.034 36.9498 24.6648 36.9498C24.6184 36.9498 24.5723 36.9468 24.526 36.9456V42.0958H32.625V36.6746C32.0944 36.3979 31.5736 36.1016 31.0675 35.7809L25.7679 36.8405Z" fill="white"/>
<path d="M0 45.8457H8.09912V53.1728H0V45.8457Z" fill="white"/>
<path d="M11.8491 45.8457H20.7759V53.1728H11.8491V45.8457Z" fill="white"/>
<path d="M11.8491 34.7686V42.0957H20.7759V35.3846C20.5764 35.1942 20.3901 34.9887 20.2195 34.7686H11.8491Z" fill="white"/>
<path d="M0 26.125V31.0185H19.0536C19.0945 30.2421 19.2944 29.4707 19.659 28.7591L21.9696 24.25H1.875C0.8395 24.25 0 25.0895 0 26.125Z" fill="white"/>
<path d="M0 34.7686H8.09912V42.0957H0V34.7686Z" fill="white"/>
<path d="M11.8491 56.9229H20.7759V64H11.8491V56.9229Z" fill="white"/>
<path d="M24.5259 64H30.75C31.7855 64 32.625 63.1605 32.625 62.125V45.8457H24.5259V64Z" fill="white"/>
<path d="M0 62.125C0 63.1605 0.8395 64 1.875 64H8.09912V56.9229H0V62.125Z" fill="white"/>
<path d="M42.5625 0C32.8096 0 24.875 7.93462 24.875 17.6875C24.875 19.9819 25.3054 22.2035 26.1555 24.3045L22.9964 30.4695C22.6683 31.1097 22.7355 31.8814 23.1694 32.4554C23.6033 33.0291 24.3265 33.3044 25.0326 33.1632L31.8904 31.7921C34.9508 34.1086 38.7055 35.375 42.5625 35.375C52.3154 35.375 60.25 27.4404 60.25 17.6875C60.25 7.93462 52.3154 0 42.5625 0ZM36.2348 12.4059C36.7525 11.5091 37.8993 11.2019 38.796 11.7196C39.6929 12.2374 40 13.3841 39.4823 14.2809C38.9645 15.1776 37.8178 15.4849 36.921 14.9671C36.0243 14.4495 35.717 13.3028 36.2348 12.4059ZM41.1238 23.9484C40.7765 24.5499 40.1463 24.8862 39.4983 24.8862C39.1801 24.8862 38.8578 24.8053 38.5625 24.6346C37.6656 24.1169 37.3584 22.9703 37.8763 22.0734L43.6263 12.1141C44.1441 11.2174 45.2906 10.9099 46.1875 11.4279C47.0844 11.9456 47.3916 13.0922 46.8738 13.9891L41.1238 23.9484ZM48.8903 22.969C48.3725 23.8657 47.2257 24.173 46.329 23.6553C45.4323 23.1375 45.125 21.9907 45.6428 21.094C46.1605 20.1973 47.3073 19.8899 48.204 20.4077C49.1007 20.9255 49.408 22.0723 48.8903 22.969Z" fill="white"/>
</svg>
