<svg width="174" height="78" viewBox="0 0 174 78" fill="none" xmlns="http://www.w3.org/2000/svg">
<mask id="mask0_1_354" style="mask-type:luminance" maskUnits="userSpaceOnUse" x="0" y="0" width="174" height="77">
<path d="M173.194 0.604156H0.40239V76.7292H173.194V0.604156Z" fill="white"/>
</mask>
<g mask="url(#mask0_1_354)">
<path fill-rule="evenodd" clip-rule="evenodd" d="M31.8527 21.9034C30.9454 21.9034 30.0382 22.206 29.4334 22.8111L2.06653 49.5908C1.15934 50.4985 0.856944 52.0116 1.31053 53.2219C1.91533 54.4323 3.12492 55.1888 4.48571 55.1888H19.3031C21.1176 55.1888 22.6296 53.6757 22.6296 51.8602C22.6296 50.0447 21.1176 48.5317 19.3031 48.5317H12.6504L28.5264 33.2507V51.7089C28.5264 53.5246 30.0382 55.0375 31.8527 55.0375H44.0997C53.4741 55.0375 61.1852 47.6239 61.1852 38.5461C61.1852 29.4682 53.4741 21.9034 44.0997 21.9034C42.2854 21.9034 40.7734 23.4164 40.7734 25.2319C40.7734 27.0474 42.2854 28.5605 44.0997 28.5605C49.6942 28.5605 54.3813 32.9481 54.3813 38.5461C54.3813 43.9927 49.8453 48.5317 44.0997 48.5317H35.3302V25.2319C35.3302 23.8702 34.5742 22.6599 33.2135 22.206C32.7599 22.0547 32.3063 21.9034 31.8527 21.9034Z" fill="#A87BFF"/>
<path fill-rule="evenodd" clip-rule="evenodd" d="M130.13 29.6183C131.34 29.6183 132.398 30.6774 132.398 31.8878C132.398 33.098 131.34 34.1573 130.13 34.1573C128.921 34.1573 127.862 33.098 127.862 31.8878C127.862 30.6774 128.77 29.6183 130.13 29.6183ZM93.6919 49.2869C90.9704 49.2869 88.4 47.4713 88.4 42.6299C88.4 37.7884 90.9704 35.9728 93.6919 35.9728C95.6575 35.9728 96.4135 36.7293 97.0182 37.3345V30.2235C97.0182 29.9209 97.1694 29.7696 97.4718 29.7696H101.252C101.554 29.6183 101.705 29.9209 101.705 30.2235V46.1097C101.705 46.7149 101.857 47.0174 102.159 47.0174V47.3201C102.159 48.2278 101.857 49.4382 99.5886 49.4382C98.2278 49.4382 97.3207 48.9842 97.0182 48.0767C96.5648 48.5304 95.8087 49.2869 93.6919 49.2869ZM76.1528 49.1356C76.4553 49.1356 76.6065 48.9842 76.7576 48.6818L77.3624 46.8662H82.2008L82.8056 48.6818C82.8056 48.9842 83.108 49.1356 83.4105 49.1356H87.0392C87.3415 49.1356 87.4928 48.9842 87.4928 48.6818C87.4928 48.606 87.455 48.4927 87.3982 48.3224C87.3415 48.1523 87.266 47.9253 87.1904 47.6227L82.2008 32.1905C82.0496 31.7365 81.8984 31.7365 81.4449 31.7365H77.816C77.6648 31.7365 77.3624 31.7365 77.3624 32.1905L72.3728 47.6227C72.3047 47.8959 72.2364 48.0767 72.182 48.2205C72.1159 48.3952 72.0705 48.5158 72.0705 48.6818C72.0705 48.9842 72.2217 49.1356 72.5241 49.1356H76.1528ZM79.9329 38.2423C79.9329 38.5448 80.5377 40.9656 80.6888 41.5708L81.1424 43.0838H78.4208L78.8744 41.5708C79.0257 40.9656 79.6304 38.5448 79.6304 38.2423C79.6304 38.0909 79.6304 37.9396 79.7816 37.9396C79.8401 37.9396 79.876 37.9396 79.8978 37.9571C79.9329 37.9849 79.9329 38.0567 79.9329 38.2423ZM96.8671 40.2091V44.8993C96.4135 45.2019 95.8087 45.3532 95.2039 45.2019C93.8432 45.2019 93.0872 44.5968 93.0872 42.4786C93.0872 40.3604 93.8432 39.7552 95.2039 39.7552C95.8087 39.7552 96.4135 39.9065 96.8671 40.2091ZM104.881 36.5779C104.881 36.2754 105.032 36.1242 105.334 36.1242H107.149C108.358 36.1242 109.416 36.5779 109.568 37.9396C110.324 37.1832 111.533 35.9728 113.347 35.9728C115.162 35.9728 116.221 36.7293 116.825 38.0909C117.581 36.8806 119.093 35.9728 120.907 35.9728C123.932 35.9728 124.687 37.9396 124.687 40.5117V48.6818C124.687 48.9842 124.536 49.1356 124.234 49.1356H120.454C120.151 49.1356 120 48.9842 120 48.6818V41.4195C120 40.5116 119.396 40.2091 118.942 40.2091C118.186 40.2091 117.279 40.6631 117.279 40.6631V48.6818C117.279 48.9842 117.128 49.1356 116.825 49.1356H113.045C112.743 49.1356 112.592 48.9842 112.592 48.6818V41.4195C112.592 40.5116 111.987 40.2091 111.533 40.2091C110.777 40.2091 109.87 40.6631 109.87 40.6631V48.6818C109.87 48.9842 109.719 49.1356 109.416 49.1356H105.637C105.032 49.1356 104.881 48.9842 104.881 48.6818V36.5779ZM128.164 36.1242C127.862 36.1242 127.711 36.2754 127.711 36.5779V48.6818C127.711 48.9842 127.862 49.1356 128.164 49.1356H131.945C132.247 49.1356 132.398 48.9842 132.398 48.6818V36.5779C132.398 36.2754 132.247 36.1242 131.945 36.1242H128.164ZM134.968 38.9987H136.178V46.261C136.178 48.3791 137.69 49.2869 139.505 49.2869C141.167 49.2869 142.226 49.1356 142.982 48.3791C143.133 48.2278 143.284 47.774 143.284 47.0174V46.261C143.284 45.6559 142.982 45.5045 142.68 45.6559C142.453 45.6559 142.302 45.6937 142.151 45.7314C142 45.7692 141.849 45.807 141.622 45.807C141.167 45.807 141.016 45.5045 141.016 44.8993V38.9987H142.68C142.982 38.9987 143.133 38.8474 143.133 38.5448V36.5779C143.133 36.2754 142.982 36.1242 142.68 36.1242H140.865V33.552C140.865 33.2494 140.714 33.098 140.412 33.098H136.632C136.329 33.098 136.178 33.2494 136.178 33.552V36.1242H134.968C134.666 36.1242 134.515 36.2754 134.515 36.5779V38.5448C134.515 38.8474 134.666 38.9987 134.968 38.9987ZM149.181 49.2869C146.913 49.2869 144.948 48.2278 144.948 45.2019C144.948 42.3273 147.216 41.1169 149.937 41.1169C150.996 41.1169 151.752 41.2682 152.205 41.4195V41.1169C152.205 39.9065 152.054 39.4525 150.694 39.4525C149.371 39.4525 148.431 39.74 147.796 39.9337C147.634 39.9834 147.492 40.0269 147.367 40.0578C146.913 40.2091 146.46 40.3604 146.158 40.3604C145.856 40.3604 145.703 40.2091 145.703 39.6039V37.9396C145.703 37.3345 146.007 36.8806 146.762 36.5779C147.82 35.9728 150.088 35.8215 151.6 35.8215C155.23 35.8215 156.892 37.1832 156.892 40.5117V46.1097C156.892 46.7149 157.044 47.0174 157.346 47.0174V47.3201C157.346 48.2278 157.044 49.4382 154.775 49.4382C153.415 49.4382 152.659 48.9842 152.205 48.2278C151.903 48.6818 151.147 49.2869 149.181 49.2869ZM152.356 43.3863V46.1097C152.054 46.261 151.601 46.4123 151.147 46.5636C150.088 46.5636 149.635 46.1097 149.635 44.8993C149.635 43.689 150.239 43.2351 151.147 43.2351C151.752 43.2351 152.054 43.2351 152.356 43.3863ZM164.453 49.2869C161.731 49.2869 159.161 47.4713 159.161 42.6299C159.161 37.7884 161.731 35.9728 164.453 35.9728C166.418 35.9728 167.174 36.7293 167.778 37.3345V30.2235C167.778 29.9209 167.931 29.7696 168.233 29.7696H172.012C172.314 29.7696 172.465 29.9209 172.465 30.2235V46.1097C172.465 46.7149 172.618 47.0174 172.92 47.0174V47.3201C172.92 48.2278 172.618 49.4382 170.35 49.4382C168.988 49.4382 168.082 48.9842 167.778 48.0767C167.476 48.5304 166.569 49.2869 164.453 49.2869ZM167.778 40.2091V44.8993C167.325 45.2019 166.721 45.3532 166.116 45.2019C164.755 45.2019 163.999 44.5968 163.999 42.4786C163.999 40.3604 164.755 39.7552 166.116 39.7552C166.721 39.7552 167.325 39.9065 167.778 40.2091Z" fill="#6B31BD"/>
</g>
</svg>
