<svg width="66" height="64" viewBox="0 0 66 64" fill="none" xmlns="http://www.w3.org/2000/svg">
<path d="M63.887 46.3577H56.3104V21.2494C56.3104 20.0825 55.3654 19.1376 54.1986 19.1376C53.0317 19.1376 52.0856 20.0825 52.0856 21.2494V48.8859C52.0856 50.0699 50.9069 51.0704 49.5044 51.0876C49.4922 51.0873 49.4804 51.0858 49.4682 51.0858C49.4453 51.0858 49.4229 51.0885 49.4001 51.0892H41.3029C41.2801 51.0885 41.2579 51.0858 41.2348 51.0858C41.2118 51.0858 41.1896 51.0885 41.1668 51.0892H33.0672C33.0444 51.0885 33.0222 51.0858 32.9993 51.0858C32.9763 51.0858 32.9542 51.0885 32.9314 51.0892H24.8328C24.81 51.0885 24.7878 51.0858 24.7649 51.0858C24.742 51.0858 24.7198 51.0885 24.697 51.0892H16.5985C16.5756 51.0885 16.5535 51.0858 16.5305 51.0858C16.5183 51.0858 16.5064 51.0874 16.4943 51.0876C15.0907 51.0704 13.9131 50.0699 13.9131 48.8859V15.1188C13.9131 13.9245 15.1121 12.9155 16.5305 12.9155H49.4682C50.8868 12.9155 52.0856 13.9245 52.0856 15.1188V15.533C52.0856 16.6998 53.0316 17.6448 54.1986 17.6448H63.887C65.0538 17.6448 66 16.6998 66 15.533C66 14.3662 65.054 13.4212 63.887 13.4212H56.0678C55.459 11.3363 53.7576 9.67265 51.5811 9.00699V2.30153C51.5811 1.13469 50.635 0.189697 49.4681 0.189697C48.3012 0.189697 47.3562 1.13469 47.3562 2.30153V8.69182H43.3465V2.30153C43.3465 1.13469 42.4015 0.189697 41.2347 0.189697C40.0679 0.189697 39.1217 1.13469 39.1217 2.30153V8.69182H35.1109V2.30153C35.1109 1.13469 34.1648 0.189697 32.999 0.189697C31.8332 0.189697 30.8872 1.13469 30.8872 2.30153V8.69182H26.8764V2.30153C26.8764 1.13469 25.9303 0.189697 24.7645 0.189697C23.5987 0.189697 22.6527 1.13469 22.6527 2.30153V8.69182H18.6418V2.30153C18.6418 1.13469 17.6968 0.189697 16.53 0.189697C15.3632 0.189697 14.4182 1.13469 14.4182 2.30153V9.0066C12.2418 9.67175 10.5416 11.3353 9.93295 13.42H2.11183C0.946026 13.42 0 14.3649 0 15.5318C0 16.6987 0.946026 17.6437 2.11183 17.6437H9.68958V46.3577H2.11183C0.946026 46.3577 0 47.3026 0 48.4694C0 49.6362 0.946026 50.5812 2.11183 50.5812H9.93334C10.5419 52.666 12.242 54.3301 14.4187 54.9957V61.6986C14.4187 62.8654 15.3637 63.8104 16.5305 63.8104C17.6962 63.8104 18.6424 62.8654 18.6424 61.6986V55.3105H22.6532V61.6984C22.6532 62.8653 23.5982 63.8103 24.765 63.8103C25.9307 63.8103 26.8769 62.8653 26.8769 61.6984V55.3105H30.8877V61.6984C30.8877 62.8653 31.8327 63.8103 32.9995 63.8103C34.1664 63.8103 35.1114 62.8653 35.1114 61.6984V55.3105H39.1222V61.6984C39.1222 62.8653 40.0683 63.8103 41.2352 63.8103C42.4009 63.8103 43.3471 62.8653 43.3471 61.6984V55.3105H47.3567V61.6984C47.3567 62.8653 48.3017 63.8103 49.4686 63.8103C50.6354 63.8103 51.5816 62.8653 51.5816 61.6984V54.9954C53.7582 54.3299 55.4581 52.666 56.0668 50.5812H63.8874C65.0531 50.5812 66.0004 49.6362 66.0004 48.4694C66 47.3026 65.0538 46.3577 63.887 46.3577Z" fill="white"/>
<path d="M63.8869 38.1232H59.7915C58.6247 38.1232 57.6797 39.0682 57.6797 40.235C57.6797 41.4018 58.6247 42.3468 59.7915 42.3468H63.8869C65.0526 42.3468 65.9999 41.4018 65.9999 40.235C65.9999 39.0682 65.0538 38.1232 63.8869 38.1232Z" fill="white"/>
<path d="M63.8869 29.8876H59.7915C58.6247 29.8876 57.6797 30.8326 57.6797 31.9994C57.6797 33.1662 58.6247 34.1112 59.7915 34.1112H63.8869C65.0526 34.1112 65.9999 33.1662 65.9999 31.9994C65.9999 30.8326 65.0538 29.8876 63.8869 29.8876Z" fill="white"/>
<path d="M63.8869 21.6532H59.7915C58.6247 21.6532 57.6797 22.5982 57.6797 23.765C57.6797 24.9319 58.6247 25.8769 59.7915 25.8769H63.8869C65.0526 25.8769 65.9999 24.9319 65.9999 23.765C65.9999 22.5982 65.0538 21.6532 63.8869 21.6532Z" fill="white"/>
<path d="M2.11183 42.3468H6.2084C7.37408 42.3468 8.32024 41.4018 8.32024 40.235C8.32024 39.0682 7.37524 38.1232 6.2084 38.1232H2.11183C0.946026 38.1232 0 39.0693 0 40.235C0 41.4007 0.946026 42.3468 2.11183 42.3468Z" fill="white"/>
<path d="M2.11183 34.1113H6.2084C7.37408 34.1113 8.32024 33.1675 8.32024 32.0006C8.32024 30.8338 7.37524 29.8888 6.2084 29.8888H2.11183C0.946026 29.8888 0 30.8348 0 32.0006C0 33.1663 0.946026 34.1113 2.11183 34.1113Z" fill="white"/>
<path d="M2.11183 25.8769H6.2084C7.37408 25.8769 8.32024 24.9319 8.32024 23.765C8.32024 22.5982 7.37524 21.6532 6.2084 21.6532H2.11183C0.946026 21.6532 0 22.5982 0 23.765C0 24.9319 0.946026 25.8769 2.11183 25.8769Z" fill="white"/>
<path d="M26.1778 20.9485C25.3072 20.9485 24.5259 21.4816 24.2101 22.2927L17.2375 40.1721C16.8142 41.26 17.3508 42.4841 18.4376 42.9073C19.5256 43.3306 20.7496 42.7929 21.1728 41.7072L22.2792 38.8701H30.0764L31.1827 41.7072C31.5076 42.5424 32.305 43.0526 33.1503 43.0526C33.4054 43.0526 33.6652 43.0056 33.918 42.9073C35.0036 42.484 35.5424 41.2589 35.118 40.1721L28.1455 22.2927C27.8285 21.4816 27.0484 20.9485 26.1778 20.9485ZM23.9262 34.6466L26.1778 28.8729L28.4293 34.6466H23.9262Z" fill="white"/>
<path d="M44.9518 25.1722C46.1175 25.1722 47.0648 24.2272 47.0648 23.0603C47.0648 21.8935 46.1188 20.9485 44.9518 20.9485H39.0386C37.8718 20.9485 36.9268 21.8935 36.9268 23.0603C36.9268 24.2272 37.8718 25.1722 39.0386 25.1722H39.8829V38.829H39.0386C37.8718 38.829 36.9268 39.774 36.9268 40.9409C36.9268 42.1077 37.8718 43.0527 39.0386 43.0527H44.9518C46.1175 43.0527 47.0648 42.1077 47.0648 40.9409C47.0648 39.774 46.1188 38.829 44.9518 38.829H44.1086V25.1722H44.9518Z" fill="white"/>
</svg>
