<svg width="186" height="47" viewBox="0 0 186 47" fill="none" xmlns="http://www.w3.org/2000/svg">
<path d="M7.932 11.5164L17.6808 4.6902C17.9606 4.49426 18.0286 4.10857 17.8327 3.82874L16.7706 2.31199C16.5747 2.03216 16.189 1.96416 15.9092 2.1601L6.1604 8.98625C5.88057 9.18219 5.81256 9.56788 6.0085 9.84771L7.07054 11.3645C7.26648 11.6443 7.65217 11.7123 7.932 11.5164Z" fill="white"/>
<path d="M11.073 7.11834V13.6538C11.073 14.5079 11.7161 15.2002 12.5093 15.2002C13.3025 15.2002 13.9455 14.5079 13.9455 13.6538V7.11834C13.9455 6.26431 13.3025 5.57198 12.5093 5.57198C11.7161 5.57198 11.073 6.26431 11.073 7.11834Z" fill="white"/>
<path d="M15.1371 4.51027L20.7792 8.46092C21.0591 8.65686 21.4448 8.58886 21.6407 8.30903L22.5784 6.96987C22.7743 6.69004 22.7063 6.30435 22.4265 6.10841L16.7844 2.15775C16.5045 1.96182 16.1188 2.02982 15.9229 2.30965L14.9852 3.64881C14.7893 3.92864 14.8573 4.31433 15.1371 4.51027Z" fill="white"/>
<path d="M23.3218 9.16444L29.8205 4.61403C30.1003 4.41809 30.1684 4.0324 29.9724 3.75257L28.9031 2.22544C28.7072 1.94561 28.3215 1.8776 28.0416 2.07354L21.543 6.62395C21.2631 6.81989 21.1951 7.20558 21.3911 7.48541L22.4604 9.01254C22.6563 9.29237 23.042 9.36038 23.3218 9.16444Z" fill="white"/>
<path d="M24.2082 19.2759V8.59898C24.2082 8.25737 23.9312 7.98044 23.5896 7.98044H21.7253C21.3837 7.98044 21.1068 8.25737 21.1068 8.59898V19.2759C21.1068 19.6175 21.3837 19.8945 21.7253 19.8945H23.5896C23.9312 19.8945 24.2082 19.6175 24.2082 19.2759Z" fill="white"/>
<path d="M27.162 4.51545L37.2018 11.5454C37.4817 11.7414 37.8674 11.6734 38.0633 11.3935L39.1606 9.82637C39.3566 9.54654 39.2886 9.16085 39.0087 8.96491L28.9689 1.93494C28.689 1.739 28.3034 1.807 28.1074 2.08683L27.0101 3.65399C26.8141 3.93382 26.8821 4.31951 27.162 4.51545Z" fill="white"/>
<path d="M5.89555 9.58277V17.0145C5.89555 17.3562 6.17248 17.6331 6.51409 17.6331H8.05024C8.39185 17.6331 8.66878 17.3562 8.66878 17.0145V9.58277C8.66878 9.24116 8.39185 8.96423 8.05024 8.96423H6.51409C6.17248 8.96423 5.89555 9.24116 5.89555 9.58277Z" fill="white"/>
<path d="M2.64122 21.0274L7.74906 17.4508C8.02889 17.2549 8.0969 16.8692 7.90096 16.5894L6.90864 15.1722C6.7127 14.8924 6.32701 14.8244 6.04718 15.0203L0.939342 18.5969C0.659511 18.7928 0.591503 19.1785 0.787443 19.4583L1.77976 20.8755C1.9757 21.1553 2.36139 21.2233 2.64122 21.0274Z" fill="white"/>
<path d="M3.72101 27.9448V19.3823C3.72101 19.0407 3.44408 18.7638 3.10247 18.7638H1.37241C1.0308 18.7638 0.753866 19.0407 0.753866 19.3823V27.9448C0.753866 28.2864 1.0308 28.5633 1.37241 28.5633H3.10247C3.44408 28.5633 3.72101 28.2864 3.72101 27.9448Z" fill="white"/>
<path d="M3.74535 25.9544L8.35267 23.2944C9.09228 22.8673 9.34569 21.9216 8.91867 21.182L8.90135 21.152C8.47434 20.4124 7.5286 20.159 6.789 20.586L2.18168 23.246C1.44207 23.673 1.18866 24.6188 1.61568 25.3584L1.63299 25.3884C2.06001 26.128 3.00574 26.3814 3.74535 25.9544Z" fill="white"/>
<path d="M8.06817 31.5253L3.24529 27.4784C2.59107 26.9295 1.6157 27.0148 1.06674 27.669L0.993978 27.7557C0.44502 28.4099 0.530353 29.3853 1.18458 29.9343L6.00745 33.9812C6.66167 34.5301 7.63705 34.4448 8.186 33.7906L8.25876 33.7038C8.80772 33.0496 8.72239 32.0742 8.06817 31.5253Z" fill="white"/>
<path d="M8.56813 34.5911L13.3603 31.8244C14.0999 31.3973 14.3779 30.4943 13.9813 29.8073C13.5847 29.1204 12.6636 28.9097 11.924 29.3367L7.13188 32.1034C6.39227 32.5304 6.11421 33.4335 6.51082 34.1204C6.90743 34.8074 7.82852 35.0181 8.56813 34.5911Z" fill="white"/>
<path d="M8.6689 39.0636V33.2741C8.6689 32.9325 8.39197 32.6555 8.05036 32.6555H6.27205C5.93044 32.6555 5.65351 32.9325 5.65351 33.2741V39.0636C5.65351 39.4052 5.93044 39.6822 6.27205 39.6822H8.05036C8.39197 39.6822 8.6689 39.4052 8.6689 39.0636Z" fill="white"/>
<path d="M18.7346 43.6071L7.56909 37.1607C7.27325 36.9899 6.89495 37.0913 6.72415 37.3871L5.89236 38.8278C5.72156 39.1236 5.82292 39.5019 6.11876 39.6727L17.2843 46.1192C17.5802 46.29 17.9585 46.1886 18.1293 45.8928L18.961 44.4521C19.1318 44.1562 19.0305 43.778 18.7346 43.6071Z" fill="white"/>
<path d="M14.215 42.2925L18.637 39.7395C19.3766 39.3125 19.6546 38.4094 19.258 37.7225C18.8614 37.0355 17.9403 36.8248 17.2007 37.2518L12.7788 39.8049C12.0391 40.2319 11.7611 41.1349 12.1577 41.8219C12.5543 42.5088 13.4754 42.7195 14.215 42.2925Z" fill="white"/>
<path d="M21.2999 40.7152L16.5426 43.4618C16.2467 43.6326 16.1454 44.0109 16.3162 44.3068L17.2169 45.8669C17.3877 46.1627 17.766 46.2641 18.0619 46.0933L22.8192 43.3467C23.115 43.1759 23.2164 42.7976 23.0456 42.5017L22.1448 40.9416C21.974 40.6457 21.5957 40.5444 21.2999 40.7152Z" fill="white"/>
<path d="M7.00606 17.4709L12.1139 21.0474C12.3937 21.2434 12.7794 21.1753 12.9754 20.8955L13.9677 19.4783C14.1636 19.1985 14.0956 18.8128 13.8158 18.6169L8.70794 15.0403C8.42811 14.8444 8.04242 14.9124 7.84648 15.1922L6.85416 16.6094C6.65822 16.8892 6.72623 17.2749 7.00606 17.4709Z" fill="white"/>
<path d="M16.0949 10.7666V16.4636C16.0949 17.3177 16.7872 18.01 17.6412 18.01H17.6759C18.5299 18.01 19.2222 17.3177 19.2222 16.4636V10.7666C19.2222 9.91253 18.5299 9.2202 17.6759 9.2202H17.6412C16.7872 9.2202 16.0949 9.91253 16.0949 10.7666Z" fill="white"/>
<path d="M16.8661 15.304L11.466 18.4218C11.1702 18.5926 11.0688 18.9709 11.2396 19.2667L12.1046 20.765C12.2754 21.0608 12.6537 21.1622 12.9496 20.9914L18.3497 17.8736C18.6455 17.7028 18.7469 17.3245 18.5761 17.0287L17.7111 15.5304C17.5402 15.2346 17.162 15.1332 16.8661 15.304Z" fill="white"/>
<path d="M8.71412 29.2494L13.3809 25.9817C14.0805 25.4919 14.2505 24.5276 13.7606 23.8281L13.7408 23.7997C13.2509 23.1001 12.2867 22.9301 11.5871 23.4199L6.92035 26.6876C6.22077 27.1775 6.05075 28.1417 6.5406 28.8413L6.56047 28.8697C7.05032 29.5692 8.01454 29.7393 8.71412 29.2494Z" fill="white"/>
<path d="M10.9303 20.2017V24.1758C10.9303 24.5174 11.2073 24.7944 11.5489 24.7944H13.3272C13.6688 24.7944 13.9457 24.5174 13.9457 24.1758V20.2017C13.9457 19.8601 13.6688 19.5832 13.3272 19.5832H11.5489C11.2073 19.5832 10.9303 19.8601 10.9303 20.2017Z" fill="white"/>
<path d="M11.9507 26.2226L16.3421 28.758C16.6379 28.9288 17.0162 28.8275 17.187 28.5316L18.1493 26.8649C18.3201 26.569 18.2188 26.1907 17.9229 26.0199L13.5315 23.4845C13.2357 23.3137 12.8574 23.4151 12.6866 23.7109L11.7243 25.3777C11.5535 25.6735 11.6548 26.0518 11.9507 26.2226Z" fill="white"/>
<path d="M15.8302 26.6434V32.4679C15.8302 32.8095 16.1071 33.0864 16.4487 33.0864H17.85C18.1916 33.0864 18.4686 32.8095 18.4686 32.4679V26.6434C18.4686 26.3017 18.1916 26.0248 17.85 26.0248H16.4487C16.1071 26.0248 15.8302 26.3017 15.8302 26.6434Z" fill="white"/>
<path d="M13.4226 37.4917L18.3882 34.6248C19.1278 34.1978 19.385 33.2584 18.9625 32.5267C18.5401 31.795 17.598 31.5481 16.8584 31.9751L11.8927 34.842C11.1531 35.269 10.896 36.2083 11.3185 36.94C11.7409 37.6717 12.6829 37.9187 13.4226 37.4917Z" fill="white"/>
<path d="M21.502 29.4821L16.8604 32.162C16.5645 32.3328 16.4632 32.7111 16.634 33.0069L17.4522 34.424C17.623 34.7199 18.0013 34.8212 18.2971 34.6504L22.9387 31.9706C23.2345 31.7998 23.3359 31.4215 23.1651 31.1256L22.3469 29.7085C22.1761 29.4127 21.7978 29.3113 21.502 29.4821Z" fill="white"/>
<path d="M24.1222 41.8905V25.6006C24.1222 25.259 23.8453 24.982 23.5037 24.982H21.7253C21.3837 24.982 21.1068 25.259 21.1068 25.6006V41.8905C21.1068 42.2321 21.3837 42.509 21.7253 42.509H23.5037C23.8453 42.509 24.1222 42.2321 24.1222 41.8905Z" fill="white"/>
<path d="M18.2882 24.0417L21.7452 26.4624C22.4448 26.9523 23.3941 26.8036 23.8655 26.1303C24.337 25.457 24.152 24.5141 23.4524 24.0243L19.9954 21.6036C19.2958 21.1138 18.3465 21.2625 17.8751 21.9357C17.4036 22.609 17.5886 23.5519 18.2882 24.0417Z" fill="white"/>
<path d="M28.6646 43.5571L23.9066 40.2255C23.6268 40.0296 23.2411 40.0976 23.0452 40.3774L22.0977 41.7305C21.9018 42.0104 21.9698 42.396 22.2496 42.592L27.0076 45.9235C27.2874 46.1195 27.6731 46.0515 27.8691 45.7717L28.8165 44.4186C29.0125 44.1387 28.9444 43.753 28.6646 43.5571Z" fill="white"/>
<path d="M37.6448 37.0102L26.3742 43.5173C26.0784 43.6881 25.977 44.0664 26.1478 44.3622L26.9544 45.7592C27.1252 46.0551 27.5035 46.1565 27.7994 45.9856L39.0699 39.4786C39.3658 39.3078 39.4671 38.9295 39.2963 38.6336L38.4897 37.2366C38.3189 36.9408 37.9406 36.8394 37.6448 37.0102Z" fill="white"/>
<path d="M27.2727 33.0864H23.0307C22.6891 33.0864 22.4122 33.3633 22.4122 33.7049V35.6447C22.4122 35.9863 22.6891 36.2632 23.0307 36.2632H27.2727C27.6143 36.2632 27.8912 35.9863 27.8912 35.6447V33.7049C27.8912 33.3633 27.6143 33.0864 27.2727 33.0864Z" fill="white"/>
<path d="M26.9788 19.6865L22.95 17.3604C22.6541 17.1896 22.2758 17.291 22.105 17.5869L21.1351 19.2667C20.9643 19.5626 21.0657 19.9409 21.3615 20.1117L25.3903 22.4377C25.6862 22.6085 26.0645 22.5071 26.2353 22.2113L27.2052 20.5314C27.376 20.2356 27.2746 19.8573 26.9788 19.6865Z" fill="white"/>
<path d="M36.5602 32.1972V38.8753C36.5602 39.2169 36.8372 39.4939 37.1788 39.4939H38.7415C39.0831 39.4939 39.3601 39.2169 39.3601 38.8753V32.1972C39.3601 31.8556 39.0831 31.5787 38.7415 31.5787H37.1788C36.8372 31.5787 36.5602 31.8556 36.5602 32.1972Z" fill="white"/>
<path d="M38.8336 33.7562L44.2381 29.2212C44.4998 29.0016 44.5339 28.6115 44.3144 28.3498L43.3098 27.1527C43.0903 26.891 42.7001 26.8569 42.4384 27.0764L37.0339 31.6114C36.7722 31.8309 36.7381 32.2211 36.9577 32.4828L37.9622 33.6799C38.1818 33.9416 38.5719 33.9757 38.8336 33.7562Z" fill="white"/>
<path d="M44.4753 28.6987V19.7593C44.4753 19.4176 44.1984 19.1407 43.8568 19.1407H42.0785C41.7369 19.1407 41.46 19.4176 41.46 19.7593V28.6987C41.46 29.0403 41.7369 29.3173 42.0785 29.3173H43.8568C44.1984 29.3173 44.4753 29.0403 44.4753 28.6987Z" fill="white"/>
<path d="M44.2514 19.1668L38.5287 14.3649C38.267 14.1453 37.8768 14.1795 37.6573 14.4411L36.6188 15.6788C36.3992 15.9405 36.4333 16.3306 36.695 16.5502L42.4177 21.3521C42.6794 21.5717 43.0695 21.5376 43.2891 21.2759L44.3276 20.0382C44.5472 19.7765 44.5131 19.3864 44.2514 19.1668Z" fill="white"/>
<path d="M39.1986 15.8838V9.58268C39.1986 9.24107 38.9217 8.96414 38.5801 8.96414H36.8018C36.4602 8.96414 36.1832 9.24107 36.1832 9.58268V15.8838C36.1832 16.2254 36.4602 16.5023 36.8018 16.5023H38.5801C38.9217 16.5023 39.1986 16.2254 39.1986 15.8838Z" fill="white"/>
<path d="M36.3185 11.2256H31.1481C30.8065 11.2256 30.5296 11.5025 30.5296 11.8442V13.7839C30.5296 14.1255 30.8065 14.4024 31.1481 14.4024H36.3185C36.6601 14.4024 36.9371 14.1255 36.9371 13.7839V11.8442C36.9371 11.5025 36.6601 11.2256 36.3185 11.2256Z" fill="white"/>
<path d="M41.6095 27.6486L38.9861 25.8117C38.7063 25.6158 38.3206 25.6838 38.1247 25.9636L37.0121 27.5526C36.8162 27.8324 36.8842 28.2181 37.164 28.414L39.7873 30.2509C40.0672 30.4468 40.4528 30.3788 40.6488 30.099L41.7614 28.5101C41.9573 28.2302 41.8893 27.8445 41.6095 27.6486Z" fill="white"/>
<path d="M27.6651 24.0405C28.9974 24.0405 30.0774 23.0281 30.0774 21.7791C30.0774 20.5302 28.9974 19.5178 27.6651 19.5178C26.3328 19.5178 25.2528 20.5302 25.2528 21.7791C25.2528 23.0281 26.3328 24.0405 27.6651 24.0405Z" fill="white"/>
<path d="M28.7958 36.8555C30.1281 36.8555 31.2081 35.843 31.2081 34.5941C31.2081 33.3452 30.1281 32.3327 28.7958 32.3327C27.4635 32.3327 26.3835 33.3452 26.3835 34.5941C26.3835 35.843 27.4635 36.8555 28.7958 36.8555Z" fill="white"/>
<path d="M29.1728 14.9947C30.5051 14.9947 31.5851 13.9822 31.5851 12.7333C31.5851 11.4844 30.5051 10.4719 29.1728 10.4719C27.8405 10.4719 26.7605 11.4844 26.7605 12.7333C26.7605 13.9822 27.8405 14.9947 29.1728 14.9947Z" fill="white"/>
<path d="M36.3343 28.1863C37.6666 28.1863 38.7466 27.1739 38.7466 25.9249C38.7466 24.676 37.6666 23.6635 36.3343 23.6635C35.002 23.6635 33.922 24.676 33.922 25.9249C33.922 27.1739 35.002 28.1863 36.3343 28.1863Z" fill="white"/>
<path d="M68.7925 14.739H64.0665L63.2845 17H60.7855L65.0525 5.117H67.8235L72.0905 17H69.5745L68.7925 14.739ZM68.1465 12.835L66.4295 7.871L64.7125 12.835H68.1465ZM85.0015 7.446C86.1575 7.446 87.0868 7.803 87.7895 8.517C88.5035 9.21967 88.8605 10.2057 88.8605 11.475V17H86.4805V11.798C86.4805 11.0613 86.2935 10.5003 85.9195 10.115C85.5455 9.71833 85.0355 9.52 84.3895 9.52C83.7435 9.52 83.2278 9.71833 82.8425 10.115C82.4685 10.5003 82.2815 11.0613 82.2815 11.798V17H79.9015V11.798C79.9015 11.0613 79.7145 10.5003 79.3405 10.115C78.9665 9.71833 78.4565 9.52 77.8105 9.52C77.1531 9.52 76.6318 9.71833 76.2465 10.115C75.8725 10.5003 75.6855 11.0613 75.6855 11.798V17H73.3055V7.582H75.6855V8.721C75.9915 8.32433 76.3825 8.01267 76.8585 7.786C77.3458 7.55933 77.8785 7.446 78.4565 7.446C79.1931 7.446 79.8505 7.60467 80.4285 7.922C81.0065 8.228 81.4541 8.67 81.7715 9.248C82.0775 8.704 82.5195 8.26767 83.0975 7.939C83.6868 7.61033 84.3215 7.446 85.0015 7.446ZM90.1269 12.257C90.1269 11.305 90.3139 10.4607 90.6879 9.724C91.0733 8.98733 91.5889 8.42067 92.2349 8.024C92.8923 7.62733 93.6233 7.429 94.4279 7.429C95.1306 7.429 95.7426 7.57067 96.2639 7.854C96.7966 8.13733 97.2216 8.49433 97.5389 8.925V7.582H99.9359V17H97.5389V15.623C97.2329 16.065 96.8079 16.4333 96.2639 16.728C95.7313 17.0113 95.1136 17.153 94.4109 17.153C93.6176 17.153 92.8923 16.949 92.2349 16.541C91.5889 16.133 91.0733 15.5607 90.6879 14.824C90.3139 14.076 90.1269 13.2203 90.1269 12.257ZM97.5389 12.291C97.5389 11.713 97.4256 11.22 97.1989 10.812C96.9723 10.3927 96.6663 10.0753 96.2809 9.86C95.8956 9.63333 95.4819 9.52 95.0399 9.52C94.5979 9.52 94.1899 9.62767 93.8159 9.843C93.4419 10.0583 93.1359 10.3757 92.8979 10.795C92.6713 11.203 92.5579 11.6903 92.5579 12.257C92.5579 12.8237 92.6713 13.3223 92.8979 13.753C93.1359 14.1723 93.4419 14.4953 93.8159 14.722C94.2013 14.9487 94.6093 15.062 95.0399 15.062C95.4819 15.062 95.8956 14.9543 96.2809 14.739C96.6663 14.5123 96.9723 14.195 97.1989 13.787C97.4256 13.3677 97.5389 12.869 97.5389 12.291ZM104.056 15.045H108.255V17H101.353V15.079L105.467 9.537H101.37V7.582H108.204V9.503L104.056 15.045ZM113.9 17.153C112.994 17.153 112.178 16.9547 111.452 16.558C110.727 16.15 110.155 15.5777 109.735 14.841C109.327 14.1043 109.123 13.2543 109.123 12.291C109.123 11.3277 109.333 10.4777 109.752 9.741C110.183 9.00433 110.767 8.43767 111.503 8.041C112.24 7.633 113.062 7.429 113.968 7.429C114.875 7.429 115.697 7.633 116.433 8.041C117.17 8.43767 117.748 9.00433 118.167 9.741C118.598 10.4777 118.813 11.3277 118.813 12.291C118.813 13.2543 118.592 14.1043 118.15 14.841C117.72 15.5777 117.13 16.15 116.382 16.558C115.646 16.9547 114.818 17.153 113.9 17.153ZM113.9 15.079C114.331 15.079 114.733 14.977 115.107 14.773C115.493 14.5577 115.799 14.2403 116.025 13.821C116.252 13.4017 116.365 12.8917 116.365 12.291C116.365 11.3957 116.127 10.71 115.651 10.234C115.187 9.74667 114.614 9.503 113.934 9.503C113.254 9.503 112.682 9.74667 112.217 10.234C111.764 10.71 111.537 11.3957 111.537 12.291C111.537 13.1863 111.758 13.8777 112.2 14.365C112.654 14.841 113.22 15.079 113.9 15.079ZM125.398 7.446C126.52 7.446 127.427 7.803 128.118 8.517C128.809 9.21967 129.155 10.2057 129.155 11.475V17H126.775V11.798C126.775 11.05 126.588 10.4777 126.214 10.081C125.84 9.673 125.33 9.469 124.684 9.469C124.027 9.469 123.505 9.673 123.12 10.081C122.746 10.4777 122.559 11.05 122.559 11.798V17H120.179V7.582H122.559V8.755C122.876 8.347 123.279 8.02967 123.766 7.803C124.265 7.565 124.809 7.446 125.398 7.446ZM60.9385 34.05C60.9385 32.8827 61.1992 31.84 61.7205 30.922C62.2532 29.9927 62.9728 29.273 63.8795 28.763C64.7975 28.2417 65.8232 27.981 66.9565 27.981C68.2825 27.981 69.4442 28.321 70.4415 29.001C71.4388 29.681 72.1358 30.6217 72.5325 31.823H69.7955C69.5235 31.2563 69.1382 30.8313 68.6395 30.548C68.1522 30.2647 67.5855 30.123 66.9395 30.123C66.2482 30.123 65.6305 30.2873 65.0865 30.616C64.5538 30.9333 64.1345 31.3867 63.8285 31.976C63.5338 32.5653 63.3865 33.2567 63.3865 34.05C63.3865 34.832 63.5338 35.5233 63.8285 36.124C64.1345 36.7133 64.5538 37.1723 65.0865 37.501C65.6305 37.8183 66.2482 37.977 66.9395 37.977C67.5855 37.977 68.1522 37.8353 68.6395 37.552C69.1382 37.2573 69.5235 36.8267 69.7955 36.26H72.5325C72.1358 37.4727 71.4388 38.419 70.4415 39.099C69.4555 39.7677 68.2938 40.102 66.9565 40.102C65.8232 40.102 64.7975 39.847 63.8795 39.337C62.9728 38.8157 62.2532 38.096 61.7205 37.178C61.1992 36.26 60.9385 35.2173 60.9385 34.05ZM78.3673 40.153C77.4607 40.153 76.6447 39.9547 75.9193 39.558C75.194 39.15 74.6217 38.5777 74.2023 37.841C73.7943 37.1043 73.5903 36.2543 73.5903 35.291C73.5903 34.3277 73.8 33.4777 74.2193 32.741C74.65 32.0043 75.2337 31.4377 75.9703 31.041C76.707 30.633 77.5287 30.429 78.4353 30.429C79.342 30.429 80.1637 30.633 80.9003 31.041C81.637 31.4377 82.215 32.0043 82.6343 32.741C83.065 33.4777 83.2803 34.3277 83.2803 35.291C83.2803 36.2543 83.0593 37.1043 82.6173 37.841C82.1867 38.5777 81.5973 39.15 80.8493 39.558C80.1127 39.9547 79.2853 40.153 78.3673 40.153ZM78.3673 38.079C78.798 38.079 79.2003 37.977 79.5743 37.773C79.9597 37.5577 80.2657 37.2403 80.4923 36.821C80.719 36.4017 80.8323 35.8917 80.8323 35.291C80.8323 34.3957 80.5943 33.71 80.1183 33.234C79.6537 32.7467 79.0813 32.503 78.4013 32.503C77.7213 32.503 77.149 32.7467 76.6843 33.234C76.231 33.71 76.0043 34.3957 76.0043 35.291C76.0043 36.1863 76.2253 36.8777 76.6673 37.365C77.1207 37.841 77.6873 38.079 78.3673 38.079ZM96.3422 30.446C97.4982 30.446 98.4275 30.803 99.1302 31.517C99.8442 32.2197 100.201 33.2057 100.201 34.475V40H97.8212V34.798C97.8212 34.0613 97.6342 33.5003 97.2602 33.115C96.8862 32.7183 96.3762 32.52 95.7302 32.52C95.0842 32.52 94.5685 32.7183 94.1832 33.115C93.8092 33.5003 93.6222 34.0613 93.6222 34.798V40H91.2422V34.798C91.2422 34.0613 91.0552 33.5003 90.6812 33.115C90.3072 32.7183 89.7972 32.52 89.1512 32.52C88.4938 32.52 87.9725 32.7183 87.5872 33.115C87.2132 33.5003 87.0262 34.0613 87.0262 34.798V40H84.6462V30.582H87.0262V31.721C87.3322 31.3243 87.7232 31.0127 88.1992 30.786C88.6865 30.5593 89.2192 30.446 89.7972 30.446C90.5338 30.446 91.1912 30.6047 91.7692 30.922C92.3472 31.228 92.7948 31.67 93.1122 32.248C93.4182 31.704 93.8602 31.2677 94.4382 30.939C95.0275 30.6103 95.6622 30.446 96.3422 30.446ZM104.46 31.942C104.766 31.5113 105.185 31.1543 105.718 30.871C106.262 30.5763 106.879 30.429 107.571 30.429C108.375 30.429 109.101 30.6273 109.747 31.024C110.404 31.4207 110.92 31.9873 111.294 32.724C111.679 33.4493 111.872 34.2937 111.872 35.257C111.872 36.2203 111.679 37.076 111.294 37.824C110.92 38.5607 110.404 39.133 109.747 39.541C109.101 39.949 108.375 40.153 107.571 40.153C106.879 40.153 106.267 40.0113 105.735 39.728C105.213 39.4447 104.788 39.0877 104.46 38.657V44.488H102.08V30.582H104.46V31.942ZM109.441 35.257C109.441 34.6903 109.322 34.203 109.084 33.795C108.857 33.3757 108.551 33.0583 108.166 32.843C107.792 32.6277 107.384 32.52 106.942 32.52C106.511 32.52 106.103 32.6333 105.718 32.86C105.344 33.0753 105.038 33.3927 104.8 33.812C104.573 34.2313 104.46 34.7243 104.46 35.291C104.46 35.8577 104.573 36.3507 104.8 36.77C105.038 37.1893 105.344 37.5123 105.718 37.739C106.103 37.9543 106.511 38.062 106.942 38.062C107.384 38.062 107.792 37.9487 108.166 37.722C108.551 37.4953 108.857 37.1723 109.084 36.753C109.322 36.3337 109.441 35.835 109.441 35.257ZM115.601 32.044C115.907 31.5453 116.304 31.1543 116.791 30.871C117.29 30.5877 117.856 30.446 118.491 30.446V32.945H117.862C117.114 32.945 116.547 33.1207 116.162 33.472C115.788 33.8233 115.601 34.4353 115.601 35.308V40H113.221V30.582H115.601V32.044ZM128.469 35.087C128.469 35.427 128.446 35.733 128.401 36.005H121.516C121.573 36.685 121.811 37.2177 122.23 37.603C122.649 37.9883 123.165 38.181 123.777 38.181C124.661 38.181 125.29 37.8013 125.664 37.042H128.231C127.959 37.9487 127.438 38.6967 126.667 39.286C125.896 39.864 124.95 40.153 123.828 40.153C122.921 40.153 122.105 39.9547 121.38 39.558C120.666 39.15 120.105 38.5777 119.697 37.841C119.3 37.1043 119.102 36.2543 119.102 35.291C119.102 34.3163 119.3 33.4607 119.697 32.724C120.094 31.9873 120.649 31.4207 121.363 31.024C122.077 30.6273 122.899 30.429 123.828 30.429C124.723 30.429 125.522 30.6217 126.225 31.007C126.939 31.3923 127.489 31.942 127.874 32.656C128.271 33.3587 128.469 34.169 128.469 35.087ZM126.004 34.407C125.993 33.795 125.772 33.3077 125.341 32.945C124.91 32.571 124.383 32.384 123.76 32.384C123.171 32.384 122.672 32.5653 122.264 32.928C121.867 33.2793 121.624 33.7723 121.533 34.407H126.004ZM135.13 30.446C135.844 30.446 136.479 30.6047 137.034 30.922C137.59 31.228 138.02 31.687 138.326 32.299C138.644 32.8997 138.802 33.625 138.802 34.475V40H136.422V34.798C136.422 34.05 136.235 33.4777 135.861 33.081C135.487 32.673 134.977 32.469 134.331 32.469C133.674 32.469 133.153 32.673 132.767 33.081C132.393 33.4777 132.206 34.05 132.206 34.798V40H129.826V27.42H132.206V31.755C132.512 31.347 132.92 31.0297 133.43 30.803C133.94 30.565 134.507 30.446 135.13 30.446ZM149.441 35.087C149.441 35.427 149.418 35.733 149.373 36.005H142.488C142.544 36.685 142.782 37.2177 143.202 37.603C143.621 37.9883 144.137 38.181 144.749 38.181C145.633 38.181 146.262 37.8013 146.636 37.042H149.203C148.931 37.9487 148.409 38.6967 147.639 39.286C146.868 39.864 145.922 40.153 144.8 40.153C143.893 40.153 143.077 39.9547 142.352 39.558C141.638 39.15 141.077 38.5777 140.669 37.841C140.272 37.1043 140.074 36.2543 140.074 35.291C140.074 34.3163 140.272 33.4607 140.669 32.724C141.065 31.9873 141.621 31.4207 142.335 31.024C143.049 30.6273 143.87 30.429 144.8 30.429C145.695 30.429 146.494 30.6217 147.197 31.007C147.911 31.3923 148.46 31.942 148.846 32.656C149.242 33.3587 149.441 34.169 149.441 35.087ZM146.976 34.407C146.964 33.795 146.743 33.3077 146.313 32.945C145.882 32.571 145.355 32.384 144.732 32.384C144.142 32.384 143.644 32.5653 143.236 32.928C142.839 33.2793 142.595 33.7723 142.505 34.407H146.976ZM156.017 30.446C157.139 30.446 158.045 30.803 158.737 31.517C159.428 32.2197 159.774 33.2057 159.774 34.475V40H157.394V34.798C157.394 34.05 157.207 33.4777 156.833 33.081C156.459 32.673 155.949 32.469 155.303 32.469C154.645 32.469 154.124 32.673 153.739 33.081C153.365 33.4777 153.178 34.05 153.178 34.798V40H150.798V30.582H153.178V31.755C153.495 31.347 153.897 31.0297 154.385 30.803C154.883 30.565 155.427 30.446 156.017 30.446ZM161.045 35.257C161.045 34.305 161.232 33.4607 161.606 32.724C161.991 31.9873 162.513 31.4207 163.17 31.024C163.827 30.6273 164.558 30.429 165.363 30.429C165.975 30.429 166.559 30.565 167.114 30.837C167.669 31.0977 168.111 31.449 168.44 31.891V27.42H170.854V40H168.44V38.606C168.145 39.0707 167.732 39.4447 167.199 39.728C166.666 40.0113 166.049 40.153 165.346 40.153C164.553 40.153 163.827 39.949 163.17 39.541C162.513 39.133 161.991 38.5607 161.606 37.824C161.232 37.076 161.045 36.2203 161.045 35.257ZM168.457 35.291C168.457 34.713 168.344 34.22 168.117 33.812C167.89 33.3927 167.584 33.0753 167.199 32.86C166.814 32.6333 166.4 32.52 165.958 32.52C165.516 32.52 165.108 32.6277 164.734 32.843C164.36 33.0583 164.054 33.3757 163.816 33.795C163.589 34.203 163.476 34.6903 163.476 35.257C163.476 35.8237 163.589 36.3223 163.816 36.753C164.054 37.1723 164.36 37.4953 164.734 37.722C165.119 37.9487 165.527 38.062 165.958 38.062C166.4 38.062 166.814 37.9543 167.199 37.739C167.584 37.5123 167.89 37.195 168.117 36.787C168.344 36.3677 168.457 35.869 168.457 35.291Z" fill="white"/>
</svg>
