<svg width="79" height="79" viewBox="0 0 79 79" fill="none" xmlns="http://www.w3.org/2000/svg">
<path d="M69.1249 53.2335C69.964 53.2335 70.6442 52.5533 70.6442 51.7143C70.6442 50.8753 69.964 50.1951 69.1249 50.1951C68.2859 50.1951 67.6057 50.8753 67.6057 51.7143C67.6057 52.5533 68.2859 53.2335 69.1249 53.2335Z" fill="white"/>
<path d="M39.5 32.724V49.4135C41.2079 48.6001 42.7489 47.4915 44.0577 46.1546V32.724H39.5Z" fill="white"/>
<path d="M31.9038 27.4066V23.6085H27.3461V50.043C28.8132 50.562 30.3406 50.8637 31.9038 50.9367V27.4066Z" fill="white"/>
<path d="M37.9808 28.1663H33.4231V50.936C35.0139 50.8613 36.5442 50.5518 37.9808 50.0423V31.9643V28.1663Z" fill="white"/>
<path d="M58.7707 27.1302C64.3136 27.1302 68.8231 22.5745 68.8231 16.9749C68.8231 15.8353 68.6823 14.8398 68.4085 13.9999L59.1338 17.3796C59.0487 17.4106 58.9607 17.4255 58.8738 17.4255C58.6744 17.4255 58.4788 17.347 58.3336 17.2004C58.1249 16.9895 58.0582 16.6762 58.1625 16.3985L61.5913 7.28115C60.6702 7.04156 59.7407 6.92261 58.7705 6.92261C53.1711 6.92261 48.6152 11.4321 48.6152 16.9749C48.6154 22.5745 53.171 27.1302 58.7707 27.1302Z" fill="white"/>
<path d="M12.1539 8.41627C12.9916 8.41627 13.6731 7.73474 13.6731 6.89704C13.6731 6.05933 12.9916 5.37781 12.1539 5.37781C11.3162 5.37781 10.6346 6.05933 10.6346 6.89704C10.6346 7.73474 11.3162 8.41627 12.1539 8.41627Z" fill="white"/>
<path d="M70.0165 11.7969C68.7716 9.06377 66.5724 6.86605 63.8382 5.62256L60.1664 15.3864L70.0165 11.7969Z" fill="white"/>
<path d="M16.7116 63.1085C15.0361 63.1085 13.6731 64.4716 13.6731 66.147C13.6731 67.8222 15.0361 69.1854 16.7116 69.1854C18.387 69.1854 19.75 67.8222 19.75 66.147C19.75 64.4716 18.387 63.1085 16.7116 63.1085Z" fill="white"/>
<path d="M58.7191 41.2089C58.7191 42.8841 60.0823 44.2473 61.7576 44.2473C63.4328 44.2473 64.796 42.8841 64.796 41.2089C64.796 39.5335 63.4328 38.1704 61.7576 38.1704C60.0823 38.1704 58.7191 39.5335 58.7191 41.2089Z" fill="white"/>
<path d="M66.0865 67.6663C65.6677 67.6663 65.3269 68.0069 65.3269 68.4259C65.3269 68.8447 65.6677 69.1855 66.0865 69.1855C66.5054 69.1855 66.8461 68.8447 66.8461 68.4259C66.8461 68.007 66.5054 67.6663 66.0865 67.6663Z" fill="white"/>
<path d="M54.9653 46.441C52.5956 51.0426 48.8426 54.8194 44.26 57.221L48.3612 61.3224L59.1038 50.5797L54.9653 46.441Z" fill="white"/>
<path d="M25.8269 22.849V9.93555H21.2692V46.1659C22.5824 47.5051 24.1382 48.6141 25.8269 49.4185V22.849Z" fill="white"/>
<path d="M69.8465 64.5452L58.5668 53.265L51.0468 60.7852L62.3266 72.0649C64.3997 74.138 67.7733 74.138 69.8465 72.0649C71.9198 69.9919 71.9198 66.6183 69.8465 64.5452ZM66.0865 70.7047C64.83 70.7047 63.8077 69.6824 63.8077 68.4259C63.8077 67.1693 64.83 66.147 66.0865 66.147C67.3431 66.147 68.3654 67.1693 68.3654 68.4259C68.3654 69.6824 67.3431 70.7047 66.0865 70.7047Z" fill="white"/>
<path d="M56.2115 35.0028C56.2115 32.6445 55.8627 30.3176 55.1752 28.0803C50.4922 26.5604 47.0961 22.1578 47.0961 16.9747C47.0961 16.7852 47.1008 16.5965 47.11 16.4086C42.9476 13.1667 37.9618 11.4547 32.6634 11.4547C30.8666 11.4547 29.0811 11.6592 27.3461 12.0594V18.357C29.0592 17.8095 30.8429 17.5315 32.6634 17.5315C42.297 17.5315 50.1346 25.369 50.1346 35.0026C50.1346 39.5988 48.3498 43.7852 45.4379 46.9075C45.4011 46.96 45.3568 47.0056 45.3081 47.0469C43.5701 48.8709 41.4428 50.3204 39.0606 51.2608C39.0343 51.2731 39.0068 51.2827 38.9789 51.292C37.0191 52.0545 34.8894 52.4736 32.6633 52.4736C30.4725 52.4736 28.335 52.0724 26.3103 51.2818C26.3103 51.2816 26.3102 51.2816 26.3102 51.2816C26.3044 51.2794 26.2988 51.2772 26.2931 51.2748C26.2918 51.2742 26.2904 51.2736 26.2892 51.2731C23.9095 50.3397 21.7204 48.8603 19.9577 46.9932C19.9575 46.993 19.9573 46.9927 19.9572 46.9927C16.8846 43.7381 15.1923 39.4798 15.1923 35.0028C15.1923 30.6279 16.809 26.4623 19.75 23.2374V15.3123C13.1591 19.6467 9.11536 27.0709 9.11536 35.0028C9.11536 47.9874 19.679 58.5509 32.6634 58.5509C45.648 58.5509 56.2115 47.9874 56.2115 35.0028Z" fill="white"/>
</svg>
