<svg width="80" height="80" viewBox="0 0 80 80" fill="none" xmlns="http://www.w3.org/2000/svg">
<g clip-path="url(#clip0_311_722)">
<path d="M40 40.0114V1.92018C40 0.85518 39.1136 -0.00435089 38.0498 0.0465866C16.8898 1.06252 0.0407322 18.5202 -4.90416e-05 39.9224C-0.0419241 61.961 17.9301 79.9832 39.9687 80C50.3143 80.008 59.7429 76.0867 66.8482 69.6482C67.6437 68.9274 67.6768 67.6883 66.9176 66.9292L40 40.0114Z" fill="#FE7AB6"/>
<path d="M29.9907 73.1897C23.9397 73.1897 18.2195 71.8547 13.047 69.5053C20.16 76.0071 29.6039 79.9999 40 79.9999C50.3304 79.9999 59.745 76.0822 66.8423 69.6533C67.6403 68.9305 67.6793 67.6908 66.9181 66.9294L60.0712 60.0825C52.5709 68.1447 41.8709 73.1897 29.9907 73.1897Z" fill="#FE5CA7"/>
<path d="M40 11.0571V40.0002H68.9431C68.9431 24.0154 55.9848 11.0571 40 11.0571Z" fill="#BBEC6C"/>
<path d="M40 40.0005L64.1452 64.1456C69.8875 58.4033 73.5942 50.625 74.0895 41.9866C74.1512 40.9092 73.2958 40.0006 72.2167 40.0006H40V40.0005Z" fill="#99E6FC"/>
<path d="M70.3077 40.0005C68.8138 47.6678 65.188 54.5719 60.0713 60.0717L64.1452 64.1456C69.8875 58.4033 73.5943 50.625 74.0896 41.9866C74.1513 40.9092 73.2958 40.0006 72.2168 40.0006H70.3077V40.0005Z" fill="#62DBFB"/>
<path d="M40 61.1389C51.6743 61.1389 61.1383 51.6749 61.1383 40.0006C61.1383 28.3262 51.6743 18.8623 40 18.8623C28.3256 18.8623 18.8617 28.3262 18.8617 40.0006C18.8617 51.6749 28.3256 61.1389 40 61.1389Z" fill="#FFE177"/>
<path d="M52.5431 22.9858C55.134 26.4946 56.6665 30.8326 56.6665 35.529C56.6665 47.2033 47.2026 56.6672 35.5282 56.6672C30.8318 56.6672 26.4939 55.1347 22.9851 52.5438C26.8346 57.7571 33.022 61.1388 39.9998 61.1388C51.6742 61.1388 61.1381 51.6749 61.1381 40.0005C61.1382 33.0227 57.7564 26.8355 52.5431 22.9858Z" fill="#FFD15B"/>
<path d="M39.9999 55.9242C48.8006 55.9242 55.9349 48.7899 55.9349 39.9892C55.9349 31.1885 48.8006 24.0542 39.9999 24.0542C31.1993 24.0542 24.0649 31.1885 24.0649 39.9892C24.0649 48.7899 31.1993 55.9242 39.9999 55.9242Z" fill="#FFC344"/>
<path d="M42.172 38.7965C41.8279 38.6749 41.4967 38.549 41.1718 38.4205V32.5207C42.0564 32.796 42.6131 33.2534 42.6611 33.2938C43.1487 33.7138 43.885 33.662 44.309 33.176C44.7344 32.6882 44.6836 31.9479 44.1958 31.5226C44.1236 31.4598 42.9689 30.4743 41.1717 30.1063V28.9316C41.1717 28.2845 40.6472 27.7598 39.9998 27.7598C39.3525 27.7598 38.8279 28.2845 38.8279 28.9316V30.0457C38.5187 30.0927 38.2006 30.1624 37.8743 30.2602C35.9484 30.838 34.6428 32.3205 34.3819 34.2259C34.14 35.9921 34.8829 37.7018 36.2747 38.5813C37.0679 39.0827 37.9156 39.541 38.8278 39.9652V47.3657C37.7893 47.3102 37.1192 47.0929 35.9809 46.3484C35.4392 45.994 34.7131 46.1459 34.3587 46.6874C34.0043 47.229 34.1562 47.9554 34.6979 48.3096C36.3045 49.3607 37.3853 49.6466 38.8278 49.7101V51.0696C38.8278 51.7168 39.3523 52.2415 39.9997 52.2415C40.647 52.2415 41.1715 51.7168 41.1715 51.0696V49.5923C43.8423 49.0348 45.4033 46.8179 45.7515 44.7455C46.2033 42.0599 44.7981 39.7248 42.172 38.7965ZM37.5272 36.6001C36.9192 36.2159 36.5884 35.3895 36.7042 34.5438C36.7679 34.078 37.0753 32.947 38.5481 32.5051C38.6426 32.4768 38.7356 32.453 38.8281 32.4315V37.3493C38.3764 37.1107 37.9418 36.8623 37.5272 36.6001ZM43.4406 44.357C43.2525 45.4762 42.4815 46.6645 41.1718 47.1524V40.926C41.2454 40.9526 41.3167 40.9801 41.3909 41.0063C43.6794 41.8152 43.5384 43.7754 43.4406 44.357Z" fill="#FFE177"/>
<path d="M20.9333 17.8162H16.6444C16.3336 17.8162 16.0357 17.6928 15.8157 17.4729L3.61253 5.26996C3.15487 4.8123 3.15487 4.07027 3.61253 3.61277C4.07034 3.15512 4.81222 3.15512 5.26987 3.61277L17.1296 15.4725H20.9332C21.5805 15.4725 22.105 15.9972 22.105 16.6443C22.105 17.2915 21.5805 17.8162 20.9333 17.8162Z" fill="#FFE177"/>
<path d="M2.89781 5.79562C4.49823 5.79562 5.79562 4.49823 5.79562 2.89781C5.79562 1.29739 4.49823 0 2.89781 0C1.29739 0 0 1.29739 0 2.89781C0 4.49823 1.29739 5.79562 2.89781 5.79562Z" fill="#528FD8"/>
<path d="M56.9681 21.6562C56.7267 21.6562 56.4832 21.582 56.2742 21.428C55.7531 21.0442 55.6417 20.3106 56.0254 19.7894L68.975 2.20311C69.1957 1.90326 69.546 1.72607 69.9185 1.72607H74.7967C75.444 1.72607 75.9685 2.25076 75.9685 2.89795C75.9685 3.54514 75.444 4.06982 74.7967 4.06982H70.5109L57.9125 21.1792C57.6829 21.4911 57.3278 21.6562 56.9681 21.6562Z" fill="#FFE177"/>
<path d="M77.1022 5.79562C78.7026 5.79562 80 4.49823 80 2.89781C80 1.29739 78.7026 0 77.1022 0C75.5017 0 74.2043 1.29739 74.2043 2.89781C74.2043 4.49823 75.5017 5.79562 77.1022 5.79562Z" fill="#528FD8"/>
<path d="M77.1021 75.9684C76.4548 75.9684 75.9302 75.4437 75.9302 74.7965V67.7787L65.1548 57.0034C64.6971 56.5457 64.6971 55.8037 65.1548 55.3462C65.6126 54.8885 66.3545 54.8885 66.8121 55.3462L77.9307 66.4648C78.1504 66.6845 78.2738 66.9826 78.2738 67.2934V74.7965C78.274 75.4437 77.7495 75.9684 77.1021 75.9684Z" fill="#FFE177"/>
<path d="M77.102 79.9997C78.7025 79.9997 79.9998 78.7023 79.9998 77.1019C79.9998 75.5015 78.7025 74.2041 77.102 74.2041C75.5016 74.2041 74.2042 75.5015 74.2042 77.1019C74.2042 78.7023 75.5016 79.9997 77.102 79.9997Z" fill="#528FD8"/>
</g>
<defs>
<clipPath id="clip0_311_722">
<rect width="80" height="80" fill="white"/>
</clipPath>
</defs>
</svg>
