<svg width="105" height="63" viewBox="0 0 105 63" fill="none" xmlns="http://www.w3.org/2000/svg">
<g clip-path="url(#clip0_80_413)">
<path d="M29.8421 22.9846C29.8421 24.2654 29.9803 25.3038 30.222 26.0654C30.4983 26.8269 30.8437 27.6577 31.3273 28.5577C31.5 28.8346 31.5691 29.1115 31.5691 29.3538C31.5691 29.7 31.3618 30.0462 30.9128 30.3923L28.7368 31.8462C28.426 32.0538 28.1151 32.1577 27.8388 32.1577C27.4934 32.1577 27.148 31.9846 26.8026 31.6731C26.3191 31.1538 25.9046 30.6 25.5592 30.0462C25.2138 29.4577 24.8684 28.8 24.4885 28.0038C21.7944 31.1885 18.4095 32.7808 14.3339 32.7808C11.4326 32.7808 9.11841 31.95 7.42598 30.2885C5.73354 28.6269 4.87006 26.4115 4.87006 23.6423C4.87006 20.7 5.90624 18.3115 8.01315 16.5115C10.1201 14.7115 12.9178 13.8115 16.4753 13.8115C17.6497 13.8115 18.8585 13.9154 20.1365 14.0885C21.4145 14.2615 22.727 14.5385 24.1085 14.85V12.3231C24.1085 9.69231 23.5559 7.85769 22.4852 6.78461C21.3799 5.71154 19.5148 5.19231 16.8553 5.19231C15.6464 5.19231 14.403 5.33077 13.125 5.64231C11.847 5.95384 10.6036 6.33461 9.39473 6.81923C8.8421 7.06154 8.42762 7.2 8.18585 7.26923C7.94407 7.33846 7.77137 7.37308 7.63321 7.37308C7.14966 7.37308 6.90789 7.02692 6.90789 6.3V4.60384C6.90789 4.05 6.97696 3.63461 7.14966 3.39231C7.32236 3.15 7.63321 2.90769 8.11677 2.66538C9.32565 2.04231 10.7763 1.52308 12.4687 1.10769C14.1612 0.657691 15.9572 0.449999 17.8569 0.449999C21.9671 0.449999 24.972 1.38461 26.9062 3.25384C28.8059 5.12308 29.773 7.96154 29.773 11.7692V22.9846H29.8421ZM15.8191 28.2462C16.9589 28.2462 18.1332 28.0385 19.3766 27.6231C20.6201 27.2077 21.7253 26.4462 22.6579 25.4077C23.2105 24.75 23.625 24.0231 23.8322 23.1923C24.0395 22.3615 24.1776 21.3577 24.1776 20.1808V18.7269C23.176 18.4846 22.1053 18.2769 21 18.1385C19.8947 18 18.824 17.9308 17.7533 17.9308C15.4391 17.9308 13.7467 18.3808 12.6069 19.3154C11.4671 20.25 10.9145 21.5654 10.9145 23.2962C10.9145 24.9231 11.3289 26.1346 12.1924 26.9654C13.0214 27.8308 14.2303 28.2462 15.8191 28.2462ZM43.5543 31.9846C42.9326 31.9846 42.5181 31.8808 42.2418 31.6385C41.9655 31.4308 41.7237 30.9462 41.5164 30.2885L33.3997 3.53077C33.1924 2.83846 33.0888 2.38846 33.0888 2.14615C33.0888 1.59231 33.3651 1.28077 33.9178 1.28077H37.3026C37.9589 1.28077 38.4079 1.38461 38.6497 1.62692C38.926 1.83461 39.1332 2.31923 39.3405 2.97692L45.1431 25.8923L50.5312 2.97692C50.7039 2.28461 50.9112 1.83461 51.1875 1.62692C51.4638 1.41923 51.9474 1.28077 52.5691 1.28077H55.3322C55.9885 1.28077 56.4375 1.38461 56.7138 1.62692C56.9901 1.83461 57.2319 2.31923 57.3701 2.97692L62.8273 26.1692L68.8026 2.97692C69.0099 2.28461 69.2516 1.83461 69.4934 1.62692C69.7697 1.41923 70.2187 1.28077 70.8405 1.28077H74.0526C74.6053 1.28077 74.9161 1.55769 74.9161 2.14615C74.9161 2.31923 74.8816 2.49231 74.847 2.7C74.8125 2.90769 74.7434 3.18461 74.6053 3.56538L66.2812 30.3231C66.074 31.0154 65.8322 31.4654 65.5559 31.6731C65.2796 31.8808 64.8306 32.0192 64.2434 32.0192H61.273C60.6168 32.0192 60.1678 31.9154 59.8914 31.6731C59.6151 31.4308 59.3733 30.9808 59.2352 30.2885L53.8816 7.96154L48.5625 30.2538C48.3898 30.9462 48.1826 31.3962 47.9062 31.6385C47.6299 31.8808 47.1464 31.9846 46.5247 31.9846H43.5543ZM87.9375 32.9192C86.1414 32.9192 84.3454 32.7115 82.6184 32.2962C80.8914 31.8808 79.5444 31.4308 78.6464 30.9115C78.0937 30.6 77.7138 30.2538 77.5757 29.9423C77.4375 29.6308 77.3684 29.2846 77.3684 28.9731V27.2077C77.3684 26.4808 77.6447 26.1346 78.1628 26.1346C78.3701 26.1346 78.5773 26.1692 78.7845 26.2385C78.9918 26.3077 79.3026 26.4462 79.648 26.5846C80.8224 27.1038 82.1003 27.5192 83.4474 27.7962C84.8289 28.0731 86.176 28.2115 87.5576 28.2115C89.7335 28.2115 91.426 27.8308 92.6003 27.0692C93.7747 26.3077 94.3964 25.2 94.3964 23.7808C94.3964 22.8115 94.0855 22.0154 93.4638 21.3577C92.8421 20.7 91.6678 20.1115 89.9753 19.5577L84.9671 18C82.4457 17.2038 80.5806 16.0269 79.4408 14.4692C78.301 12.9462 77.7138 11.25 77.7138 9.45C77.7138 7.99615 78.0247 6.71538 78.6464 5.60769C79.2681 4.5 80.097 3.53077 81.1332 2.76923C82.1694 1.97308 83.3437 1.38461 84.7253 0.969229C86.1069 0.553845 87.5576 0.380768 89.0773 0.380768C89.8372 0.380768 90.6316 0.415383 91.3914 0.519229C92.1859 0.623076 92.9112 0.761537 93.6365 0.899999C94.3273 1.07308 94.9835 1.24615 95.6053 1.45384C96.227 1.66154 96.7105 1.86923 97.0559 2.07692C97.5395 2.35384 97.8849 2.63077 98.0921 2.94231C98.2993 3.21923 98.403 3.6 98.403 4.08461V5.71154C98.403 6.43846 98.1266 6.81923 97.6086 6.81923C97.3322 6.81923 96.8832 6.68077 96.296 6.40384C94.3273 5.50384 92.1168 5.05384 89.6645 5.05384C87.6957 5.05384 86.1414 5.36538 85.0707 6.02308C84 6.68077 83.4474 7.68461 83.4474 9.10384C83.4474 10.0731 83.7928 10.9038 84.4836 11.5615C85.1743 12.2192 86.4523 12.8769 88.2829 13.4654L93.1875 15.0231C95.6743 15.8192 97.4704 16.9269 98.5411 18.3462C99.6118 19.7654 100.13 21.3923 100.13 23.1923C100.13 24.6808 99.8191 26.0308 99.2319 27.2077C98.6102 28.3846 97.7812 29.4231 96.7105 30.2538C95.6398 31.1192 94.3618 31.7423 92.8766 32.1923C91.3224 32.6769 89.699 32.9192 87.9375 32.9192Z" fill="white"/>
<path fill-rule="evenodd" clip-rule="evenodd" d="M94.4655 49.7423C83.102 58.1538 66.5921 62.6192 52.3964 62.6192C32.5016 62.6192 14.5757 55.2462 1.03618 42.9923C-0.0345412 42.0231 0.932564 40.7077 2.21052 41.4692C16.8553 49.9846 34.9194 55.1423 53.6053 55.1423C66.2122 55.1423 80.0625 52.5115 92.8076 47.1115C94.7073 46.2462 96.3306 48.3577 94.4655 49.7423Z" fill="#FF9900"/>
<path fill-rule="evenodd" clip-rule="evenodd" d="M99.1973 44.3423C97.7467 42.4731 89.5954 43.4423 85.8996 43.8923C84.7944 44.0308 84.6217 43.0616 85.6233 42.3346C92.1168 37.7654 102.789 39.0808 104.033 40.6039C105.276 42.1616 103.687 52.8577 97.6085 57.9808C96.676 58.7769 95.7779 58.3616 96.1924 57.3231C97.574 53.8962 100.648 46.1769 99.1973 44.3423Z" fill="#FF9900"/>
</g>
<defs>
<clipPath id="clip0_80_413">
<rect width="105" height="63" fill="white"/>
</clipPath>
</defs>
</svg>
