<svg width="100" height="101" viewBox="0 0 100 101" fill="none" xmlns="http://www.w3.org/2000/svg">
<path d="M58.6045 42.3691L78.9064 31.4338L80.3876 34.1838L60.0857 45.1191L58.6045 42.3691Z" fill="#6F3AF1"/>
<path d="M55.522 81.3975L78.9501 68.8865L80.422 71.6428L56.9938 84.1537L55.522 81.3975Z" fill="#6F3AF1"/>
<path d="M57.0269 15.437L58.5769 12.7245L80.4464 25.2214L78.8964 27.9339L57.0269 15.437Z" fill="#6F3AF1"/>
<path d="M48.4375 59.377H51.5625V79.6895H48.4375V59.377Z" fill="#6F3AF1"/>
<path d="M48.4375 20.3145H51.5625V37.502H48.4375V20.3145Z" fill="#6F3AF1"/>
<path d="M84.375 35.9395H87.5V60.9395H84.375V35.9395Z" fill="#6F3AF1"/>
<path d="M12.5 35.9395H15.625V60.9395H12.5V35.9395Z" fill="#6F3AF1"/>
<path d="M19.53 25.2065L41.3996 12.7097L42.9496 15.4222L21.08 27.919L19.53 25.2065Z" fill="#6F3AF1"/>
<path d="M19.5576 34.2021L21.0389 31.4521L41.3407 42.3875L39.8595 45.1375L19.5576 34.2021Z" fill="#6F3AF1"/>
<path d="M58.606 54.5303L60.0872 51.7803L80.3891 62.7156L78.9078 65.4656L58.606 54.5303Z" fill="#6F3AF1"/>
<path d="M19.4978 62.749L39.818 50.2516L41.4555 52.9141L21.1353 65.4115L19.4978 62.749Z" fill="#6F3AF1"/>
<path d="M19.5679 71.7295L21.0397 68.9732L44.4679 81.4842L42.996 84.2404L19.5679 71.7295Z" fill="#6F3AF1"/>
<path d="M76.5625 25.002V34.377L85.9375 39.0645V29.6895L76.5625 25.002Z" fill="#A783FF"/>
<path d="M85.9375 29.6895V39.0645L95.3125 34.377V25.002L85.9375 29.6895Z" fill="#006DF0"/>
<path d="M4.6875 62.502V71.877L14.0625 76.5645V67.1895L4.6875 62.502Z" fill="#A783FF"/>
<path d="M14.0625 67.1895V76.5645L23.4375 71.877V62.502L14.0625 67.1895Z" fill="#006DF0"/>
<path d="M85.9375 76.5645L95.3125 71.877V62.502L85.9375 67.1895V76.5645Z" fill="#006DF0"/>
<path d="M4.6875 25.002V34.377L14.0625 39.0645V29.6895L4.6875 25.002Z" fill="#A783FF"/>
<path d="M14.0625 29.6895V39.0645L23.4375 34.377V25.002L14.0625 29.6895Z" fill="#006DF0"/>
<path d="M40.625 81.252V90.627L50 95.3145V85.9395L40.625 81.252Z" fill="#A783FF"/>
<path d="M50 85.9395V95.3145L59.375 90.627V81.252L50 85.9395Z" fill="#006DF0"/>
<path d="M76.5625 62.502V71.877L85.9375 76.5645V67.1895L76.5625 62.502Z" fill="#A783FF"/>
<path d="M59.375 9.37695V18.752L50 23.4395V14.0645L59.375 9.37695Z" fill="#006DF0"/>
<path d="M50 14.0645V23.4395L40.625 18.752V9.37695L50 14.0645Z" fill="#A783FF"/>
<path d="M50 62.502L62.5 54.6895V42.1895L50 50.002V62.502Z" fill="#006DF0"/>
<path d="M37.5 42.1895V54.6895L50 62.502V50.002L37.5 42.1895Z" fill="#A783FF"/>
<path d="M37.5 42.1895L50 50.002L62.5 42.1895L50 34.377L37.5 42.1895Z" fill="#00D7DF"/>
<path d="M95.3125 25.002L85.9375 29.6895L76.5625 25.002L85.9375 20.3145L95.3125 25.002Z" fill="#00D7DF"/>
<path d="M85.9375 67.1895L95.3125 62.502L85.9375 57.8145L76.5625 62.502L85.9375 67.1895Z" fill="#00D7DF"/>
<path d="M59.375 9.37695L50 14.0645L40.625 9.37695L50 4.68945L59.375 9.37695Z" fill="#00D7DF"/>
<path d="M59.375 81.252L50 85.9395L40.625 81.252L50 76.5645L59.375 81.252Z" fill="#00D7DF"/>
<path d="M23.4375 25.002L14.0625 29.6895L4.6875 25.002L14.0625 20.3145L23.4375 25.002Z" fill="#00D7DF"/>
<path d="M23.4375 62.502L14.0625 57.8145L4.6875 62.502L14.0625 67.1895L23.4375 62.502Z" fill="#00D7DF"/>
</svg>
