<svg width="64" height="64" viewBox="0 0 64 64" fill="none" xmlns="http://www.w3.org/2000/svg">
<path d="M28 28V36C28 36.2652 27.8946 36.5196 27.7071 36.7071C27.5196 36.8946 27.2652 37 27 37C26.8255 36.9989 26.6543 36.9522 26.5034 36.8645C26.3525 36.7768 26.2273 36.6511 26.14 36.5L22 31V36C22 36.2652 21.8946 36.5196 21.7071 36.7071C21.5196 36.8946 21.2652 37 21 37C20.7348 37 20.4804 36.8946 20.2929 36.7071C20.1054 36.5196 20 36.2652 20 36V28C20 27.7348 20.1054 27.4804 20.2929 27.2929C20.4804 27.1054 20.7348 27 21 27C21.1745 27.0011 21.3457 27.0478 21.4966 27.1355C21.6475 27.2232 21.7727 27.3489 21.86 27.5L26 33V28C26 27.7348 26.1054 27.4804 26.2929 27.2929C26.4804 27.1054 26.7348 27 27 27C27.2652 27 27.5196 27.1054 27.7071 27.2929C27.8946 27.4804 28 27.7348 28 28Z" fill="#A783FF"/>
<path d="M35 29C35.2652 29 35.5196 28.8946 35.7071 28.7071C35.8946 28.5196 36 28.2652 36 28C36 27.7348 35.8946 27.4804 35.7071 27.2929C35.5196 27.1054 35.2652 27 35 27H31C30.7348 27 30.4804 27.1054 30.2929 27.2929C30.1054 27.4804 30 27.7348 30 28V36C30 36.2652 30.1054 36.5196 30.2929 36.7071C30.4804 36.8946 30.7348 37 31 37C31.2652 37 31.5196 36.8946 31.7071 36.7071C31.8946 36.5196 32 36.2652 32 36V33H35C35.2652 33 35.5196 32.8946 35.7071 32.7071C35.8946 32.5196 36 32.2652 36 32C36 31.7348 35.8946 31.4804 35.7071 31.2929C35.5196 31.1054 35.2652 31 35 31H32V29H35Z" fill="#A783FF"/>
<path d="M41 37C41.2652 37 41.5196 36.8946 41.7071 36.7071C41.8946 36.5196 42 36.2652 42 36V29H43C43.2652 29 43.5196 28.8946 43.7071 28.7071C43.8946 28.5196 44 28.2652 44 28C44 27.7348 43.8946 27.4804 43.7071 27.2929C43.5196 27.1054 43.2652 27 43 27H39C38.7348 27 38.4804 27.1054 38.2929 27.2929C38.1054 27.4804 38 27.7348 38 28C38 28.2652 38.1054 28.5196 38.2929 28.7071C38.4804 28.8946 38.7348 29 39 29H40V36C40 36.2652 40.1054 36.5196 40.2929 36.7071C40.4804 36.8946 40.7348 37 41 37Z" fill="#A783FF"/>
<path d="M8 16H4V20H8V16Z" fill="#A783FF"/>
<path d="M59 50H55V54H59V50Z" fill="#A783FF"/>
<path d="M56.0001 32.9998C55.1155 33.0027 54.2568 33.2987 53.5584 33.8415C52.86 34.3843 52.3612 35.1433 52.1401 35.9998H48V27.9998H52.1401C52.3834 28.9425 52.9623 29.764 53.7681 30.3104C54.5738 30.8568 55.5512 31.0906 56.5171 30.9679C57.4829 30.8452 58.3708 30.3745 59.0144 29.644C59.658 28.9135 60.013 27.9734 60.013 26.9998C60.013 26.0262 59.658 25.0861 59.0144 24.3556C58.3708 23.6251 57.4829 23.1544 56.5171 23.0317C55.5512 22.909 54.5738 23.1428 53.7681 23.6892C52.9623 24.2356 52.3834 25.0571 52.1401 25.9998H48V25.0698C47.9958 24.1845 47.7565 23.3163 47.3067 22.5537C46.8569 21.7912 46.2128 21.1618 45.44 20.7298L42 18.8298V14.4098L44 12.4098C44.8523 12.9066 45.8566 13.0753 46.8244 12.8842C47.7922 12.6931 48.6569 12.1554 49.2564 11.3719C49.8558 10.5884 50.1487 9.61309 50.08 8.629C50.0113 7.6449 49.5858 6.71971 48.8834 6.02708C48.1809 5.33446 47.2498 4.92203 46.2649 4.86722C45.2799 4.81241 44.3088 5.11897 43.5338 5.72938C42.7589 6.33978 42.2333 7.21205 42.0559 8.18245C41.8784 9.15284 42.0613 10.1546 42.57 10.9998L40.2901 13.2698C40.1949 13.3656 40.1202 13.4797 40.0704 13.6051C40.0205 13.7306 39.9966 13.8648 40 13.9998V17.7198L34.39 14.6098C33.954 14.3752 33.4856 14.2067 33 14.1098V9.8598C33.9427 9.61641 34.7642 9.03757 35.3106 8.23179C35.8571 7.42601 36.0908 6.44861 35.9682 5.4828C35.8455 4.51699 35.3748 3.62907 34.6443 2.98548C33.9138 2.34189 32.9736 1.98682 32 1.98682C31.0265 1.98682 30.0863 2.34189 29.3558 2.98548C28.6253 3.62907 28.1546 4.51699 28.0319 5.4828C27.9093 6.44861 28.143 7.42601 28.6894 8.23179C29.2359 9.03757 30.0574 9.61641 31 9.8598V14.1098C30.5129 14.2063 30.0439 14.3783 29.61 14.6198L24 17.7198V13.9998C24.0008 13.8682 23.9756 13.7377 23.9258 13.6159C23.8761 13.4941 23.8027 13.3832 23.71 13.2898L21.43 10.9998C21.931 10.1507 22.1051 9.14806 21.9196 8.1798C21.7342 7.21154 21.2019 6.34418 20.4226 5.74033C19.6433 5.13648 18.6705 4.83762 17.6866 4.89977C16.7027 4.96192 15.7753 5.38082 15.0782 6.07793C14.3811 6.77504 13.9622 7.70249 13.9 8.68639C13.8379 9.67029 14.1367 10.6431 14.7406 11.4224C15.3444 12.2017 16.2118 12.7339 17.18 12.9194C18.1483 13.1049 19.151 12.9308 20 12.4298L22 14.4298V18.8498L19.14 20.4398C18.9093 20.5724 18.7407 20.7912 18.6713 21.0482C18.6019 21.3051 18.6374 21.5791 18.77 21.8098C18.9027 22.0405 19.1215 22.2092 19.3784 22.2785C19.6353 22.3479 19.9093 22.3124 20.14 22.1798L30.61 16.3898C31.0491 16.1517 31.5406 16.0271 32.04 16.0271C32.5395 16.0271 33.031 16.1517 33.47 16.3898L44.4701 22.4998C44.9276 22.7569 45.3097 23.1296 45.5782 23.5805C45.8466 24.0315 45.9921 24.545 46 25.0698V38.9298C45.9966 39.457 45.8543 39.974 45.5875 40.4287C45.3206 40.8834 44.9386 41.2597 44.48 41.5198L33.48 47.6298C33.041 47.8679 32.5495 47.9925 32.05 47.9925C31.5506 47.9925 31.0591 47.8679 30.62 47.6298L19.62 41.5198C19.1428 41.2728 18.7407 40.9021 18.4557 40.4465C18.1707 39.9908 18.0133 39.467 18 38.9298V25.0698C17.9952 24.9182 18.012 24.7666 18.05 24.6198C18.1084 24.3546 18.059 24.0771 17.9127 23.8483C17.7664 23.6195 17.5353 23.4581 17.27 23.3998C17.0048 23.3415 16.7273 23.3909 16.4985 23.5371C16.2697 23.6834 16.1084 23.9146 16.05 24.1798C15.9884 24.4724 15.9582 24.7708 15.96 25.0698V25.9998H11.86C11.6167 25.0571 11.0378 24.2356 10.232 23.6892C9.42626 23.1428 8.44886 22.909 7.48304 23.0317C6.51723 23.1544 5.62931 23.6251 4.98572 24.3556C4.34213 25.0861 3.98706 26.0262 3.98706 26.9998C3.98706 27.9734 4.34213 28.9135 4.98572 29.644C5.62931 30.3745 6.51723 30.8452 7.48304 30.9679C8.44886 31.0906 9.42626 30.8568 10.232 30.3104C11.0378 29.764 11.6167 28.9425 11.86 27.9998H16V35.9998H11.86C11.6167 35.0571 11.0378 34.2356 10.232 33.6892C9.42626 33.1428 8.44886 32.909 7.48304 33.0317C6.51723 33.1544 5.62931 33.6251 4.98572 34.3556C4.34213 35.0861 3.98706 36.0262 3.98706 36.9998C3.98706 37.9734 4.34213 38.9135 4.98572 39.644C5.62931 40.3745 6.51723 40.8452 7.48304 40.9679C8.44886 41.0906 9.42626 40.8568 10.232 40.3104C11.0378 39.764 11.6167 38.9425 11.86 37.9998H16V38.9298C16.0043 39.8151 16.2436 40.6833 16.6934 41.4459C17.1432 42.2084 17.7873 42.8378 18.56 43.2698L22 45.1698V49.5898L20 51.5898C19.1478 51.093 18.1435 50.9243 17.1757 51.1154C16.2079 51.3065 15.3431 51.8442 14.7437 52.6277C14.1443 53.4112 13.8514 54.3865 13.9201 55.3706C13.9888 56.3547 14.4143 57.2799 15.1167 57.9725C15.8192 58.6651 16.7503 59.0776 17.7352 59.1324C18.7202 59.1872 19.6913 58.8806 20.4663 58.2702C21.2412 57.6598 21.7668 56.7876 21.9442 55.8172C22.1217 54.8468 21.9388 53.845 21.43 52.9998L23.71 50.7298C23.8052 50.634 23.8799 50.5199 23.9297 50.3945C23.9796 50.269 24.0035 50.1348 24 49.9998V46.2798L29.61 49.3898C30.0461 49.6244 30.5145 49.7929 31 49.8898V54.1398C30.0574 54.3832 29.2359 54.962 28.6894 55.7678C28.143 56.5736 27.9093 57.551 28.0319 58.5168C28.1546 59.4826 28.6253 60.3705 29.3558 61.0141C30.0863 61.6577 31.0265 62.0128 32 62.0128C32.9736 62.0128 33.9138 61.6577 34.6443 61.0141C35.3748 60.3705 35.8455 59.4826 35.9682 58.5168C36.0908 57.551 35.8571 56.5736 35.3106 55.7678C34.7642 54.962 33.9427 54.3832 33 54.1398V49.8898C33.4871 49.7934 33.9562 49.6213 34.39 49.3798L40 46.2798V49.9998C39.9993 50.1314 40.0245 50.2619 40.0743 50.3837C40.124 50.5055 40.1974 50.6164 40.2901 50.7098L42.57 52.9998C42.0691 53.8489 41.895 54.8515 42.0804 55.8198C42.2659 56.7881 42.7982 57.6554 43.5775 58.2593C44.3568 58.8631 45.3296 59.162 46.3135 59.0998C47.2974 59.0377 48.2248 58.6188 48.9219 57.9217C49.619 57.2246 50.0379 56.2971 50.1001 55.3132C50.1622 54.3293 49.8634 53.3565 49.2595 52.5772C48.6557 51.7979 47.7883 51.2657 46.82 51.0802C45.8518 50.8947 44.8491 51.0688 44 51.5698L42 49.5698V45.1698L45.45 43.2598C46.2194 42.8273 46.8606 42.1989 47.3085 41.4384C47.7564 40.6779 47.995 39.8124 48 38.9298V37.9998H52.1401C52.3272 38.7247 52.7141 39.3825 53.2566 39.8985C53.7992 40.4144 54.4756 40.7677 55.209 40.9181C55.9425 41.0686 56.7034 41.0103 57.4052 40.7497C58.1071 40.4891 58.7218 40.0368 59.1793 39.4441C59.6368 38.8515 59.9188 38.1424 59.9932 37.3974C60.0676 36.6524 59.9315 35.9015 59.6002 35.2301C59.269 34.5586 58.756 33.9937 58.1195 33.5994C57.4831 33.2051 56.7487 32.9974 56.0001 32.9998ZM56.0001 24.9998C56.3956 24.9998 56.7823 25.1171 57.1112 25.3369C57.4401 25.5566 57.6964 25.869 57.8478 26.2344C57.9992 26.5999 58.0388 27.002 57.9616 27.39C57.8845 27.7779 57.694 28.1343 57.4143 28.414C57.1346 28.6937 56.7782 28.8842 56.3902 28.9614C56.0023 29.0385 55.6001 28.9989 55.2347 28.8476C54.8692 28.6962 54.5569 28.4398 54.3371 28.1109C54.1173 27.782 54.0001 27.3954 54.0001 26.9998C54.0001 26.4694 54.2108 25.9607 54.5858 25.5856C54.9609 25.2105 55.4696 24.9998 56.0001 24.9998ZM46 6.9998C46.3285 7.00006 46.6519 7.08123 46.9416 7.23613C47.2312 7.39103 47.4783 7.6149 47.6609 7.88795C47.8435 8.161 47.9561 8.47483 47.9886 8.8017C48.0212 9.12857 47.9727 9.45843 47.8475 9.76212C47.7223 10.0658 47.5242 10.334 47.2707 10.5429C47.0173 10.7519 46.7163 10.8952 46.3943 10.9602C46.0723 11.0253 45.7392 11.01 45.4246 10.9157C45.1099 10.8214 44.8233 10.6511 44.59 10.4198C44.3086 10.1407 44.1165 9.78418 44.038 9.39562C43.9596 9.00706 43.9983 8.60396 44.1494 8.23748C44.3005 7.87101 44.5571 7.5577 44.8866 7.33733C45.2161 7.11697 45.6037 6.99948 46 6.9998ZM16 8.9998C16.0003 8.67131 16.0815 8.34795 16.2364 8.05828C16.3913 7.7686 16.6151 7.52155 16.8882 7.33893C17.1612 7.15632 17.4751 7.04377 17.8019 7.01123C18.1288 6.9787 18.4587 7.02717 18.7624 7.15238C19.066 7.27758 19.3342 7.47566 19.5432 7.72912C19.7522 7.98257 19.8955 8.28359 19.9605 8.60558C20.0255 8.92757 20.0102 9.26061 19.9159 9.57529C19.8217 9.88996 19.6514 10.1766 19.42 10.4098C19.1409 10.6912 18.7844 10.8834 18.3959 10.9618C18.0073 11.0403 17.6042 11.0015 17.2377 10.8504C16.8713 10.6993 16.5579 10.4427 16.3376 10.1132C16.1172 9.78375 15.9997 9.3962 16 8.9998ZM30 5.9998C30 5.60424 30.1173 5.21756 30.3371 4.88866C30.5569 4.55976 30.8692 4.30342 31.2347 4.15204C31.6001 4.00067 32.0023 3.96106 32.3902 4.03823C32.7782 4.1154 33.1346 4.30588 33.4143 4.58559C33.694 4.86529 33.8844 5.22166 33.9616 5.60962C34.0388 5.99758 33.9992 6.39971 33.8478 6.76517C33.6964 7.13062 33.4401 7.44298 33.1112 7.66274C32.7823 7.8825 32.3956 7.9998 32 7.9998C31.4696 7.9998 30.9609 7.78909 30.5858 7.41401C30.2108 7.03894 30 6.53023 30 5.9998ZM8.00004 28.9998C7.60448 28.9998 7.2178 28.8825 6.8889 28.6627C6.56001 28.443 6.30366 28.1306 6.15228 27.7652C6.00091 27.3997 5.9613 26.9976 6.03847 26.6096C6.11564 26.2217 6.30613 25.8653 6.58583 25.5856C6.86554 25.3059 7.2219 25.1154 7.60986 25.0382C7.99783 24.9611 8.39996 25.0007 8.76541 25.152C9.13086 25.3034 9.44322 25.5598 9.66298 25.8887C9.88275 26.2176 10 26.6042 10 26.9998C10 27.5302 9.78933 28.0389 9.41426 28.414C9.03919 28.7891 8.53048 28.9998 8.00004 28.9998ZM8.00004 38.9998C7.60448 38.9998 7.2178 38.8825 6.8889 38.6627C6.56001 38.443 6.30366 38.1306 6.15228 37.7652C6.00091 37.3997 5.9613 36.9976 6.03847 36.6096C6.11564 36.2217 6.30613 35.8653 6.58583 35.5856C6.86554 35.3059 7.2219 35.1154 7.60986 35.0382C7.99783 34.9611 8.39996 35.0007 8.76541 35.152C9.13086 35.3034 9.44322 35.5598 9.66298 35.8887C9.88275 36.2176 10 36.6042 10 36.9998C10 37.5302 9.78933 38.0389 9.41426 38.414C9.03919 38.7891 8.53048 38.9998 8.00004 38.9998ZM18 56.9998C17.6716 56.9995 17.3482 56.9184 17.0585 56.7635C16.7688 56.6086 16.5218 56.3847 16.3392 56.1117C16.1566 55.8386 16.044 55.5248 16.0115 55.1979C15.9789 54.871 16.0274 54.5412 16.1526 54.2375C16.2778 53.9338 16.4759 53.6656 16.7294 53.4567C16.9828 53.2477 17.2838 53.1044 17.6058 53.0394C17.9278 52.9744 18.2609 52.9897 18.5755 53.0839C18.8902 53.1782 19.1768 53.3485 19.41 53.5798C19.6915 53.859 19.8836 54.2154 19.9621 54.604C20.0405 54.9925 20.0018 55.3956 19.8507 55.7621C19.6996 56.1286 19.443 56.4419 19.1135 56.6623C18.784 56.8826 18.3964 57.0001 18 56.9998ZM34 57.9998C34 58.3954 33.8828 58.782 33.663 59.1109C33.4432 59.4398 33.1309 59.6962 32.7654 59.8476C32.4 59.9989 31.9978 60.0386 31.6099 59.9614C31.2219 59.8842 30.8655 59.6937 30.5858 59.414C30.3061 59.1343 30.1156 58.778 30.0385 58.39C29.9613 58.002 30.0009 57.5999 30.1523 57.2344C30.3037 56.869 30.56 56.5566 30.8889 56.3369C31.2178 56.1171 31.6045 55.9998 32 55.9998C32.5305 55.9998 33.0392 56.2105 33.4143 56.5856C33.7893 56.9607 34 57.4694 34 57.9998ZM48 54.9998C47.9998 55.3283 47.9186 55.6517 47.7637 55.9413C47.6088 56.231 47.3849 56.4781 47.1119 56.6607C46.8388 56.8433 46.525 56.9558 46.1981 56.9884C45.8713 57.0209 45.5414 56.9724 45.2377 56.8472C44.934 56.722 44.6659 56.5239 44.4569 56.2705C44.2479 56.017 44.1046 55.716 44.0396 55.394C43.9746 55.072 43.9899 54.739 44.0842 54.4243C44.1784 54.1096 44.3487 53.823 44.5801 53.5898C44.8592 53.3084 45.2157 53.1162 45.6042 53.0378C45.9928 52.9593 46.3959 52.9981 46.7624 53.1492C47.1288 53.3003 47.4422 53.5569 47.6625 53.8864C47.8829 54.2159 48.0004 54.6034 48 54.9998ZM56.0001 38.9998C55.6045 38.9998 55.2178 38.8825 54.8889 38.6627C54.56 38.443 54.3037 38.1306 54.1523 37.7652C54.0009 37.3997 53.9613 36.9976 54.0385 36.6096C54.1157 36.2217 54.3061 35.8653 54.5858 35.5856C54.8655 35.3059 55.2219 35.1154 55.6099 35.0382C55.9978 34.9611 56.4 35.0007 56.7654 35.152C57.1309 35.3034 57.4432 35.5598 57.663 35.8887C57.8828 36.2176 58.0001 36.6042 58.0001 36.9998C58.0001 37.5302 57.7893 38.0389 57.4143 38.414C57.0392 38.7891 56.5305 38.9998 56.0001 38.9998Z" fill="#A783FF"/>
</svg>
