<svg width="77" height="77" viewBox="0 0 77 77" fill="none" xmlns="http://www.w3.org/2000/svg">
<g clip-path="url(#clip0_473_785)">
<path d="M62.5263 51.2678H15.4817V3.36038C15.4817 1.5045 16.9862 0 18.8421 0H68.2388L62.5263 6.02277V51.2678Z" fill="#E0E9EF"/>
<path d="M32.808 30.1633C30.1331 30.1635 28.9808 28.2232 28.4561 26.9588C26.1642 28.0813 24.1935 28.5455 24.0209 28.585C23.5777 28.6859 23.1374 28.409 23.0364 27.9664C22.9353 27.5238 23.2124 27.0829 23.655 26.982C23.7103 26.9691 25.6472 26.5079 27.8535 25.4078C26.5576 21.9535 27.9538 18.06 31.1961 16.3424C33.4879 14.9695 36.4007 17.5044 35.445 19.9707C34.457 22.8246 32.1787 24.8232 29.9134 26.1717C30.4812 27.6268 31.3987 28.947 33.9098 28.3865C34.8912 28.1673 35.6269 27.3485 35.6987 26.395C35.702 26.3516 35.704 26.3073 35.7047 26.2623C35.7101 25.8889 35.9663 25.5659 36.3287 25.476C36.6914 25.3867 37.0687 25.552 37.2478 25.8793C37.5985 26.5158 38.851 28.3146 39.9561 28.2339C40.7414 28.1749 41.5637 27.0864 42.2712 25.1692C42.3797 24.8753 42.6456 24.6687 42.957 24.6361C43.2688 24.603 43.5713 24.7509 43.7382 25.0159C44.0776 25.5513 45.2772 27.0611 46.2945 26.9733C46.9286 26.9173 47.581 26.1477 48.1313 24.8058C48.2379 24.546 48.4697 24.3585 48.746 24.3089C49.0222 24.2586 49.305 24.3535 49.4956 24.5598C49.5 24.5646 50.2585 25.3569 51.129 25.3246C51.6104 25.3075 52.0804 25.0232 52.526 24.4797C52.8139 24.1285 53.3317 24.0772 53.683 24.365C54.0342 24.6527 54.0855 25.1708 53.7978 25.522C53.035 26.4525 52.1511 26.9392 51.1704 26.9683C50.3805 26.9933 49.698 26.7092 49.1944 26.4011C48.4438 27.7755 47.5182 28.518 46.4346 28.6116C45.1334 28.7234 44.0008 27.8475 43.2569 27.0551C42.3772 28.8561 41.3297 29.7815 40.0754 29.8739C38.7339 29.9711 37.5939 29.0273 36.8279 28.1331C36.2871 29.0511 35.3671 29.746 34.2679 29.9915C33.737 30.1098 33.2513 30.1631 32.808 30.1633ZM31.9638 17.7961C29.5492 19.1183 28.4482 21.9721 29.3116 24.5989C31.2329 23.4138 33.174 21.7568 33.8912 19.4327C34.4662 17.5687 32.7241 17.3798 31.9638 17.7961Z" fill="#9BB6C6"/>
<path d="M54.1254 10.8977H24.0604C23.6064 10.8977 23.2383 10.5295 23.2383 10.0755C23.2383 9.62157 23.6064 9.25342 24.0604 9.25342H54.1254C54.5794 9.25342 54.9476 9.62157 54.9476 10.0755C54.9476 10.5295 54.5794 10.8977 54.1254 10.8977Z" fill="#9BB6C6"/>
<path d="M73.8747 5.6538C73.8747 2.53134 71.3344 0 68.2006 0C65.0668 0 62.5264 2.53118 62.5264 5.6538V13.4159H73.8749V5.6538H73.8747Z" fill="#9BB6C6"/>
<path d="M58.9267 61.4011L54.0458 57.2913L53.0091 54.6402L49.3113 45.2641L36.221 43.1315L34.3081 41.6829C34.3081 41.6829 29.9756 38.4844 25.7718 38.0069C24.0576 37.8122 22.3961 37.2641 20.9217 36.3684C19.3473 35.4119 17.8762 34.0202 17.984 32.1885L16.0866 32.7421L1.90479 48.2087L3.10345 48.8865C5.21896 50.0827 7.00907 51.7787 8.32777 53.8428L8.37907 53.923C9.72293 56.025 11.5878 57.7436 13.7923 58.9115L15.6617 59.9019L29.5914 70.7923L36.9547 76.4188C38.1884 77.3968 39.9769 77.0999 41.0073 75.8274C42.143 74.4248 41.9279 72.3678 40.5277 71.23C39.1274 70.0922 40.5277 71.2302 40.5277 71.23L42.9086 73.1579C44.2768 74.2658 46.2839 74.055 47.3918 72.687C48.4997 71.319 48.2886 69.3118 46.9204 68.2037L49.5281 70.3155C50.8962 71.4234 52.9034 71.2126 54.0113 69.8446C55.1192 68.4765 54.9081 66.4694 53.5399 65.3613L54.8073 66.3877C56.1952 67.5117 58.2316 67.2979 59.356 65.9103L59.3563 65.9098C60.4654 64.541 60.2745 62.536 58.9267 61.4011Z" fill="#FFDECF"/>
<path d="M56.4876 64.7075L55.2202 63.6812L48.7714 58.459L47.0435 60.1005L53.5399 65.3614L54.8073 66.3878C56.1953 67.5118 58.2317 67.298 59.356 65.9105L59.3564 65.91C59.5454 65.6765 59.6939 65.4236 59.8082 65.1607C58.7386 65.6227 57.4558 65.4917 56.4876 64.7075Z" fill="#FFC7B3"/>
<path d="M42.2088 69.5498H42.2078L42.2088 69.5508V69.5498Z" fill="#FFDECF"/>
<path d="M38.6348 74.7389L33.6848 70.9562L29.5916 70.7925L36.9549 76.419C38.1886 77.397 39.977 77.1 41.0075 75.8275C41.1969 75.5937 41.3452 75.3405 41.4603 75.0776C40.5317 75.474 39.4596 75.3926 38.6348 74.7389Z" fill="#FFC7B3"/>
<path d="M44.5887 71.4778L42.2078 69.5497L37.5256 65.7056L35.8557 67.3941L40.5277 71.2298L42.9086 73.1579C44.2768 74.2658 46.284 74.055 47.3919 72.6869C47.5821 72.4521 47.7306 72.1974 47.8439 71.9327C46.7933 72.379 45.5376 72.2461 44.5887 71.4778Z" fill="#FFC7B3"/>
<path d="M51.208 68.6356L48.6004 66.5239L43.309 62.4121L41.3357 63.8549L46.9201 68.204L49.5277 70.3158C50.8959 71.4237 52.9031 71.2129 54.011 69.8448C54.2012 69.61 54.3497 69.3553 54.463 69.0906C53.4126 69.5369 52.1569 69.404 51.208 68.6356Z" fill="#FFC7B3"/>
<path d="M15.7461 29.9273L20.6378 33.2264C21.5841 33.8647 21.8319 35.151 21.1904 36.0956L8.68088 54.5174C8.0429 55.4568 6.76613 55.7031 5.82512 55.0684L0.933934 51.7697C-0.0123388 51.1316 -0.260951 49.8464 0.380311 48.9018C3.15221 44.8193 10.1278 34.5462 12.8908 30.4772C13.5288 29.5378 14.8049 29.2926 15.7461 29.9273Z" fill="#F761A6"/>
<path d="M7.13095 47.9116C7.87909 48.4159 8.07673 49.4305 7.57211 50.1778C7.06765 50.9251 6.05199 51.1222 5.30385 50.6179C4.55571 50.1136 4.35807 49.0991 4.86269 48.3517C5.36731 47.6045 6.38281 47.4075 7.13095 47.9116Z" fill="white"/>
<path d="M27.2193 40.769L35.8599 35.4916C37.5954 34.4315 39.718 34.2158 41.6313 34.9046L47.7047 37.0913C48.9617 37.5439 50.3253 37.611 51.6207 37.284L61.3759 34.8214L69.8551 52.4329C69.8551 52.4329 66.5787 59.5856 58.267 60.8458L38.6585 43.9872L33.9851 45.3846L30.947 49.1275C28.7789 51.7986 25.0407 52.5945 21.9723 51.0387C21.0589 50.5756 20.77 49.4093 21.3615 48.5733L26.2292 41.6942C26.4929 41.3218 26.8298 41.0069 27.2193 40.769Z" fill="#FFC7B3"/>
<path d="M62.6902 30.0216L57.5805 32.9712C56.592 33.5418 56.2551 34.8078 56.8291 35.7949L68.0242 55.0451C68.5951 56.0267 69.8516 56.3617 70.8347 55.7941L75.9438 52.8449C76.9323 52.2744 77.2699 51.0096 76.6959 50.0227C74.2153 45.7567 67.9727 35.0216 65.4999 30.7695C64.929 29.7879 63.6733 29.4541 62.6902 30.0216Z" fill="#6262F4"/>
<path d="M70.0309 48.5632C69.2494 49.0139 68.9815 50.0123 69.4329 50.7931C69.8842 51.574 70.8835 51.8414 71.665 51.3907C72.4465 50.94 72.7143 49.9416 72.263 49.1607C71.8116 48.3799 70.8124 48.1125 70.0309 48.5632Z" fill="white"/>
<path d="M25.877 61.0262L20.5486 68.6359C19.5774 70.023 19.9363 71.9372 21.344 72.8784L21.3923 72.9106C22.761 73.8256 24.6105 73.4757 25.5502 72.124L30.8524 64.4976C31.8021 63.1315 31.468 61.2544 30.1051 60.3001L30.0831 60.2847C28.7167 59.328 26.8337 59.6602 25.877 61.0262Z" fill="#FFC7B3"/>
<path d="M23.8641 72.8784C22.4564 71.9372 22.0975 70.0229 23.0687 68.6358L28.3971 61.0262C28.7163 60.5704 29.1395 60.2327 29.6112 60.0166C28.3103 59.4168 26.7275 59.8112 25.8768 61.0262L20.5484 68.6358C19.5771 70.0229 19.9361 71.9372 21.3437 72.8784L21.3921 72.9106C22.2959 73.5148 23.4081 73.5643 24.3309 73.1411C24.1878 73.0752 24.0472 73.0008 23.9122 72.9106L23.8641 72.8784Z" fill="#F9AD95"/>
<path d="M24.173 58.1948C25.5392 59.1514 25.8711 61.0345 24.9145 62.4005L20.5107 68.6898C19.5541 70.056 17.671 70.388 16.3048 69.4314C14.9386 68.4747 14.6066 66.5917 15.5633 65.2257L19.9671 58.9364C20.9237 57.5703 22.8067 57.2382 24.173 58.1948Z" fill="#FFC7B3"/>
<path d="M18.0836 65.2256L22.4874 58.9363C22.8066 58.4805 23.2298 58.1428 23.7015 57.9268C22.4006 57.3269 20.8178 57.7214 19.9671 58.9363L15.5633 65.2256C14.6066 66.5919 14.9386 68.4749 16.3048 69.4313C17.2153 70.0688 18.3541 70.1311 19.2966 69.6993C19.1346 69.6247 18.9763 69.5372 18.8252 69.4313C17.4591 68.4749 17.1271 66.5919 18.0836 65.2256Z" fill="#F9AD95"/>
<path d="M28.9623 67.1156L26.4829 70.6564C25.5263 72.0226 25.8583 73.9054 27.2245 74.8621C28.5907 75.8187 30.4737 75.4867 31.4304 74.1205L33.9097 70.5797C34.8664 69.2135 34.5344 67.3307 33.1682 66.3741C31.8018 65.4174 29.9188 65.7494 28.9623 67.1156Z" fill="#FFC7B3"/>
<path d="M29.7448 74.862C28.3786 73.9054 28.0466 72.0223 29.0033 70.6563L31.4826 67.1155C31.8018 66.6597 32.225 66.322 32.6968 66.106C31.3958 65.5061 29.8131 65.9006 28.9623 67.1155L26.4829 70.6563C25.5263 72.0225 25.8583 73.9054 27.2245 74.862C28.1349 75.4995 29.2737 75.5618 30.2162 75.13C30.0543 75.0554 29.8959 74.9679 29.7448 74.862Z" fill="#F9AD95"/>
<path d="M17.2375 57.6787C15.8713 56.7221 13.9883 57.0541 13.0317 58.4203L11.5147 60.5868C10.558 61.953 10.89 63.8358 12.2562 64.7925C13.6225 65.7491 15.5055 65.4171 16.4621 64.0509L17.9791 61.8844C18.9357 60.5184 18.6038 58.6354 17.2375 57.6787Z" fill="#FFC7B3"/>
<path d="M14.7766 64.7929C13.4103 63.8362 13.0784 61.9532 14.035 60.5872L15.552 58.4207C15.8712 57.9649 16.2944 57.6272 16.7661 57.4111C15.4652 56.8113 13.8824 57.2058 13.0317 58.4207L11.5147 60.5872C10.558 61.9534 10.89 63.8362 12.2562 64.7929C13.1667 65.4304 14.3055 65.4927 15.248 65.0609C15.086 64.9861 14.9278 64.8986 14.7766 64.7929Z" fill="#F9AD95"/>
</g>
<defs>
<clipPath id="clip0_473_785">
<rect width="77" height="77" fill="white"/>
</clipPath>
</defs>
</svg>
