<svg width="61" height="71" viewBox="0 0 61 71" fill="none" xmlns="http://www.w3.org/2000/svg">
<path d="M3.92458 3.37099H50.3762V34.5345H53.6107V0.137207H0.690796V63.6407H29.7963V60.4069H3.92458V3.37099Z" fill="#A783FF"/>
<path d="M56.7734 42.9684C54.1613 40.3882 50.7372 39.0981 47.3137 39.0981C43.8902 39.0981 40.4667 40.3882 37.8545 42.9684C32.631 48.1277 32.631 56.4949 37.8545 61.6547L47.3137 70.9971L56.7734 61.6547C61.9966 56.4949 61.9966 48.1277 56.7734 42.9684ZM55.282 60.181L47.3137 68.0506L39.3463 60.1815C34.9529 55.8417 34.9529 48.7809 39.3463 44.4416C41.4743 42.3396 44.304 41.1818 47.3137 41.1818C50.3235 41.1818 53.1534 42.3396 55.2814 44.4416C59.675 48.7808 59.675 55.8417 55.282 60.181Z" fill="#A783FF"/>
<circle cx="47.3138" cy="52.5039" r="5.14499" fill="#A783FF"/>
<path d="M11.2743 12.7788H43.0264V14.9836H11.2743V12.7788ZM11.2743 25.4211H37.7339V27.6259H11.2743V25.4211ZM11.2743 37.0336H27.1504V39.2384H11.2743V37.0336Z" fill="#A783FF"/>
</svg>
