<svg width="100" height="100" viewBox="0 0 100 100" fill="none" xmlns="http://www.w3.org/2000/svg">
<path fill-rule="evenodd" clip-rule="evenodd" d="M6.25 24.9985H43.75V31.2485C43.75 50.8235 51.2 62.7423 70.35 73.7673C71.7625 74.5735 73.375 74.9985 75 74.9985C76.625 74.9985 78.2375 74.5735 79.6687 73.7548C89.1437 68.311 95.7438 62.6298 100 55.911V87.4985C100 90.9485 97.2 93.7485 93.75 93.7485H6.25C2.80625 93.7485 0 90.9485 0 87.4985V31.2485C0 27.8048 2.80625 24.9985 6.25 24.9985Z" fill="#2196F3"/>
<path d="M47 49.5L45 44L44.125 37.4985H0V56.2485H50L47 49.5Z" fill="#14BDC9"/>
<path d="M28.125 74.9985H15.625C13.9 74.9985 12.5 73.5985 12.5 71.8735C12.5 70.1485 13.9 68.7485 15.625 68.7485H28.125C29.85 68.7485 31.25 70.1485 31.25 71.8735C31.25 73.5985 29.85 74.9985 28.125 74.9985Z" fill="#FAFAFA"/>
<path d="M98.1062 15.8796L76.2312 6.50459C75.4375 6.16709 74.5562 6.16709 73.7625 6.50459L51.8875 15.8796C50.7438 16.3671 50 17.4983 50 18.7483V31.2483C50 48.4421 56.3563 58.4921 73.4438 68.3358C73.925 68.6108 74.4625 68.7483 75 68.7483C75.5375 68.7483 76.075 68.6108 76.5562 68.3358C93.6437 58.5171 100 48.4671 100 31.2483V18.7483C100 17.4983 99.2562 16.3671 98.1062 15.8796Z" fill="#009688"/>
<path d="M71.8751 46.8734C71.8313 46.8734 71.7813 46.8734 71.7438 46.8734C70.7501 46.8296 69.8313 46.3171 69.2751 45.4859L63.0251 36.1109C62.0688 34.6734 62.4563 32.7359 63.8938 31.7796C65.3188 30.8296 67.2626 31.2046 68.2251 32.6484L72.1063 38.4671L81.9313 26.1796C83.0126 24.8359 84.9813 24.6234 86.3251 25.6921C87.6751 26.7734 87.8876 28.7359 86.8126 30.0859L74.3126 45.7109C73.7188 46.4421 72.8188 46.8734 71.8751 46.8734Z" fill="#FAFAFA"/>
</svg>
