<svg width="76" height="68" viewBox="0 0 76 68" fill="none" xmlns="http://www.w3.org/2000/svg">
<path d="M12.9575 32.9331H6.02419C2.93329 32.9331 0.424194 35.4422 0.424194 38.5331V48.2907C0.424194 50.2301 1.98783 51.7937 3.92722 51.7937H4.90904V66.5331C4.90904 67.3089 5.53935 67.9392 6.3151 67.9392H12.6787C13.4545 67.9392 14.0848 67.3089 14.0848 66.5331V51.8058H15.0666C17.006 51.8058 18.5696 50.2422 18.5696 48.3028V38.5452C18.5575 35.4422 16.0484 32.9331 12.9575 32.9331Z" fill="#4E6575"/>
<path opacity="0.15" d="M13.9636 45.527H18.5697V38.5331C18.5697 35.4422 16.0606 32.9331 12.9697 32.9331H7.76965V39.3331C7.76965 42.7513 10.5454 45.527 13.9636 45.527Z" fill="white"/>
<path d="M29.6 24.5938H21.0182C17.1879 24.5938 14.0848 27.6968 14.0848 31.5271V43.6119C14.0848 46.0119 16.0242 47.9513 18.4242 47.9513H19.6485V66.1938C19.6485 67.1513 20.4242 67.9271 21.3818 67.9271H29.2606C30.2182 67.9271 30.9939 67.1513 30.9939 66.1938V47.9634H32.2182C34.6182 47.9634 36.5576 46.0241 36.5576 43.6241V31.5392C36.5454 27.7089 33.4303 24.5938 29.6 24.5938Z" fill="#EF4A51"/>
<path d="M25.309 24.6059C29.0646 24.6059 32.109 21.5614 32.109 17.8059C32.109 14.0503 29.0646 11.0059 25.309 11.0059C21.5535 11.0059 18.509 14.0503 18.509 17.8059C18.509 21.5614 21.5535 24.6059 25.309 24.6059Z" fill="#E2E2E2"/>
<path d="M9.49091 32.9335C12.5235 32.9335 14.9818 30.4751 14.9818 27.4426C14.9818 24.41 12.5235 21.9517 9.49091 21.9517C6.45836 21.9517 4 24.41 4 27.4426C4 30.4751 6.45836 32.9335 9.49091 32.9335Z" fill="#E2E2E2"/>
<path opacity="0.15" d="M29.3454 38.6908H36.5454V31.5393C36.5454 27.709 33.4424 24.606 29.6121 24.606H22.4242V31.7696C22.4242 35.5878 25.5151 38.6908 29.3454 38.6908Z" fill="white"/>
<path d="M49.503 16.2666H39.2726C34.703 16.2666 31.006 19.9757 31.006 24.5333V38.9454C31.006 41.806 33.3211 44.1211 36.1817 44.1211H37.6363V65.8787C37.6363 67.0181 38.5575 67.9515 39.709 67.9515H49.103C50.2423 67.9515 51.1757 67.0302 51.1757 65.8787V44.1211H52.6302C55.4908 44.1211 57.806 41.806 57.806 38.9454V24.5333C57.7696 19.9636 54.0727 16.2666 49.503 16.2666Z" fill="#7CB5E8"/>
<path d="M44.3879 16.2545C48.8597 16.2545 52.4848 12.6294 52.4848 8.15752C52.4848 3.68568 48.8597 0.0605469 44.3879 0.0605469C39.916 0.0605469 36.2909 3.68568 36.2909 8.15752C36.2909 12.6294 39.916 16.2545 44.3879 16.2545Z" fill="#E2E2E2"/>
<path opacity="0.15" d="M49.503 16.2666H41.2242V23.4302C41.2242 27.2605 44.3273 30.3515 48.1455 30.3515H57.7697V24.5333C57.7697 19.9636 54.0727 16.2666 49.503 16.2666Z" fill="white"/>
<path opacity="0.15" d="M44.3878 0.0605469C43.1151 0.0605469 41.9272 0.363577 40.8484 0.884789C41.2241 2.49691 42.6666 3.69691 44.3878 3.69691C46.8484 3.69691 48.8484 5.69691 48.8484 8.15752C48.8484 9.87873 50.0484 11.3212 51.6605 11.6969C52.1817 10.6302 52.4848 9.43024 52.4848 8.15752C52.4848 3.68479 48.8605 0.0605469 44.3878 0.0605469Z" fill="white"/>
<path d="M75.5757 46.7998V63.0907C75.5757 65.7695 73.406 67.9392 70.7272 67.9392H56C53.3212 67.9392 51.1515 65.7695 51.1515 63.0907V46.7998C51.1515 44.121 53.3212 41.9513 56 41.9513H57.3091V38.3149H69.4182V41.9513H70.7272C73.406 41.9513 75.5757 44.121 75.5757 46.7998Z" fill="#FFAB03"/>
<path d="M54.5818 32.2544H72.1454V38.315H54.5818V32.2544Z" fill="#4E6575"/>
<path opacity="0.15" d="M49.503 16.2666H45.1636C45.1636 18.3757 46.8727 20.0848 48.9818 20.0848H52.5211C53.5636 20.0848 54.4121 20.9333 54.4121 21.9757C54.4121 23.8302 55.9151 25.3333 57.7696 25.3333V24.5333C57.7696 19.9636 54.0727 16.2666 49.503 16.2666Z" fill="white"/>
<path opacity="0.15" d="M62.703 32.2543V33.2119C62.703 34.024 63.3575 34.6786 64.1697 34.6786H68.2424C69.0545 34.6786 69.7091 35.3331 69.7091 36.1452C69.7091 36.9573 70.3636 37.6119 71.1757 37.6119H72.1333V32.2422H62.703V32.2543Z" fill="white"/>
<path opacity="0.15" d="M75.5757 46.7998C75.5757 44.121 73.406 41.9513 70.7272 41.9513H69.4181V38.3149H60.9696V50.4968C60.9696 54.3271 64.0726 57.418 67.8908 57.418H75.5757V46.7998Z" fill="white"/>
<path d="M63.3696 62.4968C67.721 62.4968 71.2484 58.9694 71.2484 54.618C71.2484 50.2667 67.721 46.7393 63.3696 46.7393C59.0183 46.7393 55.4908 50.2667 55.4908 54.618C55.4908 58.9694 59.0183 62.4968 63.3696 62.4968Z" fill="#EF4A51"/>
<path opacity="0.15" d="M63.3696 46.7393C62.2666 46.7393 61.2121 46.9696 60.2545 47.3817C59.8424 48.3393 59.6121 49.3938 59.6121 50.4968C59.6121 54.8484 63.1393 58.3756 67.4908 58.3756C68.5939 58.3756 69.6484 58.1453 70.606 57.7332C71.0181 56.7756 71.2484 55.7211 71.2484 54.618C71.2484 50.2665 67.7211 46.7393 63.3696 46.7393Z" fill="white"/>
<path opacity="0.15" d="M71.1029 53.1029C70.509 49.9877 67.9999 47.4787 64.8848 46.8847C64.3635 46.7877 63.8545 46.7393 63.3575 46.7393C61.0666 46.7393 61.0181 50.3393 63.309 50.3756H63.3575C65.6969 50.3756 67.5999 52.2787 67.5999 54.618V54.6665C67.6363 56.9574 71.2363 56.909 71.2363 54.618C71.2484 54.1211 71.1999 53.612 71.1029 53.1029Z" fill="white"/>
<path d="M63.3696 53.7091C62.8726 53.7091 62.4726 53.3091 62.4726 52.8121C62.4726 52.3151 62.8726 51.9151 63.3696 51.9151C63.8665 51.9151 64.2665 52.3151 64.2665 52.8121C64.2665 53.3091 64.6787 53.7212 65.1756 53.7212C65.6726 53.7212 66.0847 53.3091 66.0847 52.8121C66.0847 51.6363 65.3332 50.6424 64.2787 50.2666V49.7333C64.2787 49.2363 63.8665 48.8242 63.3696 48.8242C62.8726 48.8242 62.4605 49.2363 62.4605 49.7333V50.2666C61.4181 50.6424 60.6544 51.6363 60.6544 52.8121C60.6544 54.303 61.8665 55.5272 63.3696 55.5272C63.8665 55.5272 64.2665 55.9272 64.2665 56.4242C64.2665 56.9212 63.8665 57.3212 63.3696 57.3212C62.8726 57.3212 62.4726 56.9212 62.4726 56.4242C62.4726 55.9272 62.0605 55.5151 61.5635 55.5151C61.0665 55.5151 60.6544 55.9272 60.6544 56.4242C60.6544 57.6 61.4059 58.5939 62.4605 58.9697V59.503C62.4605 60 62.8726 60.4121 63.3696 60.4121C63.8665 60.4121 64.2787 60 64.2787 59.503V58.9697C65.3211 58.5939 66.0847 57.6 66.0847 56.4242C66.0726 54.9212 64.8605 53.7091 63.3696 53.7091Z" fill="white"/>
</svg>
