<svg width="67" height="67" viewBox="0 0 67 67" fill="none" xmlns="http://www.w3.org/2000/svg">
<path fill-rule="evenodd" clip-rule="evenodd" d="M34.2625 9.031C29.501 8.87243 24.6904 10.1715 20.5371 12.9438C15.8724 16.0608 12.6125 20.6637 11.111 25.8093C10.6963 25.7587 10.1998 25.781 9.61018 25.9478C7.40886 26.5723 5.75321 28.3761 5.00877 29.9648C4.04323 32.0351 3.63601 34.7731 4.06556 37.5998C4.49213 40.4175 5.68249 42.7402 7.17138 44.1822C8.66474 45.6249 10.3509 46.0939 12.0259 45.7418C14.5198 45.2095 15.7563 44.8112 15.4072 42.4878L13.7165 31.2251C14.0575 25.1296 17.2132 19.3914 22.4913 15.8628C29.5561 11.1437 38.8185 11.446 45.5572 16.6191C50.2449 20.2133 52.9666 25.5986 53.2808 31.2519L52.0986 39.1304C49.4618 46.3463 42.9248 51.3445 35.3605 52.0539H30.3236C29.0238 52.0539 27.9771 53.1006 27.9771 54.3989V55.6362C27.9771 56.9353 29.0238 57.9819 30.3236 57.9819H36.6745C37.9735 57.9819 39.0157 56.9353 39.0157 55.6362V54.9893C44.7197 53.5972 49.6985 50.0916 52.9406 45.2028L54.9751 45.7425C56.6308 46.1721 58.3371 45.6249 59.8297 44.1829C61.3186 42.7402 62.5082 40.4183 62.9355 37.6005C63.3665 34.7739 62.9474 32.0403 61.993 29.9655C61.0349 27.8908 59.6078 26.5731 57.9604 26.1004C57.2703 25.9016 56.5214 25.8286 55.8789 25.8093C54.521 21.1565 51.7256 16.9251 47.6967 13.8356C43.7355 10.7961 39.0239 9.18733 34.2625 9.031Z" fill="white"/>
<path fill-rule="evenodd" clip-rule="evenodd" d="M41.6958 29.2933C43.3745 29.2933 44.7353 30.6541 44.7391 32.3373C44.7353 34.016 43.3745 35.3806 41.6958 35.3806C40.0126 35.3806 38.648 34.016 38.648 32.3373C38.648 30.6549 40.0133 29.2933 41.6958 29.2933ZM33.4994 29.2933C35.1819 29.2933 36.5427 30.6541 36.5427 32.3373C36.5427 34.016 35.1819 35.3806 33.4994 35.3806C31.8155 35.3806 30.4547 34.016 30.4547 32.3373C30.4547 30.6549 31.8155 29.2933 33.4994 29.2933ZM25.3061 29.2933C26.9848 29.2933 28.3494 30.6541 28.3494 32.3373C28.3494 34.016 26.9848 35.3806 25.3061 35.3806C23.6236 35.3806 22.2621 34.016 22.2621 32.3373C22.2621 30.6549 23.6236 29.2933 25.3061 29.2933ZM33.4994 16.2194C24.5736 16.2194 17.3807 23.1754 17.3807 32.3373C17.3807 36.7377 19.0446 40.6267 21.7551 43.4802L20.7933 47.792C20.4761 49.2109 21.4603 50.1653 22.7355 49.4551L26.9461 47.1064C28.9472 47.9751 31.1604 48.4553 33.4994 48.4553C42.4283 48.4553 49.6167 41.5037 49.6167 32.3373C49.6167 23.1754 42.4283 16.2194 33.4994 16.2194Z" fill="white"/>
</svg>
