<svg width="88" height="88" viewBox="0 0 88 88" fill="none" xmlns="http://www.w3.org/2000/svg">
<path d="M22.125 26.0332H5.71875V12.752H7.28125V24.4707H22.125V26.0332Z" fill="#505050"/>
<path d="M7.28125 75.252H5.71875V61.9707H22.125V63.5332H7.28125V75.252Z" fill="#505050"/>
<path d="M82.2812 75.252H80.7188V63.5332H65.875V61.9707H82.2812V75.252Z" fill="#505050"/>
<path d="M82.2812 26.0332H65.875V24.4707H80.7188V12.752H82.2812V26.0332Z" fill="#505050"/>
<path d="M44 75.252C26.7406 75.252 12.75 61.2613 12.75 44.002C12.75 26.7426 26.7406 12.752 44 12.752C61.2594 12.752 75.25 26.7426 75.25 44.002C75.25 61.2613 61.2594 75.252 44 75.252Z" fill="#FAB400"/>
<path d="M19 44.002C19 27.7988 31.3344 14.4785 47.125 12.9098C46.0969 12.8082 45.0547 12.752 44 12.752C26.7406 12.752 12.75 26.7426 12.75 44.002C12.75 61.2613 26.7406 75.252 44 75.252C45.0547 75.252 46.0969 75.1957 47.125 75.0941C31.3344 73.5254 19 60.2051 19 44.002Z" fill="#DC9600"/>
<path d="M44 19.002C30.1922 19.002 19 30.1941 19 44.002C19 57.8098 30.1922 69.002 44 69.002C57.8078 69.002 69 57.8098 69 44.002C69 30.1941 57.8078 19.002 44 19.002Z" fill="#FA6450"/>
<path d="M44 25.252C43.1375 25.252 42.4375 24.552 42.4375 23.6895C42.4375 22.827 43.1375 22.127 44 22.127C44.8625 22.127 45.5625 22.827 45.5625 23.6895C45.5625 24.552 44.8625 25.252 44 25.252Z" fill="#FAB400"/>
<path d="M44 65.877C43.1375 65.877 42.4375 65.177 42.4375 64.3145C42.4375 63.452 43.1375 62.752 44 62.752C44.8625 62.752 45.5625 63.452 45.5625 64.3145C45.5625 65.177 44.8625 65.877 44 65.877Z" fill="#FAB400"/>
<path d="M57.2578 30.7442C56.6468 30.1333 56.6468 29.1442 57.2578 28.5349C57.8687 27.9239 58.8578 27.9239 59.4671 28.5349C60.0781 29.1458 60.0781 30.1349 59.4671 30.7442C58.8578 31.3536 57.8687 31.3536 57.2578 30.7442Z" fill="#FAB400"/>
<path d="M28.5329 59.4693C27.922 58.8584 27.922 57.8693 28.5329 57.26C29.1438 56.649 30.1329 56.649 30.7423 57.26C31.3532 57.8709 31.3532 58.86 30.7423 59.4693C30.1313 60.0803 29.1423 60.0803 28.5329 59.4693Z" fill="#FAB400"/>
<path d="M62.75 44.002C62.75 43.1395 63.45 42.4395 64.3125 42.4395C65.175 42.4395 65.875 43.1395 65.875 44.002C65.875 44.8645 65.175 45.5645 64.3125 45.5645C63.45 45.5645 62.75 44.8645 62.75 44.002Z" fill="#FAB400"/>
<path d="M22.125 44.002C22.125 43.1395 22.825 42.4395 23.6875 42.4395C24.55 42.4395 25.25 43.1395 25.25 44.002C25.25 44.8645 24.55 45.5645 23.6875 45.5645C22.825 45.5645 22.125 44.8645 22.125 44.002Z" fill="#FAB400"/>
<path d="M57.2578 57.26C57.8687 56.649 58.8578 56.649 59.4672 57.26C60.0781 57.8709 60.0781 58.86 59.4672 59.4693C58.8562 60.0803 57.8672 60.0803 57.2578 59.4693C56.6484 58.86 56.6484 57.8709 57.2578 57.26Z" fill="#FAB400"/>
<path d="M28.5329 28.5349C29.1438 27.9239 30.1329 27.9239 30.7423 28.5349C31.3532 29.1458 31.3532 30.1349 30.7423 30.7442C30.1313 31.3552 29.1423 31.3552 28.5329 30.7442C27.922 30.1333 27.922 29.1442 28.5329 28.5349Z" fill="#FAB400"/>
<path d="M44 59.627C37.0969 59.627 31.5 54.0301 31.5 47.127V40.877C31.5 33.9738 37.0969 28.377 44 28.377V59.627Z" fill="#BE2814"/>
<path d="M44 28.377C50.9031 28.377 56.5 33.9738 56.5 40.877V47.127C56.5 54.0301 50.9031 59.627 44 59.627V28.377Z" fill="#DC4632"/>
<path d="M11.1875 87.752H1.8125C0.95 87.752 0.25 87.052 0.25 86.1895V76.8145C0.25 75.952 0.95 75.252 1.8125 75.252H11.1875C12.05 75.252 12.75 75.952 12.75 76.8145V86.1895C12.75 87.052 12.05 87.752 11.1875 87.752Z" fill="#FAB400"/>
<path d="M3.375 86.1895V76.8145C3.375 75.952 4.075 75.252 4.9375 75.252H1.8125C0.95 75.252 0.25 75.952 0.25 76.8145V86.1895C0.25 87.052 0.95 87.752 1.8125 87.752H4.9375C4.075 87.752 3.375 87.052 3.375 86.1895Z" fill="#DC9600"/>
<path d="M6.5 84.627C4.77344 84.627 3.375 83.2285 3.375 81.502C3.375 79.7754 4.77344 78.377 6.5 78.377C8.22656 78.377 9.625 79.7754 9.625 81.502C9.625 83.2285 8.22656 84.627 6.5 84.627Z" fill="#FA6450"/>
<path d="M6.5 81.502C6.5 80.3488 7.13281 79.352 8.0625 78.8098C7.60156 78.5426 7.07188 78.377 6.5 78.377C4.77344 78.377 3.375 79.7754 3.375 81.502C3.375 83.2285 4.77344 84.627 6.5 84.627C7.07188 84.627 7.60156 84.4613 8.0625 84.1941C7.13281 83.652 6.5 82.6551 6.5 81.502Z" fill="#DC4632"/>
<path d="M11.1875 12.752H1.8125C0.95 12.752 0.25 12.052 0.25 11.1895V1.81445C0.25 0.951953 0.95 0.251953 1.8125 0.251953H11.1875C12.05 0.251953 12.75 0.951953 12.75 1.81445V11.1895C12.75 12.052 12.05 12.752 11.1875 12.752Z" fill="#FA6450"/>
<path d="M3.375 11.1895V1.81445C3.375 0.951953 4.075 0.251953 4.9375 0.251953H1.8125C0.95 0.251953 0.25 0.951953 0.25 1.81445V11.1895C0.25 12.052 0.95 12.752 1.8125 12.752H4.9375C4.075 12.752 3.375 12.052 3.375 11.1895Z" fill="#DC4632"/>
<path d="M6.5 9.62695C4.77344 9.62695 3.375 8.22852 3.375 6.50195C3.375 4.77539 4.77344 3.37695 6.5 3.37695C8.22656 3.37695 9.625 4.77539 9.625 6.50195C9.625 8.22852 8.22656 9.62695 6.5 9.62695Z" fill="#FAB400"/>
<path d="M6.5 6.50195C6.5 5.34883 7.13281 4.35195 8.0625 3.80977C7.60156 3.54258 7.07188 3.37695 6.5 3.37695C4.77344 3.37695 3.375 4.77539 3.375 6.50195C3.375 8.22852 4.77344 9.62695 6.5 9.62695C7.07188 9.62695 7.60156 9.46133 8.0625 9.19414C7.13281 8.65195 6.5 7.65508 6.5 6.50195Z" fill="#DC9600"/>
<path d="M86.1875 12.752H76.8125C75.95 12.752 75.25 12.052 75.25 11.1895V1.81445C75.25 0.951953 75.95 0.251953 76.8125 0.251953H86.1875C87.05 0.251953 87.75 0.951953 87.75 1.81445V11.1895C87.75 12.052 87.05 12.752 86.1875 12.752Z" fill="#FA6450"/>
<path d="M78.375 11.1895V1.81445C78.375 0.951953 79.075 0.251953 79.9375 0.251953H76.8125C75.95 0.251953 75.25 0.951953 75.25 1.81445V11.1895C75.25 12.052 75.95 12.752 76.8125 12.752H79.9375C79.075 12.752 78.375 12.052 78.375 11.1895Z" fill="#DC4632"/>
<path d="M81.5 9.62695C79.7734 9.62695 78.375 8.22852 78.375 6.50195C78.375 4.77539 79.7734 3.37695 81.5 3.37695C83.2266 3.37695 84.625 4.77539 84.625 6.50195C84.625 8.22852 83.2266 9.62695 81.5 9.62695Z" fill="#FAB400"/>
<path d="M81.5 6.50195C81.5 5.34883 82.1328 4.35195 83.0625 3.80977C82.6016 3.54258 82.0719 3.37695 81.5 3.37695C79.7734 3.37695 78.375 4.77539 78.375 6.50195C78.375 8.22852 79.7734 9.62695 81.5 9.62695C82.0719 9.62695 82.6016 9.46133 83.0625 9.19414C82.1328 8.65195 81.5 7.65508 81.5 6.50195Z" fill="#DC9600"/>
<path d="M86.1875 12.752H76.8125C75.95 12.752 75.25 12.052 75.25 11.1895V1.81445C75.25 0.951953 75.95 0.251953 76.8125 0.251953H86.1875C87.05 0.251953 87.75 0.951953 87.75 1.81445V11.1895C87.75 12.052 87.05 12.752 86.1875 12.752Z" fill="#3CC8B4"/>
<path d="M78.375 11.1895V1.81445C78.375 0.951953 79.075 0.251953 79.9375 0.251953H76.8125C75.95 0.251953 75.25 0.951953 75.25 1.81445V11.1895C75.25 12.052 75.95 12.752 76.8125 12.752H79.9375C79.075 12.752 78.375 12.052 78.375 11.1895Z" fill="#1EAA96"/>
<path d="M81.5 9.62695C79.7734 9.62695 78.375 8.22852 78.375 6.50195C78.375 4.77539 79.7734 3.37695 81.5 3.37695C83.2266 3.37695 84.625 4.77539 84.625 6.50195C84.625 8.22852 83.2266 9.62695 81.5 9.62695Z" fill="#F0F0F0"/>
<path d="M81.5 6.50195C81.5 5.34883 82.1328 4.35195 83.0625 3.80977C82.6016 3.54258 82.0719 3.37695 81.5 3.37695C79.7734 3.37695 78.375 4.77539 78.375 6.50195C78.375 8.22852 79.7734 9.62695 81.5 9.62695C82.0719 9.62695 82.6016 9.46133 83.0625 9.19414C82.1328 8.65195 81.5 7.65508 81.5 6.50195Z" fill="#D2D2D2"/>
<path d="M86.1875 87.752H76.8125C75.95 87.752 75.25 87.052 75.25 86.1895V76.8145C75.25 75.952 75.95 75.252 76.8125 75.252H86.1875C87.05 75.252 87.75 75.952 87.75 76.8145V86.1895C87.75 87.052 87.05 87.752 86.1875 87.752Z" fill="#FA6450"/>
<path d="M78.375 86.1895V76.8145C78.375 75.952 79.075 75.252 79.9375 75.252H76.8125C75.95 75.252 75.25 75.952 75.25 76.8145V86.1895C75.25 87.052 75.95 87.752 76.8125 87.752H79.9375C79.075 87.752 78.375 87.052 78.375 86.1895Z" fill="#DC4632"/>
<path d="M81.5 84.627C79.7734 84.627 78.375 83.2285 78.375 81.502C78.375 79.7754 79.7734 78.377 81.5 78.377C83.2266 78.377 84.625 79.7754 84.625 81.502C84.625 83.2285 83.2266 84.627 81.5 84.627Z" fill="#3CC8B4"/>
<path d="M81.5 81.502C81.5 80.3488 82.1328 79.352 83.0625 78.8098C82.6016 78.5426 82.0719 78.377 81.5 78.377C79.7734 78.377 78.375 79.7754 78.375 81.502C78.375 83.2285 79.7734 84.627 81.5 84.627C82.0719 84.627 82.6016 84.4613 83.0625 84.1941C82.1328 83.652 81.5 82.6551 81.5 81.502Z" fill="#1EAA96"/>
</svg>
