<svg width="95" height="78" viewBox="0 0 95 78" fill="none" xmlns="http://www.w3.org/2000/svg">
<path d="M94.7637 38.5005L94.7451 42.1249C94.7451 42.9624 94.205 43.7817 93.1062 44.4155L38.0008 76.4465C35.8219 77.7132 32.2836 77.7132 30.086 76.4465L1.63929 60.0238C0.540579 59.3909 -0.0180726 58.5525 0.000445773 57.7141V54.0905C0.000445773 54.9089 0.559236 55.7473 1.63929 56.3802L30.1047 72.8221C32.2836 74.0706 35.8405 74.0706 38.0008 72.8039L93.1249 40.772C94.2237 40.1391 94.7637 39.3198 94.7637 38.5005Z" fill="#B4BED7"/>
<path d="M93.1141 36.1963C95.3019 37.4594 95.3137 39.505 93.1283 40.7751L38.0092 72.8067C35.8359 74.0697 32.2923 74.0767 30.1045 72.8135L1.64779 56.3841C-0.539968 55.121 -0.539534 53.0683 1.63371 51.8053L56.7527 19.7736C58.9382 18.5036 62.4697 18.5037 64.6575 19.7668L93.1141 36.1963Z" fill="#E3E7F0"/>
<path d="M81.1103 30.9546C81.3599 31.0988 81.3612 31.346 81.1131 31.4901C80.8529 31.6413 80.4383 31.6344 80.1886 31.4902L72.6502 27.1379C72.3887 26.9869 72.3872 26.7537 72.6474 26.6024C72.8954 26.4583 73.3103 26.4513 73.5719 26.6024L81.1103 30.9546Z" fill="#9DA9C1"/>
<path d="M21.8657 60.9914C23.0892 61.6978 23.0958 62.8456 21.8694 63.5583C20.6535 64.2649 18.672 64.2648 17.4485 63.5584C16.225 62.8521 16.2184 61.7043 17.4343 60.9977C18.6607 60.285 20.6422 60.2851 21.8657 60.9914ZM18.1188 63.1686C18.9739 63.6623 20.3454 63.6623 21.1951 63.1685C22.0544 62.6691 22.0498 61.8748 21.1947 61.3811C20.3396 60.8874 18.9584 60.8816 18.0991 61.381C17.2493 61.8748 17.2637 62.6749 18.1188 63.1686Z" fill="#9DA9C1"/>
<path d="M91.6339 40.0135L40.2122 69.8966L6.47632 50.4192L57.8981 20.5361L91.6339 40.0135Z" fill="#4C5671"/>
<path d="M71.1338 25.1537C71.4073 25.3116 71.4089 25.5724 71.1372 25.7303C70.8654 25.8883 70.4152 25.8882 70.1418 25.7303C69.8564 25.5656 69.8667 25.3116 70.1384 25.1537C70.4101 24.9958 70.8485 24.989 71.1338 25.1537Z" fill="#9DA9C1"/>
<path d="M64.4711 23.6836V27.029C64.4711 27.2956 64.2863 27.5833 63.9168 27.8088L58.1697 31.1341C57.4308 31.5651 56.2197 31.5651 55.5014 31.1341L49.7132 27.8088C49.3437 27.5833 49.1589 27.3167 49.1589 27.029V23.6836C49.1589 23.9712 49.3437 24.2378 49.7132 24.4633L55.5014 27.7887C56.2403 28.2197 57.4308 28.2197 58.1902 27.7887L63.9168 24.4633C64.2863 24.2378 64.4711 23.9502 64.4711 23.6836Z" fill="#ED5D71"/>
<path d="M63.9293 22.9017C64.6632 23.3254 64.667 24.0216 63.9246 24.453L58.1833 27.7895C57.4409 28.2209 56.2391 28.221 55.5052 27.7973L49.7129 24.4531C48.979 24.0294 48.9752 23.3332 49.7175 22.9018L55.4589 19.5653C56.2013 19.1339 57.4031 19.1338 58.137 19.5575L63.9293 22.9017Z" fill="#FE91AB"/>
<path d="M75.2582 32.7895C76.0051 33.2207 76.009 33.9169 75.2666 34.3483L69.5252 37.6848C68.7956 38.1088 67.5937 38.1089 66.8468 37.6776L61.0675 34.341C60.3205 33.9097 60.3167 33.2136 61.0464 32.7895L66.7877 29.453C67.5301 29.0216 68.7319 29.0215 69.4789 29.4528L75.2582 32.7895Z" fill="#FFDD94"/>
<path d="M53.2199 30.2134L53.1993 33.5588C53.1993 33.8465 53.0146 34.1341 52.6451 34.3395L46.898 37.685C46.1591 38.1159 44.9686 38.1159 44.2297 37.685L38.4414 34.3395C38.072 34.1341 37.8872 33.8465 37.8872 33.5799V30.2134C37.8872 30.501 38.072 30.7876 38.4414 30.9931L44.2297 34.3395C44.9686 34.7705 46.1796 34.7705 46.9185 34.3395L52.6451 30.9931C53.0351 30.7876 53.2199 30.501 53.2199 30.2134Z" fill="#5FAF5F"/>
<path d="M52.6601 29.4467C53.394 29.8704 53.3978 30.5665 52.6554 30.998L46.9141 34.3345C46.1717 34.7659 44.9698 34.766 44.236 34.3422L38.4436 30.998C37.7097 30.5743 37.7059 29.8781 38.4483 29.4467L44.1896 26.1102C44.932 25.6788 46.1338 25.6787 46.8677 26.1024L52.6601 29.4467Z" fill="#96D696"/>
<path d="M30.6798 43.2915L30.6593 46.6369C30.6593 46.9246 30.4745 47.2122 30.1051 47.4177L24.3579 50.7631C23.619 51.1941 22.4285 51.1941 21.6896 50.7631L15.9014 47.4177C15.532 47.2122 15.3472 46.9246 15.3472 46.658V43.2915C15.3472 43.5792 15.532 43.8658 15.9014 44.0712L21.6896 47.4177C22.4285 47.8486 23.6396 47.8486 24.3785 47.4177L30.1051 44.0712C30.4951 43.8658 30.6798 43.5792 30.6798 43.2915Z" fill="#5FAF5F"/>
<path d="M30.1201 42.5248C30.8539 42.9485 30.8578 43.6447 30.1154 44.0761L24.374 47.4126C23.6316 47.844 22.4298 47.8441 21.6959 47.4204L15.9035 44.0761C15.1697 43.6524 15.1658 42.9563 15.9082 42.5248L21.6496 39.1883C22.392 38.7569 23.5938 38.7569 24.3276 39.1806L30.1201 42.5248Z" fill="#96D696"/>
<path d="M41.3852 39.3417C42.119 39.7654 42.1229 40.4615 41.3805 40.893L35.6392 44.2295C34.8968 44.6609 33.6949 44.661 32.9611 44.2373L27.1687 40.893C26.4348 40.4693 26.431 39.7732 27.1734 39.3417L32.9147 36.0052C33.6571 35.5738 34.8589 35.5737 35.5928 35.9975L41.3852 39.3417Z" fill="#D3DBEA"/>
<path d="M86.6067 39.3412C87.3406 39.7649 87.3444 40.4611 86.602 40.8925L80.8607 44.229C80.131 44.653 78.9292 44.653 78.1953 44.2294L72.4029 40.8851C71.6691 40.4614 71.6653 39.7653 72.3949 39.3412L78.1362 36.0048C78.8786 35.5733 80.0805 35.5733 80.8143 35.997L86.6067 39.3412Z" fill="#7BB1FF"/>
<path d="M64.0697 52.4384C64.8036 52.8621 64.8074 53.5582 64.065 53.9896L58.3237 57.3261C57.5813 57.7576 56.3795 57.7576 55.6456 57.3339L49.8533 53.9897C49.1194 53.566 49.1156 52.8698 49.8579 52.4384L55.5993 49.1019C56.3417 48.6705 57.5435 48.6704 58.2774 49.0941L64.0697 52.4384Z" fill="#FE91AB"/>
<path d="M63.9292 38.5902L58.1879 41.9266C57.4455 42.3576 56.2437 42.3576 55.5099 41.9337L49.7175 38.5902C49.3498 38.3778 49.1654 38.0971 49.1661 37.8155L49.1567 40.1748C49.1559 40.4565 49.3404 40.7371 49.708 40.9486L55.5003 44.293C56.2342 44.7169 57.436 44.7169 58.1784 44.286L63.9198 40.9485C64.2902 40.7341 64.4749 40.4524 64.4757 40.1718L64.4852 37.8125C64.4844 38.0931 64.2998 38.3748 63.9292 38.5902Z" fill="#B4BED7"/>
<path d="M63.9345 37.0385C64.6683 37.4622 64.6722 38.1583 63.9298 38.5897L58.1884 41.9262C57.446 42.3577 56.2442 42.3577 55.5104 41.934L49.718 38.5898C48.9841 38.1661 48.9803 37.4699 49.7227 37.0385L55.464 33.702C56.2064 33.2706 57.4082 33.2705 58.1421 33.6942L63.9345 37.0385Z" fill="#E3E7F0"/>
<path d="M75.3398 46.0697L69.5986 49.4061C68.8562 49.8371 67.6544 49.8371 66.9205 49.4131L61.1281 46.0697C60.7604 45.8573 60.576 45.5766 60.5768 45.295L60.5674 46.6672C60.5665 46.9488 60.7511 47.2295 61.1186 47.4409L66.911 50.7854C67.6449 51.2093 68.8467 51.2093 69.5891 50.7783L75.3304 47.4409C75.7009 47.2264 75.8856 46.9448 75.8863 46.6642L75.8958 45.292C75.8951 45.5726 75.7104 45.8542 75.3398 46.0697Z" fill="#FEBB61"/>
<path d="M75.3451 44.5179C76.079 44.9416 76.0828 45.6378 75.3404 46.0692L69.5991 49.4057C68.8567 49.8371 67.6549 49.8372 66.921 49.4135L61.1286 46.0693C60.3948 45.6456 60.3909 44.9495 61.1333 44.518L66.8747 41.1815C67.6171 40.7501 68.8189 40.75 69.5527 41.1737L75.3451 44.5179Z" fill="#FFDD94"/>
<path d="M53.2045 43.3292V46.6746C53.2045 46.9412 53.0197 47.2288 52.6502 47.4343L46.9031 50.7797C46.1846 51.2107 44.9737 51.2107 44.2347 50.7797L38.4466 47.4343C38.077 47.2288 37.8923 46.9412 37.8923 46.6535L37.9129 43.3081C37.9129 43.5957 38.077 43.8834 38.4466 44.0878L44.2552 47.4343C44.9737 47.8652 46.1846 47.8652 46.9236 47.4343L52.6502 44.0878C53.0197 43.8834 53.2045 43.5958 53.2045 43.3292Z" fill="#5793FB"/>
<path d="M52.6606 42.5448C53.3945 42.9685 53.3983 43.6646 52.656 44.0961L46.9146 47.4325C46.1849 47.8566 44.9831 47.8567 44.2493 47.4329L38.4569 44.0887C37.723 43.665 37.7192 42.9689 38.4489 42.5449L44.1902 39.2084C44.9326 38.7769 46.1344 38.7769 46.8683 39.2006L52.6606 42.5448Z" fill="#7BB1FF"/>
<path d="M17.2692 29.8062V33.1516C17.2692 33.4182 17.0844 33.7058 16.7149 33.9313L10.9678 37.2567C10.2289 37.6877 9.01783 37.6877 8.29949 37.2567L2.51126 33.9313C2.14182 33.7058 1.95703 33.4392 1.95703 33.1516V29.8062C1.95703 30.0938 2.14182 30.3604 2.51126 30.5859L8.29949 33.9113C9.03839 34.3422 10.2289 34.3422 10.9883 33.9113L16.7149 30.5859C17.0844 30.3604 17.2692 30.0728 17.2692 29.8062Z" fill="#FEBB61"/>
<path d="M16.7274 29.0248C17.4613 29.4485 17.4651 30.1446 16.7227 30.5761L10.9814 33.9126C10.239 34.344 9.03718 34.344 8.30332 33.9203L2.51097 30.5761C1.7771 30.1524 1.77327 29.4563 2.51566 29.0248L8.257 25.6883C8.9994 25.2569 10.2012 25.2569 10.9351 25.6806L16.7274 29.0248Z" fill="#FFDD94"/>
<path d="M17.2692 24.7832V28.1286C17.2692 28.3952 17.0844 28.6829 16.7149 28.9084L10.9678 32.2338C10.2289 32.6647 9.01783 32.6647 8.29949 32.2338L2.51126 28.9084C2.14182 28.6829 1.95703 28.4163 1.95703 28.1286V24.7832C1.95703 25.0709 2.14182 25.3374 2.51126 25.5629L8.29949 28.8883C9.03839 29.3193 10.2289 29.3193 10.9883 28.8883L16.7149 25.5629C17.0844 25.3374 17.2692 25.0498 17.2692 24.7832Z" fill="#ED5D71"/>
<path d="M16.7274 24.0013C17.4613 24.425 17.4651 25.1212 16.7227 25.5526L10.9814 28.8891C10.239 29.3205 9.03718 29.3206 8.30332 28.8969L2.51097 25.5527C1.7771 25.129 1.77327 24.4328 2.51566 24.0014L8.257 20.6649C8.9994 20.2335 10.2012 20.2334 10.9351 20.6571L16.7274 24.0013Z" fill="#FE91AB"/>
<path d="M17.2692 19.7593V23.1047C17.2692 23.3713 17.0844 23.6589 16.7149 23.8844L10.9678 27.2098C10.2289 27.6408 9.01783 27.6408 8.29949 27.2098L2.51126 23.8844C2.14182 23.6589 1.95703 23.3923 1.95703 23.1047V19.7593C1.95703 20.0469 2.14182 20.3135 2.51126 20.539L8.29949 23.8644C9.03839 24.2954 10.2289 24.2954 10.9883 23.8644L16.7149 20.539C17.0844 20.3135 17.2692 20.0259 17.2692 19.7593Z" fill="#5793FB"/>
<path d="M16.7274 18.9779C17.4613 19.4016 17.4651 20.0978 16.7227 20.5292L10.9814 23.8657C10.239 24.2971 9.03718 24.2972 8.30332 23.8735L2.51097 20.5292C1.7771 20.1056 1.77327 19.4094 2.51566 18.978L8.257 15.6415C8.9994 15.21 10.2012 15.21 10.9351 15.6337L16.7274 18.9779Z" fill="#7BB1FF"/>
<path d="M94.7616 19.064V22.4094C94.7616 22.676 94.5768 22.9636 94.2074 23.1891L88.4602 26.5145C87.7213 26.9455 86.5103 26.9455 85.7919 26.5145L80.0037 23.1891C79.6343 22.9636 79.4495 22.697 79.4495 22.4094V19.064C79.4495 19.3516 79.6343 19.6182 80.0037 19.8437L85.7919 23.1691C86.5308 23.6 87.7213 23.6 88.4808 23.1691L94.2074 19.8437C94.5768 19.6182 94.7616 19.3305 94.7616 19.064Z" fill="#5793FB"/>
<path d="M94.2198 18.2826C94.9537 18.7063 94.9575 19.4024 94.2152 19.8339L88.4738 23.1703C87.7314 23.6018 86.5296 23.6018 85.7957 23.1781L80.0034 19.8339C79.2695 19.4102 79.2657 18.7141 80.0081 18.2826L85.7494 14.9462C86.4918 14.5147 87.6936 14.5147 88.4275 14.9384L94.2198 18.2826Z" fill="#7BB1FF"/>
<path d="M91.165 16.2072V18.9744C91.1634 19.5716 90.7708 20.1679 89.9867 20.6236C88.4084 21.5408 85.8406 21.5408 84.252 20.6236C83.4525 20.162 83.0532 19.5561 83.0549 18.9512V16.1841C83.0532 16.789 83.4525 17.3949 84.252 17.8565C85.8406 18.7737 88.4084 18.7737 89.9867 17.8565C90.7708 17.4008 91.1633 16.8044 91.165 16.2072Z" fill="#373F51"/>
<path d="M89.968 14.5347C88.3791 13.6173 85.8119 13.6173 84.2333 14.5347C82.655 15.4519 82.6631 16.9391 84.252 17.8565C85.8406 18.7737 88.4084 18.7736 89.9867 17.8564C91.5653 16.9391 91.5566 15.4519 89.968 14.5347Z" fill="#4C5671"/>
<path d="M92.7167 10.8623C91.4584 12.7351 90.7109 13.7789 90.4666 16.0066H90.4592C90.4666 16.5025 90.1409 16.9984 89.4896 17.376C88.1868 18.1382 86.0625 18.1382 84.7524 17.376C84.0937 16.9984 83.768 16.5025 83.768 16.0066V15.9994C83.5237 13.7713 82.7688 12.7351 81.5105 10.8623C78.5557 6.43167 81.7091 0.396484 87.1136 0.396484C92.5478 0.396445 95.6446 6.47214 92.7167 10.8623Z" fill="#FFDD94"/>
</svg>
