<svg width="80" height="80" viewBox="0 0 80 80" fill="none" xmlns="http://www.w3.org/2000/svg">
<g clip-path="url(#clip0_311_780)">
<path d="M40.7638 16.9705C40.5586 16.7655 40.2804 16.6504 39.9904 16.6504C39.7003 16.6504 39.4221 16.7655 39.2169 16.9705L35.2032 20.9843C34.9981 21.1894 34.8828 21.4676 34.8828 21.7577C34.8828 22.0478 34.9981 22.326 35.2032 22.5311C35.4083 22.7363 35.6865 22.8515 35.9766 22.8515C36.2667 22.8515 36.5449 22.7363 36.7501 22.5311L38.9063 20.3749V27.7343C38.9063 28.0244 39.0215 28.3026 39.2267 28.5077C39.4318 28.7128 39.71 28.828 40.0001 28.828C40.2901 28.828 40.5683 28.7128 40.7735 28.5077C40.9786 28.3026 41.0938 28.0244 41.0938 27.7343V20.3943L43.2307 22.5311C43.4358 22.7363 43.714 22.8515 44.0041 22.8515C44.2942 22.8515 44.5724 22.7363 44.7776 22.5311C44.9827 22.326 45.0979 22.0478 45.0979 21.7577C45.0979 21.4676 44.9827 21.1894 44.7776 20.9843L40.7638 16.9705Z" fill="#A783FF"/>
<path d="M48.6688 32.4267C48.8124 32.4269 48.9546 32.3988 49.0873 32.3439C49.2199 32.2889 49.3405 32.2084 49.4419 32.1067L54.6325 26.9192V29.9373C54.6325 30.2274 54.7477 30.5056 54.9529 30.7107C55.158 30.9159 55.4362 31.0311 55.7263 31.0311C56.0163 31.0311 56.2945 30.9159 56.4997 30.7107C56.7048 30.5056 56.82 30.2274 56.82 29.9373V24.2617C56.82 23.9716 56.7048 23.6934 56.4997 23.4883C56.2945 23.2832 56.0163 23.168 55.7263 23.168H50.05C49.7599 23.168 49.4817 23.2832 49.2766 23.4883C49.0715 23.6934 48.9563 23.9716 48.9563 24.2617C48.9563 24.5518 49.0715 24.83 49.2766 25.0351C49.4817 25.2402 49.7599 25.3555 50.05 25.3555H53.1L47.8956 30.5623C47.7428 30.7153 47.6387 30.9101 47.5965 31.1222C47.5544 31.3343 47.5761 31.5542 47.6588 31.754C47.7415 31.9537 47.8816 32.1245 48.0614 32.2447C48.2412 32.3649 48.4525 32.4291 48.6688 32.4292V32.4267Z" fill="#A783FF"/>
<path d="M30.5519 47.9032L25.3481 53.1076V50.0582C25.3481 49.7681 25.2329 49.4899 25.0278 49.2848C24.8227 49.0797 24.5445 48.9644 24.2544 48.9644C23.9643 48.9644 23.6861 49.0797 23.481 49.2848C23.2759 49.4899 23.1606 49.7681 23.1606 50.0582V55.7344C23.1608 56.0245 23.2761 56.3026 23.4812 56.5076C23.6863 56.7127 23.9644 56.828 24.2544 56.8282H29.9306C30.2207 56.8282 30.4989 56.7129 30.704 56.5078C30.9092 56.3027 31.0244 56.0245 31.0244 55.7344C31.0244 55.4444 30.9092 55.1661 30.704 54.961C30.4989 54.7559 30.2207 54.6407 29.9306 54.6407H26.9081L32.0988 49.4532C32.3039 49.2481 32.4191 48.9698 32.4191 48.6797C32.4191 48.3896 32.3039 48.1114 32.0988 47.9063C31.9972 47.8047 31.8766 47.7242 31.7439 47.6692C31.6112 47.6142 31.469 47.5859 31.3253 47.5859C31.0352 47.5859 30.757 47.7012 30.5519 47.9063V47.9032Z" fill="#A783FF"/>
<path d="M63.0175 39.2249L59.0038 35.2112C58.7975 35.012 58.5212 34.9018 58.2344 34.9043C57.9476 34.9069 57.6733 35.022 57.4705 35.2248C57.2678 35.4276 57.1528 35.702 57.1504 35.9888C57.148 36.2755 57.2583 36.5518 57.4575 36.758L59.6138 38.9143H52.2538C51.9637 38.9143 51.6855 39.0295 51.4804 39.2346C51.2753 39.4398 51.16 39.718 51.16 40.008C51.16 40.2981 51.2753 40.5763 51.4804 40.7814C51.6855 40.9866 51.9637 41.1018 52.2538 41.1018H59.5944L57.4575 43.2387C57.356 43.3402 57.2755 43.4607 57.2205 43.5934C57.1656 43.726 57.1373 43.8682 57.1373 44.0118C57.1373 44.1554 57.1656 44.2976 57.2205 44.4302C57.2755 44.5629 57.356 44.6834 57.4575 44.7849C57.5591 44.8864 57.6796 44.967 57.8122 45.0219C57.9449 45.0769 58.0871 45.1052 58.2307 45.1052C58.3742 45.1052 58.5164 45.0769 58.6491 45.0219C58.7817 44.967 58.9023 44.8864 59.0038 44.7849L63.0175 40.7712C63.1192 40.6697 63.1998 40.5492 63.2548 40.4165C63.3098 40.2839 63.3381 40.1417 63.3381 39.998C63.3381 39.8544 63.3098 39.7122 63.2548 39.5796C63.1998 39.4469 63.1192 39.3264 63.0175 39.2249Z" fill="#A783FF"/>
<path d="M20.3863 41.1016H27.7263C28.0164 41.1016 28.2946 40.9864 28.4997 40.7813C28.7048 40.5761 28.8201 40.298 28.8201 40.0079C28.8201 39.7178 28.7048 39.4396 28.4997 39.2345C28.2946 39.0294 28.0164 38.9141 27.7263 38.9141H20.3669L22.5232 36.7579C22.7283 36.5527 22.8435 36.2745 22.8435 35.9844C22.8435 35.6943 22.7283 35.4161 22.5232 35.211C22.318 35.0059 22.0398 34.8906 21.7497 34.8906C21.4596 34.8906 21.1814 35.0059 20.9763 35.211L16.9632 39.2247C16.8615 39.3262 16.7809 39.4467 16.7259 39.5794C16.6709 39.712 16.6426 39.8543 16.6426 39.9979C16.6426 40.1415 16.6709 40.2837 16.7259 40.4164C16.7809 40.549 16.8615 40.6695 16.9632 40.771L20.9763 44.7847C21.0772 44.8892 21.1978 44.9726 21.3313 45.0299C21.4647 45.0873 21.6082 45.1175 21.7534 45.1188C21.8987 45.1201 22.0427 45.0924 22.1771 45.0374C22.3116 44.9825 22.4337 44.9013 22.5364 44.7986C22.6391 44.6959 22.7204 44.5738 22.7754 44.4394C22.8304 44.305 22.8581 44.161 22.8569 44.0158C22.8557 43.8706 22.8255 43.727 22.7682 43.5936C22.7109 43.4601 22.6276 43.3394 22.5232 43.2385L20.3863 41.1016Z" fill="#A783FF"/>
<path d="M55.7263 48.9641C55.4362 48.9641 55.158 49.0794 54.9529 49.2845C54.7477 49.4896 54.6325 49.7678 54.6325 50.0579V53.1073L49.4288 47.9029C49.2236 47.6978 48.9454 47.5825 48.6553 47.5825C48.3652 47.5825 48.087 47.6978 47.8819 47.9029C47.6768 48.108 47.5615 48.3862 47.5615 48.6763C47.5615 48.9664 47.6768 49.2446 47.8819 49.4498L53.0694 54.6373H50.05C49.7599 54.6373 49.4817 54.7525 49.2766 54.9576C49.0715 55.1627 48.9563 55.4409 48.9563 55.731C48.9563 56.0211 49.0715 56.2993 49.2766 56.5044C49.4817 56.7095 49.7599 56.8248 50.05 56.8248H55.7263C56.0163 56.8248 56.2945 56.7095 56.4997 56.5044C56.7048 56.2993 56.82 56.0211 56.82 55.731V50.0579C56.82 49.7678 56.7048 49.4896 56.4997 49.2845C56.2945 49.0794 56.0163 48.9641 55.7263 48.9641Z" fill="#A783FF"/>
<path d="M24.2544 31.0317C24.5445 31.0317 24.8227 30.9164 25.0278 30.7113C25.2329 30.5062 25.3481 30.228 25.3481 29.9379V26.916L30.5356 32.1067C30.637 32.2084 30.7575 32.2892 30.8901 32.3443C31.0227 32.3995 31.1649 32.428 31.3086 32.4283C31.4522 32.4285 31.5945 32.4004 31.7273 32.3457C31.8601 32.2909 31.9808 32.2106 32.0825 32.1092C32.1843 32.0078 32.265 31.8873 32.3202 31.7547C32.3754 31.6221 32.4039 31.4799 32.4041 31.3362C32.4044 31.1926 32.3763 31.0503 32.3216 30.9175C32.2668 30.7847 32.1864 30.664 32.085 30.5623L26.8806 25.3579H29.9306C30.2207 25.3579 30.4989 25.2427 30.704 25.0376C30.9092 24.8324 31.0244 24.5542 31.0244 24.2642C31.0244 23.9741 30.9092 23.6959 30.704 23.4908C30.4989 23.2856 30.2207 23.1704 29.9306 23.1704H24.2544C23.9644 23.1706 23.6863 23.2859 23.4812 23.4909C23.2761 23.696 23.1608 23.9741 23.1606 24.2642V29.9373C23.1606 30.081 23.1888 30.2233 23.2437 30.356C23.2987 30.4888 23.3792 30.6095 23.4808 30.7111C23.5823 30.8127 23.703 30.8933 23.8357 30.9483C23.9684 31.0033 24.1107 31.0317 24.2544 31.0317Z" fill="#A783FF"/>
<path d="M43.2307 57.4648L41.0938 59.6017V52.2617C41.0938 51.9716 40.9786 51.6934 40.7735 51.4883C40.5683 51.2832 40.2901 51.168 40.0001 51.168C39.71 51.168 39.4318 51.2832 39.2267 51.4883C39.0215 51.6934 38.9063 51.9716 38.9063 52.2617V59.6211L36.7501 57.4648C36.5449 57.2597 36.2667 57.1445 35.9766 57.1445C35.6865 57.1445 35.4083 57.2597 35.2032 57.4648C34.9981 57.67 34.8828 57.9482 34.8828 58.2383C34.8828 58.5284 34.9981 58.8066 35.2032 59.0117L39.2169 63.0255C39.3185 63.1271 39.439 63.2078 39.5717 63.2628C39.7044 63.3178 39.8467 63.3461 39.9904 63.3461C40.134 63.3461 40.2763 63.3178 40.409 63.2628C40.5417 63.2078 40.6623 63.1271 40.7638 63.0255L44.7776 59.0117C44.9827 58.8066 45.0979 58.5284 45.0979 58.2383C45.0979 57.9482 44.9827 57.67 44.7776 57.4648C44.5724 57.2597 44.2942 57.1445 44.0041 57.1445C43.714 57.1445 43.4358 57.2597 43.2307 57.4648Z" fill="#A783FF"/>
<path d="M40 52.2619C46.773 52.2619 52.2637 46.7712 52.2637 39.9981C52.2637 33.225 46.773 27.7344 40 27.7344C33.2269 27.7344 27.7362 33.225 27.7362 39.9981C27.7362 46.7712 33.2269 52.2619 40 52.2619Z" fill="#FFE278"/>
<path d="M47.2395 40.5573C47.5484 36.5577 44.5565 33.065 40.5569 32.7561C36.5572 32.4472 33.0645 35.4391 32.7556 39.4387C32.4467 43.4383 35.4386 46.9311 39.4382 47.24C43.4379 47.5489 46.9306 44.5569 47.2395 40.5573Z" fill="#FF936B"/>
<path d="M42.0868 11.5281C44.8581 10.3794 46.1735 7.20161 45.0248 4.4303C43.8761 1.659 40.6983 0.343623 37.927 1.49234C35.1556 2.64105 33.8403 5.81885 34.989 8.59016C36.1377 11.3615 39.3155 12.6768 42.0868 11.5281Z" fill="#78E3F5"/>
<path d="M40.8522 78.8346C43.8125 78.3547 45.8232 75.5659 45.3434 72.6056C44.8635 69.6454 42.0747 67.6346 39.1144 68.1145C36.1542 68.5944 34.1434 71.3832 34.6233 74.3434C35.1032 77.3037 37.892 79.3144 40.8522 78.8346Z" fill="#78E3F5"/>
<path d="M63.6706 21.7582C66.6699 21.7582 69.1012 19.3268 69.1012 16.3276C69.1012 13.3283 66.6699 10.897 63.6706 10.897C60.6714 10.897 58.24 13.3283 58.24 16.3276C58.24 19.3268 60.6714 21.7582 63.6706 21.7582Z" fill="#78E3F5"/>
<path d="M16.3294 69.099C19.3287 69.099 21.7601 66.6677 21.7601 63.6684C21.7601 60.6692 19.3287 58.2378 16.3294 58.2378C13.3302 58.2378 10.8988 60.6692 10.8988 63.6684C10.8988 66.6677 13.3302 69.099 16.3294 69.099Z" fill="#78E3F5"/>
<path d="M73.4757 45.4286C72.4015 45.4286 71.3515 45.1101 70.4584 44.5133C69.5653 43.9165 68.8692 43.0682 68.4582 42.0758C68.0473 41.0834 67.9398 39.9913 68.1495 38.9379C68.3592 37.8844 68.8766 36.9167 69.6363 36.1573C70.396 35.3979 71.3638 34.8808 72.4174 34.6715C73.4709 34.4622 74.5629 34.57 75.5552 34.9813C76.5475 35.3926 77.3955 36.089 77.992 36.9823C78.5885 37.8756 78.9067 38.9257 78.9063 39.9999C78.9058 41.4399 78.3334 42.8207 77.315 43.8387C76.2967 44.8567 74.9156 45.4286 73.4757 45.4286Z" fill="#78E3F5"/>
<path d="M11.5624 42.0723C12.7051 39.298 11.3824 36.1226 8.60812 34.9799C5.83381 33.8372 2.65844 35.1599 1.51572 37.9342C0.373009 40.7085 1.69568 43.8839 4.46999 45.0266C7.24429 46.1693 10.4197 44.8466 11.5624 42.0723Z" fill="#78E3F5"/>
<path d="M63.6706 69.099C66.6699 69.099 69.1012 66.6677 69.1012 63.6684C69.1012 60.6692 66.6699 58.2378 63.6706 58.2378C60.6714 58.2378 58.24 60.6692 58.24 63.6684C58.24 66.6677 60.6714 69.099 63.6706 69.099Z" fill="#78E3F5"/>
<path d="M16.3294 21.7582C19.3287 21.7582 21.7601 19.3268 21.7601 16.3276C21.7601 13.3283 19.3287 10.897 16.3294 10.897C13.3302 10.897 10.8988 13.3283 10.8988 16.3276C10.8988 19.3268 13.3302 21.7582 16.3294 21.7582Z" fill="#78E3F5"/>
</g>
<defs>
<clipPath id="clip0_311_780">
<rect width="80" height="80" fill="white"/>
</clipPath>
</defs>
</svg>
