<svg width="77" height="78" viewBox="0 0 77 78" fill="none" xmlns="http://www.w3.org/2000/svg">
<path fill-rule="evenodd" clip-rule="evenodd" d="M74.3505 45.3683C66.781 45.3683 62.9832 54.5385 68.3352 59.8906C69.3211 60.8765 69.3211 62.4757 68.3352 63.4616L62.8993 68.8975C61.9134 69.8834 60.3142 69.8834 59.3283 68.8975C53.9762 63.5454 44.806 67.3433 44.806 74.9128C44.806 76.3078 43.6752 77.4377 42.2811 77.4377H34.5939C33.1998 77.4377 32.069 76.3078 32.069 74.9128C32.069 67.334 22.9057 63.5388 17.5467 68.8975C16.5608 69.8834 14.9618 69.8834 13.9759 68.8975L8.54001 63.4616C7.55409 62.4757 7.55409 60.8767 8.54001 59.8906C13.8921 54.5385 10.0942 45.3683 2.52486 45.3683C1.1299 45.3683 0 44.2376 0 42.8434V39.8008C0 39.3597 0.359711 39 0.800781 39H18.8694C19.2991 39 19.6521 39.3392 19.6693 39.7686C20.0724 49.7862 28.3211 57.7839 38.4377 57.7839C48.5541 57.7839 56.8028 49.7864 57.2061 39.7687C57.2233 39.3395 57.5763 39.0002 58.0059 39.0002L76.0744 39C76.5154 39 76.8752 39.3597 76.8752 39.8008V42.8438C76.8752 44.2376 75.7454 45.3683 74.3505 45.3683ZM49.2463 39.8637C49.2645 39.6329 49.1931 39.4273 49.036 39.2574C48.8789 39.0873 48.6795 39.0002 48.4479 39.0002H28.4274C28.1958 39.0002 27.9964 39.0873 27.8393 39.2574C27.6822 39.4275 27.6108 39.6329 27.629 39.8637C28.0691 45.4481 32.7403 49.8426 38.4377 49.8426C44.1351 49.8426 48.8062 45.4481 49.2463 39.8637Z" fill="#FDCD56"/>
<path fill-rule="evenodd" clip-rule="evenodd" d="M69.691 27.3857C69.691 33.528 47.4468 33.528 47.4468 27.3857C47.4468 21.2436 52.4268 16.2642 58.5693 16.2642C64.7116 16.264 69.691 21.2434 69.691 27.3857Z" fill="#66D4F1"/>
<path fill-rule="evenodd" clip-rule="evenodd" d="M53.429 8.16122C53.429 11.0003 55.7304 13.3016 58.5695 13.3016C61.4086 13.3016 63.7099 11.0003 63.7099 8.16122C63.7099 5.32293 61.4086 3.02148 58.5695 3.02148C55.7304 3.02148 53.429 5.32293 53.429 8.16122Z" fill="#EFC7A4"/>
<path fill-rule="evenodd" clip-rule="evenodd" d="M29.4283 27.3857C29.4283 33.528 7.18408 33.528 7.18408 27.3857C7.18408 21.2436 12.1641 16.2642 18.3066 16.2642C24.4489 16.264 29.4283 21.2434 29.4283 27.3857Z" fill="#F76C82"/>
<path fill-rule="evenodd" clip-rule="evenodd" d="M13.1661 8.16122C13.1661 11.0003 15.4676 13.3016 18.3067 13.3016C21.1458 13.3016 23.447 11.0003 23.447 8.16122C23.447 5.32293 21.1458 3.02148 18.3067 3.02148C15.4676 3.02148 13.1661 5.32293 13.1661 8.16122Z" fill="#EFC7A4"/>
<path fill-rule="evenodd" clip-rule="evenodd" d="M32.8612 6.1385C32.8612 9.21863 35.3579 11.7153 38.438 11.7153C41.5181 11.7153 44.0148 9.21863 44.0148 6.1385C44.0148 3.05934 41.5181 0.5625 38.438 0.5625C35.358 0.5625 32.8612 3.05918 32.8612 6.1385Z" fill="#EFC7A4"/>
<path fill-rule="evenodd" clip-rule="evenodd" d="M50.5038 26.9949C50.5038 33.6587 26.3715 33.6587 26.3715 26.9949C26.3715 20.3313 31.7743 14.9292 38.4381 14.9292C45.1017 14.9292 50.5038 20.3313 50.5038 26.9949Z" fill="#B3A4EE"/>
</svg>
