<svg width="70" height="70" viewBox="0 0 70 70" fill="none" xmlns="http://www.w3.org/2000/svg">
<path fill-rule="evenodd" clip-rule="evenodd" d="M51.4062 14.4506C53.0928 13.5811 54.95 13.125 56.875 13.125C63.5086 13.125 68.9062 18.5227 68.9062 25.1562C68.9062 31.7898 63.5086 37.1875 56.875 37.1875C52.0013 37.1875 47.6886 34.2563 45.8248 29.8758L43.6789 32.0217L40.9566 30.4041C40.6098 30.5648 40.2588 30.7114 39.9109 30.8416L39.1311 33.9062H36.0938V41.2289C38.2725 38.1292 41.8688 36.0938 45.9375 36.0938H51.4062V37.1875C51.4062 43.8211 46.0086 49.2188 39.375 49.2188H36.0938V52.5V53.5938V55.7812H37.7344L41.0156 60.1562H43.3322L44.4259 62.3438H50.073L51.7136 68.9062H15.7303L19.0116 62.3438H25.737L31.2058 55.7812H33.9062V53.5938H30.625C23.9914 53.5938 18.5938 48.1961 18.5938 41.5625V40.4688H24.0625C28.1313 40.4688 31.7275 42.5042 33.9062 45.6039V33.9062H30.8689L30.088 30.8416C29.7402 30.7114 29.3891 30.5648 29.0423 30.4041L26.32 32.0217L24.1741 29.8758C22.3114 34.2563 17.9988 37.1875 13.125 37.1875C6.49141 37.1875 1.09375 31.7898 1.09375 25.1562C1.09375 18.5227 6.49141 13.125 13.125 13.125C15.05 13.125 16.9072 13.5811 18.5938 14.4517V13.3689L21.6584 12.5891C21.7886 12.2413 21.9352 11.8902 22.0959 11.5434L20.4783 8.82109L26.3211 2.97828L29.0434 4.59594C29.3902 4.43516 29.7413 4.28859 30.0891 4.15844L30.8678 1.09375H39.1311L39.9109 4.15734C40.2588 4.2875 40.6098 4.43406 40.9566 4.59484L43.6789 2.97719L49.5217 8.82L47.9041 11.5423C48.0648 11.8891 48.2114 12.2402 48.3416 12.588L51.4062 13.3678V14.4506ZM34.5472 60.1562H38.2812L36.6406 57.9688H32.2317L26.763 64.5312H20.3634L19.2697 66.7188H48.9114L48.3645 64.5312H43.0741L41.9803 62.3438H35.4528L33.5858 64.2108L32.0392 62.6642L34.5472 60.1562ZM49.1575 38.2812H45.9375C40.8789 38.2812 36.7008 42.1159 36.155 47.0312H39.375C44.4336 47.0312 48.6117 43.1966 49.1575 38.2812ZM20.8425 42.6562C21.3883 47.5716 25.5664 51.4062 30.625 51.4062H33.845C33.2992 46.4909 29.1211 42.6562 24.0625 42.6562H20.8425ZM3.28125 25.1562C3.28125 30.5845 7.69672 35 13.125 35C17.4169 35 21.1739 32.2219 22.4755 28.1772L20.4783 26.18L22.0959 23.4577C21.9352 23.1109 21.7886 22.7598 21.6584 22.412L18.5938 21.6322V16.9936C16.9663 15.8966 15.0883 15.3125 13.125 15.3125C7.69672 15.3125 3.28125 19.728 3.28125 25.1562ZM41.0441 27.9103L43.3355 29.2731L46.7731 25.8355L45.4103 23.5441L45.6892 23.0048C46.0053 22.3923 46.2645 21.7733 46.4603 21.1619L46.6441 20.5844L49.2188 19.9303V15.0686L46.6441 14.4156L46.4603 13.8381C46.2645 13.2267 46.0053 12.6077 45.6892 11.9952L45.4103 11.4559L46.7731 9.16453L43.3355 5.72688L41.0441 7.08969L40.5048 6.81078C39.8923 6.49469 39.2733 6.23547 38.6619 6.03969L38.0844 5.85594L37.4303 3.28125H32.5686L31.9156 5.85594L31.3381 6.03969C30.7267 6.23547 30.1077 6.49469 29.4952 6.81078L28.9559 7.08969L26.6645 5.72688L23.2269 9.16453L24.5897 11.4559L24.3108 11.9952C23.9947 12.6077 23.7355 13.2267 23.5397 13.8381L23.3559 14.4156L20.7812 15.0697V19.9314L23.3559 20.5844L23.5397 21.1619C23.7355 21.7733 23.9947 22.3923 24.3108 23.0048L24.5897 23.5441L23.2269 25.8355L26.6645 29.2731L28.9559 27.9103L29.4952 28.1892C30.1077 28.5053 30.7267 28.7645 31.3381 28.9603L31.9156 29.1441L32.5697 31.7188H37.4314L38.0844 29.1441L38.6619 28.9603C39.2733 28.7645 39.8923 28.5053 40.5048 28.1892L41.0441 27.9103ZM47.5245 28.1772C48.8261 32.2219 52.5831 35 56.875 35C62.3033 35 66.7188 30.5845 66.7188 25.1562C66.7188 19.728 62.3033 15.3125 56.875 15.3125C54.9117 15.3125 53.0337 15.8966 51.4062 16.9925V21.6311L48.3416 22.412C48.2114 22.7598 48.0648 23.1109 47.9041 23.4577L49.5217 26.18L47.5245 28.1772ZM41.8767 9.07332L26.5665 24.3835L28.1131 25.9301L43.4233 10.6199L41.8767 9.07332ZM14.2188 22.9688C14.2188 22.365 13.7288 21.875 13.125 21.875C12.5212 21.875 12.0312 22.365 12.0312 22.9688C12.0312 23.5725 12.5212 24.0625 13.125 24.0625C14.9341 24.0625 16.4062 25.5347 16.4062 27.3438C16.4062 28.7678 15.4886 29.9709 14.2188 30.4237V32.8125H12.0312V30.4237C10.7614 29.9709 9.84375 28.7678 9.84375 27.3438H12.0312C12.0312 27.9475 12.5212 28.4375 13.125 28.4375C13.7288 28.4375 14.2188 27.9475 14.2188 27.3438C14.2188 26.74 13.7288 26.25 13.125 26.25C11.3159 26.25 9.84375 24.7778 9.84375 22.9688C9.84375 21.5447 10.7614 20.3416 12.0312 19.8888V17.5H14.2188V19.8888C15.4886 20.3416 16.4062 21.5447 16.4062 22.9688H14.2188ZM39.375 18.5938C37.5659 18.5938 36.0938 20.0659 36.0938 21.875C36.0938 23.6841 37.5659 25.1562 39.375 25.1562C41.1841 25.1562 42.6562 23.6841 42.6562 21.875C42.6562 20.0659 41.1841 18.5938 39.375 18.5938ZM39.375 22.9688C38.7713 22.9688 38.2812 22.4788 38.2812 21.875C38.2812 21.2712 38.7713 20.7812 39.375 20.7812C39.9787 20.7812 40.4688 21.2712 40.4688 21.875C40.4688 22.4788 39.9787 22.9688 39.375 22.9688ZM33.9062 13.125C33.9062 14.9341 32.4341 16.4062 30.625 16.4062C28.8159 16.4062 27.3438 14.9341 27.3438 13.125C27.3438 11.3159 28.8159 9.84375 30.625 9.84375C32.4341 9.84375 33.9062 11.3159 33.9062 13.125ZM31.7188 13.125C31.7188 12.5212 31.2288 12.0312 30.625 12.0312C30.0212 12.0312 29.5312 12.5212 29.5312 13.125C29.5312 13.7288 30.0212 14.2188 30.625 14.2188C31.2288 14.2188 31.7188 13.7288 31.7188 13.125ZM56.875 21.875C57.4787 21.875 57.9688 22.365 57.9688 22.9688H60.1562C60.1562 21.5447 59.2386 20.3416 57.9688 19.8888V17.5H55.7812V19.8888C54.5114 20.3416 53.5938 21.5447 53.5938 22.9688C53.5938 24.7778 55.0659 26.25 56.875 26.25C57.4787 26.25 57.9688 26.74 57.9688 27.3438C57.9688 27.9475 57.4787 28.4375 56.875 28.4375C56.2713 28.4375 55.7812 27.9475 55.7812 27.3438H53.5938C53.5938 28.7678 54.5114 29.9709 55.7812 30.4237V32.8125H57.9688V30.4237C59.2386 29.9709 60.1562 28.7678 60.1562 27.3438C60.1562 25.5347 58.6841 24.0625 56.875 24.0625C56.2713 24.0625 55.7812 23.5725 55.7812 22.9688C55.7812 22.365 56.2713 21.875 56.875 21.875Z" fill="url(#paint0_linear_467_452)"/>
<defs>
<linearGradient id="paint0_linear_467_452" x1="35.1449" y1="40.651" x2="50.3219" y2="40.2264" gradientUnits="userSpaceOnUse">
<stop stop-color="#6F3AF1"/>
<stop offset="0.690345" stop-color="#FB6369"/>
</linearGradient>
</defs>
</svg>
