<svg width="168" height="57" viewBox="0 0 168 57" fill="none" xmlns="http://www.w3.org/2000/svg">
<path fill-rule="evenodd" clip-rule="evenodd" d="M19.8051 0H28.9977V41.2972C24.289 42.1702 20.8225 42.5137 17.0721 42.5137C5.84451 42.5022 0 37.5857 0 28.1433C0 19.0456 6.19944 13.1412 15.8062 13.1412C17.2969 13.1412 18.4327 13.2561 19.8051 13.6007V0ZM19.8051 20.7801C18.7285 20.4355 17.8411 20.3206 16.7054 20.3206C12.0558 20.3206 9.37014 23.1005 9.37014 27.9722C9.37014 32.7152 11.9375 35.3342 16.6462 35.3342C17.6637 35.3342 18.4918 35.2779 19.8051 35.1056V20.7801ZM43.609 13.773V34.4497C43.609 41.5706 43.0648 44.9949 41.4676 47.947C39.9769 50.7855 38.013 52.5752 33.9549 54.5521L25.4248 50.612C29.4828 48.7638 31.4468 47.1303 32.7008 44.6376C34.0141 42.0886 34.4282 39.1365 34.4282 31.3712V13.773H43.609ZM34.4282 0.0459481H43.6208V9.20115H34.4282V0.0459481ZM49.1566 15.8062C53.2158 13.9568 57.0963 13.1412 61.3318 13.1412C66.0524 13.1412 69.1509 14.3588 70.5245 16.7367C71.2935 18.0692 71.542 19.8037 71.542 23.514V41.6406C67.426 42.215 62.231 42.6274 58.4202 42.6274C50.7183 42.6274 47.2636 40.0198 47.2636 34.2315C47.2636 27.971 51.8552 25.0763 63.129 24.1562V22.1919C63.129 20.5722 62.289 19.9864 59.9701 19.9864C56.5746 19.9864 52.7532 20.9168 49.1684 22.7088L49.1566 15.8062ZM63.543 29.9916C57.4619 30.566 55.4861 31.4976 55.4861 33.8168C55.4861 35.5536 56.6219 36.3681 59.1301 36.3681C60.5025 36.3681 61.7566 36.2532 63.5419 35.966L63.543 29.9916ZM76.0141 15.1629C81.4445 13.773 85.9154 13.1412 90.4467 13.1412C95.1554 13.1412 98.5639 14.1865 100.586 16.2083C102.489 18.1151 103.095 20.2058 103.095 24.6627V42.1576H93.9014V25.0188C93.9014 21.5957 92.7064 20.3206 89.4304 20.3206C88.1752 20.3206 87.0406 20.4355 85.1949 20.9639V42.1587H76.0141V15.1629ZM106.668 47.0269C109.885 48.6466 113.104 49.3944 116.512 49.3944C122.534 49.3944 125.101 47.0166 125.101 41.342V41.1697C123.314 42.0312 121.515 42.3884 119.137 42.3884C111.081 42.3884 105.958 37.2308 105.958 29.0634C105.958 18.9204 113.542 13.1883 126.958 13.1883C130.898 13.1883 134.542 13.5904 138.954 14.4634L135.807 20.8961C133.36 20.4367 135.606 20.8272 133.761 20.6549V21.5854L133.879 25.3531L133.937 30.2236C133.998 31.4424 133.998 32.6577 134.058 33.8765V36.3106C134.058 43.961 133.394 47.5461 131.43 50.5098C128.567 54.8508 123.611 57 116.57 57C112.986 57 109.885 56.4819 106.668 55.2632V47.0269ZM124.923 20.3781H124.628H123.964C122.177 20.3206 120.085 20.7801 118.652 21.6531C116.452 22.8708 115.318 25.0763 115.318 28.2008C115.318 32.6566 117.589 35.2079 121.647 35.2079C122.9 35.2079 123.919 34.9793 125.102 34.6335V33.9891V31.555C125.102 30.5097 125.042 29.3495 125.042 28.1318L124.984 24.0195L124.923 21.0673V20.3781ZM153.211 13.0263C162.392 13.0263 168 18.6435 168 27.7413C168 37.0688 162.157 42.9146 152.843 42.9146C143.651 42.9146 137.982 37.2985 137.982 28.2593C137.998 18.8733 143.841 13.0263 153.211 13.0263ZM153.022 35.7236C156.548 35.7236 158.63 32.8875 158.63 27.9595C158.63 23.089 156.606 20.1943 153.082 20.1943C149.438 20.1943 147.354 23.0316 147.354 27.9595C147.354 32.8875 149.449 35.7236 153.022 35.7236Z" fill="white"/>
</svg>
