<svg width="96" height="97" viewBox="0 0 96 97" fill="none" xmlns="http://www.w3.org/2000/svg">
<path d="M65.6001 41.6021V4.80205C65.5976 3.95414 65.2596 3.14167 64.66 2.54211C64.0605 1.94254 63.248 1.60458 62.4001 1.60205H19.5841C18.312 1.60579 17.0929 2.11184 16.1921 3.01005L3.0081 16.1941C2.10989 17.0948 1.60384 18.314 1.6001 19.5861V84.8021C1.60263 85.65 1.94059 86.4624 2.54015 87.062C3.13972 87.6616 3.95218 87.9995 4.8001 88.0021H51.2001L65.6001 41.6021Z" fill="#E1EEFF"/>
<path d="M17.6001 2.0498V14.4018C17.5976 15.2497 17.2596 16.0622 16.66 16.6618C16.0605 17.2613 15.248 17.5993 14.4001 17.6018H2.0481C2.27741 17.0767 2.60302 16.5991 3.0081 16.1938L16.1921 3.0098C16.5974 2.60473 17.075 2.27912 17.6001 2.0498Z" fill="#9FBACE"/>
<path d="M67.2 94.402C82.2221 94.402 94.4 82.2241 94.4 67.202C94.4 52.1798 82.2221 40.002 67.2 40.002C52.1779 40.002 40 52.1798 40 67.202C40 82.2241 52.1779 94.402 67.2 94.402Z" fill="#1584E8"/>
<path d="M82.8639 67.602L68.6399 47.17C68.4813 46.9337 68.267 46.7401 68.0158 46.6063C67.7647 46.4724 67.4845 46.4023 67.1999 46.4023C66.9153 46.4023 66.6351 46.4724 66.384 46.6063C66.1329 46.7401 65.9185 46.9337 65.7599 47.17L51.5359 67.602C51.2831 67.948 51.1689 68.3761 51.2159 68.802C51.2379 69.177 51.3779 69.5354 51.6159 69.826L65.8399 87.346C66.0026 87.5507 66.2094 87.7159 66.4449 87.8295C66.6804 87.9431 66.9385 88.0021 67.1999 88.0021C67.4614 88.0021 67.7194 87.9431 67.9549 87.8295C68.1904 87.7159 68.3972 87.5507 68.5599 87.346L82.7839 69.826C83.0219 69.5354 83.1619 69.177 83.1839 68.802C83.2309 68.3761 83.1167 67.948 82.8639 67.602Z" fill="white"/>
<path d="M83.184 68.8018C83.162 69.1767 83.0219 69.5352 82.784 69.8258L68.5599 87.3458C68.397 87.5501 68.1901 87.7152 67.9547 87.8287C67.7193 87.9423 67.4613 88.0014 67.2 88.0018V75.2018L83.184 68.8018Z" fill="#E1EEFF"/>
<path d="M83.184 68.8019L67.2 62.4019V46.4019C67.4845 46.4022 67.7646 46.4724 68.0157 46.6063C68.2668 46.7402 68.4812 46.9337 68.64 47.1699L82.864 67.6019C83.1168 67.9478 83.2309 68.3759 83.184 68.8019Z" fill="#E1EEFF"/>
<path d="M67.2001 62.4019V75.2019L51.2161 68.8019L67.2001 62.4019Z" fill="#C0DAF0"/>
<path d="M83.184 68.8019L67.2 75.2019V62.4019L83.184 68.8019Z" fill="#B1CBDD"/>
<path d="M35.2 81.6019C33.6999 81.6771 32.2022 81.4142 30.8174 80.8326C29.4327 80.2511 28.1964 79.3656 27.2 78.2419C26.2035 79.3656 24.9672 80.2511 23.5825 80.8326C22.1978 81.4142 20.7 81.6771 19.2 81.6019C18.6576 81.5954 18.1189 81.5119 17.6 81.3539C17.0811 81.5119 16.5424 81.5954 16 81.6019C13.8311 81.696 11.7086 80.9556 10.0688 79.5331C9.77732 79.2313 9.61604 78.8271 9.61969 78.4076C9.62333 77.9881 9.79161 77.5868 10.0883 77.2901C10.3849 76.9935 10.7862 76.8252 11.2057 76.8216C11.6252 76.8179 12.0294 76.9792 12.3312 77.2707C12.6575 77.5405 13.0248 77.7566 13.4192 77.9107C13.0064 77.0676 12.7945 76.1405 12.8 75.2019C12.8 73.9288 13.3057 72.7079 14.2059 71.8077C15.106 70.9076 16.3269 70.4019 17.6 70.4019C18.873 70.4019 20.0939 70.9076 20.9941 71.8077C21.8943 72.7079 22.4 73.9288 22.4 75.2019C22.4074 76.2007 22.1671 77.1858 21.7008 78.0691C22.5782 77.8485 23.3933 77.4298 24.0837 76.8452C24.774 76.2605 25.3212 75.5254 25.6832 74.6963C25.7884 74.3761 25.992 74.0974 26.2649 73.8998C26.5379 73.7022 26.8662 73.5959 27.2032 73.5959C27.5401 73.5959 27.8685 73.7022 28.1414 73.8998C28.4144 74.0974 28.618 74.3761 28.7232 74.6963C28.7664 74.8339 30.0992 78.4019 35.2 78.4019C35.6243 78.4019 36.0313 78.5704 36.3313 78.8705C36.6314 79.1705 36.8 79.5775 36.8 80.0019C36.8 80.4262 36.6314 80.8332 36.3313 81.1332C36.0313 81.4333 35.6243 81.6019 35.2 81.6019ZM17.6 73.6019C17.1756 73.6019 16.7687 73.7704 16.4686 74.0705C16.1685 74.3705 16 74.7775 16 75.2019C16.0049 75.7495 16.1557 76.286 16.437 76.7559C16.7182 77.2259 17.1197 77.6123 17.6 77.8755C18.0803 77.6123 18.4817 77.2259 18.763 76.7559C19.0442 76.286 19.1951 75.7495 19.2 75.2019C19.2 74.7775 19.0314 74.3705 18.7313 74.0705C18.4313 73.7704 18.0243 73.6019 17.6 73.6019Z" fill="#09558E"/>
<path d="M33.6 65.6019H9.6C9.17565 65.6019 8.76869 65.4333 8.46863 65.1332C8.16857 64.8332 8 64.4262 8 64.0019C8 63.5775 8.16857 63.1705 8.46863 62.8705C8.76869 62.5704 9.17565 62.4019 9.6 62.4019H33.6C34.0243 62.4019 34.4313 62.5704 34.7314 62.8705C35.0314 63.1705 35.2 63.5775 35.2 64.0019C35.2 64.4262 35.0314 64.8332 34.7314 65.1332C34.4313 65.4333 34.0243 65.6019 33.6 65.6019Z" fill="#B1CBDD"/>
<path d="M35.2 56.0018H9.6C9.17565 56.0018 8.76869 55.8332 8.46863 55.5331C8.16857 55.2331 8 54.8261 8 54.4018C8 53.9774 8.16857 53.5704 8.46863 53.2704C8.76869 52.9703 9.17565 52.8018 9.6 52.8018H35.2C35.6243 52.8018 36.0313 52.9703 36.3314 53.2704C36.6314 53.5704 36.8 53.9774 36.8 54.4018C36.8 54.8261 36.6314 55.2331 36.3314 55.5331C36.0313 55.8332 35.6243 56.0018 35.2 56.0018Z" fill="#B1CBDD"/>
<path d="M41.6 46.4021H9.6C9.17565 46.4021 8.76869 46.2336 8.46863 45.9335C8.16857 45.6335 8 45.2265 8 44.8021C8 44.3778 8.16857 43.9708 8.46863 43.6708C8.76869 43.3707 9.17565 43.2021 9.6 43.2021H41.6C42.0243 43.2021 42.4313 43.3707 42.7314 43.6708C43.0314 43.9708 43.2 44.3778 43.2 44.8021C43.2 45.2265 43.0314 45.6335 42.7314 45.9335C42.4313 46.2336 42.0243 46.4021 41.6 46.4021Z" fill="#B1CBDD"/>
<path d="M57.6 36.8021H9.6C9.17565 36.8021 8.76869 36.6335 8.46863 36.3334C8.16857 36.0334 8 35.6264 8 35.2021C8 34.7777 8.16857 34.3707 8.46863 34.0707C8.76869 33.7706 9.17565 33.6021 9.6 33.6021H57.6C58.0243 33.6021 58.4313 33.7706 58.7314 34.0707C59.0314 34.3707 59.2 34.7777 59.2 35.2021C59.2 35.6264 59.0314 36.0334 58.7314 36.3334C58.4313 36.6335 58.0243 36.8021 57.6 36.8021Z" fill="#B1CBDD"/>
<path d="M57.6 27.202H9.6C9.17565 27.202 8.76869 27.0334 8.46863 26.7333C8.16857 26.4333 8 26.0263 8 25.602C8 25.1776 8.16857 24.7706 8.46863 24.4706C8.76869 24.1705 9.17565 24.002 9.6 24.002H57.6C58.0243 24.002 58.4313 24.1705 58.7314 24.4706C59.0314 24.7706 59.2 25.1776 59.2 25.602C59.2 26.0263 59.0314 26.4333 58.7314 26.7333C58.4313 27.0334 58.0243 27.202 57.6 27.202Z" fill="#B1CBDD"/>
</svg>
