<svg width="60" height="54" viewBox="0 0 60 54" fill="none" xmlns="http://www.w3.org/2000/svg">
<path d="M14.3028 5.67557L15.9775 11.3752L16.3249 12.5576L16.695 11.3822L17.5828 8.56226H19.4167L20.3052 11.3822L20.6754 12.5572L21.0226 11.3752L22.6973 5.67557L24.3764 6.1695L21.6222 15.5432L19.7865 15.561L18.8574 12.6119L18.4996 11.4763L18.1421 12.612L17.2136 15.561L15.3779 15.5432L12.6237 6.1695L14.3028 5.67557Z" fill="#A783FF" stroke="#10113C" stroke-width="0.75"/>
<path d="M28.3025 5.67556L29.9777 11.3753L30.3252 12.5574L30.6952 11.3822L31.5831 8.56226H33.4169L34.3048 11.3822L34.6748 12.5574L35.0223 11.3753L36.6975 5.67556L38.3767 6.16949L35.6219 15.5432L33.7862 15.561L32.8577 12.612L32.5 11.4759L32.1423 12.612L31.2138 15.561L29.3781 15.5432L26.6233 6.16949L28.3025 5.67556Z" fill="#A783FF" stroke="#10113C" stroke-width="0.75"/>
<path d="M42.3027 5.67557L43.9774 11.3752L44.3246 12.5572L44.6948 11.3822L45.5833 8.56226H47.4172L48.305 11.3822L48.6751 12.5576L49.0225 11.3752L50.6972 5.67557L52.3763 6.1695L49.6221 15.5432L47.7864 15.561L46.8579 12.612L46.5003 11.4763L46.1426 12.6119L45.2135 15.561L43.3778 15.5432L40.6236 6.1695L42.3027 5.67557Z" fill="#A783FF" stroke="#10113C" stroke-width="0.75"/>
<path d="M5.375 11.4373V0.9375H59.625V20.1875H51.7395H51.2617L51.3753 20.6516C51.8669 22.6607 52.125 24.7245 52.125 26.8125C52.125 33.6392 49.4909 40.0717 44.7066 44.927L44.7057 44.928C39.8111 49.9315 33.2568 52.6875 26.25 52.6875C19.2433 52.6875 12.6889 49.9315 7.79128 44.9243L7.79029 44.9233C3.00913 40.0718 0.375 33.6393 0.375 26.8125C0.375 21.3083 2.08521 16.0827 5.30328 11.6578L5.375 11.5592V11.4373ZM5.375 16.2255L4.6648 16.0573C3.18906 18.9996 2.34675 22.2078 2.17506 25.5432L2.15476 25.9375H2.54956H11.692H12.0575L12.0669 25.5721C12.11 23.8915 12.2382 22.2325 12.4543 20.6121L12.511 20.1875H12.0826H5.375V16.2255ZM2.5603 27.6875H2.16534L2.18581 28.0819C2.47001 33.5585 4.57734 38.6929 8.22073 42.7824L8.47496 43.0678L8.75545 42.8082C10.2138 41.4585 11.7912 40.2886 13.4765 39.3252L13.7317 39.1794L13.651 38.8967C12.7248 35.6507 12.1741 31.9805 12.0757 28.0531L12.0665 27.6875H11.7008H2.5603ZM10.0006 44.036L9.70021 44.3122L10.0006 44.5883C12.4993 46.8845 15.3933 48.6003 18.5386 49.6603L18.9334 49.0501C17.1381 47.1119 15.5941 44.4871 14.43 41.3169L14.2736 40.8908L13.8846 41.1249C12.5064 41.9543 11.2078 42.9265 10.0006 44.036ZM24.9219 50.7932L25.375 50.8897V50.4264V38.1241V37.7293L24.9807 37.7496C21.9021 37.9086 18.9388 38.6368 16.2028 39.8954L15.891 40.0388L16.0063 40.3621C17.0053 43.1624 18.3015 45.5639 19.8081 47.3671C21.3134 49.1687 23.0472 50.394 24.9219 50.7932ZM25.0175 35.9986L25.375 35.9819V35.624V28.0625V27.6875H25H14.2002H13.8145L13.8253 28.073C13.9239 31.5876 14.4181 34.9349 15.2393 37.9274L15.3548 38.3482L15.7535 38.1707C18.6451 36.8832 21.7722 36.1502 25.0175 35.9986ZM25 25.9375H25.375V25.5625V20.5625V20.1875H25H14.6085H14.2828L14.2372 20.51C14.0045 22.1548 13.8634 23.8413 13.8172 25.5524L13.8067 25.9375H14.192H25ZM27.125 50.4264V50.8897L27.5781 50.7932C29.4528 50.394 31.1866 49.1687 32.6919 47.3671C34.1985 45.5638 35.4947 43.1623 36.4937 40.362L36.609 40.0387L36.2972 39.8953C33.5612 38.6367 30.5979 37.9084 27.5193 37.7495L27.125 37.7292V38.124V50.4264ZM38.6747 28.073L38.6855 27.6875H38.2998H27.5H27.125V28.0625V35.624V35.9819L27.4825 35.9986C30.7279 36.1502 33.8549 36.8833 36.7465 38.1707L37.1452 38.3482L37.2607 37.9274C38.0819 34.9349 38.5761 31.5876 38.6747 28.073ZM27.125 25.5625V25.9375H27.5H38.3081H38.6934L38.683 25.5524C38.6368 23.841 38.4958 22.1547 38.263 20.51L38.2174 20.1875H37.8917H27.5H27.125V20.5625V25.5625ZM33.5663 49.0502L33.9612 49.6604C37.1074 48.6003 40.0018 46.8845 42.4997 44.5885L42.8001 44.3124L42.4997 44.0363C41.2924 42.9268 39.9939 41.9543 38.6153 41.1247L38.2264 40.8907L38.07 41.3168C36.9059 44.4871 35.3618 47.112 33.5663 49.0502ZM43.7447 42.8083L44.0252 43.068L44.2794 42.7825C47.9233 38.6906 50.03 33.5571 50.3142 28.0819L50.3347 27.6875H49.9397H40.7992H40.4335L40.4243 28.0531C40.3259 31.9804 39.7752 35.6507 38.849 38.8967L38.7683 39.1793L39.0235 39.3252C40.7089 40.2887 42.2862 41.4585 43.7447 42.8083ZM40.4331 25.5721L40.4425 25.9375H40.808H49.9529H50.3479L50.3274 25.543C50.2376 23.8184 49.9632 22.1191 49.5117 20.4638L49.4363 20.1875H49.1499H40.4175H39.9891L40.0458 20.6121C40.2619 22.2323 40.3901 23.8912 40.4331 25.5721ZM57.5 18.4375H57.875V18.0625V3.0625V2.6875H57.5H7.5H7.125V3.0625V18.0625V18.4375H7.5H57.5Z" fill="#A783FF" stroke="#A783FF" stroke-width="0.75"/>
</svg>
