<svg width="15" height="15" viewBox="0 0 15 15" fill="none" xmlns="http://www.w3.org/2000/svg">
<path fill-rule="evenodd" clip-rule="evenodd" d="M14.5883 4.98029C14.6331 5.0395 14.665 5.10445 14.6843 5.17177C14.8877 5.52474 15 5.92933 14.9999 6.34291V7.55987C14.9999 7.88345 14.7377 8.14572 14.414 8.14572C14.0904 8.14572 13.8281 7.88343 13.8281 7.55987V6.34291C13.8281 6.32548 13.8277 6.30811 13.8269 6.29076L8.7817 10.1068C8.76746 10.1175 8.75275 10.1276 8.7376 10.1371C8.35588 10.3744 7.9279 10.493 7.49994 10.493C7.07196 10.493 6.644 10.3744 6.26229 10.1371C6.24799 10.1281 6.23404 10.1186 6.22053 10.1085L2.72496 7.49176C2.46593 7.29781 2.41316 6.93066 2.60711 6.67168C2.80106 6.4127 3.1683 6.3599 3.42733 6.55385L6.90066 9.15397C7.27203 9.37522 7.72665 9.37545 8.09817 9.15464L13.2089 5.28908L8.0958 1.33697C7.72589 1.11827 7.27411 1.11827 6.90421 1.33697L1.62702 5.41596C1.34206 5.63627 1.1719 5.9828 1.1719 6.34294V12.6566C1.1719 13.3027 1.69761 13.8283 2.34377 13.8283H9.55078C9.87442 13.8283 10.1367 14.0905 10.1367 14.4141C10.1367 14.7377 9.87439 15 9.55078 15H2.34377C1.05141 15 2.93019e-05 13.9488 0 12.6567V6.34294C0 5.62262 0.340283 4.92957 0.910264 4.48901L6.21338 0.389977C6.22912 0.37779 6.24547 0.366422 6.26235 0.355934C7.02572 -0.118645 7.97419 -0.118645 8.7376 0.355934C8.75448 0.366452 8.77083 0.37779 8.78656 0.389977L14.0897 4.48901C14.2335 4.60016 14.3626 4.72731 14.4754 4.86694C14.517 4.89861 14.5552 4.93646 14.5883 4.98029ZM13.0978 9.49926L14.828 11.226C15.057 11.4546 15.0574 11.8255 14.8288 12.0545C14.7143 12.1691 14.5642 12.2264 14.4141 12.2264C14.2643 12.2264 14.1145 12.1694 14.0001 12.0552L13.0664 11.1234V14.4141C13.0664 14.7377 12.8041 15 12.4804 15C12.1568 15 11.8945 14.7377 11.8945 14.4141V11.1234L10.9608 12.0552C10.7318 12.2838 10.3608 12.2835 10.1322 12.0545C9.90352 11.8255 9.90387 11.4546 10.1329 11.226L11.8634 9.49891C12.2035 9.15892 12.7574 9.15892 13.0978 9.49926Z" fill="#546179"/>
</svg>
