<svg width="63" height="63" viewBox="0 0 63 63" fill="none" xmlns="http://www.w3.org/2000/svg">
<path fill-rule="evenodd" clip-rule="evenodd" d="M27.1448 27.5432L29.3069 32.7435C29.5316 33.2838 29.3012 33.9018 28.7809 34.1694L27.1576 35.0046C26.8677 35.1538 26.5618 35.1727 26.2556 35.0603C25.9496 34.9479 25.7298 34.735 25.6041 34.4342L23.1687 28.6087L27.1448 27.5432ZM40.752 43.1834L59.6652 59.5746C59.7517 59.3239 59.801 59.0558 59.801 58.7759V27.6726C59.801 27.3941 59.7529 27.1282 59.6681 26.8797L40.752 43.1834ZM31.5737 47.8448L57.7851 25.2535C57.6401 25.2275 57.4927 25.2112 57.34 25.2112H50.8021C50.8757 27.5263 49.3451 29.6969 47.0204 30.3198C44.9053 30.8865 42.7027 30.0262 41.4995 28.2934C37.8753 26.8989 33.5078 26.5334 29.5027 26.8044L31.5792 31.7988C32.2937 33.5171 31.5602 35.507 29.9067 36.3578L28.2833 37.193C27.3826 37.6564 26.3581 37.7196 25.4073 37.3705C24.4584 37.022 23.7233 36.3158 23.3336 35.3835L20.736 29.1698C17.5344 29.5362 14.4033 27.9387 12.7858 25.2112H5.66016C5.65548 25.2112 5.65142 25.2112 5.64675 25.2112L31.5737 47.8448ZM32.3724 50.4068L38.8679 44.808L57.7781 61.1952C57.6365 61.2213 57.4897 61.237 57.34 61.237H5.66004C5.6577 61.237 5.65659 61.237 5.65425 61.237L24.3619 44.815L30.7605 50.4005C30.9921 50.6037 31.28 50.7041 31.569 50.7041C31.8559 50.7039 32.1408 50.6048 32.3724 50.4068ZM22.4919 43.1834L3.46488 59.8834C3.29655 59.5502 3.19897 59.1746 3.19897 58.7759V27.6726C3.19897 27.2762 3.29532 26.9036 3.46254 26.571L22.4919 43.1834ZM51.9201 19.4753L55.7875 20.5114C56.406 20.6772 57.0421 20.3061 57.2062 19.688C57.3707 19.0691 57.0002 18.434 56.3824 18.2685L52.5151 17.2324C51.8965 17.0666 51.2605 17.4377 51.0963 18.0558C50.9317 18.6747 51.3022 19.3098 51.9201 19.4753ZM50.0581 8.06267L52.8891 5.2316C53.3414 4.77928 53.3448 4.0442 52.8928 3.5904C52.4415 3.13722 51.7053 3.13378 51.2523 3.58671L48.4213 6.41777C47.969 6.87009 47.9656 7.60518 48.4176 8.05897C48.8689 8.51216 49.6051 8.5156 50.0581 8.06267ZM53.4575 13.2735L57.1237 12.291C57.746 12.1243 58.1153 11.4847 57.9486 10.8624C57.7818 10.24 57.1422 9.87072 56.5199 10.0374L52.8536 11.0199C52.2312 11.1866 51.8619 11.8262 52.0286 12.4485C52.1955 13.0709 52.8351 13.4402 53.4575 13.2735ZM46.2483 17.2108C46.3866 17.1931 46.5254 17.166 46.6638 17.1289C48.3348 16.6811 49.3264 14.9636 48.8786 13.2927C48.4309 11.6217 46.7134 10.6302 45.0424 11.0778C44.9039 11.115 44.7701 11.1609 44.6415 11.2146L42.6346 3.72465C42.2579 2.31847 40.799 1.47621 39.3928 1.85298C38.083 2.20391 37.2447 3.50562 37.4668 4.84302L37.4667 4.84314C35.0118 8.1787 30.8459 11.4556 25.7234 13.8286L28.5579 24.4071C34.1829 23.9065 39.4375 24.6835 43.2314 26.3447H43.2315C43.7134 27.5839 45.0713 28.2939 46.3835 27.9424C47.784 27.5671 48.6305 26.101 48.2552 24.7006L46.2483 17.2108ZM26.2331 25.2398L21.2679 26.5701C18.2509 27.3786 15.1211 25.5715 14.3127 22.5546C13.5043 19.5378 15.3113 16.4077 18.3283 15.5993L23.2935 14.2689C24.2733 17.9259 25.2529 21.5828 26.2331 25.2398Z" fill="white"/>
</svg>
