<svg width="30" height="30" viewBox="0 0 30 30" fill="none" xmlns="http://www.w3.org/2000/svg">
<path fill-rule="evenodd" clip-rule="evenodd" d="M15 0C6.71572 0 0 6.71572 0 15C0 23.2843 6.71572 30 15 30C23.2843 30 30 23.2843 30 15C30 6.71572 23.2843 0 15 0ZM15 28.6364C7.46883 28.6364 1.36365 22.5312 1.36365 15C1.36365 7.46884 7.46883 1.36366 15 1.36366C22.5312 1.36366 28.6363 7.46884 28.6363 15C28.6363 22.5312 22.5312 28.6364 15 28.6364ZM13.6363 12.9546V11.5909C13.6363 9.88635 14.4 8.86366 16.5818 8.8636H18.409V10.9159H17.2704C16.4181 10.9159 16.3636 11.2091 16.3636 11.7614V12.9546H18.409L18.1772 15H16.3636V21.1364H13.6363V15H12.2727V12.9546H13.6363Z" fill="#546179"/>
</svg>
