<svg width="60" height="60" viewBox="0 0 60 60" fill="none" xmlns="http://www.w3.org/2000/svg">
<g clip-path="url(#clip0_227_58)">
<path d="M52.9605 11.4674H59.9994V4.73291H40.4268V9.98748C40.4268 10.8036 41.0907 11.4676 41.9068 11.4676H50.2222L43.183 27.981V31.7638C43.183 36.4003 46.955 40.1723 51.5913 40.1723C56.2277 40.1723 59.9996 36.4003 59.9996 31.7638V27.981L52.9605 11.4674ZM47.0047 27.9809L51.5913 17.2211L56.178 27.9809H47.0047Z" fill="white"/>
<path d="M22.8182 22.3178L24.0073 22.7245V27.0704H35.9932V22.7245L37.1823 22.3178C40.3389 21.2387 42.4795 18.3066 42.5605 14.9831H41.9073C39.1527 14.9831 36.9116 12.7421 36.9116 9.98737V1.52737C36.9116 1.11159 36.7474 0.722882 36.4493 0.432725C36.1514 0.142804 35.7598 -0.00836833 35.3405 0.000889479C34.7674 0.0165926 34.2558 0.368272 34.0051 0.918468C33.7494 1.48003 33.2343 1.88175 32.627 1.99284C32.0198 2.10405 31.3959 1.91093 30.9578 1.4764C30.7639 1.28386 30.4334 1.05241 29.9566 1.0394C29.3504 1.02687 28.7896 1.3673 28.5305 1.9169C28.2704 2.46851 27.7571 2.86179 27.1573 2.9696C26.5571 3.07788 25.9385 2.88745 25.5027 2.46089C25.2049 2.16991 24.8118 2.01769 24.3926 2.02694C23.8147 2.04288 23.3013 2.39855 23.0524 2.9553C22.8021 3.51546 22.293 3.91999 21.6907 4.03753C21.0881 4.15448 20.4642 3.97144 20.0215 3.5464C19.7163 3.25355 19.3136 3.10448 18.8886 3.12323C18.0884 3.16085 17.4375 3.8771 17.4375 4.7198V14.788C17.4377 18.1916 19.6 21.2176 22.8182 22.3178Z" fill="white"/>
<path d="M22.8633 30.5859H37.1365V34.9767H22.8633V30.5859Z" fill="white"/>
<path d="M22.8633 38.4922H37.1365V48.5776H22.8633V38.4922Z" fill="white"/>
<path d="M41.0896 52.0933H18.91V56.4844H12.0239V60H47.9756V56.4844H41.0896V52.0933Z" fill="white"/>
<path d="M16.8166 31.764V27.9812L9.77742 11.4676H13.9219V4.73291H0.000351563V11.4676H7.03922L0 27.981V31.7638C0 36.4003 3.77203 40.1723 8.40832 40.1723C13.0447 40.1724 16.8166 36.4004 16.8166 31.764ZM3.82172 27.981L8.40832 17.2212L12.995 27.981H3.82172Z" fill="white"/>
</g>
<defs>
<clipPath id="clip0_227_58">
<rect width="60" height="60" fill="white"/>
</clipPath>
</defs>
</svg>
