<svg width="225" height="61" viewBox="0 0 225 61" fill="none" xmlns="http://www.w3.org/2000/svg">
<g clip-path="url(#clip0_72_163)">
<path d="M0.510986 12.366V5.07999L5.40199 6.76499V13.543L0.510986 12.366Z" fill="#0B4819"/>
<path d="M4.45493 42.3188V15.2278L9.12993 16.2168V41.3948L4.45493 42.3188Z" fill="#0B4819"/>
<path d="M27.3209 5.06802L15.3059 18.848V24.712L33.1259 4.61902L61.3509 2.43402L19.8339 45.708L25.3609 45.999L55.5159 15.156V44.307L52.1659 47.456L60.6619 47.915V55.983L34.0119 53.919L47.5969 40.74V34.245L28.1749 53.467L4.91895 51.669L42.2219 11.552L36.0829 11.884L9.12995 41.395V16.217L11.6829 13.203L5.40195 13.543V6.76502L27.3209 5.06802Z" fill="#105C80"/>
<path d="M4.45493 15.2279L7.15893 11.9729L11.6829 13.2029L9.12993 16.2169L4.45493 15.2279Z" fill="#0B4819"/>
<path d="M11.0038 18.0408L15.3058 18.8478V24.7118L11.0038 24.3598V18.0408Z" fill="#084010"/>
<path d="M15.8198 47.0075L19.8338 45.7075L25.3608 45.9985L21.7138 47.3475L15.8198 47.0075Z" fill="#0C541E"/>
<path d="M23.8078 3.108L27.3208 5.068L15.3058 18.848L11.0038 18.041L23.8078 3.108Z" fill="#1A5C34"/>
<path d="M11.0038 24.36L30.0218 2.58203L33.1258 4.61903L15.3058 24.712L11.0038 24.36Z" fill="#0B4819"/>
<path d="M33.1949 10.4339L36.0829 11.8839L9.12993 41.3949L4.45493 42.3189L33.1949 10.4339Z" fill="#1A5C34"/>
<path d="M0 53.3459L39.798 10.0439L42.222 11.5519L4.919 51.6689L0 53.3459Z" fill="#0B4819"/>
<path d="M45.5967 34.6786L47.5967 34.2446L28.1747 53.4666L24.7207 55.4386L45.5967 34.6786Z" fill="#1A5C34"/>
<path d="M45.5964 41.7386V34.6786L47.5964 34.2446V40.7396L45.5964 41.7386Z" fill="#0B4819"/>
<path d="M30.9726 55.9665L45.5966 41.7385L47.5966 40.7395L34.0116 53.9185L30.9726 55.9665Z" fill="#0B4819"/>
<path d="M54.1673 45.6495L50.5373 49.0605L52.1653 47.4555L55.5153 44.3065L54.1673 45.6495Z" fill="#13802D"/>
<path d="M21.7137 47.3479L54.1677 13.9019L55.5157 15.1559L25.3607 45.9989L21.7137 47.3479Z" fill="#0B4819"/>
<path d="M54.1673 13.9019L55.5153 15.1559V44.3069L54.1673 45.6499V13.9019Z" fill="#084010"/>
<path d="M59.7582 49.6054L60.6612 47.9144V55.9824L59.7582 58.4044V49.6054Z" fill="#084010"/>
<path d="M60.5068 0.00204468L61.3508 2.43404L19.8338 45.708L15.8198 47.008L60.5068 0.00204468Z" fill="#1A5C34"/>
<path d="M23.808 3.10804L11.004 18.041V24.36L30.022 2.58204L60.507 0.00204468L15.82 47.008L21.714 47.348L54.168 13.902V45.65L50.538 49.061L59.759 49.606V58.405L30.973 55.967L45.597 41.739V34.679L24.721 55.439L0 53.346L39.798 10.044L33.195 10.434L4.455 42.319V15.228L7.159 11.973L0.511 12.366V5.08004L23.808 3.10804Z" fill="url(#paint0_radial_72_163)"/>
<path d="M77.6039 29.6931H87.8535V36.1077H77.6039V50.386H72.084V50.3886V15.8988H91.4976V22.3368H77.6039V29.6931Z" fill="white"/>
<path d="M99.1153 29.6931H109.368V36.1077H99.1153V50.386H93.5981V50.3886V15.8988H113.012V22.3368H99.1153V29.6931Z" fill="white"/>
<path d="M121.508 35.6733V50.3885H115.07V28.0632L121.508 27.3726V29.4183C122.95 28.0658 124.789 27.3961 127.026 27.3961C129.937 27.3961 132.161 28.2777 133.694 30.0409C135.381 28.2777 137.908 27.3961 141.28 27.3961C144.192 27.3961 146.416 28.2777 147.949 30.0409C149.482 31.8068 150.248 33.8342 150.248 36.1337V50.3885H143.81V37.7425C143.81 36.2095 143.465 35.0219 142.774 34.1795C142.083 33.3397 140.966 32.895 139.418 32.8453C138.146 32.9369 137.042 33.7792 136.106 35.375C136.03 35.8538 135.991 36.3325 135.991 36.8269V50.3937H129.553V37.7478C129.553 36.2148 129.207 35.0271 128.517 34.1847C127.826 33.345 126.714 32.8976 125.166 32.8479C123.755 32.9369 122.536 33.8787 121.508 35.6733Z" fill="white"/>
<path d="M153.484 60.0443V28.0632L159.922 27.3726V29.2116C161.638 27.9821 163.325 27.3726 164.981 27.3726C168.508 27.3726 171.304 28.5184 173.373 30.8179C175.443 33.12 176.479 35.7988 176.479 38.8648C176.479 41.9308 175.443 44.6123 173.373 46.9118C171.304 49.2113 168.508 50.3597 164.981 50.3597C162.682 50.2027 160.997 49.5853 159.922 48.4971V60.0626L153.484 60.0443ZM159.922 36.8008V40.5286C160.228 43.1002 161.837 44.6149 164.751 45.0544C168.429 44.764 170.498 42.8543 170.959 39.3305C170.804 35.0349 168.735 32.8165 164.751 32.6596C161.837 33.12 160.228 34.5013 159.922 36.8008Z" fill="white"/>
<path d="M177.501 38.891C177.501 35.5189 178.574 32.7564 180.719 30.6138C182.864 28.4687 185.624 27.3961 188.996 27.3961C192.368 27.3961 195.05 28.4687 197.043 30.6138C199.036 32.7564 200.033 35.5189 200.033 38.891V41.1905H184.169C184.324 42.4174 184.86 43.3749 185.778 44.0655C186.697 44.7562 187.772 45.1015 188.996 45.1015C191.141 45.1015 193.059 44.4919 194.743 43.265L198.422 46.9406C196.734 49.2401 193.592 50.3885 188.993 50.3885C185.621 50.3885 182.861 49.3159 180.716 47.1708C178.571 45.0256 177.501 42.2657 177.501 38.891ZM192.216 33.7191C191.296 33.0285 190.223 32.6831 188.999 32.6831C187.774 32.6831 186.699 33.0285 185.781 33.7191C184.863 34.4097 184.402 35.3672 184.402 36.5941H193.6C193.595 35.3672 193.135 34.4097 192.216 33.7191Z" fill="white"/>
<path d="M224.44 28.0867V48.5494C224.44 51.7671 223.483 54.459 221.565 56.6199C219.648 58.7807 217.236 59.9239 214.322 60.0495L212.943 60.1881C208.498 60.0966 205.048 58.8252 202.597 56.3713L205.587 52.9234C207.274 54.1529 209.32 54.8383 211.726 54.9927C214.18 54.9927 215.839 54.4172 216.702 53.2687C217.571 52.1229 218.002 50.8541 218.002 49.4781V48.3296C216.286 49.7083 214.293 50.3989 212.025 50.3989C208.498 50.3989 205.856 49.363 204.093 47.2937C202.33 45.2244 201.448 42.4278 201.448 38.9014C201.448 35.5294 202.406 32.7668 204.323 30.6243C206.241 28.4791 208.959 27.4066 212.485 27.4066C215.091 27.5635 216.93 28.2568 218.002 29.4994V27.4066L224.44 28.0867ZM218.002 40.9603V37.235C217.696 34.6635 216.087 33.1488 213.173 32.7093C209.341 32.8479 207.271 34.755 206.965 38.4332C207.12 42.7287 209.189 44.9471 213.173 45.1041C216.087 44.641 217.696 43.2598 218.002 40.9603Z" fill="white"/>
</g>
<defs>
<radialGradient id="paint0_radial_72_163" cx="0" cy="0" r="1" gradientUnits="userSpaceOnUse" gradientTransform="translate(12.06 11.012) scale(29.58)">
<stop stop-color="white"/>
<stop offset="1" stop-color="#007808"/>
</radialGradient>
<clipPath id="clip0_72_163">
<rect width="224.44" height="60.19" fill="white"/>
</clipPath>
</defs>
</svg>
