<svg width="47" height="47" viewBox="0 0 47 47" fill="none" xmlns="http://www.w3.org/2000/svg">
<g clip-path="url(#clip0_38_149)">
<path d="M27.6361 20.8948C31.0482 18.344 35.6324 18.0108 39.3778 20.0416L42.0682 21.5065L42.0712 4.70547L38.6382 2.83516C35.431 1.09537 31.5046 1.38076 28.5832 3.56649C25.1754 6.11722 20.5947 6.45048 16.8536 4.41963L14.1859 2.95523V19.7562L17.5984 21.6261C20.7996 23.3663 24.7212 23.0805 27.6361 20.8948Z" fill="#A783FF"/>
<path d="M9.06265 0V45.4408H5.79146C5.36076 45.4408 5.01184 45.7897 5.01184 46.2204C5.01184 46.6511 5.36076 47 5.79146 47H15.8822C16.3124 47 16.6618 46.6511 16.6618 46.2204C16.6618 45.7897 16.3124 45.4408 15.8822 45.4408H12.6266V0H9.06265Z" fill="#6F3AF1"/>
</g>
<defs>
<clipPath id="clip0_38_149">
<rect width="47" height="47" fill="white"/>
</clipPath>
</defs>
</svg>
