<svg width="30" height="30" viewBox="0 0 30 30" fill="none" xmlns="http://www.w3.org/2000/svg">
<path fill-rule="evenodd" clip-rule="evenodd" d="M14.9994 0C6.71511 0 -0.000610352 6.71572 -0.000610352 15C-0.000610352 23.2843 6.71511 30 14.9994 30C23.2837 30 29.9994 23.2843 29.9994 15C29.9994 6.71572 23.2837 0 14.9994 0ZM14.9994 28.636C7.46821 28.636 1.36304 22.5308 1.36304 14.9996C1.36304 7.46846 7.46821 1.36328 14.9994 1.36328C22.5306 1.36328 28.6357 7.46846 28.6357 14.9996C28.6357 22.5308 22.5306 28.636 14.9994 28.636ZM17.1449 8.78412C18.2169 8.96925 19.2421 9.29245 20.1981 9.73111C20.2064 9.73469 20.2135 9.74063 20.2176 9.74893C21.9115 12.2405 22.7481 15.0511 22.4354 18.2867C22.4342 18.3003 22.4271 18.3128 22.4159 18.3212C21.1329 19.2634 19.89 19.8354 18.6644 20.2145C18.6449 20.2205 18.6236 20.2134 18.6118 20.1967C18.3286 19.8026 18.0714 19.3872 17.8461 18.9509C17.8331 18.9253 17.8449 18.8944 17.8715 18.8842C18.2801 18.7301 18.6685 18.5456 19.0422 18.3271C19.0717 18.3099 19.0735 18.2676 19.0463 18.2474C18.9671 18.1884 18.8885 18.1265 18.8134 18.0646C18.7992 18.0534 18.7803 18.051 18.7643 18.0587C16.3384 19.1795 13.6808 19.1795 11.2259 18.0587C11.21 18.0516 11.191 18.0539 11.1774 18.0653C11.1023 18.1272 11.0237 18.1885 10.945 18.2474C10.9178 18.2676 10.9202 18.3099 10.9498 18.3272C11.3234 18.5414 11.7119 18.7301 12.1199 18.8849C12.1465 18.895 12.1589 18.9254 12.1459 18.9509C11.9254 19.3878 11.6682 19.8033 11.3796 20.1973C11.3672 20.2134 11.3465 20.2205 11.327 20.2146C10.1073 19.8354 8.86447 19.2634 7.58147 18.3212C7.57084 18.3129 7.56313 18.2998 7.56196 18.2861C7.30063 15.4874 7.83337 12.6536 9.77798 9.74837C9.7827 9.74063 9.78979 9.73469 9.79808 9.73111C10.7547 9.29184 11.78 8.96863 12.8513 8.78412C12.8708 8.78113 12.8903 8.79007 12.9004 8.80732C13.0328 9.04185 13.1842 9.34243 13.2865 9.58823C14.4157 9.41562 15.5628 9.41562 16.7157 9.58823C16.818 9.34776 16.964 9.04185 17.0959 8.80732C17.1059 8.78948 17.1254 8.78055 17.1449 8.78412ZM11.1645 15.0701C11.1645 15.9035 11.7734 16.582 12.5125 16.582C13.2634 16.582 13.8606 15.9035 13.8606 15.0701C13.8724 14.2428 13.2693 13.5583 12.5125 13.5583C11.7616 13.5583 11.1645 14.2368 11.1645 15.0701ZM16.1487 15.0701C16.1487 15.9035 16.7577 16.582 17.4967 16.582C18.2535 16.582 18.8448 15.9035 18.8448 15.0701C18.8566 14.2428 18.2535 13.5583 17.4967 13.5583C16.7458 13.5583 16.1487 14.2368 16.1487 15.0701Z" fill="#546179"/>
</svg>
