<svg width="60" height="60" viewBox="0 0 60 60" fill="none" xmlns="http://www.w3.org/2000/svg">
<g clip-path="url(#clip0_314_990)">
<path d="M34.0337 29.5683C34.396 29.1238 34.6393 28.5945 34.7408 28.0301C34.8422 27.4657 34.7984 26.8847 34.6134 26.3419C34.4285 25.7991 34.1085 25.3122 33.6836 24.9272C33.2587 24.5421 32.7428 24.2714 32.1844 24.1406V21.7969C32.1844 21.5793 32.098 21.3707 31.9442 21.2168C31.7903 21.063 31.5817 20.9766 31.3641 20.9766C31.1466 20.9766 30.9379 21.063 30.7841 21.2168C30.6302 21.3707 30.5438 21.5793 30.5438 21.7969V24.0469H28.9098V21.7969C28.9098 21.5793 28.8233 21.3707 28.6695 21.2168C28.5157 21.063 28.307 20.9766 28.0894 20.9766C27.8719 20.9766 27.6632 21.063 27.5094 21.2168C27.3556 21.3707 27.2691 21.5793 27.2691 21.7969V24.0469H24.9685C24.7509 24.0469 24.5423 24.1333 24.3885 24.2871C24.2346 24.441 24.1482 24.6496 24.1482 24.8672C24.1482 25.0847 24.2346 25.2934 24.3885 25.4472C24.5423 25.6011 24.7509 25.6875 24.9685 25.6875H25.5127V30V34.3125H24.9685C24.7509 34.3125 24.5423 34.3989 24.3885 34.5528C24.2346 34.7066 24.1482 34.9153 24.1482 35.1328C24.1482 35.3504 24.2346 35.559 24.3885 35.7129C24.5423 35.8667 24.7509 35.9531 24.9685 35.9531H27.2691V38.2031C27.2691 38.4207 27.3556 38.6293 27.5094 38.7832C27.6632 38.937 27.8719 39.0234 28.0894 39.0234C28.307 39.0234 28.5157 38.937 28.6695 38.7832C28.8233 38.6293 28.9098 38.4207 28.9098 38.2031V35.9531H30.5438V38.2031C30.5438 38.4207 30.6302 38.6293 30.7841 38.7832C30.9379 38.937 31.1466 39.0234 31.3641 39.0234C31.5817 39.0234 31.7903 38.937 31.9442 38.7832C32.098 38.6293 32.1844 38.4207 32.1844 38.2031V35.9531H32.4657C33.2233 35.9535 33.9591 35.6998 34.5553 35.2325C35.1516 34.7652 35.5739 34.1114 35.7546 33.3757C35.9353 32.64 35.864 31.865 35.5521 31.1746C35.2402 30.4842 34.7057 29.9184 34.0341 29.5678L34.0337 29.5683ZM33.1538 27.4331C33.1533 27.8963 32.969 28.3404 32.6414 28.6677C32.3137 28.9951 31.8695 29.1791 31.4063 29.1792H27.1533V25.6875H31.4063C31.8694 25.6876 32.3136 25.8715 32.6412 26.1988C32.9688 26.5261 33.1532 26.97 33.1538 27.4331ZM32.4652 34.3125H27.1533V30.8203H32.4652C32.9283 30.8203 33.3724 31.0043 33.6999 31.3317C34.0274 31.6592 34.2113 32.1033 34.2113 32.5664C34.2113 33.0295 34.0274 33.4736 33.6999 33.8011C33.3724 34.1285 32.9283 34.3125 32.4652 34.3125Z" fill="#A783FF"/>
<path d="M56.594 26.5925C55.8342 26.5939 55.0966 26.8491 54.4984 27.3175C53.9002 27.786 53.4756 28.4408 53.2921 29.1781H44.6296C44.5657 28.0282 44.3657 26.89 44.0338 25.7872H46.4638C46.5715 25.7872 46.6782 25.7661 46.7778 25.7249C46.8773 25.6837 46.9678 25.6232 47.044 25.5471C47.1202 25.4709 47.1806 25.3804 47.2218 25.2809C47.263 25.1813 47.2842 25.0746 47.2841 24.9669V18.0528H49.2186C49.419 18.8601 49.9078 19.5661 50.5928 20.0378C51.2779 20.5095 52.1119 20.7142 52.9375 20.6133C53.7631 20.5124 54.5233 20.1128 55.0746 19.49C55.6259 18.8672 55.9303 18.0642 55.9303 17.2325C55.9303 16.4007 55.6259 15.5977 55.0746 14.9749C54.5233 14.3522 53.7631 13.9526 52.9375 13.8517C52.1119 13.7508 51.2779 13.9555 50.5928 14.4272C49.9078 14.8989 49.419 15.6049 49.2186 16.4122H46.4638C46.2462 16.4122 46.0376 16.4986 45.8838 16.6524C45.7299 16.8063 45.6435 17.0149 45.6435 17.2325V24.1466H43.4305C41.9446 20.7592 39.2393 18.0543 35.8518 16.5687V14.3548H42.7658C42.9834 14.3548 43.192 14.2684 43.3459 14.1146C43.4997 13.9607 43.5861 13.7521 43.5861 13.5345V10.7811C44.3934 10.5808 45.0995 10.092 45.5712 9.40688C46.0428 8.72181 46.2475 7.88781 46.1466 7.0622C46.0457 6.23659 45.6462 5.47645 45.0234 4.92514C44.4006 4.37383 43.5976 4.06947 42.7658 4.06947C41.9341 4.06947 41.1311 4.37383 40.5083 4.92514C39.8855 5.47645 39.486 6.23659 39.3851 7.0622C39.2841 7.88781 39.4888 8.72181 39.9605 9.40688C40.4322 10.092 41.1383 10.5808 41.9455 10.7811V12.7161H35.0315C34.8139 12.7162 34.6054 12.8027 34.4515 12.9565C34.2977 13.1103 34.2113 13.3189 34.2111 13.5364V15.9655C33.1083 15.6337 31.9701 15.4339 30.8202 15.3701V6.70624C31.6275 6.50592 32.3335 6.01712 32.8052 5.33204C33.2769 4.64696 33.4816 3.81297 33.3807 2.98736C33.2798 2.16175 32.8802 1.4016 32.2574 0.850295C31.6347 0.298987 30.8316 -0.00537109 29.9999 -0.00537109C29.1681 -0.00537109 28.3651 0.298987 27.7423 0.850295C27.1196 1.4016 26.72 2.16175 26.6191 2.98736C26.5182 3.81297 26.7229 4.64696 27.1946 5.33204C27.6663 6.01712 28.3723 6.50592 29.1796 6.70624V15.3701C28.0297 15.4339 26.8915 15.6337 25.7886 15.9655V13.5345C25.7885 13.317 25.7021 13.1084 25.5482 12.9546C25.3944 12.8008 25.1859 12.7143 24.9683 12.7142H18.0543V10.7811C18.8615 10.5808 19.5676 10.092 20.0393 9.40688C20.511 8.72181 20.7156 7.88781 20.6147 7.0622C20.5138 6.23659 20.1143 5.47645 19.4915 4.92514C18.8687 4.37383 18.0657 4.06947 17.234 4.06947C16.4022 4.06947 15.5992 4.37383 14.9764 4.92514C14.3536 5.47645 13.9541 6.23659 13.8532 7.0622C13.7523 7.88781 13.957 8.72181 14.4286 9.40688C14.9003 10.092 15.6064 10.5808 16.4136 10.7811V13.5364C16.4136 13.754 16.5001 13.9626 16.6539 14.1164C16.8077 14.2703 17.0164 14.3567 17.234 14.3567H24.148V16.5706C20.7608 18.0557 18.0556 20.7599 16.5693 24.1466H14.3563V17.2325C14.3563 17.0149 14.2699 16.8063 14.116 16.6524C13.9622 16.4986 13.7536 16.4122 13.536 16.4122H10.7811C10.5808 15.6049 10.092 14.8989 9.40694 14.4272C8.72187 13.9555 7.88787 13.7508 7.06226 13.8517C6.23665 13.9526 5.47651 14.3522 4.9252 14.9749C4.37389 15.5977 4.06953 16.4007 4.06953 17.2325C4.06953 18.0642 4.37389 18.8672 4.9252 19.49C5.47651 20.1128 6.23665 20.5124 7.06226 20.6133C7.88787 20.7142 8.72187 20.5095 9.40694 20.0378C10.092 19.5661 10.5808 18.8601 10.7811 18.0528H12.7161V24.9669C12.7161 25.0746 12.7373 25.1813 12.7785 25.2809C12.8197 25.3804 12.8801 25.4709 12.9563 25.5471C13.0325 25.6232 13.1229 25.6837 13.2225 25.7249C13.322 25.7661 13.4287 25.7872 13.5365 25.7872H15.9665C15.6346 26.89 15.4346 28.0282 15.3707 29.1781H6.70771C6.50738 28.3708 6.01858 27.6648 5.33351 27.1931C4.64843 26.7214 3.81443 26.5167 2.98882 26.6177C2.16321 26.7186 1.40307 27.1181 0.851759 27.7409C0.300452 28.3637 -0.00390625 29.1667 -0.00390625 29.9984C-0.00390625 30.8302 0.300452 31.6332 0.851759 32.256C1.40307 32.8788 2.16321 33.2783 2.98882 33.3792C3.81443 33.4801 4.64843 33.2754 5.33351 32.8037C6.01858 32.3321 6.50738 31.626 6.70771 30.8187H15.3702C15.4338 31.9686 15.6335 33.1068 15.9651 34.2097H13.536C13.3184 34.2097 13.1098 34.2961 12.9559 34.4499C12.8021 34.6038 12.7157 34.8124 12.7157 35.03V41.9441H10.7811C10.5808 41.1368 10.092 40.4307 9.40694 39.959C8.72187 39.4874 7.88787 39.2827 7.06226 39.3836C6.23665 39.4845 5.47651 39.884 4.9252 40.5068C4.37389 41.1296 4.06953 41.9326 4.06953 42.7644C4.06953 43.5961 4.37389 44.3991 4.9252 45.0219C5.47651 45.6447 6.23665 46.0442 7.06226 46.1451C7.88787 46.2461 8.72187 46.0414 9.40694 45.5697C10.092 45.098 10.5808 44.3919 10.7811 43.5847H13.5365C13.754 43.5847 13.9627 43.4983 14.1165 43.3444C14.2703 43.1906 14.3568 42.9819 14.3568 42.7644V35.8503H16.5688C18.0543 39.239 20.76 41.945 24.1485 43.4309V45.642H17.234C17.0164 45.642 16.8077 45.7284 16.6539 45.8823C16.5001 46.0361 16.4136 46.2448 16.4136 46.4623V49.2186C15.6064 49.4189 14.9003 49.9077 14.4286 50.5928C13.957 51.2779 13.7523 52.1119 13.8532 52.9375C13.9541 53.7631 14.3536 54.5232 14.9764 55.0745C15.5992 55.6258 16.4022 55.9302 17.234 55.9302C18.0657 55.9302 18.8687 55.6258 19.4915 55.0745C20.1143 54.5232 20.5138 53.7631 20.6147 52.9375C20.7156 52.1119 20.511 51.2779 20.0393 50.5928C19.5676 49.9077 18.8615 49.4189 18.0543 49.2186V47.2826H24.9683C25.1859 47.2825 25.3944 47.1961 25.5482 47.0422C25.7021 46.8884 25.7885 46.6799 25.7886 46.4623V44.0342C26.8915 44.366 28.0297 44.5658 29.1796 44.6295V53.2906C28.3723 53.4909 27.6663 53.9797 27.1946 54.6648C26.7229 55.3499 26.5182 56.1839 26.6191 57.0095C26.72 57.8351 27.1196 58.5953 27.7423 59.1466C28.3651 59.6979 29.1681 60.0022 29.9999 60.0022C30.8316 60.0022 31.6347 59.6979 32.2574 59.1466C32.8802 58.5953 33.2798 57.8351 33.3807 57.0095C33.4816 56.1839 33.2769 55.3499 32.8052 54.6648C32.3335 53.9797 31.6275 53.4909 30.8202 53.2906V44.6295C31.9701 44.5658 33.1083 44.366 34.2111 44.0342V46.4623C34.2113 46.6799 34.2977 46.8884 34.4515 47.0422C34.6054 47.1961 34.8139 47.2825 35.0315 47.2826H41.9455V49.2186C41.1383 49.4189 40.4322 49.9077 39.9605 50.5928C39.4888 51.2779 39.2841 52.1119 39.3851 52.9375C39.486 53.7631 39.8855 54.5232 40.5083 55.0745C41.1311 55.6258 41.9341 55.9302 42.7658 55.9302C43.5976 55.9302 44.4006 55.6258 45.0234 55.0745C45.6462 54.5232 46.0457 53.7631 46.1466 52.9375C46.2475 52.1119 46.0428 51.2779 45.5712 50.5928C45.0995 49.9077 44.3934 49.4189 43.5861 49.2186V46.4623C43.5861 46.2448 43.4997 46.0361 43.3459 45.8823C43.192 45.7284 42.9834 45.642 42.7658 45.642H35.8518V43.4309C39.2403 41.945 41.946 39.239 43.4315 35.8503H45.6435V42.7644C45.6435 42.9819 45.7299 43.1906 45.8838 43.3444C46.0376 43.4983 46.2462 43.5847 46.4638 43.5847H49.2186C49.419 44.3919 49.9078 45.098 50.5928 45.5697C51.2779 46.0414 52.1119 46.2461 52.9375 46.1451C53.7631 46.0442 54.5233 45.6447 55.0746 45.0219C55.6259 44.3991 55.9303 43.5961 55.9303 42.7644C55.9303 41.9326 55.6259 41.1296 55.0746 40.5068C54.5233 39.884 53.7631 39.4845 52.9375 39.3836C52.1119 39.2827 51.2779 39.4874 50.5928 39.959C49.9078 40.4307 49.419 41.1368 49.2186 41.9441H47.2836V35.03C47.2836 34.8124 47.1972 34.6038 47.0434 34.4499C46.8895 34.2961 46.6809 34.2097 46.4633 34.2097H44.0347C44.3663 33.1068 44.566 31.9686 44.6296 30.8187H53.2921C53.4462 31.4379 53.7712 32.0012 54.23 32.4445C54.6888 32.8878 55.2629 33.1933 55.887 33.3261C56.511 33.4589 57.1598 33.4136 57.7593 33.1954C58.3589 32.9773 58.885 32.595 59.2778 32.0923C59.6706 31.5895 59.9142 30.9865 59.9808 30.352C60.0474 29.7175 59.9344 29.077 59.6546 28.5037C59.3748 27.9303 58.9395 27.4471 58.3983 27.1092C57.8572 26.7713 57.232 26.5922 56.594 26.5925ZM52.521 15.4686C52.8701 15.4686 53.2114 15.5721 53.5017 15.7661C53.792 15.9601 54.0183 16.2358 54.1519 16.5583C54.2855 16.8809 54.3205 17.2359 54.2524 17.5783C54.1843 17.9207 54.0161 18.2353 53.7693 18.4822C53.5224 18.729 53.2078 18.8972 52.8654 18.9653C52.5229 19.0334 52.168 18.9984 51.8454 18.8648C51.5229 18.7312 51.2472 18.505 51.0532 18.2147C50.8592 17.9243 50.7557 17.583 50.7557 17.2339C50.7562 16.7659 50.9423 16.3171 51.2733 15.9862C51.6042 15.6552 52.053 15.4691 52.521 15.4686ZM41.0005 7.47734C41.0005 7.12819 41.1041 6.78689 41.298 6.49658C41.492 6.20628 41.7677 5.98001 42.0903 5.8464C42.4128 5.71279 42.7678 5.67783 43.1102 5.74594C43.4527 5.81406 43.7672 5.98219 44.0141 6.22907C44.261 6.47596 44.4291 6.7905 44.4972 7.13294C44.5653 7.47538 44.5304 7.83032 44.3968 8.15289C44.2632 8.47546 44.0369 8.75117 43.7466 8.94514C43.4563 9.13912 43.115 9.24265 42.7658 9.24265C42.2978 9.24215 41.8491 9.05601 41.5181 8.72505C41.1872 8.3941 41.001 7.94537 41.0005 7.47734ZM15.4686 7.47734C15.4686 7.12819 15.5722 6.78689 15.7662 6.49658C15.9601 6.20628 16.2358 5.98001 16.5584 5.8464C16.881 5.71279 17.2359 5.67783 17.5784 5.74594C17.9208 5.81406 18.2353 5.98219 18.4822 6.22907C18.7291 6.47596 18.8972 6.7905 18.9654 7.13294C19.0335 7.47538 18.9985 7.83032 18.8649 8.15289C18.7313 8.47546 18.505 8.75117 18.2147 8.94514C17.9244 9.13912 17.5831 9.24265 17.234 9.24265C16.7659 9.24215 16.3172 9.05601 15.9862 8.72505C15.6553 8.3941 15.4691 7.94537 15.4686 7.47734ZM7.4788 18.9978C7.12966 18.9978 6.78835 18.8943 6.49805 18.7003C6.20774 18.5063 5.98148 18.2306 5.84787 17.908C5.71425 17.5855 5.67929 17.2305 5.74741 16.8881C5.81552 16.5457 5.98365 16.2311 6.23054 15.9842C6.47742 15.7373 6.79197 15.5692 7.13441 15.5011C7.47684 15.433 7.83179 15.4679 8.15436 15.6016C8.47693 15.7352 8.75263 15.9614 8.94661 16.2517C9.14058 16.542 9.24411 16.8833 9.24411 17.2325C9.24349 17.7005 9.05731 18.1491 8.72638 18.4801C8.39546 18.811 7.9468 18.9972 7.4788 18.9978ZM7.4788 44.5297C7.12966 44.5297 6.78835 44.4261 6.49805 44.2322C6.20774 44.0382 5.98148 43.7625 5.84787 43.4399C5.71425 43.1174 5.67929 42.7624 5.74741 42.42C5.81552 42.0775 5.98365 41.763 6.23054 41.5161C6.47742 41.2692 6.79197 41.1011 7.13441 41.033C7.47684 40.9649 7.83179 40.9998 8.15436 41.1334C8.47693 41.267 8.75263 41.4933 8.94661 41.7836C9.14058 42.0739 9.24411 42.4152 9.24411 42.7644C9.24387 43.2326 9.05784 43.6816 8.72688 44.0129C8.39591 44.3441 7.94704 44.5305 7.4788 44.5311V44.5297ZM18.9993 52.5195C18.9993 52.8687 18.8957 53.21 18.7018 53.5003C18.5078 53.7906 18.2321 54.0168 17.9095 54.1505C17.5869 54.2841 17.232 54.319 16.8896 54.2509C16.5471 54.1828 16.2326 54.0147 15.9857 53.7678C15.7388 53.5209 15.5707 53.2064 15.5026 52.8639C15.4345 52.5215 15.4694 52.1665 15.603 51.844C15.7366 51.5214 15.9629 51.2457 16.2532 51.0517C16.5435 50.8577 16.8848 50.7542 17.234 50.7542C17.702 50.7547 18.1507 50.9409 18.4817 51.2718C18.8126 51.6028 18.9988 52.0515 18.9993 52.5195ZM44.5311 52.5195C44.5311 52.8687 44.4276 53.21 44.2336 53.5003C44.0397 53.7906 43.764 54.0168 43.4414 54.1505C43.1188 54.2841 42.7639 54.319 42.4214 54.2509C42.079 54.1828 41.7645 54.0147 41.5176 53.7678C41.2707 53.5209 41.1026 53.2064 41.0344 52.8639C40.9663 52.5215 41.0013 52.1665 41.1349 51.844C41.2685 51.5214 41.4948 51.2457 41.7851 51.0517C42.0754 50.8577 42.4167 50.7542 42.7658 50.7542C43.2339 50.7547 43.6826 50.9409 44.0136 51.2718C44.3445 51.6028 44.5307 52.0515 44.5311 52.5195ZM52.521 40.9991C52.8701 40.9991 53.2114 41.1026 53.5017 41.2966C53.792 41.4905 54.0183 41.7662 54.1519 42.0888C54.2855 42.4114 54.3205 42.7663 54.2524 43.1088C54.1843 43.4512 54.0161 43.7658 53.7693 44.0126C53.5224 44.2595 53.2078 44.4276 52.8654 44.4958C52.5229 44.5639 52.168 44.5289 51.8454 44.3953C51.5229 44.2617 51.2472 44.0354 51.0532 43.7451C50.8592 43.4548 50.7557 43.1135 50.7557 42.7644C50.7562 42.2963 50.9423 41.8476 51.2733 41.5167C51.6042 41.1857 52.053 40.9995 52.521 40.9991ZM28.2346 3.40437C28.2346 3.05522 28.3381 2.71392 28.5321 2.42361C28.7261 2.13331 29.0018 1.90704 29.3243 1.77343C29.6469 1.63982 30.0019 1.60486 30.3443 1.67298C30.6867 1.74109 31.0013 1.90922 31.2482 2.1561C31.495 2.40299 31.6632 2.71754 31.7313 3.05997C31.7994 3.40241 31.7644 3.75736 31.6308 4.07992C31.4972 4.40249 31.271 4.6782 30.9807 4.87217C30.6903 5.06615 30.349 5.16968 29.9999 5.16968C29.5319 5.16906 29.0832 4.98287 28.7523 4.65195C28.4214 4.32102 28.2352 3.87237 28.2346 3.40437ZM3.40583 31.7637C3.05663 31.7637 2.71527 31.6602 2.42493 31.4661C2.1346 31.2721 1.90833 30.9963 1.77476 30.6737C1.64119 30.351 1.60632 29.996 1.67454 29.6535C1.74277 29.311 1.91104 28.9965 2.15807 28.7497C2.40509 28.5028 2.71977 28.3348 3.0623 28.2669C3.40483 28.1989 3.75982 28.2341 4.08236 28.3679C4.40491 28.5017 4.68051 28.7282 4.87432 29.0187C5.06813 29.3092 5.17142 29.6506 5.17115 29.9998C5.17028 30.4676 4.98397 30.916 4.65305 31.2466C4.32214 31.5773 3.87363 31.7632 3.40583 31.7637ZM31.7652 56.5925C31.7652 56.9416 31.6617 57.2829 31.4677 57.5732C31.2737 57.8636 30.998 58.0898 30.6755 58.2234C30.3529 58.357 29.9979 58.392 29.6555 58.3239C29.3131 58.2558 28.9985 58.0876 28.7516 57.8408C28.5047 57.5939 28.3366 57.2793 28.2685 56.9369C28.2004 56.5945 28.2353 56.2395 28.369 55.9169C28.5026 55.5944 28.7288 55.3187 29.0191 55.1247C29.3094 54.9307 29.6508 54.8272 29.9999 54.8272C30.4679 54.8277 30.9167 55.0138 31.2476 55.3448C31.5786 55.6757 31.7647 56.1245 31.7652 56.5925ZM30.0215 43.0128C30.0144 43.0128 30.0074 43.0128 29.9999 43.0128C29.9924 43.0128 29.9854 43.0128 29.9783 43.0128C26.5337 43.0031 23.2332 41.6297 20.7986 39.1929C18.3639 36.7561 16.9935 33.4543 16.9869 30.0097V29.9984V29.9876C16.9869 26.5364 18.3579 23.2265 20.7983 20.7861C23.2387 18.3457 26.5486 16.9747 29.9999 16.9747C33.4512 16.9747 36.7611 18.3457 39.2015 20.7861C41.6419 23.2265 43.0129 26.5364 43.0129 29.9876V29.9984V30.0097C43.0063 33.4543 41.6358 36.7561 39.2012 39.1929C36.7666 41.6297 33.4661 43.0031 30.0215 43.0128ZM56.594 31.7628C56.2447 31.7628 55.9033 31.6592 55.613 31.4651C55.3226 31.2711 55.0963 30.9952 54.9628 30.6725C54.8293 30.3498 54.7944 29.9947 54.8627 29.6522C54.931 29.3097 55.0994 28.9952 55.3465 28.7484C55.5936 28.5016 55.9084 28.3337 56.251 28.2658C56.5936 28.198 56.9486 28.2333 57.2711 28.3672C57.5937 28.5012 57.8692 28.7278 58.0629 29.0184C58.2566 29.3091 58.3597 29.6506 58.3593 29.9998C58.3584 30.4676 58.1721 30.916 57.8412 31.2466C57.5103 31.5773 57.0618 31.7632 56.594 31.7637V31.7628Z" fill="#A783FF"/>
</g>
<defs>
<clipPath id="clip0_314_990">
<rect width="60" height="60" fill="white"/>
</clipPath>
</defs>
</svg>
