<svg width="62" height="62" viewBox="0 0 62 62" fill="none" xmlns="http://www.w3.org/2000/svg">
<path d="M56.4099 39.1049C55.6135 43.3387 53.4895 47.3077 50.3032 50.2184C47.1172 53.3936 43.4 55.2458 39.152 56.3042C37.8244 56.5687 36.2313 56.8335 34.9037 56.8335C31.9832 56.8335 29.3281 56.3042 26.6729 55.2458C22.6903 53.6581 19.2387 50.7474 16.8491 47.3077C14.9905 44.6616 13.663 41.4865 13.3975 38.0465C13.1319 36.7236 13.663 35.6652 14.4595 34.6068C14.9905 33.5481 16.3181 33.0191 17.6456 33.0191H30.3901C31.7177 33.0191 32.7797 31.9607 32.7797 30.6375V17.6721C32.7797 16.3491 33.3105 15.026 34.3728 14.2322C35.1692 13.4384 36.4968 12.9092 37.8244 13.1738C41.0104 13.703 44.1964 15.026 47.1172 16.6137C50.8343 18.9951 53.4895 22.435 55.0824 26.4039C56.9411 30.373 57.2064 34.8713 56.4099 39.1049Z" fill="#6F3AF1"/>
<path d="M27.7349 9.73384V24.5517C27.7349 26.1393 26.4073 27.4622 24.8144 27.4622H9.68032C8.35277 27.4622 7.02522 26.9331 6.2287 25.8745C5.43218 25.0809 5.16667 23.7579 5.16667 22.6995C5.6977 18.2012 7.82176 14.2321 11.0079 11.0569C14.194 7.88161 18.1766 5.76478 22.6903 5.23558C23.7523 4.97097 25.0799 5.50017 26.1418 6.294C26.9385 7.08781 27.7349 8.41084 27.7349 9.73384Z" fill="#A783FF"/>
</svg>
