<svg width="188" height="38" viewBox="0 0 188 38" fill="none" xmlns="http://www.w3.org/2000/svg">
<g clip-path="url(#clip0_1_344)">
<path fill-rule="evenodd" clip-rule="evenodd" d="M30.7337 16.7647C30.9287 16.6401 31.1285 16.5226 31.3276 16.4039C31.5606 17.3422 31.6998 18.3172 31.6998 19.3258C31.6998 26.1348 26.0744 31.674 19.1607 31.674C12.247 31.674 6.62162 26.1341 6.62162 19.3258C6.62162 12.5172 12.2464 6.97736 19.1607 6.97736C22.4644 6.97736 25.4633 8.25331 27.7049 10.3174C27.5152 10.4413 27.3282 10.5685 27.155 10.7127C25.0424 8.80867 22.2434 7.63304 19.1607 7.63304C12.6138 7.63304 7.28743 12.8784 7.28743 19.3258C7.28743 25.773 12.6138 31.0183 19.1607 31.0183C25.7076 31.0183 31.034 25.773 31.034 19.3258C31.034 18.4445 30.9229 17.59 30.7337 16.7647ZM19.2434 0.473022C29.6142 0.473022 38.052 8.78244 38.052 18.9955C38.052 29.2086 29.6142 37.5179 19.2434 37.5179C8.87255 37.5179 0.434761 29.2086 0.434761 18.9955C0.434761 16.3069 1.02715 13.7544 2.07771 11.447C2.26818 11.5765 2.45118 11.7146 2.63011 11.8595C1.65749 14.0469 1.11255 16.4592 1.11255 18.9955C1.11255 28.8407 9.246 36.8505 19.2434 36.8505C29.2408 36.8505 37.3743 28.8407 37.3743 18.9955C37.3743 9.1502 29.2408 1.1405 19.2434 1.1405C14.3891 1.1405 9.97802 3.03413 6.72057 6.10451C6.56196 5.94632 6.40202 5.79079 6.24001 5.63594C9.62082 2.44341 14.2007 0.473022 19.2434 0.473022ZM19.2434 25.5812C15.7808 25.5812 12.9738 22.817 12.9738 19.4071C12.9738 15.9973 15.7808 13.2329 19.2434 13.2329C22.706 13.2329 25.5129 15.9973 25.5129 19.4071C25.5129 22.817 22.706 25.5812 19.2434 25.5812ZM29.6926 15.2909C28.5384 15.2909 27.6027 14.3695 27.6027 13.2329C27.6027 12.0963 28.5384 11.1749 29.6926 11.1749C30.8469 11.1749 31.7826 12.0963 31.7826 13.2329C31.7826 14.3695 30.8469 15.2909 29.6926 15.2909ZM4.19649 10.7633C3.04228 10.7633 2.10665 9.84186 2.10665 8.70523C2.10665 7.5686 3.04228 6.64717 4.19649 6.64717C5.35068 6.64717 6.28633 7.5686 6.28633 8.70523C6.28633 9.84186 5.35068 10.7633 4.19649 10.7633ZM65.4433 18.9656H65.6718V25.6636H63.562V24.7147C62.5966 25.2303 61.469 25.5291 60.183 25.5291C56.5712 25.5291 53.6076 23.0604 53.6076 19.2485C53.6076 15.4185 56.5712 12.986 60.183 12.986C62.7577 12.986 64.369 14.2567 65.2952 15.6907L63.1095 16.8524C62.5539 15.9993 61.4981 15.2732 60.183 15.2732C57.9419 15.2732 56.3119 16.9614 56.3119 19.2485C56.3119 21.5357 57.9419 23.2238 60.183 23.2238C61.2759 23.2238 62.3131 22.7518 62.8133 22.298L63.1095 22.0737L63.562 21.6264V20.8458H60.9182V18.9656H65.4433ZM75.3418 25.511C71.5818 25.511 69.7666 23.4417 69.7666 20.4646V13.1857H72.4338V20.3739C72.4338 22.0621 73.4341 23.2238 75.3418 23.2238C77.2496 23.2238 78.2314 22.0621 78.2314 20.3739V13.1857H80.917V20.4466C80.917 23.4597 79.1019 25.511 75.3418 25.511ZM96.4834 25.2931H93.4829L92.7234 23.2419H87.426L86.648 25.2931H83.6475L88.4262 13.1857H91.7233L96.4834 25.2931ZM92.0011 20.9729L90.0747 15.7633L88.1484 20.9729H92.0011ZM109.864 25.2931H106.845L104.418 20.9911H102.492V25.2931H99.8621V13.1857H105.641C108.216 13.1857 109.79 14.8375 109.79 17.0884C109.79 19.2303 108.419 20.3739 107.086 20.6825L109.864 25.2931ZM105.252 18.7221C106.308 18.7221 107.104 18.1048 107.104 17.0884C107.104 16.0719 106.308 15.4548 105.252 15.4548H102.492V18.7221H105.252ZM118.874 25.2931H114.002V13.1857H118.874C122.745 13.1857 125.43 15.6 125.43 19.2485C125.43 22.8971 122.745 25.2931 118.874 25.2931ZM118.874 23.0241C121.318 23.0241 122.745 21.2996 122.745 19.2485C122.745 17.1065 121.412 15.4548 118.874 15.4548H116.632V23.0241H118.874ZM139.533 25.2931H136.514L134.088 20.9911H132.161V25.2931H129.532V13.1857H135.31C137.885 13.1857 139.459 14.8375 139.459 17.0884C139.459 19.2303 138.089 20.3739 136.754 20.6825L139.533 25.2931ZM134.921 18.7221C135.978 18.7221 136.774 18.1048 136.774 17.0884C136.774 16.0719 135.978 15.4548 134.921 15.4548H132.161V18.7221H134.921ZM155.193 25.2931H152.193L151.433 23.2419H146.136L145.357 25.2931H142.356L147.135 13.1857H150.433L155.193 25.2931ZM150.711 20.9729L148.784 15.7633L146.857 20.9729H150.711ZM161.202 25.2931H158.572V13.1857H161.202V25.2931ZM174.865 25.2931H165.877V13.1857H168.507V23.0241H174.865V25.2931ZM182.184 25.511C179.813 25.511 178.109 24.7304 176.962 23.5868L178.386 21.6264C179.257 22.5158 180.609 23.2601 182.313 23.2601C183.758 23.2601 184.462 22.6066 184.462 21.9168C184.462 19.7749 177.349 21.2452 177.349 16.6891C177.349 14.6742 179.127 13.0042 182.036 13.0042C184 13.0042 185.629 13.5851 186.851 14.6924L185.389 16.5802C184.388 15.6726 183.053 15.255 181.795 15.255C180.665 15.255 180.035 15.7452 180.035 16.4712C180.035 18.3953 187.129 17.1065 187.129 21.6264C187.129 23.8409 185.518 25.511 182.184 25.511Z" fill="white"/>
</g>
<defs>
<clipPath id="clip0_1_344">
<rect width="188" height="37.8611" fill="white"/>
</clipPath>
</defs>
</svg>
