<svg width="77" height="77" viewBox="0 0 77 77" fill="none" xmlns="http://www.w3.org/2000/svg">
<path d="M73.2402 7.9707H32.4844C31.2385 7.9707 30.2285 8.98073 30.2285 10.2266V74.7441C30.2285 75.99 31.2385 77 32.4844 77H73.2402C74.4861 77 75.4961 75.99 75.4961 74.7441V10.2266C75.4961 8.98073 74.4861 7.9707 73.2402 7.9707Z" fill="#F3F5F9"/>
<path d="M75.4961 10.2266V74.7441C75.4961 75.9894 74.4855 77 73.2402 77H52.8623V7.9707H73.2402C74.4855 7.9707 75.4961 8.98133 75.4961 10.2266Z" fill="#D6E1F1"/>
<path d="M45.8376 31.3049C44.9787 30.4025 43.5507 30.3675 42.6482 31.2264L39.831 33.9083L38.8673 32.9906C37.9651 32.1317 36.5373 32.1668 35.6779 33.069C34.8189 33.9713 34.8539 35.3993 35.7563 36.2583L38.2755 38.6566C38.711 39.0714 39.2709 39.2786 39.831 39.2786C40.3909 39.2786 40.9508 39.0712 41.3865 38.6566L45.7592 34.4939C46.6616 33.6352 46.6966 32.2074 45.8376 31.3049Z" fill="#5CBA47"/>
<path d="M67.0742 30.6045H52.0352C50.7893 30.6045 49.7793 31.6145 49.7793 32.8604C49.7793 34.1062 50.7893 35.1162 52.0352 35.1162H67.0742C68.3201 35.1162 69.3301 34.1062 69.3301 32.8604C69.3301 31.6145 68.3201 30.6045 67.0742 30.6045Z" fill="#D6E1F1"/>
<path d="M69.3301 32.8604C69.3301 34.1056 68.3195 35.1162 67.0742 35.1162H52.8623V30.6045H67.0742C68.3195 30.6045 69.3301 31.6151 69.3301 32.8604Z" fill="#B4C5DA"/>
<path d="M67.0742 39.6279H52.0352C50.7893 39.6279 49.7793 40.638 49.7793 41.8838C49.7793 43.1296 50.7893 44.1396 52.0352 44.1396H67.0742C68.3201 44.1396 69.3301 43.1296 69.3301 41.8838C69.3301 40.638 68.3201 39.6279 67.0742 39.6279Z" fill="#D6E1F1"/>
<path d="M69.3301 41.8838C69.3301 43.129 68.3195 44.1396 67.0742 44.1396H52.8623V39.6279H67.0742C68.3195 39.6279 69.3301 40.6386 69.3301 41.8838Z" fill="#B4C5DA"/>
<path d="M67.0742 53.1631H52.0352C50.7893 53.1631 49.7793 54.1731 49.7793 55.4189C49.7793 56.6648 50.7893 57.6748 52.0352 57.6748H67.0742C68.3201 57.6748 69.3301 56.6648 69.3301 55.4189C69.3301 54.1731 68.3201 53.1631 67.0742 53.1631Z" fill="#D6E1F1"/>
<path d="M69.3301 55.4189C69.3301 56.6642 68.3195 57.6748 67.0742 57.6748H52.8623V53.1631H67.0742C68.3195 53.1631 69.3301 54.1737 69.3301 55.4189Z" fill="#B4C5DA"/>
<path d="M67.0742 62.1865H52.0352C50.7893 62.1865 49.7793 63.1965 49.7793 64.4424C49.7793 65.6882 50.7893 66.6982 52.0352 66.6982H67.0742C68.3201 66.6982 69.3301 65.6882 69.3301 64.4424C69.3301 63.1965 68.3201 62.1865 67.0742 62.1865Z" fill="#D6E1F1"/>
<path d="M69.3301 64.4424C69.3301 65.6876 68.3195 66.6982 67.0742 66.6982H52.8623V62.1865H67.0742C68.3195 62.1865 69.3301 63.1971 69.3301 64.4424Z" fill="#B4C5DA"/>
<path d="M52.0352 22.7842H67.0742C68.3201 22.7842 69.3301 21.7742 69.3301 20.5283C69.3301 19.2825 68.3201 18.2725 67.0742 18.2725H52.0352C50.7893 18.2725 49.7793 19.2825 49.7793 20.5283C49.7793 21.7742 50.7893 22.7842 52.0352 22.7842Z" fill="#D6E1F1"/>
<path d="M69.3301 20.5283C69.3301 21.7736 68.3195 22.7842 67.0742 22.7842H52.8623V18.2725H67.0742C68.3195 18.2725 69.3301 19.2831 69.3301 20.5283Z" fill="#B4C5DA"/>
<path d="M9.70793 74.8138C9.74553 76.0319 10.744 77 11.9627 77H21.8685C23.09 77 24.0896 76.0277 24.1235 74.8069L24.8312 47.8242L16.543 46.3203L8.92139 47.8242L9.70793 74.8138Z" fill="#544473"/>
<path d="M24.831 47.8242L24.1242 74.8073C24.0896 76.0285 23.0895 77 21.8683 77H16.543V46.3203L24.831 47.8242Z" fill="#413559"/>
<path d="M43.2731 17.756C42.0199 16.2198 39.7989 15.8996 38.1628 17.0191L32.4844 20.9043L24.143 16.1814C23.691 15.9255 23.1805 15.791 22.661 15.791H7.51953C4.19725 15.791 1.50391 18.4844 1.50391 21.8066V43.3588C1.50391 45.8249 3.5032 47.8242 5.96931 47.8242H24.8311L25.416 27.0703L33.3867 30.5293L42.6869 23.1571C44.3544 21.8354 44.6182 19.4049 43.2731 17.756Z" fill="#FFDF40"/>
<path d="M42.6869 23.1571L33.3867 30.5293L25.416 27.0703L24.831 47.8242H16.543V15.791H22.661C23.1805 15.791 23.691 15.9255 24.143 16.1814L32.4844 20.9043L38.1631 17.0197C39.7994 15.8993 42.0206 16.2196 43.2734 17.7566C44.6179 19.4049 44.3547 21.8352 42.6869 23.1571Z" fill="#FFBE40"/>
<path d="M43.9424 57.686L44.6144 57.0141C45.4953 56.1331 45.4953 54.7048 44.6144 53.8238C43.7335 52.9428 42.3051 52.9428 41.4241 53.8238L40.752 54.4958L40.0912 53.835C39.2104 52.9541 37.782 52.954 36.901 53.835C36.02 54.7159 36.02 56.1442 36.901 57.0252L37.5616 57.6859L36.9047 58.3428C36.0237 59.2237 36.0237 60.652 36.9047 61.533C37.3452 61.9735 37.9226 62.1938 38.4998 62.1938C39.077 62.1938 39.6545 61.9736 40.0948 61.533L40.7517 60.8761L41.4088 61.5332C41.8493 61.9736 42.4266 62.1938 43.0038 62.1938C43.581 62.1938 44.1585 61.9736 44.5989 61.533C45.4799 60.652 45.4799 59.2237 44.5989 58.3428L43.9424 57.686Z" fill="#FB6369"/>
<path d="M16.543 15.791C20.9035 15.791 24.4385 12.2561 24.4385 7.89551C24.4385 3.53494 20.9035 0 16.543 0C12.1824 0 8.64746 3.53494 8.64746 7.89551C8.64746 12.2561 12.1824 15.791 16.543 15.791Z" fill="#D69A8B"/>
<path d="M24.4385 7.89551C24.4385 12.2493 20.8968 15.791 16.543 15.791V0C20.8968 0 24.4385 3.5417 24.4385 7.89551Z" fill="#C28678"/>
</svg>
