<svg width="61" height="61" viewBox="0 0 61 61" fill="none" xmlns="http://www.w3.org/2000/svg">
<g clip-path="url(#clip0_154_1041)">
<path d="M50.1512 12.6289C50.1512 5.73174 44.5386 0 37.6415 0C34.9538 0 32.4424 1.15006 30.493 3.21989C28.5435 1.15006 26.0322 0 23.3446 0C16.4474 0 10.8348 5.73174 10.8348 12.6289C10.8348 19.5662 15.9256 23.1474 21.821 27.2957C24.2521 29.006 26.767 30.7757 29.322 32.9922L30.4913 34.0079L31.6623 32.9939C34.5506 30.4946 37.2976 28.5384 39.72 26.8122C45.5473 22.664 50.1512 19.3864 50.1512 12.6289ZM35.8544 17.9902H32.2801V21.5645H28.7059V17.9902H25.1317V14.416H28.7059V10.8418H32.2801V14.416H35.8544V17.9902Z" fill="white"/>
<path d="M58.8485 16.3459C55.2027 16.3459 54.2616 33.2877 54.19 33.6453C53.827 36.1277 52.0782 39.8025 49.125 42.0152L41.3843 47.6354L39.2412 44.7733L46.9819 39.1547C50.0482 36.8558 51.4457 32.9303 47.6134 32.9303C44.1812 32.9303 37.7656 36.904 35.8637 38.4804C33.5925 40.3628 32.28 43.1597 32.28 46.1097V61H43.0027C43.0027 59.2842 43.932 57.4137 45.3615 55.6266C46.8628 53.6608 49.0074 51.6592 51.2233 49.6219C55.4408 45.6545 59.8133 41.5799 60.3853 37.434C60.7249 34.6489 61.0069 29.8723 60.9928 25.6152C60.9773 20.8478 60.5734 16.5 58.8485 16.3459Z" fill="white"/>
<path d="M24.7028 38.1488C19.6631 34.6817 15.8389 32.9303 13.3727 32.9303C9.54039 32.9303 10.9379 36.8558 14.0042 39.1547L21.7449 44.7733L19.6018 47.6354L11.8611 42.0152C8.90763 39.8025 7.15889 36.1277 6.79587 33.6453C6.72426 33.2877 5.78317 16.3459 2.13735 16.3459C0.135787 16.5247 -0.078666 22.3506 0.0286797 27.9264C0.100283 32.001 0.421844 35.9684 0.600436 37.434C1.17243 41.5799 5.54489 45.6547 9.76247 49.6219C11.9785 51.6592 14.1229 53.6608 15.6242 55.6266C17.0538 57.4137 17.9831 59.2842 17.9831 61H28.7057V46.181C28.7059 43.0237 27.2237 40.0496 24.7028 38.1488Z" fill="white"/>
</g>
<defs>
<clipPath id="clip0_154_1041">
<rect width="61" height="61" fill="white"/>
</clipPath>
</defs>
</svg>
