<svg width="76" height="75" viewBox="0 0 76 75" fill="none" xmlns="http://www.w3.org/2000/svg">
<path d="M38.2122 52.1591C51.3066 52.1591 61.9218 41.5513 61.9218 28.4659C61.9218 15.3805 51.3066 4.77273 38.2122 4.77273C25.1178 4.77273 14.5026 15.3805 14.5026 28.4659C14.5026 41.5513 25.1178 52.1591 38.2122 52.1591Z" fill="#FFD21E"/>
<path d="M61.9218 28.4659C61.9218 15.3805 51.3066 4.77273 38.2122 4.77273C25.1178 4.77273 14.5026 15.3805 14.5026 28.4659C14.5026 41.5513 25.1178 52.1591 38.2122 52.1591C51.3066 52.1591 61.9218 41.5513 61.9218 28.4659ZM11.7734 28.4659C11.7734 13.8743 23.6104 2.04546 38.2122 2.04546C52.8139 2.04546 64.6509 13.8743 64.6509 28.4659C64.6509 43.0575 52.8139 54.8864 38.2122 54.8864C23.6104 54.8864 11.7734 43.0575 11.7734 28.4659Z" fill="#FF9D0B"/>
<path d="M45.9156 22.0169C46.7851 22.3238 47.1311 24.1101 48.0095 23.6433C49.673 22.7594 50.3046 20.6952 49.4201 19.0328C48.5355 17.3705 46.4699 16.7394 44.8063 17.6233C43.1428 18.5072 42.5113 20.5714 43.3958 22.2338C43.8133 23.0185 45.1383 21.7426 45.9156 22.0169Z" fill="#3A3B45"/>
<path d="M29.8429 22.0169C28.9734 22.3238 28.6275 24.1101 27.7491 23.6433C26.0855 22.7594 25.454 20.6952 26.3385 19.0328C27.223 17.3705 29.2887 16.7394 30.9522 17.6233C32.6158 18.5072 33.2473 20.5714 32.3628 22.2338C31.9453 23.0185 30.6202 21.7426 29.8429 22.0169Z" fill="#3A3B45"/>
<path d="M38.0416 38.3789C44.7475 38.3789 46.9114 32.4042 46.9114 29.336C46.9114 27.7415 45.8388 28.2434 44.1208 29.0933C42.5332 29.8788 40.3944 30.9614 38.0416 30.9614C33.143 30.9614 29.1719 26.2679 29.1719 29.336C29.1719 32.4042 31.3358 38.3789 38.0416 38.3789Z" fill="#3A3B45"/>
<mask id="mask0_208_328" style="mask-type:alpha" maskUnits="userSpaceOnUse" x="29" y="28" width="18" height="11">
<path d="M38.0416 38.3789C44.7475 38.3789 46.9114 32.4042 46.9114 29.336C46.9114 27.7415 45.8388 28.2434 44.1208 29.0933C42.5332 29.8788 40.3944 30.9614 38.0416 30.9614C33.143 30.9614 29.1719 26.2679 29.1719 29.336C29.1719 32.4042 31.3358 38.3789 38.0416 38.3789Z" fill="white"/>
</mask>
<g mask="url(#mask0_208_328)">
<path d="M38.2122 45.3409C41.4803 45.3409 44.1297 42.6934 44.1297 39.4276C44.1297 36.8838 42.5224 34.7152 40.2674 33.8806C40.1843 33.8498 40.1005 33.8209 40.0158 33.7938C39.4472 33.6122 38.8412 35.5652 38.2122 35.5652C37.6246 35.5652 37.0569 33.5998 36.521 33.7592C34.0769 34.4863 32.2947 36.7489 32.2947 39.4276C32.2947 42.6934 34.9441 45.3409 38.2122 45.3409Z" fill="#F94040"/>
</g>
<path d="M54.246 25.2273C55.4706 25.2273 56.4634 24.2352 56.4634 23.0114C56.4634 21.7876 55.4706 20.7955 54.246 20.7955C53.0213 20.7955 52.0286 21.7876 52.0286 23.0114C52.0286 24.2352 53.0213 25.2273 54.246 25.2273Z" fill="#FF9D0B"/>
<path d="M22.5195 25.2273C23.7441 25.2273 24.7369 24.2352 24.7369 23.0114C24.7369 21.7876 23.7441 20.7955 22.5195 20.7955C21.2948 20.7955 20.3021 21.7876 20.3021 23.0114C20.3021 24.2352 21.2948 25.2273 22.5195 25.2273Z" fill="#FF9D0B"/>
<path d="M17.9563 32.7273C16.8517 32.7273 15.8644 33.1807 15.176 34.003C14.7502 34.5123 14.3054 35.3332 14.2692 36.5625C13.806 36.4295 13.3604 36.3552 12.9442 36.3552C11.8867 36.3552 10.9315 36.7602 10.256 37.4959C9.38813 38.4402 9.00263 39.6007 9.17048 40.7618C9.2503 41.3148 9.4352 41.8105 9.71153 42.2693C9.12886 42.7405 8.6997 43.3964 8.49228 44.1852C8.32989 44.8036 8.16342 46.0916 9.03265 47.4184C8.97739 47.505 8.92553 47.595 8.87709 47.687C8.35446 48.6784 8.32102 49.7986 8.78225 50.8418C9.4816 52.423 11.2194 53.6686 14.594 55.0057C16.6934 55.8375 18.614 56.3693 18.6311 56.3741C21.4067 57.0934 23.9168 57.4589 26.0899 57.4589C30.084 57.4589 32.9435 56.2364 34.5892 53.8255C37.2378 49.9432 36.8592 46.3923 33.432 42.9695C31.5352 41.0755 30.2744 38.2827 30.0117 37.6698C29.4822 35.8548 28.0822 33.8373 25.7549 33.8373C25.5591 33.8373 25.3605 33.853 25.1654 33.8836C24.1461 34.0439 23.255 34.6302 22.6184 35.5125C21.9313 34.6589 21.2641 33.9798 20.6602 33.5966C19.7501 33.0198 18.8406 32.7273 17.9563 32.7273ZM17.9563 35.4545C18.3043 35.4545 18.7294 35.6025 19.1981 35.8998C20.6534 36.8223 23.4617 41.6461 24.4899 43.5225C24.8345 44.1511 25.4233 44.417 25.9534 44.417C27.0055 44.417 27.827 43.3718 26.0496 42.0436C23.3771 40.0452 24.3146 36.7786 25.5905 36.5775C25.6464 36.5686 25.7017 36.5645 25.7549 36.5645C26.9148 36.5645 27.4265 38.5623 27.4265 38.5623C27.4265 38.5623 28.9262 42.3259 31.5025 44.8984C34.0788 47.4716 34.2119 49.5368 32.3342 52.2886C31.0536 54.165 28.6021 54.7316 26.0899 54.7316C23.4842 54.7316 20.8131 54.122 19.3161 53.7341C19.2424 53.715 10.1386 51.1452 11.2917 48.958C11.4855 48.5905 11.8048 48.4432 12.2067 48.4432C13.8305 48.4432 16.7841 50.8582 18.0539 50.8582C18.3377 50.8582 18.5376 50.7375 18.6195 50.443C19.1606 48.5032 10.3931 47.6877 11.1321 44.878C11.2624 44.3809 11.6158 44.1791 12.1125 44.1798C14.2583 44.1798 19.0725 47.9509 20.0817 47.9509C20.1587 47.9509 20.214 47.9284 20.244 47.8807C20.7496 47.0652 20.4726 46.4959 16.909 44.3407C13.3454 42.1848 10.8441 40.888 12.2667 39.3402C12.4305 39.1616 12.6624 39.0825 12.9442 39.0825C15.1078 39.0832 20.2195 43.7318 20.2195 43.7318C20.2195 43.7318 21.5991 45.1657 22.4335 45.1657C22.6252 45.1657 22.7883 45.09 22.8988 44.9032C23.4904 43.9064 17.4043 39.2973 17.0612 37.3957C16.8285 36.107 17.2242 35.4545 17.9563 35.4545Z" fill="#FF9D0B"/>
<path d="M32.3341 52.2885C34.2118 49.5367 34.0787 47.4715 31.5024 44.8983C28.9261 42.3258 27.4264 38.5621 27.4264 38.5621C27.4264 38.5621 26.8663 36.3762 25.5904 36.5774C24.3145 36.7785 23.3777 40.0451 26.0502 42.0435C28.7228 44.0412 25.5181 45.3987 24.4898 43.5224C23.4616 41.646 20.654 36.8221 19.198 35.8996C17.7427 34.9771 16.7179 35.494 17.0611 37.3955C17.4043 39.2971 23.491 43.9062 22.8987 44.9037C22.3065 45.9005 20.2194 43.7317 20.2194 43.7317C20.2194 43.7317 13.6885 37.7924 12.2666 39.3401C10.8447 40.8878 13.3453 42.1846 16.9089 44.3405C20.4732 46.4958 20.7495 47.0651 20.244 47.8805C19.7377 48.696 11.8709 42.068 11.1319 44.8778C10.3937 47.6876 19.1605 48.503 18.6194 50.4428C18.0784 52.3833 12.444 46.7712 11.2916 48.9578C10.1385 51.1451 19.2424 53.7149 19.316 53.734C22.2567 54.4962 29.7251 56.1115 32.3341 52.2885Z" fill="#FFD21E"/>
<path d="M58.8092 32.7273C59.9138 32.7273 60.9011 33.1807 61.5895 34.003C62.0152 34.5123 62.4601 35.3332 62.4963 36.5625C62.9595 36.4295 63.4051 36.3552 63.8213 36.3552C64.8788 36.3552 65.834 36.7602 66.5095 37.4959C67.3774 38.4402 67.7629 39.6007 67.595 40.7618C67.5152 41.3148 67.3303 41.8105 67.054 42.2693C67.6366 42.7405 68.0658 43.3964 68.2732 44.1852C68.4356 44.8036 68.6021 46.0916 67.7328 47.4184C67.7881 47.505 67.84 47.595 67.8884 47.687C68.411 48.6784 68.4445 49.7986 67.9832 50.8418C67.2839 52.423 65.5461 53.6686 62.1715 55.0057C60.0721 55.8375 58.1514 56.3693 58.1344 56.3741C55.3588 57.0934 52.8487 57.4589 50.6756 57.4589C46.6815 57.4589 43.822 56.2364 42.1763 53.8255C39.5277 49.9432 39.9063 46.3923 43.3335 42.9695C45.2302 41.0755 46.4911 38.2827 46.7538 37.6698C47.2832 35.8548 48.6833 33.8373 51.0106 33.8373C51.2064 33.8373 51.405 33.853 51.6001 33.8836C52.6194 34.0439 53.5105 34.6302 54.1471 35.5125C54.8341 34.6589 55.5014 33.9798 56.1052 33.5966C57.0154 33.0198 57.9249 32.7273 58.8092 32.7273ZM58.8092 35.4545C58.4612 35.4545 58.0361 35.6025 57.5674 35.8998C56.1121 36.8223 53.3038 41.6461 52.2756 43.5225C51.931 44.1511 51.3422 44.417 50.812 44.417C49.76 44.417 48.9385 43.3718 50.7158 42.0436C53.3884 40.0452 52.4509 36.7786 51.175 36.5775C51.1191 36.5686 51.0638 36.5645 51.0106 36.5645C49.8507 36.5645 49.339 38.5623 49.339 38.5623C49.339 38.5623 47.8393 42.3259 45.263 44.8984C42.6867 47.4716 42.5536 49.5368 44.4313 52.2886C45.7119 54.165 48.1634 54.7316 50.6756 54.7316C53.2812 54.7316 55.9524 54.122 57.4494 53.7341C57.523 53.715 66.6268 51.1452 65.4738 48.958C65.28 48.5905 64.9607 48.4432 64.5588 48.4432C62.935 48.4432 59.9813 50.8582 58.7116 50.8582C58.4278 50.8582 58.2279 50.7375 58.146 50.443C57.6049 48.5032 66.3723 47.6877 65.6334 44.878C65.5031 44.3809 65.1497 44.1791 64.653 44.1798C62.5072 44.1798 57.6929 47.9509 56.6838 47.9509C56.6067 47.9509 56.5515 47.9284 56.5214 47.8807C56.0159 47.0652 56.2929 46.4959 59.8565 44.3407C63.4201 42.1848 65.9214 40.888 64.4988 39.3402C64.335 39.1616 64.1031 39.0825 63.8213 39.0825C61.6577 39.0832 56.546 43.7318 56.546 43.7318C56.546 43.7318 55.1664 45.1657 54.332 45.1657C54.1403 45.1657 53.9772 45.09 53.8667 44.9032C53.2751 43.9064 59.3611 39.2973 59.7043 37.3957C59.937 36.107 59.5413 35.4545 58.8092 35.4545Z" fill="#FF9D0B"/>
<path d="M44.4314 52.2885C42.5537 49.5367 42.6868 47.4715 45.2631 44.8983C47.8394 42.3258 49.3391 38.5621 49.3391 38.5621C49.3391 38.5621 49.8993 36.3762 51.1751 36.5774C52.451 36.7785 53.3878 40.0451 50.7153 42.0435C48.0428 44.0412 51.2475 45.3987 52.2757 43.5224C53.3039 41.646 56.1115 36.8221 57.5675 35.8996C59.0228 34.9771 60.0476 35.494 59.7045 37.3955C59.3613 39.2971 53.2746 43.9062 53.8668 44.9037C54.459 45.9005 56.5461 43.7317 56.5461 43.7317C56.5461 43.7317 63.077 37.7924 64.4989 39.3401C65.9208 40.8878 63.4202 42.1846 59.8566 44.3405C56.2923 46.4958 56.016 47.0651 56.5216 47.8805C57.0278 48.696 64.8946 42.068 65.6336 44.8778C66.3718 47.6876 57.6051 48.503 58.1461 50.4428C58.6872 52.3833 64.3215 46.7712 65.4739 48.9578C66.627 51.1451 57.5232 53.7149 57.4495 53.734C54.5088 54.4962 47.0405 56.1115 44.4314 52.2885Z" fill="#FFD21E"/>
<path d="M0.71733 73V65.7273H2.0348V68.8061H5.40483V65.7273H6.72585V73H5.40483V69.9105H2.0348V73H0.71733ZM12.7433 65.7273H14.0607V70.4787C14.0607 70.9995 13.9376 71.4576 13.6914 71.853C13.4476 72.2483 13.1043 72.5573 12.6616 72.7798C12.2189 73 11.7016 73.1101 11.1097 73.1101C10.5155 73.1101 9.99704 73 9.55433 72.7798C9.11162 72.5573 8.76835 72.2483 8.5245 71.853C8.28066 71.4576 8.15874 70.9995 8.15874 70.4787V65.7273H9.47621V70.3686C9.47621 70.6716 9.5425 70.9415 9.67507 71.1783C9.81001 71.415 9.99941 71.6009 10.2433 71.7358C10.4871 71.8684 10.7759 71.9347 11.1097 71.9347C11.4435 71.9347 11.7324 71.8684 11.9762 71.7358C12.2224 71.6009 12.4118 71.415 12.5444 71.1783C12.677 70.9415 12.7433 70.6716 12.7433 70.3686V65.7273ZM20.3649 68.0497C20.3057 67.858 20.224 67.6863 20.1199 67.5348C20.0181 67.3809 19.8949 67.2495 19.7505 67.1406C19.6085 67.0317 19.4451 66.95 19.2605 66.8956C19.0758 66.8388 18.8746 66.8104 18.6568 66.8104C18.2662 66.8104 17.9181 66.9086 17.6127 67.1051C17.3074 67.3016 17.0671 67.5904 16.8919 67.9716C16.719 68.3504 16.6326 68.812 16.6326 69.3565C16.6326 69.9058 16.719 70.371 16.8919 70.7521C17.0647 71.1333 17.305 71.4233 17.6127 71.6222C17.9205 71.8187 18.278 71.9169 18.6852 71.9169C19.0545 71.9169 19.3741 71.8459 19.644 71.7038C19.9163 71.5618 20.1258 71.3606 20.2725 71.1001C20.4193 70.8374 20.4927 70.5296 20.4927 70.1768L20.791 70.223H18.8166V69.1932H21.7676V70.0668C21.7676 70.6894 21.635 71.228 21.3699 71.6825C21.1047 72.1371 20.7401 72.4875 20.2761 72.7337C19.8121 72.9775 19.2794 73.0994 18.6781 73.0994C18.0081 73.0994 17.4198 72.9491 16.9132 72.6484C16.4089 72.3454 16.0147 71.9157 15.7306 71.3594C15.4489 70.8007 15.3081 70.1378 15.3081 69.3707C15.3081 68.7836 15.3909 68.2592 15.5566 67.7976C15.7247 67.3359 15.9591 66.9441 16.2598 66.6222C16.5604 66.2978 16.9132 66.0516 17.318 65.8835C17.7228 65.7131 18.1632 65.6278 18.639 65.6278C19.0415 65.6278 19.4167 65.687 19.7647 65.8054C20.1127 65.9214 20.4217 66.0871 20.6916 66.3026C20.9638 66.518 21.1876 66.7737 21.3627 67.0696C21.5379 67.3655 21.6528 67.6922 21.7072 68.0497H20.3649ZM27.9137 68.0497C27.8545 67.858 27.7728 67.6863 27.6687 67.5348C27.5669 67.3809 27.4438 67.2495 27.2994 67.1406C27.1573 67.0317 26.994 66.95 26.8093 66.8956C26.6246 66.8388 26.4234 66.8104 26.2056 66.8104C25.815 66.8104 25.467 66.9086 25.1616 67.1051C24.8562 67.3016 24.6159 67.5904 24.4407 67.9716C24.2679 68.3504 24.1815 68.812 24.1815 69.3565C24.1815 69.9058 24.2679 70.371 24.4407 70.7521C24.6135 71.1333 24.8538 71.4233 25.1616 71.6222C25.4693 71.8187 25.8268 71.9169 26.234 71.9169C26.6033 71.9169 26.9229 71.8459 27.1928 71.7038C27.4651 71.5618 27.6746 71.3606 27.8214 71.1001C27.9682 70.8374 28.0415 70.5296 28.0415 70.1768L28.3398 70.223H26.3654V69.1932H29.3164V70.0668C29.3164 70.6894 29.1838 71.228 28.9187 71.6825C28.6535 72.1371 28.2889 72.4875 27.8249 72.7337C27.3609 72.9775 26.8282 73.0994 26.2269 73.0994C25.5569 73.0994 24.9686 72.9491 24.462 72.6484C23.9577 72.3454 23.5636 71.9157 23.2795 71.3594C22.9978 70.8007 22.8569 70.1378 22.8569 69.3707C22.8569 68.7836 22.9397 68.2592 23.1055 67.7976C23.2736 67.3359 23.5079 66.9441 23.8086 66.6222C24.1093 66.2978 24.462 66.0516 24.8668 65.8835C25.2717 65.7131 25.712 65.6278 26.1879 65.6278C26.5903 65.6278 26.9656 65.687 27.3136 65.8054C27.6616 65.9214 27.9705 66.0871 28.2404 66.3026C28.5127 66.518 28.7364 66.7737 28.9116 67.0696C29.0868 67.3655 29.2016 67.6922 29.256 68.0497H27.9137ZM31.9078 65.7273V73H30.5904V65.7273H31.9078ZM39.3111 65.7273V73H38.1392L34.7124 68.0462H34.652V73H33.3345V65.7273H34.5135L37.9368 70.6847H38.0007V65.7273H39.3111ZM45.6188 68.0497C45.5596 67.858 45.4779 67.6863 45.3738 67.5348C45.272 67.3809 45.1489 67.2495 45.0044 67.1406C44.8624 67.0317 44.699 66.95 44.5144 66.8956C44.3297 66.8388 44.1285 66.8104 43.9107 66.8104C43.5201 66.8104 43.1721 66.9086 42.8667 67.1051C42.5613 67.3016 42.321 67.5904 42.1458 67.9716C41.973 68.3504 41.8865 68.812 41.8865 69.3565C41.8865 69.9058 41.973 70.371 42.1458 70.7521C42.3186 71.1333 42.5589 71.4233 42.8667 71.6222C43.1744 71.8187 43.5319 71.9169 43.9391 71.9169C44.3084 71.9169 44.628 71.8459 44.8979 71.7038C45.1702 71.5618 45.3797 71.3606 45.5265 71.1001C45.6732 70.8374 45.7466 70.5296 45.7466 70.1768L46.0449 70.223H44.0705V69.1932H47.0215V70.0668C47.0215 70.6894 46.8889 71.228 46.6238 71.6825C46.3586 72.1371 45.994 72.4875 45.53 72.7337C45.066 72.9775 44.5333 73.0994 43.932 73.0994C43.262 73.0994 42.6737 72.9491 42.1671 72.6484C41.6628 72.3454 41.2686 71.9157 40.9846 71.3594C40.7028 70.8007 40.562 70.1378 40.562 69.3707C40.562 68.7836 40.6448 68.2592 40.8105 67.7976C40.9786 67.3359 41.213 66.9441 41.5137 66.6222C41.8143 66.2978 42.1671 66.0516 42.5719 65.8835C42.9767 65.7131 43.4171 65.6278 43.8929 65.6278C44.2954 65.6278 44.6706 65.687 45.0186 65.8054C45.3667 65.9214 45.6756 66.0871 45.9455 66.3026C46.2177 66.518 46.4415 66.7737 46.6167 67.0696C46.7918 67.3655 46.9067 67.6922 46.9611 68.0497H45.6188ZM50.7759 73V65.7273H55.435V66.8317H52.0934V68.8061H55.1154V69.9105H52.0934V73H50.7759ZM56.661 73H55.2548L57.8152 65.7273H59.4416L62.0055 73H60.5993L58.6568 67.2188H58.6L56.661 73ZM56.7072 70.1484H60.5424V71.2067H56.7072V70.1484ZM68.8468 68.1811H67.5186C67.4808 67.9633 67.4109 67.7704 67.3091 67.6023C67.2073 67.4318 67.0807 67.2874 66.9292 67.169C66.7776 67.0507 66.6048 66.9619 66.4107 66.9027C66.2189 66.8411 66.0118 66.8104 65.7892 66.8104C65.3939 66.8104 65.0435 66.9098 64.7381 67.1087C64.4327 67.3052 64.1936 67.594 64.0208 67.9751C63.848 68.3539 63.7615 68.8168 63.7615 69.3636C63.7615 69.92 63.848 70.3887 64.0208 70.7699C64.196 71.1487 64.4351 71.4351 64.7381 71.6293C65.0435 71.821 65.3927 71.9169 65.7857 71.9169C66.0035 71.9169 66.2071 71.8885 66.3965 71.8317C66.5882 71.7725 66.7599 71.6861 66.9114 71.5724C67.0653 71.4588 67.1943 71.3191 67.2985 71.1534C67.405 70.9877 67.4784 70.7983 67.5186 70.5852L68.8468 70.5923C68.7971 70.938 68.6893 71.2623 68.5236 71.5653C68.3603 71.8684 68.146 72.1359 67.8809 72.3679C67.6157 72.5975 67.3056 72.7775 66.9505 72.9077C66.5953 73.0355 66.2012 73.0994 65.7679 73.0994C65.1287 73.0994 64.5582 72.9515 64.0563 72.6555C63.5544 72.3596 63.159 71.9323 62.8702 71.3736C62.5814 70.8149 62.437 70.1449 62.437 69.3636C62.437 68.58 62.5826 67.91 62.8738 67.3537C63.165 66.795 63.5615 66.3677 64.0634 66.0717C64.5653 65.7758 65.1335 65.6278 65.7679 65.6278C66.1728 65.6278 66.5492 65.6847 66.8972 65.7983C67.2452 65.9119 67.5553 66.0788 67.8276 66.299C68.0998 66.5168 68.3236 66.7843 68.4988 67.1016C68.6763 67.4164 68.7923 67.7763 68.8468 68.1811ZM70.0533 73V65.7273H74.7834V66.8317H71.3707V68.8061H74.5384V69.9105H71.3707V71.8956H74.8118V73H70.0533Z" fill="white"/>
</svg>
