<svg width="65" height="60" viewBox="0 0 65 60" fill="none" xmlns="http://www.w3.org/2000/svg">
<path d="M32.2122 52.1591C45.3066 52.1591 55.9218 41.5513 55.9218 28.4659C55.9218 15.3805 45.3066 4.77273 32.2122 4.77273C19.1178 4.77273 8.50262 15.3805 8.50262 28.4659C8.50262 41.5513 19.1178 52.1591 32.2122 52.1591Z" fill="#FFD21E"/>
<path d="M55.9218 28.4659C55.9218 15.3805 45.3066 4.77273 32.2122 4.77273C19.1178 4.77273 8.50263 15.3805 8.50263 28.4659C8.50263 41.5513 19.1178 52.1591 32.2122 52.1591C45.3066 52.1591 55.9218 41.5513 55.9218 28.4659ZM5.77344 28.4659C5.77344 13.8743 17.6104 2.04546 32.2122 2.04546C46.8139 2.04546 58.6509 13.8743 58.6509 28.4659C58.6509 43.0575 46.8139 54.8864 32.2122 54.8864C17.6104 54.8864 5.77344 43.0575 5.77344 28.4659Z" fill="#FF9D0B"/>
<path d="M39.9156 22.0169C40.7851 22.3238 41.1311 24.1101 42.0095 23.6433C43.673 22.7594 44.3046 20.6952 43.4201 19.0328C42.5355 17.3705 40.4699 16.7394 38.8063 17.6233C37.1428 18.5072 36.5113 20.5714 37.3958 22.2338C37.8133 23.0185 39.1383 21.7426 39.9156 22.0169Z" fill="#3A3B45"/>
<path d="M23.8429 22.0169C22.9734 22.3238 22.6275 24.1101 21.7491 23.6433C20.0855 22.7594 19.454 20.6952 20.3385 19.0328C21.223 17.3705 23.2887 16.7394 24.9522 17.6233C26.6158 18.5072 27.2473 20.5714 26.3628 22.2338C25.9453 23.0185 24.6202 21.7426 23.8429 22.0169Z" fill="#3A3B45"/>
<path d="M32.0416 38.3789C38.7475 38.3789 40.9114 32.4042 40.9114 29.336C40.9114 27.7415 39.8388 28.2434 38.1208 29.0933C36.5332 29.8788 34.3944 30.9614 32.0416 30.9614C27.143 30.9614 23.1719 26.2679 23.1719 29.336C23.1719 32.4042 25.3358 38.3789 32.0416 38.3789Z" fill="#3A3B45"/>
<mask id="mask0_70_134" style="mask-type:alpha" maskUnits="userSpaceOnUse" x="23" y="28" width="18" height="11">
<path d="M32.0416 38.3789C38.7475 38.3789 40.9114 32.4042 40.9114 29.336C40.9114 27.7415 39.8388 28.2434 38.1208 29.0933C36.5332 29.8788 34.3944 30.9614 32.0416 30.9614C27.143 30.9614 23.1719 26.2679 23.1719 29.336C23.1719 32.4042 25.3358 38.3789 32.0416 38.3789Z" fill="white"/>
</mask>
<g mask="url(#mask0_70_134)">
<path d="M32.2122 45.3409C35.4803 45.3409 38.1297 42.6934 38.1297 39.4276C38.1297 36.8838 36.5224 34.7152 34.2674 33.8806C34.1843 33.8498 34.1005 33.8209 34.0158 33.7938C33.4472 33.6122 32.8412 35.5652 32.2122 35.5652C31.6246 35.5652 31.0569 33.5998 30.521 33.7592C28.0769 34.4863 26.2947 36.7489 26.2947 39.4276C26.2947 42.6934 28.9441 45.3409 32.2122 45.3409Z" fill="#F94040"/>
</g>
<path d="M48.246 25.2273C49.4706 25.2273 50.4634 24.2352 50.4634 23.0114C50.4634 21.7876 49.4706 20.7955 48.246 20.7955C47.0213 20.7955 46.0286 21.7876 46.0286 23.0114C46.0286 24.2352 47.0213 25.2273 48.246 25.2273Z" fill="#FF9D0B"/>
<path d="M16.5195 25.2273C17.7441 25.2273 18.7369 24.2352 18.7369 23.0114C18.7369 21.7876 17.7441 20.7955 16.5195 20.7955C15.2948 20.7955 14.3021 21.7876 14.3021 23.0114C14.3021 24.2352 15.2948 25.2273 16.5195 25.2273Z" fill="#FF9D0B"/>
<path d="M11.9563 32.7273C10.8517 32.7273 9.86442 33.1807 9.17599 34.003C8.75024 34.5123 8.30539 35.3332 8.26923 36.5625C7.80595 36.4295 7.36042 36.3552 6.94422 36.3552C5.88667 36.3552 4.93147 36.7602 4.256 37.4959C3.38813 38.4402 3.00263 39.6007 3.17048 40.7618C3.2503 41.3148 3.4352 41.8105 3.71153 42.2693C3.12886 42.7405 2.6997 43.3964 2.49228 44.1852C2.32989 44.8036 2.16342 46.0916 3.03265 47.4184C2.97739 47.505 2.92553 47.595 2.87709 47.687C2.35446 48.6784 2.32102 49.7986 2.78225 50.8418C3.4816 52.423 5.21939 53.6686 8.594 55.0057C10.6934 55.8375 12.614 56.3693 12.6311 56.3741C15.4067 57.0934 17.9168 57.4589 20.0899 57.4589C24.084 57.4589 26.9435 56.2364 28.5892 53.8255C31.2378 49.9432 30.8592 46.3923 27.432 42.9695C25.5352 41.0755 24.2744 38.2827 24.0117 37.6698C23.4822 35.8548 22.0822 33.8373 19.7549 33.8373C19.5591 33.8373 19.3605 33.853 19.1654 33.8836C18.1461 34.0439 17.255 34.6302 16.6184 35.5125C15.9313 34.6589 15.2641 33.9798 14.6602 33.5966C13.7501 33.0198 12.8406 32.7273 11.9563 32.7273ZM11.9563 35.4545C12.3043 35.4545 12.7294 35.6025 13.1981 35.8998C14.6534 36.8223 17.4617 41.6461 18.4899 43.5225C18.8345 44.1511 19.4233 44.417 19.9534 44.417C21.0055 44.417 21.827 43.3718 20.0496 42.0436C17.3771 40.0452 18.3146 36.7786 19.5905 36.5775C19.6464 36.5686 19.7017 36.5645 19.7549 36.5645C20.9148 36.5645 21.4265 38.5623 21.4265 38.5623C21.4265 38.5623 22.9262 42.3259 25.5025 44.8984C28.0788 47.4716 28.2119 49.5368 26.3342 52.2886C25.0536 54.165 22.6021 54.7316 20.0899 54.7316C17.4842 54.7316 14.8131 54.122 13.3161 53.7341C13.2424 53.715 4.13864 51.1452 5.29171 48.958C5.48548 48.5905 5.8048 48.4432 6.20666 48.4432C7.83051 48.4432 10.7841 50.8582 12.0539 50.8582C12.3377 50.8582 12.5376 50.7375 12.6195 50.443C13.1606 48.5032 4.39314 47.6877 5.13206 44.878C5.26238 44.3809 5.6158 44.1791 6.11251 44.1798C8.25831 44.1798 13.0725 47.9509 14.0817 47.9509C14.1587 47.9509 14.214 47.9284 14.244 47.8807C14.7496 47.0652 14.4726 46.4959 10.909 44.3407C7.34541 42.1848 4.84413 40.888 6.26671 39.3402C6.43046 39.1616 6.66243 39.0825 6.94422 39.0825C9.10776 39.0832 14.2195 43.7318 14.2195 43.7318C14.2195 43.7318 15.5991 45.1657 16.4335 45.1657C16.6252 45.1657 16.7883 45.09 16.8988 44.9032C17.4904 43.9064 11.4043 39.2973 11.0612 37.3957C10.8285 36.107 11.2242 35.4545 11.9563 35.4545Z" fill="#FF9D0B"/>
<path d="M26.3341 52.2885C28.2118 49.5367 28.0787 47.4715 25.5024 44.8983C22.9261 42.3258 21.4264 38.5621 21.4264 38.5621C21.4264 38.5621 20.8663 36.3762 19.5904 36.5774C18.3145 36.7785 17.3777 40.0451 20.0502 42.0435C22.7228 44.0412 19.5181 45.3987 18.4898 43.5224C17.4616 41.646 14.654 36.8221 13.198 35.8996C11.7427 34.9771 10.7179 35.494 11.0611 37.3955C11.4043 39.2971 17.491 43.9062 16.8987 44.9037C16.3065 45.9005 14.2194 43.7317 14.2194 43.7317C14.2194 43.7317 7.68852 37.7924 6.26659 39.3401C4.8447 40.8878 7.34532 42.1846 10.9089 44.3405C14.4732 46.4958 14.7495 47.0651 14.244 47.8805C13.7377 48.696 5.87086 42.068 5.13194 44.8778C4.39371 47.6876 13.1605 48.503 12.6194 50.4428C12.0784 52.3833 6.44399 46.7712 5.2916 48.9578C4.13853 51.1451 13.2424 53.7149 13.316 53.734C16.2567 54.4962 23.7251 56.1115 26.3341 52.2885Z" fill="#FFD21E"/>
<path d="M52.8092 32.7273C53.9138 32.7273 54.9011 33.1807 55.5895 34.003C56.0152 34.5123 56.4601 35.3332 56.4963 36.5625C56.9595 36.4295 57.4051 36.3552 57.8213 36.3552C58.8788 36.3552 59.834 36.7602 60.5095 37.4959C61.3774 38.4402 61.7629 39.6007 61.595 40.7618C61.5152 41.3148 61.3303 41.8105 61.054 42.2693C61.6366 42.7405 62.0658 43.3964 62.2732 44.1852C62.4356 44.8036 62.6021 46.0916 61.7328 47.4184C61.7881 47.505 61.84 47.595 61.8884 47.687C62.411 48.6784 62.4445 49.7986 61.9832 50.8418C61.2839 52.423 59.5461 53.6686 56.1715 55.0057C54.0721 55.8375 52.1514 56.3693 52.1344 56.3741C49.3588 57.0934 46.8487 57.4589 44.6756 57.4589C40.6815 57.4589 37.822 56.2364 36.1763 53.8255C33.5277 49.9432 33.9063 46.3923 37.3335 42.9695C39.2302 41.0755 40.4911 38.2827 40.7538 37.6698C41.2832 35.8548 42.6833 33.8373 45.0106 33.8373C45.2064 33.8373 45.405 33.853 45.6001 33.8836C46.6194 34.0439 47.5105 34.6302 48.1471 35.5125C48.8341 34.6589 49.5014 33.9798 50.1052 33.5966C51.0154 33.0198 51.9249 32.7273 52.8092 32.7273ZM52.8092 35.4545C52.4612 35.4545 52.0361 35.6025 51.5674 35.8998C50.1121 36.8223 47.3038 41.6461 46.2756 43.5225C45.931 44.1511 45.3422 44.417 44.812 44.417C43.76 44.417 42.9385 43.3718 44.7158 42.0436C47.3884 40.0452 46.4509 36.7786 45.175 36.5775C45.1191 36.5686 45.0638 36.5645 45.0106 36.5645C43.8507 36.5645 43.339 38.5623 43.339 38.5623C43.339 38.5623 41.8393 42.3259 39.263 44.8984C36.6867 47.4716 36.5536 49.5368 38.4313 52.2886C39.7119 54.165 42.1634 54.7316 44.6756 54.7316C47.2812 54.7316 49.9524 54.122 51.4494 53.7341C51.523 53.715 60.6268 51.1452 59.4738 48.958C59.28 48.5905 58.9607 48.4432 58.5588 48.4432C56.935 48.4432 53.9813 50.8582 52.7116 50.8582C52.4278 50.8582 52.2279 50.7375 52.146 50.443C51.6049 48.5032 60.3723 47.6877 59.6334 44.878C59.5031 44.3809 59.1497 44.1791 58.653 44.1798C56.5072 44.1798 51.6929 47.9509 50.6838 47.9509C50.6067 47.9509 50.5515 47.9284 50.5214 47.8807C50.0159 47.0652 50.2929 46.4959 53.8565 44.3407C57.4201 42.1848 59.9214 40.888 58.4988 39.3402C58.335 39.1616 58.1031 39.0825 57.8213 39.0825C55.6577 39.0832 50.546 43.7318 50.546 43.7318C50.546 43.7318 49.1664 45.1657 48.332 45.1657C48.1403 45.1657 47.9772 45.09 47.8667 44.9032C47.2751 43.9064 53.3611 39.2973 53.7043 37.3957C53.937 36.107 53.5413 35.4545 52.8092 35.4545Z" fill="#FF9D0B"/>
<path d="M38.4314 52.2885C36.5537 49.5367 36.6868 47.4715 39.2631 44.8983C41.8394 42.3258 43.3391 38.5621 43.3391 38.5621C43.3391 38.5621 43.8993 36.3762 45.1751 36.5774C46.451 36.7785 47.3878 40.0451 44.7153 42.0435C42.0428 44.0412 45.2475 45.3987 46.2757 43.5224C47.3039 41.646 50.1115 36.8221 51.5675 35.8996C53.0228 34.9771 54.0476 35.494 53.7045 37.3955C53.3613 39.2971 47.2746 43.9062 47.8668 44.9037C48.459 45.9005 50.5461 43.7317 50.5461 43.7317C50.5461 43.7317 57.077 37.7924 58.4989 39.3401C59.9208 40.8878 57.4202 42.1846 53.8566 44.3405C50.2923 46.4958 50.016 47.0651 50.5216 47.8805C51.0278 48.696 58.8946 42.068 59.6336 44.8778C60.3718 47.6876 51.6051 48.503 52.1461 50.4428C52.6872 52.3833 58.3215 46.7712 59.4739 48.9578C60.627 51.1451 51.5232 53.7149 51.4495 53.734C48.5088 54.4962 41.0405 56.1115 38.4314 52.2885Z" fill="#FFD21E"/>
</svg>
