<svg width="57" height="57" viewBox="0 0 57 57" fill="none" xmlns="http://www.w3.org/2000/svg">
<path d="M16.9219 36.5156H11.5781C11.3419 36.5156 11.1154 36.6095 10.9484 36.7765C10.7813 36.9435 10.6875 37.17 10.6875 37.4062V40.3658L6.79458 41.9226C6.62917 41.9887 6.48738 42.1029 6.38752 42.2503C6.28765 42.3978 6.23431 42.5719 6.23438 42.75V48.3538C3.31045 49.3673 2.67188 50.6935 2.67188 51.6562C2.67188 54.5802 8.49656 56.1094 14.25 56.1094C20.0034 56.1094 25.8281 54.5802 25.8281 51.6562C25.8281 50.6935 25.1895 49.3673 22.2656 48.3538V45.1191L36.3135 36.5049C38.6848 37.2413 41.1579 37.5966 43.6406 37.5577C48.9514 37.5577 54.3281 36.1327 54.3281 33.3984C54.3281 32.4945 53.7394 31.2556 51.0622 30.3124V25.2359C51.0621 25.0579 51.0087 24.884 50.9088 24.7367C50.809 24.5894 50.6673 24.4754 50.502 24.4094L46.9805 22.9986V20.3356C46.9805 20.0994 46.8866 19.8729 46.7196 19.7059C46.5526 19.5388 46.3261 19.445 46.0898 19.445H41.1914C40.9552 19.445 40.7287 19.5388 40.5616 19.7059C40.3946 19.8729 40.3008 20.0994 40.3008 20.3356V22.9986L36.7828 24.4076C36.6175 24.4736 36.4758 24.5876 36.376 24.7349C36.2761 24.8823 36.2227 25.0561 36.2226 25.2341V25.7916L21.3171 22.1988C21.3542 22.0231 21.3736 21.8441 21.375 21.6645C21.375 20.0524 19.9366 18.6844 17.5898 17.9853V16.2094L38.3521 11.6672C39.847 12.8622 41.7297 13.4646 43.6406 13.3594C47.1942 13.3594 49.875 11.7705 49.875 9.66328C49.875 8.34605 48.7804 7.18556 46.9805 6.53184V1.78125C46.9805 1.54504 46.8866 1.31851 46.7196 1.15148C46.5526 0.984458 46.3261 0.890625 46.0898 0.890625H41.1914C40.9552 0.890625 40.7287 0.984458 40.5616 1.15148C40.3946 1.31851 40.3008 1.54504 40.3008 1.78125V6.53184C38.5008 7.18556 37.4062 8.34605 37.4062 9.66328C37.4064 9.79123 37.4165 9.91898 37.4365 10.0454L17.5898 14.3898V11.5781C17.5898 11.3419 17.496 11.1154 17.329 10.9484C17.162 10.7813 16.9354 10.6875 16.6992 10.6875H11.8008C11.5646 10.6875 11.338 10.7813 11.171 10.9484C11.004 11.1154 10.9102 11.3419 10.9102 11.5781V17.9906C8.56336 18.6889 7.125 20.0569 7.125 21.6689C7.125 24.0397 10.1879 25.8281 14.25 25.8281C16.9477 25.8281 19.1974 25.0373 20.4096 23.8126L36.219 27.6245V30.3124C33.5418 31.2556 32.9531 32.4945 32.9531 33.3984C32.9877 33.8562 33.1381 34.2977 33.3902 34.6815C33.6422 35.0652 33.9877 35.3785 34.3942 35.592L22.2656 43.0297V42.75C22.2657 42.5719 22.2123 42.3978 22.1125 42.2503C22.0126 42.1029 21.8708 41.9887 21.7054 41.9226L17.8125 40.3658V37.4062C17.8125 37.17 17.7187 36.9435 17.5516 36.7765C17.3846 36.6095 17.1581 36.5156 16.9219 36.5156ZM42.082 2.67188H45.1992V8.47875H42.082V2.67188ZM40.3008 8.46984V9.36938C40.3008 9.60558 40.3946 9.83212 40.5616 9.99914C40.7287 10.1662 40.9552 10.26 41.1914 10.26H46.0898C46.3261 10.26 46.5526 10.1662 46.7196 9.99914C46.8866 9.83212 46.9805 9.60558 46.9805 9.36938V8.46984C47.709 8.84925 48.0938 9.30792 48.0938 9.66328C48.0938 10.4444 46.3588 11.5781 43.6406 11.5781C40.9224 11.5781 39.1875 10.4444 39.1875 9.66328C39.1875 9.30792 39.5723 8.84925 40.3008 8.46984ZM12.6914 12.4688H15.8086V20.781H12.6914V12.4688ZM14.25 24.0469C11.1916 24.0469 8.90625 22.7911 8.90625 21.6689C8.90625 21.0161 9.70781 20.333 10.9102 19.8672V21.6716C10.9102 21.9078 11.004 22.1343 11.171 22.3013C11.338 22.4684 11.5646 22.5622 11.8008 22.5622H16.6992C16.9354 22.5622 17.162 22.4684 17.329 22.3013C17.496 22.1343 17.5898 21.9078 17.5898 21.6716V19.8672C18.7922 20.3285 19.5938 21.0187 19.5938 21.6689C19.5938 22.7911 17.3084 24.0469 14.25 24.0469ZM46.9805 24.917L49.281 25.837V32.5078H46.9805V24.917ZM42.082 21.2263H45.1992V32.5078H42.082V21.2263ZM38.0003 25.837L40.3008 24.917V32.5078H38.0003V25.837ZM36.219 32.2273V33.3984C36.219 33.6346 36.3129 33.8612 36.4799 34.0282C36.6469 34.1952 36.8735 34.2891 37.1097 34.2891H50.1716C50.4078 34.2891 50.6343 34.1952 50.8013 34.0282C50.9684 33.8612 51.0622 33.6346 51.0622 33.3984V32.2273C52.1212 32.6913 52.5469 33.1606 52.5469 33.3984C52.5469 34.2365 49.1625 35.7764 43.6406 35.7764C38.1188 35.7764 34.7344 34.2365 34.7344 33.3984C34.7344 33.1606 35.1601 32.6913 36.219 32.2273ZM12.4688 38.2969H16.0312V50.7656H12.4688V38.2969ZM8.01562 43.353L10.6875 42.2842V50.7656H8.01562V43.353ZM22.2656 51.6562V50.2642C23.6318 50.8333 24.0469 51.3971 24.0469 51.6562C24.0469 52.5629 20.5886 54.3281 14.25 54.3281C7.91142 54.3281 4.45312 52.5629 4.45312 51.6562C4.45312 51.3971 4.86816 50.8333 6.23438 50.2642V51.6562C6.23438 51.8925 6.32821 52.119 6.49523 52.286C6.66226 52.453 6.88879 52.5469 7.125 52.5469H21.375C21.6112 52.5469 21.8377 52.453 22.0048 52.286C22.1718 52.119 22.2656 51.8925 22.2656 51.6562ZM20.4844 43.353V50.7656H17.8125V42.2842L20.4844 43.353Z" fill="white"/>
</svg>
