<svg width="63" height="63" viewBox="0 0 63 63" fill="none" xmlns="http://www.w3.org/2000/svg">
<path d="M58.5 31.5C56.8424 31.5 55.4069 32.4117 54.6262 33.75H47.25C46.6523 33.75 46.081 33.9873 45.6592 34.4092L41.8184 38.25H36V42.75H42.75C43.3476 42.75 43.9189 42.5127 44.3408 42.0908L48.1816 38.25H54.6262C55.4069 39.5883 56.8424 40.5 58.5 40.5C60.9807 40.5 63 38.4807 63 36C63 33.5193 60.9807 31.5 58.5 31.5Z" fill="white"/>
<path d="M58.5 54C56.8424 54 55.4069 54.9117 54.6262 56.25H48.1816L44.3408 52.4092C43.9189 51.9873 43.3476 51.75 42.75 51.75H36V56.25H41.8184L45.6592 60.0908C46.081 60.5127 46.6523 60.75 47.25 60.75H54.6262C55.4069 62.0883 56.8424 63 58.5 63C60.9807 63 63 60.9807 63 58.5C63 56.0193 60.9807 54 58.5 54Z" fill="white"/>
<path d="M58.5 42.75C56.8424 42.75 55.4069 43.6617 54.6262 45H36V49.5H54.6262C55.4069 50.8383 56.8424 51.75 58.5 51.75C60.9807 51.75 63 49.7307 63 47.25C63 44.7693 60.9807 42.75 58.5 42.75Z" fill="white"/>
<path d="M27 6.75006L14.6575 0.329796C13.9451 -0.109932 13.0549 -0.109932 12.3424 0.329796L0 6.75006L13.5 13.5001L27 6.75006Z" fill="white"/>
<path d="M1.00195 23.3603L12.375 29.2501V15.3001L0 9.19238V21.4883C0 22.2406 0.376007 22.943 1.00195 23.3603Z" fill="white"/>
<path d="M27 9.19238L14.625 15.3001V29.2501L25.998 23.3603C26.624 22.943 27 22.2406 27 21.4883V9.19238Z" fill="white"/>
<path d="M5.62499 49.5H1.125C0.503723 49.5 0 50.0036 0 50.625V63H6.74999V50.625C6.74999 50.0036 6.24627 49.5 5.62499 49.5Z" fill="white"/>
<path d="M14.625 42.75H10.125C9.50372 42.75 9 43.2536 9 43.875V63H15.75V43.875C15.75 43.2536 15.2463 42.75 14.625 42.75Z" fill="white"/>
<path d="M23.625 33.75H19.125C18.5037 33.75 18 34.2536 18 34.875V63H24.75V34.875C24.75 34.2536 24.2463 33.75 23.625 33.75Z" fill="white"/>
<path d="M32.625 27.0001H28.125C27.5037 27.0001 27 27.5037 27 28.1251V63.0001H33.75V28.1251C33.75 27.5037 33.2463 27.0001 32.625 27.0001Z" fill="white"/>
<path d="M48.375 29.25C52.9836 29.25 57.0945 27.0988 59.7771 23.7514L47.6279 15.0578C47.3335 14.8464 47.1577 14.5031 47.1577 14.1399V0.00939941C39.6617 0.632461 33.75 6.93119 33.75 14.5988C33.75 22.6779 40.3103 29.25 48.375 29.25Z" fill="white"/>
<path d="M63 14.5989C63 6.86877 56.9905 0.534606 49.4077 0.00012207V13.5609L61.0447 21.8861C62.2813 19.7369 63 17.2528 63 14.5989Z" fill="white"/>
</svg>
