<svg width="51" height="73" viewBox="0 0 51 73" fill="none" xmlns="http://www.w3.org/2000/svg">
<path d="M47.3571 21.8571H43.7142V18.2142C43.7142 13.3835 41.7952 8.75066 38.3794 5.33483C34.9636 1.91899 30.3307 0 25.5 0C20.6693 0 16.0364 1.91899 12.6206 5.33483C9.20476 8.75066 7.28577 13.3835 7.28577 18.2142V21.8571H3.64292C2.67678 21.8571 1.7502 22.2409 1.06704 22.924C0.383871 23.6072 7.15736e-05 24.5338 7.15736e-05 25.4999V53.7684C-0.00730222 55.8035 0.555219 57.7999 1.62395 59.5318C2.69267 61.2637 4.22492 62.6617 6.0472 63.5677L23.8607 72.4562C24.3671 72.7193 24.9294 72.8567 25.5 72.8567C26.0706 72.8567 26.6329 72.7193 27.1393 72.4562L44.9528 63.5677C46.7751 62.6617 48.3073 61.2637 49.3761 59.5318C50.4448 57.7999 51.0073 55.8035 50.9999 53.7684V25.4999C50.9999 24.5338 50.6161 23.6072 49.933 22.924C49.2498 22.2409 48.3232 21.8571 47.3571 21.8571ZM29.1428 47.357C29.1428 48.3232 28.759 49.2497 28.0759 49.9329C27.3927 50.6161 26.4661 50.9999 25.5 50.9999C24.5339 50.9999 23.6073 50.6161 22.9241 49.9329C22.241 49.2497 21.8572 48.3232 21.8572 47.357V40.0713C21.8572 39.1052 22.241 38.1786 22.9241 37.4954C23.6073 36.8123 24.5339 36.4285 25.5 36.4285C26.4661 36.4285 27.3927 36.8123 28.0759 37.4954C28.759 38.1786 29.1428 39.1052 29.1428 40.0713V47.357ZM36.4285 21.8571H14.5715V18.2142C14.5715 15.3158 15.7229 12.5361 17.7724 10.4866C19.8219 8.43709 22.6016 7.28569 25.5 7.28569C28.3984 7.28569 31.1782 8.43709 33.2276 10.4866C35.2771 12.5361 36.4285 15.3158 36.4285 18.2142V21.8571Z" fill="white"/>
</svg>
