<svg width="63" height="68" viewBox="0 0 63 68" fill="none" xmlns="http://www.w3.org/2000/svg">
<path d="M61.25 35.75H8.75" stroke="#A783FF" stroke-width="2" stroke-miterlimit="10" stroke-linecap="round" stroke-linejoin="round"/>
<path d="M40.25 66.0498H22.25L25.25 48.0498H37.25L40.25 66.0498Z" stroke="#A783FF" stroke-width="2" stroke-miterlimit="10" stroke-linecap="round" stroke-linejoin="round"/>
<path d="M37.25 43.25H5.75C3.35 43.25 1.25 41.3 1.25 38.75V5.75C1.25 3.35 3.35 1.25 5.75 1.25H56.75C59.3 1.25 61.25 3.35 61.25 5.75V38.75C61.25 41.3 59.3 43.25 56.75 43.25H44.15" stroke="#A783FF" stroke-width="2" stroke-miterlimit="10" stroke-linecap="round" stroke-linejoin="round"/>
<path d="M10.25 66.0498H52.25" stroke="#A783FF" stroke-width="2" stroke-miterlimit="10" stroke-linecap="round" stroke-linejoin="round"/>
<path d="M38.75 16.25H23.75V28.25H38.75V16.25Z" stroke="#A783FF" stroke-width="2" stroke-miterlimit="10" stroke-linecap="round" stroke-linejoin="round"/>
<path d="M35.75 16.25H26.75V13.25C26.75 10.7 28.7 8.75 31.25 8.75C33.8 8.75 35.75 10.7 35.75 13.25V16.25Z" stroke="#A783FF" stroke-width="2" stroke-miterlimit="10" stroke-linecap="round" stroke-linejoin="round"/>
</svg>
