<svg width="200" height="60" viewBox="0 0 200 60" fill="none" xmlns="http://www.w3.org/2000/svg">
<g clip-path="url(#clip0_1_266)">
<path d="M75.0507 18.6808H70.4761V39.3721H75.0507V18.6808Z" fill="white"/>
<path d="M77.7599 24.3922H81.6905V26.5132H81.7793C82.7728 24.9442 84.5124 23.9994 86.3761 24.0166C90.8175 24.0166 91.9278 26.4801 91.9278 30.1919V39.4053H87.753V30.9321C87.753 28.4686 87.0201 27.2534 85.0992 27.2534C82.8786 27.2534 81.9015 28.5017 81.9015 31.5507V39.3942H77.7599V24.3922Z" fill="white"/>
<path d="M99.5226 24.3922H102.554V27.1098H99.5226V34.5224C99.5226 35.9144 99.8668 36.2568 101.266 36.2568C101.694 36.2622 102.122 36.2252 102.543 36.1464V39.3611C101.744 39.4702 100.939 39.5182 100.133 39.5047C97.6017 39.5047 95.381 38.9303 95.381 35.9475V27.1098H92.8827V24.3922H95.3921V19.8849H99.5337L99.5226 24.3922Z" fill="white"/>
<path d="M107.617 32.8875C107.739 35.4946 109.016 36.6877 111.314 36.6877C112.699 36.7603 113.989 35.9916 114.579 34.7434H118.221C117.398 37.8928 114.432 40.0077 111.17 39.7699C106.429 39.7699 103.475 36.522 103.475 31.8822C103.366 29.8928 104.056 27.9418 105.393 26.4584C106.73 24.975 108.604 24.0808 110.604 23.9724H111.17C116.3 23.9724 118.776 28.2587 118.476 32.8764L107.617 32.8875ZM114.346 30.2803C113.968 28.1924 113.069 27.0877 111.015 27.0877C110.148 27.0395 109.299 27.3363 108.653 27.9125C108.007 28.4887 107.618 29.297 107.573 30.1588V30.2803H114.346Z" fill="white"/>
<path d="M120.319 24.4474H124.25V27.2313H124.305C125.149 25.2886 127.075 24.0329 129.202 24.0386C129.507 24.041 129.811 24.0894 130.101 24.1823V28.0046C129.611 27.9071 129.113 27.859 128.613 27.861C125.582 27.861 124.539 30.0704 124.539 32.6665V39.4163H120.319V24.4474Z" fill="white"/>
<path d="M131.6 24.4695H135.531V26.5132H135.62C136.63 24.951 138.383 24.0225 140.25 24.0608C144.691 24.0608 145.802 26.5243 145.802 30.2361V39.4495H141.671V30.9321C141.671 28.4686 140.938 27.2534 139.017 27.2534C136.797 27.2534 135.82 28.5017 135.82 31.5397V39.3942H131.678L131.6 24.4695Z" fill="white"/>
<path d="M151.409 32.8875C151.52 35.4946 152.808 36.6877 155.106 36.6877C156.491 36.7633 157.783 35.9937 158.371 34.7434H162.013C161.19 37.8928 158.224 40.0077 154.962 39.7699C150.221 39.7699 147.278 36.522 147.278 31.8822C147.169 29.8928 147.859 27.9418 149.196 26.4584C150.533 24.975 152.407 24.0808 154.407 23.9724H154.962C160.092 23.9724 162.568 28.2587 162.279 32.8764L151.409 32.8875ZM158.137 30.2803C157.76 28.1924 156.849 27.0877 154.806 27.0877C153.94 27.0518 153.096 27.36 152.458 27.9444C151.821 28.5288 151.443 29.3414 151.409 30.203V30.2693L158.137 30.2803Z" fill="white"/>
<path d="M180.977 39.3721H176.725L174.049 29.3192H173.993L171.428 39.3721H167.142L162.368 24.3922H166.743L169.507 34.5666H169.563L172.061 24.3922H176.081L178.645 34.5335H178.712L181.477 24.3922H185.729L180.977 39.3721Z" fill="white"/>
<path d="M189.804 34.5003C189.804 36.301 191.348 37.0191 192.98 37.0191C194.179 37.0191 195.689 36.5551 195.689 35.1079C195.689 33.8596 193.968 33.4288 191.003 32.788C188.616 32.2688 186.229 31.4292 186.229 28.789C186.229 24.9666 189.56 23.9724 192.78 23.9724C196 23.9724 199.098 25.0771 199.442 28.7558H195.511C195.4 27.165 194.168 26.7231 192.691 26.7231C191.759 26.7231 190.393 26.8999 190.393 28.1151C190.393 29.5954 192.725 29.7942 195.09 30.3245C197.455 30.8548 199.864 31.7496 199.864 34.5335C199.864 38.4773 196.433 39.7478 192.991 39.7478C189.549 39.7478 186.085 38.4442 185.918 34.4672L189.804 34.5003Z" fill="white"/>
<path d="M12.2943 42.7194L15.4699 43.0067C15.4699 40.4769 15.5476 38.864 15.5476 38.864C10.8022 38.7721 6.06857 38.3587 1.37964 37.6267C3.02438 43.6863 6.54854 49.0753 11.4504 53.0265C8.88554 41.5264 9.58505 42.4101 12.2943 42.7194Z" fill="#FBB034"/>
<path d="M44.3609 3.46881C35.6908 -1.09846 25.3233 -1.15623 16.6024 3.31415C15.8354 5.58339 15.4271 7.95734 15.3921 10.3512C20.9071 9.57102 26.4793 9.26425 32.0472 9.43429C35.9112 9.43429 36.1666 9.56685 36.6773 10.8925V14.7369C40.0749 14.7369 43.3393 14.7369 46.1818 14.9026C46.1814 11.0199 45.5669 7.16145 44.3609 3.46881Z" fill="#6CB33F"/>
<path d="M20.3331 50.7397C17.9348 50.4193 18.0347 49.4361 18.0236 48.7512C18.0236 48.5413 18.0236 46.2656 17.9237 43.2276C14.948 42.9846 12.8606 42.7968 12.3165 42.7415C9.58505 42.4212 8.88553 41.5484 11.4504 53.0265C24.1905 63.3047 42.8673 61.4883 53.3658 48.9501C48.5913 50.1321 38.6649 51.6014 20.3331 50.7397Z" fill="#F15D22"/>
<path d="M44.3608 3.46881C46.5815 9.10287 46.204 18.9349 46.2595 19.5204C46.315 20.1059 45.8487 21.7298 49.424 21.6525C52.7724 21.6398 56.1157 21.9133 59.4171 22.47C57.3127 14.3088 51.8458 7.40947 44.3608 3.46881Z" fill="#626264"/>
<path d="M19.5115 23.7956C20.7106 23.7956 28.0167 23.663 36.7995 23.7183L36.6551 10.9588C36.1333 9.63313 35.889 9.53371 32.025 9.50056C23.4001 9.27377 14.7795 10.0936 6.35393 11.942C1.20219 18.7764 -0.765746 27.4767 0.946576 35.8481C5.05483 36.1685 11.5836 36.3894 17.7793 36.5109L17.5906 25.4637C17.5906 25.4637 17.2686 23.7956 19.5115 23.7956Z" fill="#002D62"/>
<path d="M59.8279 24.3038C53.0104 23.8398 44.3609 23.6741 36.7884 23.6189L36.9105 34.3125C36.9105 34.3125 37.2103 36.522 33.8793 36.522C32.1583 36.522 25.2075 36.522 17.7794 36.3894C17.8793 42.2334 17.9903 48.2762 17.9903 48.6297C17.9903 49.3146 17.9015 50.2868 20.2998 50.6182C38.6649 51.4909 48.6024 50.0106 53.3658 48.8506C57.8647 43.5203 60.3404 36.7879 60.3609 29.8274C60.3545 27.9738 60.1761 26.1247 59.8279 24.3038Z" fill="#005CAB"/>
<path d="M36.9105 34.3678L36.7884 23.6741C28.0056 23.6741 20.6995 23.6741 19.5004 23.7514C17.2797 23.7514 17.5795 25.4196 17.5795 25.4196L17.7682 36.4667C25.1964 36.6214 32.136 36.6435 33.8682 36.5993C37.2214 36.5441 36.9105 34.3678 36.9105 34.3678Z" fill="#B1BCE0"/>
</g>
<defs>
<clipPath id="clip0_1_266">
<rect width="200" height="60" fill="white"/>
</clipPath>
</defs>
</svg>
