<svg width="60" height="60" viewBox="0 0 60 60" fill="none" xmlns="http://www.w3.org/2000/svg">
<path d="M60 30C60 13.4584 46.5416 0 30 0C24.8139 0 19.7613 1.34323 15.2816 3.87097H11.6129V0H5.80645V12.2777C2.0129 17.4455 0 23.5616 0 30C0 46.5426 13.4584 60 30 60C33.6861 60 37.2842 59.3371 40.6955 58.0345C42.6426 59.2723 44.9458 60 47.4194 60C50.4368 60 53.3555 58.9152 55.6374 56.9458L54.3726 55.4806C52.4419 57.1471 49.9732 58.0645 47.4194 58.0645C41.55 58.0645 36.7742 53.2887 36.7742 47.4194C36.7742 41.55 41.55 36.7742 47.4194 36.7742C53.2887 36.7742 58.0645 41.55 58.0645 47.4194C58.0645 49.8726 57.2535 52.1787 55.7177 54.0881L57.2264 55.3016C59.0148 53.0768 60 50.2781 60 47.4194C60 44.9439 59.2713 42.6406 58.0326 40.6926C59.3342 37.2803 60 33.6861 60 30ZM15.4839 9.67742H17.4194V11.6129V23.2258H15.4839V9.67742ZM11.6129 5.80645H13.5484V7.74194V23.2258H11.6129V5.80645ZM7.74194 1.93548H9.67742V3.87097V23.2258H7.74194V1.93548ZM29.0323 58.0403C14.3265 57.5381 2.46194 45.6735 1.95968 30.9677H29.0323V58.0403ZM29.0323 29.0323H1.97419C2.13194 24.3213 3.44032 19.8194 5.80645 15.8061V25.1613H9.67742H11.6129H13.5484H15.4839H17.4194H19.3548H21.2903H23.2258H27.0968V15.4839H23.2258V11.6129H19.3548V7.74194H15.4839V5.99226C19.5784 3.51097 24.2313 2.13387 29.0323 1.96935V29.0323ZM19.3548 23.2258V13.5484H21.2903V15.4839V23.2258H19.3548ZM23.2258 23.2258V17.4194H25.1613V23.2258H23.2258ZM58.0403 29.0323H49.7555L56.8723 21.9155C57.5555 24.181 57.9561 26.5665 58.0403 29.0323ZM53.1639 14.1774L42.3552 24.9861L43.7235 26.3545L54.2235 15.8545C54.9745 17.1358 55.6258 18.481 56.1697 19.8813L47.0187 29.0323H41.0458L42.2971 27.781L40.9287 26.4126L38.309 29.0323H32.3361L50.5035 10.8648C51.4694 11.9003 52.3606 13.0055 53.1639 14.1774ZM30.9677 1.95968C33.4335 2.04387 35.819 2.44452 38.0845 3.12774L30.9677 10.2445V1.95968ZM30.9677 21.691L42.7287 9.93L41.3603 8.56161L30.9677 18.9542V12.9813L40.1187 3.83032C41.519 4.37323 42.8642 5.02452 44.1455 5.77645L42.5865 7.33548L43.9548 8.70387L45.8226 6.83613C46.9945 7.63935 48.0997 8.52968 49.1352 9.49645L30.9677 27.6639V21.691ZM47.4194 34.8387C40.4826 34.8387 34.8387 40.4826 34.8387 47.4194C34.8387 51.059 36.4016 54.3319 38.88 56.6313C36.33 57.4819 33.6774 57.9513 30.9677 58.0423V30.9677H58.0423C57.9513 33.6764 57.4781 36.3271 56.6284 38.8771C54.329 36.3997 51.0571 34.8387 47.4194 34.8387Z" fill="#A783FF"/>
</svg>
