<svg width="64" height="64" viewBox="0 0 64 64" fill="none" xmlns="http://www.w3.org/2000/svg">
<g clip-path="url(#clip0_154_1082)">
<path d="M24.5 11.2499H27.625V14.3299C29.1831 14.7486 30.6534 15.3842 32 16.2041C33.3466 15.3842 34.8169 14.7486 36.375 14.3299V11.2499H39.5C41.1705 11.2499 42.007 9.23031 40.8259 8.04906L33.3259 0.549065C32.5936 -0.183185 31.4065 -0.183185 30.6743 0.549065L23.1743 8.04906C21.9929 9.23031 22.8295 11.2499 24.5 11.2499Z" fill="white"/>
<path d="M24.4089 26.41C25.1703 23.4625 26.7104 20.825 28.7954 18.7302C27.1108 17.9437 25.2319 17.5036 23.2501 17.5036H15.1251V14.3786C15.1251 12.7081 13.1054 11.8716 11.9242 13.0529L4.42419 20.5529C3.69194 21.2851 3.69194 22.4722 4.42419 23.2045L11.9242 30.7045C13.1053 31.8856 15.1251 31.0491 15.1251 29.3787V26.2537H23.2501C23.6514 26.2537 24.0397 26.3089 24.4089 26.41Z" fill="white"/>
<path d="M32 49C40.2843 49 47 46.2018 47 42.75C47 39.2982 40.2843 36.5 32 36.5C23.7157 36.5 17 39.2982 17 42.75C17 46.2018 23.7157 49 32 49Z" fill="white"/>
<path d="M50.75 52.5873C57.5342 51.9882 62.625 49.4788 62.625 46.4735C62.625 43.3988 57.2961 40.8425 50.2766 40.3209C50.6472 41.2503 50.75 42.0974 50.75 42.7499V52.5873Z" fill="white"/>
<path d="M50.75 56.3472V57.7499C50.75 58.3961 50.6491 59.2331 50.2871 60.1518C57.3015 59.6282 62.625 57.0732 62.625 53.9999V52.7737C61.82 53.3309 60.8476 53.8656 59.6739 54.3546C57.1665 55.3992 54.0736 56.0826 50.75 56.3472Z" fill="white"/>
<path d="M13.25 56.3472C9.92625 56.0824 6.83338 55.3992 4.326 54.3544C3.15238 53.8654 2.18 53.3308 1.37488 52.7736V53.9999C1.37488 57.0732 6.69838 59.6283 13.7128 60.1518C13.3509 59.2329 13.25 58.3961 13.25 57.7499V56.3472Z" fill="white"/>
<path d="M1.375 46.4735C1.375 49.4788 6.46588 51.9882 13.25 52.5873V42.7499C13.25 42.0974 13.3526 41.2504 13.7234 40.3209C6.70388 40.8427 1.375 43.3988 1.375 46.4735Z" fill="white"/>
<path d="M32 60.2499C27.5098 60.2499 23.2306 59.4973 19.9511 58.1309C18.7775 57.6419 17.8051 57.1074 17 56.55V57.7499C17 61.2017 23.7157 63.9999 32 63.9999C40.2843 63.9999 47 61.2017 47 57.7499V56.55C46.195 57.1073 45.2226 57.6419 44.049 58.1309C40.7694 59.4973 36.4904 60.2499 32 60.2499Z" fill="white"/>
<path d="M32 52.7499C27.5098 52.7499 23.2306 51.9973 19.9511 50.6309C18.7775 50.1419 17.8051 49.6074 17 49.05V50.2499C17 53.7017 23.7157 56.4999 32 56.4999C40.2843 56.4999 47 53.7017 47 50.2499V49.05C46.195 49.6073 45.2226 50.1419 44.049 50.6309C40.7694 51.9973 36.4904 52.7499 32 52.7499Z" fill="white"/>
<path d="M52.0759 30.7046L59.5759 23.2046C60.3081 22.4723 60.3081 21.2852 59.5759 20.553L52.0759 13.053C50.8946 11.8716 48.875 12.7081 48.875 14.3786V17.5036H40.75C33.5012 17.5036 27.625 23.3798 27.625 30.6286V32.9957C29.0411 32.8347 30.5084 32.7498 32 32.7498C33.4916 32.7498 34.9589 32.8347 36.375 32.9957V30.6287C36.375 28.2125 38.3337 26.2537 40.75 26.2537H48.875V29.3787C48.875 31.0492 50.8946 31.8857 52.0759 30.7046Z" fill="white"/>
</g>
<defs>
<clipPath id="clip0_154_1082">
<rect width="64" height="64" fill="white"/>
</clipPath>
</defs>
</svg>
