<svg width="194" height="35" viewBox="0 0 194 35" fill="none" xmlns="http://www.w3.org/2000/svg">
<path d="M8.77895 0.271025C12.264 0.269318 15.7472 0.271025 19.2305 0.269318C19.2288 3.70003 19.2253 7.13074 19.2322 10.5615C18.4145 10.5615 17.5969 10.5597 16.7793 10.5615C16.7844 8.55011 16.7879 6.53877 16.7879 4.52743C12.3798 8.85549 7.93882 13.1494 3.52208 17.4689C3.52034 22.9348 3.52725 28.4025 3.51861 33.8702C2.64563 33.8684 1.77265 33.8684 0.901406 33.8684C0.896221 28.046 0.903135 22.2235 0.897949 16.401C2.89629 14.388 4.96378 12.4414 6.98632 10.4523C9.65712 7.86943 12.2709 5.22858 14.9763 2.68157C12.9105 2.68157 10.8447 2.68328 8.77895 2.68839C8.78241 1.88316 8.78241 1.07624 8.77895 0.271025ZM21.6748 7.05397C22.292 6.43983 22.9074 5.82227 23.5263 5.20982C27.4053 8.96296 31.2585 12.7417 35.1256 16.505C35.1256 22.3293 35.1221 28.1517 35.1274 33.9742C34.2509 33.9742 33.3745 33.9725 32.498 33.9742C32.505 28.5117 32.4964 23.0475 32.5032 17.5849C28.8938 14.074 25.2895 10.558 21.6748 7.05397Z" fill="#5712AA"/>
<path d="M11.3851 33.9862C11.3868 28.8001 11.392 23.614 11.3817 18.4278C15.795 18.4295 20.2082 18.4295 24.6233 18.4278C24.6146 23.614 24.6181 28.8001 24.6216 33.9862C23.7331 33.9862 22.8462 33.9846 21.9594 33.9862C21.9611 29.6702 21.9628 25.3524 21.9594 21.0345C19.3215 21.0362 16.6835 21.0362 14.0456 21.0345C14.0456 25.3524 14.0438 29.6684 14.0472 33.9862C13.1605 33.9862 12.2736 33.9862 11.3851 33.9862Z" fill="#5712AA"/>
<path d="M101.843 7.33293C102.55 7.22887 103.278 7.16916 103.988 7.28005C104.348 7.35512 104.274 7.80549 104.298 8.07504C104.291 14.9041 104.294 21.7347 104.296 28.5638C104.239 29.1763 104.453 29.8706 104.12 30.4249C103.459 30.5274 102.777 30.5205 102.116 30.4284C101.812 29.9405 102.012 29.3128 101.966 28.7703C100.721 30.1999 98.8023 31.017 96.8922 30.8669C93.727 30.802 90.9299 28.0775 90.7831 24.9625C90.7416 23.0329 90.7813 21.1001 90.7641 19.1707C90.733 17.364 91.5367 15.5728 92.9059 14.3769C94.7106 12.7579 97.4419 12.3041 99.7047 13.1776C100.49 13.4557 101.181 13.9249 101.838 14.4247C101.829 12.0619 101.821 9.69741 101.843 7.33293ZM96.46 15.1753C94.6414 15.5967 93.2291 17.3111 93.2326 19.1638C93.2273 20.9398 93.2273 22.7157 93.2326 24.4916C93.2463 26.1618 94.3994 27.7295 95.9812 28.3062C97.3174 28.8026 98.9078 28.6047 100.063 27.7654C101.238 26.9618 101.872 25.5322 101.833 24.1385C101.795 22.313 101.904 20.4809 101.774 18.6589C101.506 16.2415 98.8144 14.5219 96.46 15.1753ZM41.4451 9.31186C41.9292 9.12932 42.4616 9.20438 42.9698 9.18904C43.2827 9.21121 43.6474 9.14126 43.8964 9.3818C43.9604 9.62577 43.962 9.88166 43.969 10.1324C43.9569 16.1187 43.9655 22.1067 43.9637 28.0929C46.4565 28.0946 48.9493 28.0929 51.4403 28.0913C51.7186 28.1168 52.1352 28.0315 52.187 28.4119C52.2528 29.0313 52.2579 29.6641 52.1698 30.2817C52.0332 30.541 51.6822 30.4505 51.4454 30.4865C48.4462 30.4694 45.4453 30.4967 42.446 30.4727C41.7822 30.5069 41.2964 29.874 41.3707 29.2512C41.3672 22.8232 41.376 16.3933 41.3672 9.96355C41.3656 9.74348 41.3915 9.52512 41.4451 9.31186ZM185.659 9.81171C185.813 9.35281 186.422 9.53706 186.794 9.48417C187.196 9.549 187.894 9.31699 188.063 9.82536C188.144 10.9206 188.065 12.0244 188.091 13.123C189.98 13.1708 191.882 13.0275 193.762 13.1912C194.166 13.6997 193.925 14.4639 193.95 15.0746C193.965 15.479 193.481 15.4381 193.205 15.467C191.501 15.4773 189.797 15.4637 188.091 15.4688C188.09 18.5241 188.096 21.5795 188.088 24.6349C188.094 25.2507 188.038 25.8854 188.242 26.4791C188.513 27.3116 189.287 27.9479 190.16 28.0844C191.419 28.2669 192.704 28.0588 193.957 28.2856C193.962 28.9442 194.013 29.6078 193.931 30.2629C193.701 30.6126 193.189 30.4369 192.837 30.4881C191.253 30.408 189.562 30.7304 188.084 30.0122C186.555 29.3025 185.646 27.6426 185.634 26.0082C185.622 22.4802 185.631 18.9524 185.628 15.4226C184.811 15.4261 183.986 15.4755 183.18 15.3254C183.16 14.6464 183.164 13.9674 183.156 13.2885C183.951 13.0155 184.804 13.1435 185.628 13.1247C185.654 12.021 185.574 10.9121 185.659 9.81171ZM59.8779 12.9814C62.7181 12.1591 66.0268 13.4164 67.4945 15.9702C68.5662 17.6337 68.5213 19.6808 68.4434 21.5761C68.4417 22.2261 67.8142 22.6969 67.1815 22.6338C63.9212 22.6372 60.6627 22.6321 57.4024 22.6338C57.4077 23.5703 57.3402 24.5445 57.6894 25.4368C58.2478 26.9721 59.7897 28.1066 61.4458 28.168C62.8927 28.1987 64.3395 28.1662 65.7847 28.1731C66.0493 28.18 66.3259 28.1782 66.5696 28.3011C66.7477 29.0107 66.6595 29.7563 66.554 30.4727C64.796 30.483 63.0378 30.4932 61.2816 30.4711C58.1717 30.3738 55.4076 27.8285 55.0324 24.7918C54.8855 23.6677 54.9564 22.5331 54.9408 21.4038C54.9494 19.9128 54.8337 18.3569 55.4266 16.9478C56.1733 15.0337 57.8657 13.5085 59.8779 12.9814ZM58.0783 17.0212C57.4094 18.0055 57.3748 19.227 57.399 20.3717C60.2686 20.3751 63.1398 20.3734 66.0095 20.3734C66.0095 19.4129 66.0389 18.4064 65.5997 17.5227C65.0034 16.1818 63.6464 15.2129 62.1683 15.0729C60.578 14.8801 58.9133 15.6667 58.0783 17.0212ZM78.0998 13.0974C79.6107 12.572 81.3186 12.5771 82.8242 13.1179C84.4526 13.7133 85.7336 15.1462 86.1242 16.8164C86.3836 17.8111 86.3092 18.8432 86.3162 19.8582C86.3178 23.1063 86.3092 26.3546 86.3214 29.6027C86.2955 29.8671 86.368 30.1861 86.1485 30.3891C85.4362 30.4898 84.7137 30.4249 83.9963 30.4454C83.9047 30.1112 83.8372 29.7699 83.846 29.4235C83.8597 25.8957 83.8493 22.3677 83.8528 18.8414C83.8632 17.5926 83.3878 16.2279 82.2486 15.5642C80.354 14.4554 77.5916 14.9586 76.3434 16.7942C75.5154 17.9219 75.4203 19.3668 75.4238 20.7129C75.4273 23.7342 75.4221 26.7555 75.4291 29.7768C75.4066 29.9916 75.4635 30.2629 75.2441 30.3978C74.5802 30.4762 73.9027 30.4694 73.237 30.408C72.9518 30.309 73.0193 29.9985 73.0019 29.7682C73.0072 24.4745 73.0054 19.1827 73.0037 13.8907C73.0054 13.6706 73.0262 13.4523 73.0676 13.2356C73.7885 13.0462 74.5612 13.0821 75.2924 13.1981C75.5725 13.8122 75.3668 14.5304 75.4187 15.1838C76.0842 14.2506 76.9935 13.4693 78.0998 13.0974ZM111.945 13.0582C114.435 12.3383 117.201 12.8722 119.354 14.2609C119.17 14.9467 118.883 15.6103 118.469 16.1903C118.082 16.204 117.759 15.96 117.422 15.8099C116.013 15.061 114.302 14.6959 112.741 15.1684C111.849 15.4192 111.097 16.1869 111.048 17.127C110.874 18.1795 111.46 19.2509 112.417 19.7234C114.309 20.6328 116.438 21.049 118.203 22.2141C119.282 22.946 120.001 24.1657 119.984 25.4726C120.049 26.8186 119.633 28.2345 118.615 29.1728C117.548 30.2152 116.037 30.6877 114.566 30.7696C112.742 30.8703 110.86 30.5717 109.249 29.6948C108.972 29.5294 108.657 29.3706 108.514 29.0687C108.723 28.3847 109.059 27.7227 109.57 27.2093C110.939 27.9479 112.423 28.6184 114.022 28.5689C115.029 28.5842 116.125 28.3556 116.855 27.6204C117.823 26.6463 117.781 24.7629 116.519 24.0396C114.435 22.8317 111.89 22.4735 109.995 20.9278C108.492 19.6927 108.281 17.5023 108.853 15.7605C109.306 14.3905 110.587 13.4574 111.945 13.0582ZM129.396 13.0377C131.44 12.4082 133.86 12.7614 135.478 14.1977C136.052 14.6873 136.451 15.3374 136.769 16.0113C137.258 14.9842 137.984 14.0272 139.018 13.4829C140.453 12.6812 142.211 12.6078 143.784 13.0104C145.38 13.4233 146.743 14.6089 147.354 16.1238C147.736 17.0331 147.812 18.031 147.816 19.0053C147.813 22.1903 147.812 25.3736 147.816 28.5586C147.719 29.166 148.06 29.9967 147.548 30.442C146.871 30.5188 146.182 30.5188 145.509 30.4301C145.298 30.2015 145.364 29.8722 145.345 29.5925C145.357 26.5183 145.345 23.4458 145.352 20.3717C145.349 19.1178 145.441 17.7633 144.755 16.6476C143.487 14.6362 140.253 14.539 138.633 16.1801C137.671 17.0945 137.294 18.4354 137.239 19.7183C137.182 23.2326 137.285 26.7537 137.19 30.2664C137.144 30.3107 137.052 30.3994 137.004 30.4454C136.375 30.5172 135.734 30.512 135.106 30.4505C134.757 30.4369 134.772 30.0258 134.763 29.7801C134.76 26.1294 134.764 22.4769 134.764 18.8243C134.765 17.6779 134.361 16.4513 133.395 15.7468C132.423 15.0303 131.116 14.887 129.953 15.1258C128.61 15.4073 127.514 16.4599 127.056 17.7206C126.639 18.7817 126.665 19.9367 126.681 21.0559C126.684 23.8996 126.675 26.7435 126.686 29.5874C126.646 29.874 126.77 30.2784 126.442 30.4369C125.768 30.5223 125.078 30.5137 124.404 30.4403C124.193 30.2782 124.226 30.0019 124.214 29.7699C124.219 24.8754 124.217 19.9793 124.215 15.0849C124.224 14.5219 124.176 13.9556 124.254 13.3977C124.383 13.0667 124.786 13.152 125.071 13.1162C125.576 13.1145 126.105 13.0684 126.589 13.2527C126.75 13.8549 126.669 14.4861 126.674 15.1037C127.336 14.1551 128.271 13.3823 129.396 13.0377ZM153.017 15.1873C155.115 12.6078 159.076 12.1028 162.017 13.4625C163.764 14.2609 164.957 16.0744 164.969 17.9783C164.975 21.849 164.962 25.7216 164.975 29.5925C164.951 29.8722 165.019 30.1999 164.814 30.4301C164.252 30.5172 163.673 30.5172 163.111 30.4489C162.891 30.4301 162.783 30.3142 162.79 30.0974C162.727 29.4151 162.777 28.7258 162.77 28.0417C161.733 29.4287 160.182 30.454 158.454 30.7577C156.697 31.0579 154.73 30.8498 153.311 29.6999C151.16 28.0588 151.03 24.495 153.012 22.6765C153.94 21.7774 155.204 21.3031 156.465 21.0917C157.959 20.8562 159.463 20.6941 160.957 20.4638C161.544 20.3717 162.189 20.1072 162.414 19.5153C162.848 18.3058 162.542 16.7977 161.482 15.9924C159.506 14.4536 156.174 14.776 154.735 16.8882C154.514 17.1577 154.23 17.6114 153.818 17.4374C153.341 17.2037 152.85 16.9324 152.503 16.5282C152.258 16.0215 152.743 15.5677 153.017 15.1873ZM157.232 23.0689C156.419 23.1797 155.589 23.3929 154.931 23.8945C153.667 24.843 153.674 26.9756 154.917 27.9394C155.657 28.5484 156.656 28.7498 157.601 28.69C159.562 28.6064 161.327 27.2809 162.168 25.5664C162.713 24.5735 162.716 23.4237 162.68 22.3268C160.864 22.574 159.046 22.8112 157.232 23.0689ZM174.266 15.7468C175.885 14.6243 177.37 12.8791 179.524 12.9422C179.907 12.9848 180.689 12.7835 180.688 13.3687C180.722 13.9743 180.739 14.5901 180.657 15.1924C179.943 15.5164 179.053 15.2196 178.332 15.5984C176.813 16.3268 175.608 17.5312 174.262 18.5139C174.265 21.7347 174.262 24.9557 174.262 28.1765C175.499 28.1987 176.738 28.1355 177.975 28.2038C178.295 28.214 178.301 28.6456 178.326 28.8828C178.301 29.3912 178.457 29.9934 178.123 30.4301C177.561 30.5239 176.987 30.4762 176.421 30.483C174.114 30.4762 171.806 30.4847 169.499 30.483C169.261 30.4608 168.938 30.5308 168.855 30.239C168.784 29.5994 168.757 28.9357 168.896 28.3027C169.828 28.0281 170.836 28.2431 171.799 28.1782C171.799 23.8996 171.799 19.6211 171.799 15.3408C170.884 15.3408 169.972 15.3441 169.057 15.3374C168.998 15.276 168.877 15.1531 168.816 15.0917C168.822 14.5288 168.773 13.9589 168.853 13.3994C168.979 13.0582 169.393 13.1554 169.681 13.1213C170.834 13.1315 171.989 13.0974 173.142 13.1384C173.674 13.1264 174.213 13.5341 174.248 14.075C174.289 14.6311 174.259 15.1907 174.266 15.7468Z" fill="white"/>
</svg>
