<svg width="109" height="109" viewBox="0 0 109 109" fill="none" xmlns="http://www.w3.org/2000/svg">
<path d="M97.0781 52.7969C93.3159 52.7969 90.2656 49.7466 90.2656 45.9844V11.9219C90.2656 8.15967 93.3159 5.10938 97.0781 5.10938C100.84 5.10938 103.891 8.15967 103.891 11.9219V45.9844C103.891 49.7466 100.84 52.7969 97.0781 52.7969Z" fill="#ADE8F4"/>
<path d="M97.0781 49.3906C95.1962 49.3906 93.6719 47.8663 93.6719 45.9844V11.9219C93.6719 10.0399 95.1962 8.51562 97.0781 8.51562C98.9601 8.51562 100.484 10.0399 100.484 11.9219V45.9844C100.484 47.8663 98.9601 49.3906 97.0781 49.3906Z" fill="#48CAE4"/>
<path d="M97.0781 47.6875C96.1363 47.6875 95.375 46.9245 95.375 45.9844V11.9219C95.375 10.9818 96.1363 10.2188 97.0781 10.2188C98.02 10.2188 98.7812 10.9818 98.7812 11.9219V45.9844C98.7812 46.9245 98.02 47.6875 97.0781 47.6875Z" fill="#0096C7"/>
<path d="M66.4355 17.9031C59.9482 18.4481 53.4304 17.2934 47.5257 14.553L39.1718 10.675C37.4432 9.67698 35.2018 10.3667 34.3588 12.2351C33.6265 13.8599 34.3912 15.781 35.9342 16.6717L50.1042 25.1942L26.6045 18.8977C24.9661 18.4583 23.1454 19.1719 22.4488 20.7183C21.5615 22.6906 22.6668 24.8944 24.6646 25.4309L47.1203 32.3592H22.3228C20.6265 32.3592 19.0528 33.519 18.7803 35.1932C18.4346 37.3272 20.0713 39.1717 22.1406 39.1717H48.6599L46.0065 45.3643C44.9045 47.9343 44.9045 50.8449 46.0065 53.4149L48.287 58.7372C48.9154 60.2036 50.3103 61.2851 51.9061 61.3106C54.752 61.3566 56.6834 58.4579 55.5678 55.8555L53.3708 50.7308C53.0029 49.8741 53.0029 48.9034 53.3708 48.0467L54.4676 45.4886C56.1111 41.6549 59.8784 39.17 64.0494 39.17C67.161 39.17 69.7395 41.5833 69.9456 44.6881C69.9814 45.2229 69.7634 45.7441 69.3563 46.0932L67.0758 48.0535C64.9435 49.8861 64.7323 53.1135 66.8204 54.9954C68.6172 56.6134 71.1991 56.5606 72.9005 55.0993L77.487 51.16C78.7065 50.1126 79.3622 48.5508 79.2549 46.9465C78.9773 42.738 82.3154 39.1717 86.5323 39.1717H97.0781V15.3279L66.4355 17.9031Z" fill="#E9F1F2"/>
<path d="M86.8236 16.1897C86.4609 23.009 80.4148 28.1951 73.5444 27.3861L66.7199 26.5839C60.9072 25.8992 55.2971 24.0241 50.2405 21.076L45.39 18.2471C42.7076 16.6819 40.9721 14.0915 40.3709 11.2336L39.1719 10.675C37.4415 9.67698 35.2019 10.3667 34.3589 12.2351C33.6265 13.8599 34.3912 15.781 35.9343 16.6717L50.1043 25.1941L48.7724 25.2452C43.5336 25.4445 38.2931 24.9012 33.2075 23.629C30.1079 22.8541 27.342 21.1543 25.2352 18.7989C24.0498 18.9249 22.9547 19.5994 22.4506 20.7183C21.5633 22.6906 22.6686 24.8944 24.6664 25.4309L47.1204 32.3592C44.1723 34.5699 40.5872 35.7654 36.9016 35.7654H28.2821C25.4004 35.7654 22.6635 34.684 20.5772 32.7935C19.6558 33.2755 18.9541 34.1287 18.7821 35.1932C18.4346 37.3272 20.0713 39.1717 22.1406 39.1717H48.66L46.0065 45.3643C44.9046 47.9343 44.9046 50.8449 46.0065 53.4149L48.287 58.7372C48.9155 60.2036 50.3103 61.2851 51.9062 61.3106C54.7521 61.3549 56.6834 58.4579 55.5679 55.8555L53.3708 50.7308C53.003 49.8741 53.003 48.9034 53.3708 48.0467L54.4677 45.4886C56.1112 41.6549 59.8785 39.17 64.0494 39.17C67.161 39.17 69.7396 41.5833 69.9457 44.6881C69.9814 45.2229 69.7634 45.7441 69.3564 46.0932L67.0759 48.0535C64.9436 49.8861 64.7324 53.1135 66.8204 54.9954C68.6172 56.6134 71.1992 56.5606 72.9006 55.0993L77.4871 51.16C78.7065 50.1126 79.3622 48.5508 79.2549 46.9465C78.9773 42.738 82.3154 39.1717 86.5324 39.1717H97.0781V15.3279L86.8236 16.1897Z" fill="#D0D8DA"/>
<path d="M61.3125 83.4531C71.6592 83.4531 80.0469 75.0655 80.0469 64.7188C80.0469 54.372 71.6592 45.9844 61.3125 45.9844C50.9658 45.9844 42.5781 54.372 42.5781 64.7188C42.5781 75.0655 50.9658 83.4531 61.3125 83.4531Z" fill="#FCF2AD"/>
<path d="M42.5781 64.7187C42.5781 75.0652 50.966 83.4531 61.3125 83.4531C67.5357 83.4531 73.0351 80.4062 76.4414 75.7362C62.8232 75.181 51.9453 63.9966 51.9453 50.2421C51.9453 49.6392 51.9947 49.0483 52.0356 48.4556C46.3914 51.683 42.5781 57.7512 42.5781 64.7187Z" fill="#F9DBAF"/>
<path d="M61.3125 80.0469C69.778 80.0469 76.6406 73.1842 76.6406 64.7188C76.6406 56.2533 69.778 49.3906 61.3125 49.3906C52.847 49.3906 45.9844 56.2533 45.9844 64.7188C45.9844 73.1842 52.847 80.0469 61.3125 80.0469Z" fill="#EDB88E"/>
<path d="M52.0577 52.521C48.3739 55.3209 45.9844 59.7354 45.9844 64.7188C45.9844 73.185 52.8463 80.0469 61.3125 80.0469C65.7049 80.0469 69.6544 78.1888 72.4492 75.2305C61.4896 73.0317 53.0626 63.8638 52.0577 52.521Z" fill="#DA9367"/>
<path d="M61.3125 52.7969L69.8281 64.7188L61.3125 76.6406L52.7969 64.7188L61.3125 52.7969Z" fill="#F9DBAF"/>
<path d="M61.3125 66.4219L69.8281 64.7188L61.3125 52.7969L52.7969 64.7188L61.3125 66.4219Z" fill="#FCF2AD"/>
<path d="M64.4871 72.1957C60.3656 69.7568 56.9934 66.1989 54.7861 61.9326L52.7969 64.7189L61.3125 76.6408L64.4871 72.1957Z" fill="#EDB88E"/>
<path d="M57.1007 65.5788C56.2338 64.4309 55.452 63.2182 54.7878 61.9307L52.7969 64.7187L57.1007 65.5788Z" fill="#F9DBAF"/>
<path d="M64.0511 39.1719C67.1628 39.1719 69.7413 41.5852 69.9474 44.69C69.9831 45.2248 69.7651 45.7459 69.3581 46.0951L67.0776 48.0554C64.9453 49.8879 64.7341 53.1154 66.8221 54.9973C68.6189 56.6153 71.2009 56.5625 72.9023 55.1012L77.4888 51.1619C78.7082 50.1145 79.3639 48.5527 79.2566 46.9483C78.9773 42.7382 82.3155 39.1719 86.5324 39.1719H64.0511Z" fill="#D0D8DA"/>
<path d="M67.9206 98.5941L48.1984 103.584C45.7119 104.197 43.0891 103.874 40.8409 102.665L20.0117 91.441C15.4473 88.9715 10.2698 87.8645 5.10938 88.2562V66.0985L7.97062 65.6387C9.74188 65.3491 11.5131 65.2129 13.2844 65.2129C18.7173 65.2129 24.0992 66.5584 28.9361 69.1641C30.6222 70.0668 32.2402 71.1398 33.7389 72.332L44.8433 81.103C47.1255 82.9084 47.4491 86.2635 45.5075 88.4776C45.4564 88.5457 45.3883 88.5798 45.3372 88.6479L49.7142 91.5091C50.5147 92.0371 51.4855 92.2074 52.4222 91.969L65.6895 88.6138C68.5167 87.8985 71.378 89.6868 71.957 92.5821C72.485 95.3071 70.5945 97.9129 67.9206 98.5941Z" fill="#F9DBAF"/>
<path d="M31.8859 87.285L38.2352 92.3058C40.3641 93.9885 43.5302 93.9885 45.3917 92.0146C46.0798 91.2839 46.4783 90.4136 46.6571 89.5127L45.3321 88.6424C43.4808 90.5482 40.3845 90.5993 38.2761 88.9336L29.212 81.7686C29.2137 83.9179 30.1981 85.9497 31.8859 87.285Z" fill="#EDB88E"/>
<path d="M55.8455 101.643L48.1984 103.584C45.7119 104.197 43.0891 103.874 40.8409 102.664L20.0117 91.4408C15.4473 88.9713 10.2698 87.8643 5.10938 88.256V80.4897C5.84172 80.6601 6.60813 80.7793 7.39156 80.8133H7.40859C12.8756 81.0518 18.1553 82.9423 22.5323 86.2293L35.3058 95.7838C41.2156 100.195 48.522 102.273 55.8455 101.643Z" fill="#EDB88E"/>
<path d="M69.9474 44.69C69.9831 45.2248 69.7651 45.7459 69.3581 46.0951L67.0776 48.0554C66.6126 48.4556 66.255 48.9291 65.9774 49.4349C68.9459 50.484 72.359 49.6359 74.4266 47.0505C75.7465 45.4019 75.8453 43.0891 74.6752 41.3314C73.7743 39.9826 72.2602 39.1719 70.6388 39.1719H64.0494C67.1628 39.1719 69.7413 41.5852 69.9474 44.69Z" fill="#E9F1F2"/>
<path d="M97.0781 34.0625H90.2656C89.5316 34.0625 88.881 33.5941 88.6511 32.8976L87.3345 28.9531H78.3438C77.4019 28.9531 76.6406 28.1901 76.6406 27.25C76.6406 26.3099 77.4019 25.5469 78.3438 25.5469H88.5625C89.2965 25.5469 89.9454 26.0152 90.1771 26.7118L91.4936 30.6562H97.0781V34.0625Z" fill="#F9DBAF"/>
<path d="M71.5312 28.9531H61.3124C60.8594 28.9531 60.4268 28.7742 60.1083 28.454L56.7021 25.0478C56.0362 24.3819 56.0362 23.3055 56.7021 22.6396C57.368 21.9737 58.4444 21.9737 59.1103 22.6396L62.0175 25.5468H71.5312C72.473 25.5468 73.2343 26.3098 73.2343 27.2499C73.2343 28.1901 72.473 28.9531 71.5312 28.9531Z" fill="#F9DBAF"/>
<path d="M74.9375 30.6562C76.8187 30.6562 78.3438 29.1312 78.3438 27.25C78.3438 25.3688 76.8187 23.8438 74.9375 23.8438C73.0563 23.8438 71.5312 25.3688 71.5312 27.25C71.5312 29.1312 73.0563 30.6562 74.9375 30.6562Z" fill="#F9DBAF"/>
<path d="M73.5443 27.386L71.5415 27.151C71.5398 27.1851 71.5312 27.2157 71.5312 27.2498C71.5312 29.1317 73.0555 30.656 74.9375 30.656C76.8195 30.656 78.3438 29.1317 78.3438 27.2498C78.3438 27.1561 78.3233 27.0676 78.3165 26.9756C76.8195 27.4201 75.2066 27.5819 73.5443 27.386Z" fill="#EDB88E"/>
<path d="M90.177 26.7118C89.9454 26.0152 89.2965 25.5469 88.5624 25.5469H81.3974C79.9872 26.4632 78.3777 27.0814 76.6559 27.3318C76.7019 28.2327 77.4308 28.9531 78.3437 28.9531H87.3345L88.6493 32.8976C88.8809 33.5941 89.5315 34.0625 90.2656 34.0625H97.0781V30.6562H91.4935L90.177 26.7118Z" fill="#EDB88E"/>
<path d="M60.1083 28.454C60.4268 28.7742 60.8594 28.953 61.3125 28.953H71.5312C72.4373 28.953 73.1611 28.2394 73.2139 27.347L66.7199 26.5823C63.1161 26.1582 59.5906 25.2743 56.2269 23.9629C56.2559 24.3563 56.4006 24.7446 56.7021 25.0461L60.1083 28.454Z" fill="#EDB88E"/>
<path d="M74.9375 32.3594C72.1205 32.3594 69.8281 30.067 69.8281 27.25C69.8281 24.433 72.1205 22.1406 74.9375 22.1406C77.7545 22.1406 80.0469 24.433 80.0469 27.25C80.0469 30.067 77.7545 32.3594 74.9375 32.3594ZM74.9375 25.5469C73.9974 25.5469 73.2344 26.3116 73.2344 27.25C73.2344 28.1884 73.9974 28.9531 74.9375 28.9531C75.8776 28.9531 76.6406 28.1884 76.6406 27.25C76.6406 26.3116 75.8776 25.5469 74.9375 25.5469Z" fill="#FCF2AD"/>
<path d="M74.9375 28.9532C74.0348 28.9532 73.311 28.2413 73.2548 27.3522L69.8571 26.952C69.852 27.0525 69.8281 27.1479 69.8281 27.2501C69.8281 30.067 72.1205 32.3594 74.9375 32.3594C77.7545 32.3594 80.0469 30.067 80.0469 27.2501C80.0469 26.9401 80.0077 26.6403 79.9549 26.3457C78.9126 26.8328 77.7936 27.1683 76.6219 27.3352C76.5759 28.2328 75.847 28.9532 74.9375 28.9532Z" fill="#F9DBAF"/>
</svg>
