<svg width="30" height="30" viewBox="0 0 30 30" fill="none" xmlns="http://www.w3.org/2000/svg">
<path fill-rule="evenodd" clip-rule="evenodd" d="M0 15C0 6.71572 6.71572 0 15 0C23.2843 0 30 6.71572 30 15C30 23.2843 23.2843 30 15 30C6.71572 30 0 23.2843 0 15ZM1.36365 15C1.36365 22.5312 7.46883 28.6364 15 28.6364C22.5312 28.6364 28.6363 22.5312 28.6363 15C28.6363 7.46884 22.5312 1.36366 15 1.36366C7.46883 1.36366 1.36365 7.46884 1.36365 15ZM10.9091 12.2728C11.6622 12.2728 12.2728 11.6622 12.2728 10.9091C12.2728 10.156 11.6622 9.54545 10.9091 9.54545C10.156 9.54545 9.54545 10.156 9.54545 10.9091C9.54545 11.6622 10.156 12.2728 10.9091 12.2728ZM12.2727 12.9546H9.54545V20.4546H12.2727V12.9546ZM16.3637 14.1682C16.3637 14.1682 16.6091 12.9546 18.6546 12.9546C20.2091 12.9546 21.1363 14.2296 21.1363 16.3637V20.4546H18.4091V16.3637C18.4091 15.6068 18.2045 15 17.5228 15C16.3637 15 16.3637 16.3637 16.3637 16.3637V20.4546H13.6364V12.9546H16.3637V14.1682Z" fill="#546179"/>
</svg>
