<svg width="173" height="77" viewBox="0 0 173 77" fill="none" xmlns="http://www.w3.org/2000/svg">
<mask id="mask0_1_370" style="mask-type:luminance" maskUnits="userSpaceOnUse" x="0" y="0" width="173" height="77">
<path d="M173 0H0V76.2168H173V0Z" fill="white"/>
</mask>
<g mask="url(#mask0_1_370)">
<path d="M-0.345566 56.4483C-0.0200912 56.159 -0.0200912 55.743 -0.0200912 55.3814C-0.00200939 54.4955 0.431955 54.3508 1.22755 54.3508C7.42964 54.387 13.6317 54.3688 19.8158 54.3688C38.4763 54.405 57.1187 54.4412 75.7792 54.4593C84.6574 54.4773 93.5355 54.4773 102.396 54.4955C103.39 54.4955 103.282 54.4593 102.992 55.4357C102.595 56.7014 101.871 56.9907 100.551 56.9907C67.2807 56.9545 34.01 56.9727 0.739347 56.9727C0.37771 56.9727 0.0160725 56.9907 -0.345566 57.0088C-0.345566 56.8099 -0.345566 56.6291 -0.345566 56.4483Z" fill="#02577A"/>
<path d="M106.934 57.0093C106.934 57.0635 106.934 57.1177 106.934 57.172C105.542 57.172 104.168 57.172 102.775 57.172C102.775 57.1177 102.775 57.0635 102.775 56.9912C104.168 56.5572 105.542 56.503 106.934 57.0093Z" fill="#FBD9C5"/>
<path d="M140.096 41.3124C140.694 39.4139 141.272 37.5694 141.85 35.7251C141.995 35.2731 142.158 34.821 142.303 34.3689C142.755 32.9947 142.755 32.9947 144.146 32.9947C145.973 32.9947 147.818 32.9767 149.644 33.0129C150.349 33.0309 150.422 32.7778 150.114 32.2172C149.264 30.7345 147.8 30.2463 146.262 30.0655C143.966 29.7942 141.652 29.6677 139.356 29.505C135.974 29.2699 132.575 29.0529 129.193 28.7998C128.976 28.7816 128.543 28.9625 128.633 28.5104C128.687 28.185 128.65 27.6787 129.248 27.6787C129.428 27.6787 129.61 27.6787 129.79 27.6787C136.227 27.6787 142.664 27.6787 149.102 27.6787C152.627 27.6787 154.941 30.0113 154.96 33.5372C154.96 35.0019 154.996 36.4665 154.978 37.9312C154.96 38.4735 155.123 38.6182 155.665 38.6906C159.553 39.1607 163.386 39.884 167.183 40.7338C169.01 41.1497 170.221 42.1985 171.053 43.8077C172.174 45.9956 172.427 48.3644 172.608 50.7512C172.735 52.4508 172.572 54.1506 172.499 55.8502C172.481 56.3203 172.301 56.447 171.848 56.447C171.343 56.447 171.343 56.1938 171.343 55.8322C171.252 53.4634 171.035 51.1309 170.384 48.8345C169.516 45.7787 167.581 43.8619 164.525 42.9578C161.704 42.1081 158.812 41.873 155.901 41.7102C150.856 41.4209 145.81 41.3124 140.765 41.3486C140.53 41.3667 140.368 41.3306 140.096 41.3124Z" fill="#02577A"/>
<path d="M106.934 57.0085C105.542 57.0085 104.168 57.0085 102.775 56.9904C103.571 54.8025 104.692 52.7592 105.668 50.6436C105.94 50.047 105.958 49.5768 105.705 48.9802C103.842 44.55 102.016 40.0839 100.19 35.6357C100.081 35.3645 99.9907 35.0932 99.846 34.7135C101.184 34.7135 102.45 34.7316 103.698 34.7135C104.222 34.6955 104.24 35.1113 104.367 35.4187C105.578 38.3118 106.79 41.205 107.983 44.1161C108.073 44.315 108.164 44.532 108.308 44.8575C109.375 42.5249 110.406 40.3008 111.419 38.0767C111.852 37.1184 112.286 36.1782 112.72 35.2198C112.847 34.9486 112.955 34.7135 113.353 34.7135C114.601 34.7497 115.867 34.7316 117.241 34.7316C116.192 36.9919 115.198 39.1616 114.203 41.3315C111.852 46.4305 109.502 51.5477 107.133 56.6469C107.097 56.7554 107.007 56.8819 106.934 57.0085Z" fill="#F26B1C"/>
<path d="M107.459 56.972C107.802 56.2125 108.11 55.5255 108.417 54.8564C108.562 54.5309 108.833 54.5671 109.104 54.5671C116.988 54.5851 124.872 54.6213 132.737 54.6394C135.558 54.6394 138.396 54.6213 141.218 54.6575C141.741 54.6575 141.941 54.3501 142.212 54.0428C144.997 50.6434 149.355 49.3234 153.187 50.7518C155.538 51.6198 157.076 53.9885 156.93 56.4476C156.912 56.8816 156.75 56.9901 156.352 57.0081C155.105 57.0624 155.069 57.0804 154.834 55.8509C154.562 54.4767 153.712 53.7172 152.374 53.446C149.355 52.8131 146.841 53.8619 144.779 55.9775C143.984 56.7912 143.207 57.0262 142.121 57.0262C130.93 56.9901 119.736 57.0081 108.544 57.0081C108.218 56.972 107.911 56.972 107.459 56.972Z" fill="#02577A"/>
<path d="M11.8419 40.0126C11.8419 36.5952 11.86 33.1958 11.8238 29.7783C11.8238 29.0912 12.0046 28.8923 12.6737 28.9465C13.5416 29.0007 14.4276 29.0007 15.2955 28.9465C15.9645 28.8923 16.1454 29.0912 16.1454 29.7783C16.1092 35.1667 16.1454 40.5551 16.1092 45.9435C16.1092 46.7934 16.2719 47.1008 17.176 47.0466C18.6226 46.9742 20.0692 47.0466 21.4976 47.0104C22.0581 46.9923 22.3113 47.1008 22.2751 47.7336C22.221 48.6558 22.239 49.5961 22.2751 50.5182C22.2932 50.9523 22.1305 51.0788 21.7147 51.0788C18.6226 51.0607 15.5125 51.0607 12.4206 51.0788C11.7876 51.0788 11.8419 50.7533 11.8419 50.3375C11.8419 46.9019 11.8419 43.4663 11.8419 40.0126Z" fill="#02577A"/>
<path d="M121.346 44.5502C121.797 41.7113 122.231 38.8725 122.702 36.0518C123.569 30.7356 124.473 25.4377 125.342 20.1216C125.594 18.6207 126.156 18.0964 127.692 18.1506C131.561 18.2772 135.449 18.3677 139.318 18.5484C143.93 18.7654 148.306 22.2552 149.499 26.5948C148.54 26.5948 147.6 26.5948 146.642 26.5948C146.226 26.5948 146.117 26.2332 145.937 25.9801C144.617 24.0273 142.99 22.4361 140.656 21.6947C139.427 21.3149 138.162 21.4054 136.896 21.2788C134.617 21.0619 132.339 20.9714 130.061 20.7906C129.103 20.7183 128.668 21.2607 128.434 22.0201C127.747 24.208 127.078 26.4141 126.409 28.62C124.763 34.1169 122.72 40.9519 121.075 46.4488C121.075 45.6351 121.187 45.5447 121.346 44.5502Z" fill="#02577A"/>
<path d="M92.4868 44.5868C92.4868 42.7244 92.4688 40.88 92.5048 39.0176C92.523 38.4027 92.3783 38.1135 91.7274 38.222C91.1488 38.3124 91.0041 38.0231 91.0402 37.4987C91.0764 37.0285 91.0583 36.5404 91.0402 36.0703C91.0221 35.3108 90.8232 34.4429 92.1252 34.696C92.5591 34.7864 92.4688 34.3887 92.4688 34.1355C92.5048 33.0325 92.4326 31.9295 92.6133 30.8264C92.8484 29.3257 93.7344 28.3673 95.199 28.078C96.4648 27.8248 97.7125 27.9695 98.924 28.3854C99.0867 28.4396 99.3398 28.4578 99.3759 28.6385C99.5206 29.5788 99.4845 30.5372 99.4121 31.4955C99.3941 31.7305 99.1409 31.6401 98.9601 31.6221C98.6346 31.5859 98.3091 31.4955 97.9837 31.4955C96.9891 31.4774 96.6999 31.7667 96.6817 32.7613C96.6456 34.6779 96.6456 34.6959 98.5804 34.7141C99.1409 34.7141 99.3579 34.8588 99.2856 35.4193C99.2675 35.6001 99.2856 35.7809 99.2856 35.9618C99.2494 36.6669 99.5748 37.553 99.159 38.0593C98.7612 38.5655 97.8572 38.222 97.188 38.24C96.5372 38.24 96.6637 38.656 96.6637 39.0176C96.6637 42.7244 96.6275 46.4312 96.6817 50.156C96.6999 50.9878 96.4286 51.1686 95.6693 51.1144C94.8374 51.042 93.9875 51.0782 93.1378 51.1144C92.6315 51.1324 92.4688 50.9878 92.4688 50.4634C92.5048 48.4925 92.4868 46.5397 92.4868 44.5868Z" fill="#F26B1C"/>
<path d="M85.1097 42.8865C85.1097 40.4273 85.1459 37.9682 85.0916 35.5272C85.0735 34.822 85.2905 34.6592 85.9595 34.6953C86.7732 34.7497 87.5869 34.7497 88.4006 34.6953C89.0876 34.6411 89.3047 34.84 89.3047 35.5633C89.2685 39.8668 89.2866 44.1883 89.2866 48.4919C89.2866 49.1428 89.2505 49.8118 89.3047 50.4628C89.3408 50.9509 89.16 51.0776 88.6898 51.0595C87.7858 51.0233 86.8817 51.0053 85.9776 51.0595C85.3266 51.0956 85.1097 50.9329 85.1097 50.2277C85.1277 47.8048 85.1097 45.3456 85.1097 42.8865Z" fill="#02577A"/>
<path d="M87.2069 33.3029C85.7061 33.3029 84.5488 32.1276 84.5488 30.6087C84.5488 29.0898 85.7241 27.9325 87.243 27.9506C88.6896 27.9687 89.8469 29.144 89.8649 30.6087C89.883 32.1276 88.7257 33.3029 87.2069 33.3029Z" fill="#02577A"/>
<path d="M122.593 19.7596C115.107 19.9767 107.621 20.1394 100.135 20.3021C95.5966 20.4106 91.0581 20.483 86.5196 20.5914C78.3828 20.7902 70.2278 20.9893 62.0909 21.1881C57.4982 21.2965 52.8873 21.3689 48.2945 21.4956C40.0672 21.6944 31.8218 21.8933 23.5947 22.0922C20.1953 22.1826 18.0616 22.1465 14.6622 22.2188C13.6676 22.2399 11.8595 22.3093 10.2321 22.3093C9.87046 22.3093 5.80203 22.3093 5.80203 22.6709C13.3964 22.8517 26.0176 22.8336 33.5758 22.9421C39.4343 23.0143 45.2929 23.1048 51.1514 23.1772C60.2647 23.2856 69.3598 23.3761 78.4732 23.4845C81.2759 23.5206 84.0605 23.5568 86.8632 23.593C88.0747 23.593 89.268 23.593 90.4795 23.593C91.2028 23.593 91.926 23.593 92.6494 23.593C93.0833 23.593 93.5173 23.593 93.9512 23.593C93.8608 23.6473 91.2208 23.7557 90.4976 23.7738C89.2861 23.9185 85.8506 23.9365 85.3261 23.9546C76.3214 24.244 67.3166 24.5514 58.2937 24.8045C51.6215 24.9853 32.3825 24.8045 31.4783 25.8352C43.2315 25.8352 62.8079 25.8635 65.8158 25.8894C75.5077 25.9617 85.1996 26.0159 94.8734 26.0703C97.2241 26.0883 99.5747 26.1064 101.907 26.1245C108.435 26.1787 114.962 26.2148 121.49 26.2872C122.015 26.2872 122.195 26.1606 122.304 25.6182C122.611 23.9727 122.936 22.3273 123.353 20.718C123.587 19.9043 123.425 19.7416 122.593 19.7596Z" fill="#02577A"/>
<path d="M81.4753 29.0172C81.4753 28.5833 81.4029 28.3662 80.8966 28.3844C79.9021 28.4205 78.9076 28.4205 77.913 28.3844C77.4429 28.3662 77.2983 28.5109 77.2983 28.981C77.3344 30.3914 77.3164 31.8018 77.3164 33.2122C77.3164 34.2429 77.3164 35.2735 77.3164 36.4127C76.9186 36.1052 76.6835 35.8883 76.4123 35.6894C73.6277 33.5919 69.6497 33.845 67.1362 36.2319C65.1112 38.1486 64.3698 40.4992 64.442 43.2114C64.5325 46.629 65.9971 49.2508 69.071 50.7516C71.9641 52.1801 74.7307 51.6738 77.3164 49.4135C77.3164 49.7933 77.3525 49.9922 77.3164 50.1911C77.1717 50.9866 77.5334 51.1313 78.2566 51.0951C79.1245 51.041 80.0106 51.059 80.8785 51.0951C81.3306 51.1133 81.4933 50.9866 81.4933 50.4985C81.4571 43.32 81.4571 36.1596 81.4753 29.0172ZM76.557 45.9056C75.4359 47.4427 73.5011 48.0574 71.6567 47.4788C69.7762 46.8821 68.5466 45.0197 68.5647 42.7956C68.5828 40.6257 69.7762 38.8718 71.6206 38.2931C73.5192 37.6965 75.5262 38.3836 76.6474 39.9748C77.7865 41.6383 77.7503 44.2783 76.557 45.9056Z" fill="#02577A"/>
<path d="M61.0427 37.4257C61.0427 36.5398 61.4405 35.3644 60.88 34.8581C60.3918 34.4241 59.2346 34.7135 58.3666 34.7135C56.9562 34.6954 56.9562 34.7135 56.902 36.1419C56.902 36.1781 56.8297 36.2142 56.7755 36.2686C56.6488 36.16 56.5042 36.0515 56.3776 35.943C53.2494 33.4658 49.2172 33.7009 46.4506 36.5398C44.2447 38.7999 43.7564 41.5846 44.1904 44.5319C44.6967 47.9675 47.1378 50.6437 50.3021 51.3127C52.7431 51.837 54.9492 51.2584 56.9382 49.3598C56.9382 49.7938 56.9743 50.0107 56.9382 50.2097C56.8115 50.9329 57.1371 51.1138 57.8241 51.0776C58.6016 51.0233 59.3973 51.0233 60.1748 51.0776C60.8981 51.1318 61.1331 50.9691 61.1331 50.1735C61.0246 45.9243 61.0608 41.675 61.0427 37.4257ZM56.3414 45.6169C55.4373 47.1538 54.0089 47.7867 52.2368 47.6601C49.9043 47.4974 48.2227 45.4903 48.2227 42.8685C48.2227 40.572 49.398 38.8542 51.3689 38.2575C53.2494 37.697 55.3288 38.4022 56.3234 40.0657C57.4083 41.892 57.3901 43.8087 56.3414 45.6169Z" fill="#02577A"/>
<path d="M32.7259 34.2619C27.9705 34.2981 24.2094 38.0952 24.2094 42.887C24.2094 47.751 27.88 51.4578 32.7079 51.4578C37.6985 51.4578 41.4957 47.7149 41.4595 42.8146C41.4415 38.059 37.5176 34.2257 32.7259 34.2619ZM32.8344 47.6425C30.2849 47.6787 28.3863 45.7077 28.3682 43.0317C28.3501 40.1928 30.1945 38.1676 32.7802 38.1676C35.3839 38.1495 37.2464 40.1204 37.2464 42.8689C37.2646 45.5993 35.4021 47.6244 32.8344 47.6425Z" fill="#02577A"/>
</g>
</svg>
