<svg width="105" height="49" viewBox="0 0 105 49" fill="none" xmlns="http://www.w3.org/2000/svg">
<path d="M5.11359 34C4.50559 34 3.94559 33.848 3.43359 33.544C2.93759 33.24 2.53759 32.84 2.23359 32.344C1.92959 31.832 1.77759 31.272 1.77759 30.664V20.056C1.77759 19.448 1.92959 18.896 2.23359 18.4C2.53759 17.888 2.93759 17.48 3.43359 17.176C3.94559 16.872 4.50559 16.72 5.11359 16.72H19.0096V19.912H5.78559C5.52959 19.912 5.32159 19.984 5.16159 20.128C5.01759 20.272 4.94559 20.48 4.94559 20.752V29.968C4.94559 30.224 5.01759 30.432 5.16159 30.592C5.32159 30.736 5.52959 30.808 5.78559 30.808H19.0096V34H5.11359ZM87.5834 34V16.72H103.495V19.912H90.7754V23.752H100.999V26.968H90.7754V30.808H103.495V34H87.5834Z" fill="white"/>
<circle cx="52.5" cy="24.5" r="24" fill="#6F3AF1" fill-opacity="0.3" stroke="#6F3AF1"/>
<circle cx="52.5" cy="24.5" r="10.5" fill="#A783FF"/>
<circle cx="2.5" cy="2.5" r="2.5" transform="matrix(1 0 0 -1 70 14)" fill="white"/>
</svg>
