<svg width="60" height="60" viewBox="0 0 60 60" fill="none" xmlns="http://www.w3.org/2000/svg">
<path d="M3.01113 56.9278C4.64684 58.5629 7.46086 58.6517 9.12363 56.9888L26.2175 39.8949C27.3923 40.3443 28.6673 40.5913 30 40.5913C35.8488 40.5913 40.5914 35.8487 40.5914 29.9999C40.5914 28.3686 40.2223 26.8241 39.5637 25.4448L31.4684 33.5401H28.5398L26.4691 31.4682V28.5409L34.568 20.442C33.1852 19.7799 31.6359 19.4084 30 19.4084C24.1512 19.4084 19.4086 24.151 19.4086 29.9999C19.4086 31.3326 19.6555 32.6075 20.1049 33.7823L3.01113 50.8763C1.34004 52.5474 1.34004 55.2567 3.01113 56.9278Z" fill="white"/>
<path d="M60 33.75V26.25L55.9043 25.7379C55.6207 24.0082 55.1695 22.3359 54.5672 20.7375L57.8555 18.2473L54.1055 11.7527L50.3004 13.3582C49.2035 12.0223 47.9777 10.7965 46.6418 9.69961L48.2473 5.89453L41.7527 2.14453L39.2625 5.43281C37.6641 4.83047 35.9918 4.3793 34.2621 4.0957L33.75 0H26.25L25.7379 4.0957C24.0082 4.3793 22.3359 4.83047 20.7375 5.43281L18.2473 2.14453L11.7527 5.89453L13.3582 9.69961C12.0223 10.7965 10.7965 12.0223 9.69961 13.3582L5.89453 11.7527L2.14453 18.2473L5.43281 20.7375C4.83047 22.3359 4.3793 24.0082 4.0957 25.7379L0 26.25V33.75L4.0957 34.2621C4.3793 35.9918 4.83047 37.6641 5.43281 39.2625L2.14453 41.7527L3.98145 44.9341L11.9026 37.013C11.0562 34.8368 10.5908 32.4718 10.5908 30C10.5908 19.2977 19.2977 10.5908 30 10.5908C40.7023 10.5908 49.4092 19.2977 49.4092 30C49.4092 40.7023 40.7023 49.4092 30 49.4092C27.5282 49.4092 25.1634 48.9436 22.9874 48.097L15.066 56.0184L18.2473 57.8555L20.7375 54.5672C22.3359 55.1695 24.0082 55.6207 25.7379 55.9043L26.25 60H33.75L34.2621 55.9043C35.9918 55.6207 37.6641 55.1695 39.2625 54.5672L41.7527 57.8555L48.2473 54.1055L46.6418 50.3004C47.9777 49.2035 49.2035 47.9777 50.3004 46.6418L54.1055 48.2473L57.8555 41.7527L54.5672 39.2625C55.1695 37.6641 55.6207 35.9918 55.9043 34.2621L60 33.75Z" fill="white"/>
</svg>
