<svg width="64" height="64" viewBox="0 0 64 64" fill="none" xmlns="http://www.w3.org/2000/svg">
<path d="M20 8C20.5523 8 21 7.55228 21 7C21 6.44772 20.5523 6 20 6C19.4477 6 19 6.44772 19 7C19 7.55228 19.4477 8 20 8Z" fill="#A783FF"/>
<path d="M24 8C24.5523 8 25 7.55228 25 7C25 6.44772 24.5523 6 24 6C23.4477 6 23 6.44772 23 7C23 7.55228 23.4477 8 24 8Z" fill="#A783FF"/>
<path d="M19 57C19 57.2652 19.1054 57.5196 19.2929 57.7071C19.4804 57.8946 19.7348 58 20 58H48C48.2652 58 48.5196 57.8946 48.7071 57.7071C48.8946 57.5196 49 57.2652 49 57V34C49 33.7348 48.8946 33.4804 48.7071 33.2929C48.5196 33.1054 48.2652 33 48 33C47.7348 33 47.4804 33.1054 47.2929 33.2929C47.1054 33.4804 47 33.7348 47 34V56H20C19.7348 56 19.4804 56.1054 19.2929 56.2929C19.1054 56.4804 19 56.7348 19 57Z" fill="#A783FF"/>
<path d="M15 43.9999C15.1547 44.0016 15.3077 43.9673 15.447 43.8999L25.447 38.8999C25.6134 38.8169 25.7534 38.6892 25.8512 38.5311C25.9491 38.373 26.0009 38.1908 26.0009 38.0049C26.0009 37.8189 25.9491 37.6367 25.8512 37.4786C25.7534 37.3205 25.6134 37.1928 25.447 37.1099L15.447 32.1099C15.2949 32.0339 15.1259 31.9979 14.956 32.0054C14.7861 32.0128 14.6209 32.0635 14.4761 32.1526C14.3312 32.2417 14.2115 32.3663 14.1282 32.5145C14.0449 32.6628 14.0008 32.8298 14 32.9999V42.9999C14 43.2651 14.1054 43.5194 14.2929 43.707C14.4804 43.8945 14.7348 43.9999 15 43.9999ZM16 34.6179L22.764 37.9999L16 41.3819V34.6179Z" fill="#A783FF"/>
<path d="M56.646 17.237C56.5356 17.1427 56.4058 17.0739 56.2658 17.0353C56.1258 16.9968 55.9791 16.9895 55.836 17.014L53 17.486V7C52.9984 5.67441 52.4711 4.40356 51.5338 3.46622C50.5964 2.52888 49.3256 2.00159 48 2H20C18.6744 2.00159 17.4036 2.52888 16.4662 3.46622C15.5289 4.40356 15.0016 5.67441 15 7V19C15 19.2652 15.1054 19.5196 15.2929 19.7071C15.4804 19.8946 15.7348 20 16 20C16.2652 20 16.5196 19.8946 16.7071 19.7071C16.8946 19.5196 17 19.2652 17 19V7C17 6.20435 17.3161 5.44129 17.8787 4.87868C18.4413 4.31607 19.2044 4 20 4H48C48.7957 4 49.5587 4.31607 50.1213 4.87868C50.6839 5.44129 51 6.20435 51 7V17.82H50.982C50.9506 17.283 50.7749 16.7645 50.4734 16.319C50.172 15.8736 49.7558 15.5177 49.269 15.289C49.6882 14.7016 49.941 14.0119 50.0007 13.2928C50.0605 12.5736 49.925 11.8517 49.6085 11.2032C49.292 10.5546 48.8064 10.0036 48.2027 9.60814C47.5991 9.21272 46.8999 8.98761 46.1789 8.95658C45.4579 8.92554 44.742 9.08972 44.1066 9.4318C43.4712 9.77388 42.9399 10.2812 42.5689 10.9001C42.1978 11.519 42.0008 12.2266 41.9985 12.9483C41.9963 13.6699 42.1889 14.3787 42.556 15H40.816C40.9344 14.6797 40.9967 14.3414 41 14C41.0017 13.5569 40.9052 13.1188 40.7175 12.7174C40.5297 12.316 40.2554 11.9612 39.9142 11.6784C39.573 11.3957 39.1733 11.192 38.744 11.0821C38.3147 10.9722 37.8664 10.9588 37.4313 11.0428C36.9962 11.1268 36.5851 11.3062 36.2275 11.568C35.87 11.8298 35.5749 12.1676 35.3635 12.5571C35.1521 12.9465 35.0295 13.378 35.0047 13.8204C34.9799 14.2629 35.0534 14.7053 35.22 15.116C34.7538 15.2425 34.3252 15.4799 33.9706 15.808C33.6161 16.136 33.3462 16.545 33.184 17H29C28.8451 16.9999 28.6924 17.0358 28.5538 17.1048C28.4151 17.1738 28.2944 17.2741 28.2012 17.3977C28.1079 17.5213 28.0446 17.6649 28.0163 17.8171C27.988 17.9694 27.9954 18.1261 28.038 18.275L30.038 25.275C30.0978 25.484 30.224 25.6678 30.3976 25.7986C30.5712 25.9294 30.7826 26.0001 31 26H33V28H29V26C29 25.7348 28.8946 25.4804 28.7071 25.2929C28.5196 25.1054 28.2652 25 28 25C27.7348 25 27.4804 25.1054 27.2929 25.2929C27.1054 25.4804 27 25.7348 27 26V28H23V24H26C26.2652 24 26.5196 23.8946 26.7071 23.7071C26.8946 23.5196 27 23.2652 27 23C27 22.7348 26.8946 22.4804 26.7071 22.2929C26.5196 22.1054 26.2652 22 26 22H21V12H24C25.1523 11.9987 26.2688 11.6002 27.1614 10.8715C28.054 10.1428 28.6681 9.12867 28.9 8H48C48.2652 8 48.5196 7.89464 48.7071 7.70711C48.8946 7.51957 49 7.26522 49 7C49 6.73478 48.8946 6.48043 48.7071 6.29289C48.5196 6.10536 48.2652 6 48 6H28C27.7348 6 27.4804 6.10536 27.2929 6.29289C27.1054 6.48043 27 6.73478 27 7C27 7.79565 26.6839 8.55871 26.1213 9.12132C25.5587 9.68393 24.7956 10 24 10H20C19.7348 10 19.4804 10.1054 19.2929 10.2929C19.1054 10.4804 19 10.7348 19 11V22H4C3.73478 22 3.48043 22.1054 3.29289 22.2929C3.10536 22.4804 3 22.7348 3 23V29C3 29.2652 3.10536 29.5196 3.29289 29.7071C3.48043 29.8946 3.73478 30 4 30H33V46H5V33C5 32.7348 4.89464 32.4804 4.70711 32.2929C4.51957 32.1054 4.26522 32 4 32C3.73478 32 3.48043 32.1054 3.29289 32.2929C3.10536 32.4804 3 32.7348 3 33V53C3 53.2652 3.10536 53.5196 3.29289 53.7071C3.48043 53.8946 3.73478 54 4 54H15V57C15.0016 58.3256 15.5289 59.5964 16.4662 60.5338C17.4036 61.4711 18.6744 61.9984 20 62H48C49.3256 61.9984 50.5964 61.4711 51.5338 60.5338C52.4711 59.5964 52.9984 58.3256 53 57V32.333C53 32.0678 52.8946 31.8134 52.7071 31.6259C52.5196 31.4384 52.2652 31.333 52 31.333C51.7348 31.333 51.4804 31.4384 51.2929 31.6259C51.1054 31.8134 51 32.0678 51 32.333V57C51 57.7957 50.6839 58.5587 50.1213 59.1213C49.5587 59.6839 48.7957 60 48 60H20C19.2044 60 18.4413 59.6839 17.8787 59.1213C17.3161 58.5587 17 57.7957 17 57V54H34C34.2652 54 34.5196 53.8946 34.7071 53.7071C34.8946 53.5196 35 53.2652 35 53V30.816C35.3203 30.9344 35.6586 30.9967 36 31H48C48.7628 30.9968 49.4957 30.7031 50.0497 30.1786C50.6036 29.6542 50.937 28.9385 50.982 28.177L55.836 28.986C55.8901 28.9956 55.945 29.0003 56 29C56.2652 29 56.5196 28.8946 56.7071 28.7071C56.8946 28.5196 57 28.2652 57 28V18C57 17.8547 56.9683 17.7112 56.9071 17.5795C56.846 17.4477 56.7569 17.3308 56.646 17.237ZM5 28V24H9V28H5ZM11 24H15V28H11V24ZM17 24H21V28H17V24ZM44 13C44 12.6044 44.1173 12.2178 44.3371 11.8889C44.5568 11.56 44.8692 11.3036 45.2346 11.1522C45.6001 11.0009 46.0022 10.9613 46.3902 11.0384C46.7781 11.1156 47.1345 11.3061 47.4142 11.5858C47.6939 11.8655 47.8844 12.2219 47.9616 12.6098C48.0387 12.9978 47.9991 13.3999 47.8478 13.7654C47.6964 14.1308 47.44 14.4432 47.1111 14.6629C46.7822 14.8827 46.3956 15 46 15C45.4696 15 44.9609 14.7893 44.5858 14.4142C44.2107 14.0391 44 13.5304 44 13ZM38 13C38.1978 13 38.3911 13.0586 38.5556 13.1685C38.72 13.2784 38.8482 13.4346 38.9239 13.6173C38.9996 13.8 39.0194 14.0011 38.9808 14.1951C38.9422 14.3891 38.847 14.5673 38.7071 14.7071C38.5673 14.847 38.3891 14.9422 38.1951 14.9808C38.0011 15.0194 37.8 14.9996 37.6173 14.9239C37.4346 14.8482 37.2784 14.72 37.1685 14.5556C37.0586 14.3911 37 14.1978 37 14C37 13.7348 37.1054 13.4804 37.2929 13.2929C37.4804 13.1054 37.7348 13 38 13ZM31.754 24L30.326 19H33V24H31.754ZM5 48H9V52H5V48ZM11 48H15V52H11V48ZM17 48H21V52H17V48ZM33 52H29V51C29 50.7348 28.8946 50.4804 28.7071 50.2929C28.5196 50.1054 28.2652 50 28 50C27.7348 50 27.4804 50.1054 27.2929 50.2929C27.1054 50.4804 27 50.7348 27 51V52H23V48H33V52ZM49 28C49 28.2652 48.8946 28.5196 48.7071 28.7071C48.5196 28.8946 48.2652 29 48 29H45V28C45 27.7348 44.8946 27.4804 44.7071 27.2929C44.5196 27.1054 44.2652 27 44 27C43.7348 27 43.4804 27.1054 43.2929 27.2929C43.1054 27.4804 43 27.7348 43 28V29H40V28C40 27.7348 39.8946 27.4804 39.7071 27.2929C39.5196 27.1054 39.2652 27 39 27C38.7348 27 38.4804 27.1054 38.2929 27.2929C38.1054 27.4804 38 27.7348 38 28V29H36C35.7348 29 35.4804 28.8946 35.2929 28.7071C35.1054 28.5196 35 28.2652 35 28V18C35 17.7348 35.1054 17.4804 35.2929 17.2929C35.4804 17.1054 35.7348 17 36 17H48C48.2652 17 48.5196 17.1054 48.7071 17.2929C48.8946 17.4804 49 17.7348 49 18V28ZM55 26.819L51 26.153V19.847L55 19.181V26.819Z" fill="#A783FF"/>
<path d="M46 19H38C37.7348 19 37.4804 19.1054 37.2929 19.2929C37.1054 19.4804 37 19.7348 37 20V24C37 24.2652 37.1054 24.5196 37.2929 24.7071C37.4804 24.8946 37.7348 25 38 25H46C46.2652 25 46.5196 24.8946 46.7071 24.7071C46.8946 24.5196 47 24.2652 47 24V20C47 19.7348 46.8946 19.4804 46.7071 19.2929C46.5196 19.1054 46.2652 19 46 19ZM45 23H39V21H45V23Z" fill="#A783FF"/>
<path d="M40 42H42C42.7956 42 43.5587 41.6839 44.1213 41.1213C44.6839 40.5587 45 39.7956 45 39V37C45 36.2044 44.6839 35.4413 44.1213 34.8787C43.5587 34.3161 42.7956 34 42 34H40C39.2044 34 38.4413 34.3161 37.8787 34.8787C37.3161 35.4413 37 36.2044 37 37V39C37 39.7956 37.3161 40.5587 37.8787 41.1213C38.4413 41.6839 39.2044 42 40 42ZM39 37C39 36.7348 39.1054 36.4804 39.2929 36.2929C39.4804 36.1054 39.7348 36 40 36H42C42.2652 36 42.5196 36.1054 42.7071 36.2929C42.8946 36.4804 43 36.7348 43 37V39C43 39.2652 42.8946 39.5196 42.7071 39.7071C42.5196 39.8946 42.2652 40 42 40H40C39.7348 40 39.4804 39.8946 39.2929 39.7071C39.1054 39.5196 39 39.2652 39 39V37Z" fill="#A783FF"/>
<path d="M37 49C37 49.7956 37.3161 50.5587 37.8787 51.1213C38.4413 51.6839 39.2044 52 40 52H42C42.7956 52 43.5587 51.6839 44.1213 51.1213C44.6839 50.5587 45 49.7956 45 49V47C45 46.2044 44.6839 45.4413 44.1213 44.8787C43.5587 44.3161 42.7956 44 42 44H40C39.2044 44 38.4413 44.3161 37.8787 44.8787C37.3161 45.4413 37 46.2044 37 47V49ZM39 47C39 46.7348 39.1054 46.4804 39.2929 46.2929C39.4804 46.1054 39.7348 46 40 46H42C42.2652 46 42.5196 46.1054 42.7071 46.2929C42.8946 46.4804 43 46.7348 43 47V49C43 49.2652 42.8946 49.5196 42.7071 49.7071C42.5196 49.8946 42.2652 50 42 50H40C39.7348 50 39.4804 49.8946 39.2929 49.7071C39.1054 49.5196 39 49.2652 39 49V47Z" fill="#A783FF"/>
<path d="M24 16V19C24 19.2652 24.1054 19.5196 24.2929 19.7071C24.4804 19.8946 24.7348 20 25 20C25.2652 20 25.5196 19.8946 25.7071 19.7071C25.8946 19.5196 26 19.2652 26 19V16C26 15.7348 25.8946 15.4804 25.7071 15.2929C25.5196 15.1054 25.2652 15 25 15C24.7348 15 24.4804 15.1054 24.2929 15.2929C24.1054 15.4804 24 15.7348 24 16Z" fill="#A783FF"/>
<path d="M31 11V12H30C29.7348 12 29.4804 12.1054 29.2929 12.2929C29.1054 12.4804 29 12.7348 29 13C29 13.2652 29.1054 13.5196 29.2929 13.7071C29.4804 13.8946 29.7348 14 30 14H32C32.2652 14 32.5196 13.8946 32.7071 13.7071C32.8946 13.5196 33 13.2652 33 13V11C33 10.7348 32.8946 10.4804 32.7071 10.2929C32.5196 10.1054 32.2652 10 32 10C31.7348 10 31.4804 10.1054 31.2929 10.2929C31.1054 10.4804 31 10.7348 31 11Z" fill="#A783FF"/>
</svg>
