<svg width="184" height="32" viewBox="0 0 184 32" fill="none" xmlns="http://www.w3.org/2000/svg">
<g clip-path="url(#clip0_1_320)">
<mask id="mask0_1_320" style="mask-type:luminance" maskUnits="userSpaceOnUse" x="0" y="1" width="185" height="30">
<path d="M184.433 1.0621H0.32901V30.5719H184.433V1.0621Z" fill="white"/>
</mask>
<g mask="url(#mask0_1_320)">
<path d="M0.32901 30.2106V10.3367C5.50652 10.3367 9.60038 14.5524 9.60038 19.6111V30.2106H0.32901Z" fill="#EE332E"/>
<path d="M20.7986 30.2106V10.3367C15.6211 10.3367 11.5272 14.5524 11.5272 19.6111V30.2106H20.7986Z" fill="#EE332E"/>
<path d="M46.9265 30.2106V18.4066L41.1469 28.163H39.1L33.3205 18.7679V30.2106H29.1062V10.6979H32.8388L40.1837 22.7427L47.4081 10.6979H51.1409V30.2106H46.9265Z" fill="white"/>
<path d="M74.1385 26.5972V30.2106H58.9672V10.6979H73.7774V14.3114H63.5427V18.5271H72.5732V22.0201H63.5427V26.5972H74.1385Z" fill="white"/>
<path d="M94.1263 20.093H98.2202V28.0426C97.1365 28.8857 95.9325 29.488 94.4876 29.8493C93.0427 30.3311 91.7181 30.4515 90.2733 30.4515C88.2264 30.4515 86.4202 29.9697 84.8549 29.1266C83.2896 28.2835 81.9652 27.079 81.0019 25.5132C80.0387 23.9474 79.6774 22.261 79.6774 20.3338C79.6774 18.4067 80.159 16.6 81.0019 15.1546C81.9652 13.5888 83.1693 12.3843 84.8549 11.5411C86.5407 10.698 88.3468 10.2162 90.3937 10.2162C92.0794 10.2162 93.6447 10.4571 95.0896 11.0594C96.5345 11.6616 97.6182 12.5047 98.5815 13.5888L95.6916 16.2387C94.2467 14.7933 92.561 14.0706 90.6345 14.0706C89.4304 14.0706 88.2264 14.3115 87.2631 14.7933C86.2998 15.275 85.5775 15.9977 84.9754 16.9614C84.4938 17.9249 84.1325 19.009 84.1325 20.2134C84.1325 21.4179 84.3733 22.502 84.9754 23.4655C85.4569 24.4291 86.2998 25.1517 87.2631 25.6336C88.2264 26.1154 89.3101 26.4767 90.5141 26.4767C91.8386 26.4767 93.0427 26.2358 94.006 25.6336V20.093H94.1263Z" fill="white"/>
<path d="M118.569 25.9949H109.539L107.853 30.2106H103.157L111.826 10.6979H116.282L125.071 30.2106H120.375L118.569 25.9949ZM117.124 22.6223L113.994 15.1545L110.863 22.6223H117.124Z" fill="white"/>
<path d="M133.018 28.1629C131.573 26.7176 130.85 24.5495 130.85 21.7792V10.6979H132.897V21.7792C132.897 24.0677 133.379 25.7539 134.463 26.838C135.546 27.9221 136.992 28.5242 138.917 28.5242C140.844 28.5242 142.41 27.9221 143.372 26.838C144.457 25.7539 144.938 24.0677 144.938 21.7792V10.6979H146.985V21.8996C146.985 24.6699 146.263 26.838 144.818 28.2834C143.372 29.7287 141.447 30.4514 138.917 30.4514C136.51 30.331 134.463 29.6083 133.018 28.1629Z" fill="white"/>
<path d="M172.753 10.6979V30.2106H171.067L158.545 14.3114V30.2106H156.497V10.6979H158.183L170.705 26.4766V10.6979H172.753Z" fill="white"/>
<path d="M184.433 10.6979H182.385V30.2106H184.433V10.6979Z" fill="white"/>
<path d="M6.95151 4.67554C6.95151 2.62793 8.63721 1.0621 10.5637 1.0621C12.6107 1.0621 14.1759 2.74838 14.1759 4.67554C14.1759 6.72317 12.4902 8.28899 10.5637 8.28899C8.5168 8.40944 6.95151 6.72317 6.95151 4.67554Z" fill="#EE332E"/>
</g>
</g>
<defs>
<clipPath id="clip0_1_320">
<rect width="184" height="31.1111" fill="white"/>
</clipPath>
</defs>
</svg>
