<svg width="181" height="81" viewBox="0 0 181 81" fill="none" xmlns="http://www.w3.org/2000/svg">
<mask id="mask0_1_408" style="mask-type:luminance" maskUnits="userSpaceOnUse" x="0" y="0" width="181" height="80">
<path d="M180.162 0.628479H0.418579V79.816H180.162V0.628479Z" fill="white"/>
</mask>
<g mask="url(#mask0_1_408)">
<path fill-rule="evenodd" clip-rule="evenodd" d="M4.87826 26.2375L19.6838 48.6852H19.7237V26.2375H22.7461V53.8082H18.9381L4.21034 31.3159V53.8082H1.18576V26.2375H4.87826Z" fill="white"/>
<path fill-rule="evenodd" clip-rule="evenodd" d="M33.5729 54.123C36.4399 54.123 38.0109 53.4532 39.6996 51.2856V51.2479C39.6996 51.8776 39.7396 53.0994 39.855 53.8093H42.7219C42.3691 52.0757 42.3691 50.2642 42.3691 48.5305V41.9923C42.3691 36.9896 40.3276 34.8643 35.3791 34.8643C30.8612 34.8643 28.5845 37.0697 27.8366 40.8484H30.7458C31.3338 38.2491 32.8672 37.1855 35.2615 37.1855C38.3238 37.1855 39.6996 38.643 39.6996 41.9523V42.9381H36.4399C30.7458 42.9381 27.4061 44.7474 27.4061 48.5305C27.4061 51.9176 29.958 54.123 33.5729 54.123ZM30.3511 48.533C30.3508 48.5196 30.3508 48.5063 30.3508 48.4928V48.5706C30.3508 48.5582 30.3508 48.5455 30.3511 48.533ZM34.2785 51.5615C32.0548 51.5615 30.374 50.4751 30.3511 48.533C30.3786 46.3513 32.8084 45.1435 36.8704 45.1435H39.6996V45.7332C39.6996 47.5848 39.227 49.1604 38.0509 50.1462C37.028 51.0498 35.6543 51.5615 34.2785 51.5615Z" fill="white"/>
<path fill-rule="evenodd" clip-rule="evenodd" d="M72.7508 53.8093H70.0035V41.6384C70.0035 38.7632 68.8652 37.2677 66.0359 37.2677C64.1897 37.2677 61.7576 38.9189 61.7576 42.4262L61.7953 53.8093H59.0082V41.6384C59.0082 38.7232 57.3971 37.2677 54.8807 37.2677C52.4864 37.2677 50.4448 39.7068 50.4448 43.2919V53.8093H47.6977V35.0979H50.4448V38.0133C51.8583 35.8457 53.7046 34.8643 55.8261 34.8643C58.5733 34.8643 60.1443 36.3598 61.0497 38.4093C62.4631 36.3999 64.1519 34.8643 66.6261 34.8643C70.6715 34.8643 72.7508 37.2277 72.7508 41.2846V53.8093Z" fill="white"/>
<path fill-rule="evenodd" clip-rule="evenodd" d="M78.737 53.8082H81.4865V50.499C82.0745 51.7987 84.8638 54.0418 87.4933 54.0418C93.3073 54.0418 96.4495 49.867 96.4495 44.4726C96.4495 38.6821 92.9545 34.8633 87.4933 34.8633C85.0591 34.8633 82.7024 36.5168 81.4865 38.2481V26.2375H78.737V53.8082ZM81.4865 44.4726C81.4865 40.8897 83.488 37.4604 87.5334 37.4604C91.3434 37.4604 93.4248 40.7695 93.4248 44.4726C93.4248 47.9798 91.3434 51.5606 87.5732 51.5606C83.8409 51.5606 81.4865 48.5296 81.4865 44.4726Z" fill="white"/>
<path fill-rule="evenodd" clip-rule="evenodd" d="M106.715 54.123C109.58 54.123 111.151 53.4532 112.842 51.2856V51.2479C112.842 51.8776 112.88 53.0994 112.997 53.8093H115.863C115.509 52.0757 115.509 50.2642 115.509 48.5305V41.9923C115.509 36.9896 113.47 34.8643 108.519 34.8643C104.003 34.8643 101.724 37.0697 100.979 40.8484H103.886C104.474 38.2491 106.007 37.1855 108.404 37.1855C111.464 37.1855 112.842 38.643 112.842 41.9523V42.9381H109.58C103.886 42.9381 100.548 44.7474 100.548 48.5305C100.548 51.9176 103.098 54.123 106.715 54.123ZM103.493 48.533C103.493 48.5196 103.493 48.5063 103.493 48.4928V48.5706C103.493 48.5582 103.493 48.5455 103.493 48.533ZM107.421 51.5615C105.197 51.5615 103.516 50.4751 103.493 48.533C103.521 46.3513 105.95 45.1435 110.012 45.1435H112.842V45.7332C112.842 47.5848 112.369 49.1604 111.191 50.1462C110.17 51.0498 108.794 51.5615 107.421 51.5615Z" fill="white"/>
<path fill-rule="evenodd" clip-rule="evenodd" d="M117.572 29.0327V26.2375H137.052V29.0327H128.846V53.8082H125.781V29.0327H117.572Z" fill="white"/>
<path fill-rule="evenodd" clip-rule="evenodd" d="M142.921 54.123C145.789 54.123 147.359 53.4532 149.047 51.2856V51.2479C149.047 51.8776 149.09 53.0994 149.204 53.8093H152.073C151.718 52.0757 151.718 50.2642 151.718 48.5305V41.9923C151.718 36.9896 149.678 34.8643 144.73 34.8643C140.212 34.8643 137.935 37.0697 137.189 40.8484H140.094C140.684 38.2491 142.213 37.1855 144.61 37.1855C147.673 37.1855 149.047 38.643 149.047 41.9523V42.9381H145.789C140.094 42.9381 136.754 44.7474 136.754 48.5305C136.754 51.9176 139.308 54.123 142.921 54.123ZM139.701 48.533C139.701 48.5196 139.701 48.5063 139.701 48.4928V48.5706C139.701 48.5582 139.701 48.5455 139.701 48.533ZM143.63 51.5615C141.405 51.5615 139.724 50.4751 139.701 48.533C139.728 46.3513 142.159 45.1435 146.22 45.1435H149.047V45.7332C149.047 47.5848 148.577 49.1604 147.399 50.1462C146.379 51.0498 145.002 51.5615 143.63 51.5615Z" fill="white"/>
<path fill-rule="evenodd" clip-rule="evenodd" d="M168.708 35.1393H172.048L165.606 44.3168L172.441 53.8082H168.984L163.643 46.2841L158.379 53.8082H154.961L161.718 44.3168L155.395 35.1393H158.694L163.682 42.3852L168.708 35.1393Z" fill="white"/>
<path fill-rule="evenodd" clip-rule="evenodd" d="M176.234 35.0975H179.18V53.8065H176.234V35.0975Z" fill="white"/>
<path fill-rule="evenodd" clip-rule="evenodd" d="M177.708 25.3746C176.493 25.3746 175.535 26.3337 175.535 27.5511C175.535 28.7661 176.493 29.7252 177.708 29.7252C178.92 29.7252 179.874 28.7661 179.874 27.5511C179.874 26.3337 178.92 25.3746 177.708 25.3746Z" fill="#D8272D"/>
</g>
</svg>
