<svg width="61" height="61" viewBox="0 0 61 61" fill="none" xmlns="http://www.w3.org/2000/svg">
<path d="M22.6338 47.7656L22.3362 47.7759L22.2788 48.0681C21.6074 51.4858 18.5945 54.0638 14.9803 54.0638H8.72975C8.07384 54.0638 7.54212 53.5321 7.54212 52.8762V46.6257C7.54212 43.0115 10.1202 39.9986 13.5378 39.3272L13.8301 39.2698L13.8403 38.9722L13.8773 37.9008C13.9391 36.1066 14.1239 34.3458 14.4232 32.6263L14.4996 32.187H14.0537H2.47921C1.63901 32.187 1.06448 31.3384 1.37652 30.5583L7.62706 14.9319C7.80742 14.481 8.24412 14.1854 8.72975 14.1854H22.7935C22.8541 14.1854 22.9135 14.1899 22.9713 14.1985L23.1738 14.2289L23.3088 14.075C30.596 5.76744 41.414 0.678524 53.3185 1.08902C55.2084 1.15419 57.0909 1.3598 58.9503 1.70414C59.4339 1.79369 59.8123 2.17206 59.9018 2.65566C62.4412 16.3683 57.3047 29.7254 47.5317 38.3029L47.3786 38.4373L47.4081 38.6389C47.4163 38.6954 47.4206 38.7533 47.4206 38.8125V52.8762C47.4206 53.3618 47.1249 53.7985 46.674 53.9789L31.0477 60.2294C30.2676 60.5415 29.419 59.967 29.419 59.1267V47.5474V47.101L28.9792 47.1781C27.2362 47.4837 25.474 47.6677 23.7052 47.7287L22.6338 47.7656ZM20.001 47.282L20.0247 47.0991L19.8943 46.9687L14.6373 41.7117L14.5069 41.5813L14.3239 41.605C11.8377 41.927 9.91739 44.0518 9.91739 46.6257V51.3136V51.6886H10.2924H14.9803C17.5542 51.6886 19.6789 49.7683 20.001 47.282ZM32.0745 46.5035L31.7943 46.5768V46.8664V56.8187V57.3726L32.3085 57.1669L44.8096 52.1664L45.0453 52.0721V51.8183V41.0415V40.3156L44.4533 40.7357C40.7952 43.3316 36.6282 45.3136 32.0745 46.5035ZM14.7327 29.8117H15.0223L15.0955 29.5315C16.2753 25.0181 18.2575 20.8401 20.8763 17.1528L21.2968 16.5606H20.5705H9.78771H9.53382L9.43953 16.7964L4.4391 29.2974L4.23339 29.8117H4.78728H14.7327ZM21.5904 45.3057L21.7057 45.421L21.8685 45.4153L23.6233 45.3548C25.3956 45.2937 27.1608 45.1009 28.9045 44.778C47.9706 41.2472 60.6847 23.2037 57.7498 4.17L57.7079 3.89825L57.4361 3.8565C56.0456 3.64286 54.6433 3.51138 53.2366 3.46288C33.491 2.78199 16.932 18.237 16.2511 37.9827L16.1906 39.7374L16.185 39.9003L16.3002 40.0155L21.5904 45.3057ZM38.4198 32.187C33.4488 32.187 29.419 28.1572 29.419 23.1862C29.419 18.2152 33.4488 14.1854 38.4198 14.1854C43.3908 14.1854 47.4206 18.2152 47.4206 23.1862C47.4206 28.1572 43.3908 32.187 38.4198 32.187ZM38.4198 29.8117C42.079 29.8117 45.0453 26.8453 45.0453 23.1862C45.0453 19.527 42.079 16.5606 38.4198 16.5606C34.7606 16.5606 31.7943 19.527 31.7943 23.1862C31.7943 26.8453 34.7606 29.8117 38.4198 29.8117Z" fill="#A783FF" stroke="#A783FF" stroke-width="0.75"/>
</svg>
