<svg width="66" height="66" viewBox="0 0 66 66" fill="none" xmlns="http://www.w3.org/2000/svg">
<path d="M33 17.25V29.0625M33 17.25C37.3492 17.25 40.875 13.7242 40.875 9.375C40.875 5.02575 37.3492 1.5 33 1.5C28.6508 1.5 25.125 5.02575 25.125 9.375C25.125 13.7242 28.6508 17.25 33 17.25ZM33 29.0625C28.6508 29.0625 25.125 32.5883 25.125 36.9375C25.125 41.2867 28.6508 44.8125 33 44.8125C37.3492 44.8125 40.875 41.2867 40.875 36.9375C40.875 32.5883 37.3492 29.0625 33 29.0625ZM17.2498 30.0471L25.125 34.9688M48.75 30.0471L40.875 34.9688M19.2188 50.7188L27.0938 42.8438M46.7812 50.7188L38.9062 42.8438M17.25 25.125C17.25 29.4742 13.7242 33 9.375 33C5.02575 33 1.5 29.4742 1.5 25.125C1.5 20.7758 5.02575 17.25 9.375 17.25C13.7242 17.25 17.25 20.7758 17.25 25.125ZM64.5 25.125C64.5 29.4742 60.9742 33 56.625 33C52.2758 33 48.75 29.4742 48.75 25.125C48.75 20.7758 52.2758 17.25 56.625 17.25C60.9742 17.25 64.5 20.7758 64.5 25.125ZM60.5625 56.625C60.5625 60.9742 57.0367 64.5 52.6875 64.5C48.3383 64.5 44.8125 60.9742 44.8125 56.625C44.8125 52.2758 48.3383 48.75 52.6875 48.75C57.0367 48.75 60.5625 52.2758 60.5625 56.625ZM21.1875 56.625C21.1875 60.9742 17.6617 64.5 13.3125 64.5C8.96325 64.5 5.4375 60.9742 5.4375 56.625C5.4375 52.2758 8.96325 48.75 13.3125 48.75C17.6617 48.75 21.1875 52.2758 21.1875 56.625Z" stroke="#A783FF" stroke-width="2" stroke-linecap="round" stroke-linejoin="round"/>
</svg>
