<svg width="217" height="76" viewBox="0 0 217 76" fill="none" xmlns="http://www.w3.org/2000/svg">
<path d="M87.1911 25.2216C87.3821 25.2456 87.5686 25.2974 87.7445 25.3755C87.9167 25.4573 88.0756 25.5645 88.216 25.6935C88.3974 25.867 88.5674 26.052 88.725 26.2475L102.906 44.1892C102.847 43.6181 102.81 43.0573 102.783 42.5205C102.755 41.9836 102.742 41.4707 102.742 40.992V25.1635H108.846V55.0424H105.239C104.777 55.0556 104.317 54.9718 103.889 54.7962C103.466 54.5869 103.1 54.277 102.824 53.8935L88.7455 36.1125C88.7899 36.6288 88.8206 37.1383 88.8479 37.6376C88.8753 38.1368 88.8924 38.6052 88.8924 39.0429V55.0595H82.7842V25.1635H86.4293C86.6842 25.1663 86.9387 25.1858 87.1911 25.2216Z" fill="#4D77CF"/>
<path d="M118.883 33.7702V47.2632C118.883 48.3164 119.122 49.1302 119.6 49.7047C119.864 49.9992 120.191 50.2299 120.557 50.3792C120.923 50.5285 121.317 50.5925 121.712 50.5664C122.388 50.5708 123.057 50.4236 123.669 50.1355C124.316 49.8217 124.914 49.4138 125.442 48.925V33.7702H131.793V55.0355H127.861C127.518 55.064 127.175 54.9736 126.891 54.7793C126.607 54.5851 126.398 54.2988 126.3 53.9687L125.913 52.7377C125.514 53.1252 125.089 53.4862 124.643 53.8182C124.204 54.1378 123.733 54.4116 123.239 54.6355C122.718 54.8704 122.174 55.0515 121.616 55.1757C120.998 55.3103 120.366 55.3757 119.734 55.3706C118.677 55.39 117.629 55.1836 116.659 54.7654C115.787 54.3788 115.013 53.8016 114.394 53.0762C113.764 52.3223 113.291 51.4505 113 50.5117C112.676 49.4621 112.517 48.3685 112.529 47.27V33.7702H118.883Z" fill="#4D77CF"/>
<path d="M135.889 55.0424V33.7702H139.824C140.175 33.7575 140.521 33.8504 140.818 34.0369C141.094 34.2295 141.293 34.5126 141.382 34.837L141.724 35.986C142.068 35.6199 142.437 35.2772 142.827 34.9601C143.212 34.6511 143.627 34.383 144.067 34.16C145.035 33.6682 146.107 33.4183 147.193 33.4316C148.338 33.387 149.463 33.7384 150.38 34.4267C151.244 35.1238 151.904 36.0402 152.293 37.0802C152.63 36.4506 153.07 35.8819 153.595 35.3978C154.091 34.9448 154.65 34.5658 155.255 34.2728C155.854 33.9842 156.486 33.7706 157.137 33.6368C157.789 33.5011 158.453 33.4324 159.119 33.4316C160.221 33.4126 161.318 33.5969 162.354 33.9753C163.255 34.31 164.066 34.851 164.721 35.5551C165.379 36.2898 165.872 37.1574 166.166 38.0992C166.51 39.2057 166.676 40.3599 166.658 41.5186V55.0321H160.304V41.5288C160.304 39.3267 159.362 38.2268 157.479 38.2291C157.083 38.2164 156.688 38.2854 156.32 38.4319C155.951 38.5783 155.617 38.7991 155.337 39.0805C154.77 39.6436 154.486 40.4597 154.486 41.5288V55.0424H148.143V41.5288C148.143 40.3115 147.903 39.4567 147.425 38.9643C146.947 38.4719 146.243 38.2291 145.314 38.2291C144.748 38.2278 144.19 38.3602 143.684 38.6155C143.154 38.8909 142.667 39.2435 142.239 39.6618V55.0492L135.889 55.0424Z" fill="#4D77CF"/>
<path d="M177.276 45.0543V55.0424H170.351V25.1635H180.88C182.715 25.1227 184.545 25.3731 186.301 25.9055C187.671 26.3255 188.94 27.024 190.028 27.9572C190.986 28.8018 191.728 29.8642 192.191 31.0552C192.658 32.2853 192.89 33.5927 192.874 34.9089C192.89 36.3093 192.647 37.7006 192.157 39.0122C191.691 40.2387 190.939 41.336 189.963 42.2127C188.878 43.161 187.604 43.8694 186.226 44.2917C184.496 44.8286 182.691 45.0861 180.88 45.0543H177.276ZM177.276 39.826H180.88C182.684 39.826 183.982 39.3985 184.774 38.5334C185.567 37.6683 185.963 36.4818 185.963 34.926C185.971 34.2904 185.867 33.6583 185.656 33.0589C185.459 32.5117 185.14 32.0169 184.723 31.6125C184.271 31.1899 183.733 30.8713 183.145 30.679C182.413 30.4427 181.648 30.3272 180.88 30.3371H177.276V39.826Z" fill="#4D77CF"/>
<path d="M205.179 60.5613C205.035 60.9247 204.799 61.2449 204.496 61.4914C204.099 61.7214 203.641 61.8252 203.184 61.7889H198.418L202.518 53.1788L194.039 33.7702H199.652C200.062 33.7491 200.467 33.8699 200.8 34.1121C201.06 34.3132 201.259 34.5833 201.373 34.8917L204.855 44.0592C205.176 44.8853 205.443 45.7317 205.654 46.593C205.791 46.1553 205.941 45.7245 206.105 45.3039C206.269 44.8833 206.426 44.449 206.576 44.0113L209.733 34.8849C209.852 34.5557 210.08 34.2771 210.378 34.095C210.681 33.8897 211.038 33.779 211.403 33.777H216.528L205.179 60.5613Z" fill="#4D77CF"/>
<path d="M30.1922 15.4421L17.5079 9.03412L3.58357 15.9892L16.6129 22.5374L30.1922 15.4421Z" fill="#4DABCF"/>
<path d="M36.0099 18.3794L49.3091 25.1019L35.5112 32.0365L22.4614 25.4781L36.0099 18.3794Z" fill="#4DABCF"/>
<path d="M53.7741 9.12985L67.4388 15.9892L55.2157 22.1305L41.8892 15.4011L53.7741 9.12985Z" fill="#4DABCF"/>
<path d="M47.8914 6.17547L35.5897 0L23.4213 6.07973L36.0987 12.4775L47.8914 6.17547Z" fill="#4DABCF"/>
<path d="M38.2749 59.197V76L53.1762 68.5559L53.1626 51.7461L38.2749 59.197Z" fill="#4DABCF"/>
<path d="M53.1557 45.8783L53.1387 29.2463L38.2749 36.6425V53.2814L53.1557 45.8783Z" fill="#4DABCF"/>
<path d="M71.0463 42.7632V59.6312L58.3346 65.9777L58.3244 49.1883L71.0463 42.7632Z" fill="#4DABCF"/>
<path d="M71.0463 36.8647V20.3353L58.3107 26.6715L58.321 43.3377L71.0463 36.8647Z" fill="#4DABCF"/>
<path d="M33.0139 36.6425L22.9772 31.5886V53.4182C22.9772 53.4182 10.6995 27.2733 9.5653 24.9241C9.4184 24.6198 8.81716 24.2881 8.66343 24.2061C6.44974 23.0503 0 19.7813 0 19.7813V58.3626L8.92306 63.1498V42.9753C8.92306 42.9753 21.0676 66.3367 21.194 66.5932C21.3204 66.8496 22.5331 69.3082 23.8381 70.1733C25.5701 71.3257 33.0071 75.8017 33.0071 75.8017L33.0139 36.6425Z" fill="#4D77CF"/>
</svg>
