<svg width="49" height="60" viewBox="0 0 49 60" fill="none" xmlns="http://www.w3.org/2000/svg">
<g clip-path="url(#clip0_72_152)">
<path d="M18.6354 21.1614C16.4682 19.9165 14.7743 17.995 13.8167 15.6948C12.859 13.3946 12.691 10.8443 13.3387 8.43948C13.9864 6.03461 15.4136 3.90956 17.399 2.39392C19.3844 0.878288 21.817 0.0567627 24.3195 0.0567627C26.8221 0.0567627 29.2547 0.878288 31.2401 2.39392C33.2255 3.90956 34.6527 6.03461 35.3004 8.43948C35.9481 10.8443 35.7801 13.3946 34.8224 15.6948C33.8647 17.995 32.1709 19.9165 30.0036 21.1614L26.5808 15.2633C27.443 14.7681 28.1169 14.0036 28.4979 13.0886C28.8789 12.1735 28.9457 11.1589 28.688 10.2022C28.4304 9.24544 27.8626 8.40003 27.0727 7.79707C26.2829 7.1941 25.3151 6.86727 24.3195 6.86727C23.3239 6.86727 22.3562 7.1941 21.5663 7.79707C20.7765 8.40003 20.2087 9.24544 19.951 10.2022C19.6933 11.1589 19.7602 12.1735 20.1412 13.0886C20.5222 14.0036 21.196 14.7681 22.0582 15.2633L18.6354 21.1614Z" fill="#FF0101"/>
<path d="M42.9795 23.8995C45.1468 25.1443 46.8406 27.0659 47.7983 29.3661C48.756 31.6662 48.924 34.2165 48.2763 36.6214C47.6286 39.0263 46.2013 41.1513 44.2159 42.667C42.2305 44.1826 39.7979 45.0041 37.2954 45.0041C34.7929 45.0041 32.3603 44.1826 30.3749 42.667C28.3895 41.1513 26.9623 39.0263 26.3145 36.6214C25.6668 34.2165 25.8349 31.6662 26.7925 29.3661C27.7502 27.0659 29.444 25.1443 31.6113 23.8995L35.0341 29.7976C34.1719 30.2928 33.498 31.0572 33.1171 31.9723C32.7361 32.8874 32.6692 33.902 32.9269 34.8587C33.1846 35.8154 33.7524 36.6609 34.5422 37.2638C35.3321 37.8668 36.2998 38.1936 37.2954 38.1936C38.291 38.1936 39.2588 37.8668 40.0486 37.2638C40.8384 36.6609 41.4062 35.8154 41.6639 34.8587C41.9216 33.902 41.8548 32.8874 41.4738 31.9723C41.0928 31.0572 40.4189 30.2928 39.5567 29.7976L42.9795 23.8995Z" fill="#0101FF"/>
<path d="M22.9567 33.6942C22.9567 36.1839 22.131 38.604 20.6075 40.5792C19.0841 42.5545 16.9481 43.9744 14.5308 44.6188C12.1135 45.2631 9.5501 45.096 7.23806 44.1432C4.92601 43.1904 2.99458 41.5053 1.74332 39.3492C0.492048 37.193 -0.00912741 34.6864 0.31752 32.2179C0.644166 29.7495 1.78038 27.4573 3.54994 25.6969C5.3195 23.9364 7.62351 22.806 10.1046 22.481C12.5858 22.156 15.1053 22.6546 17.2726 23.8995L13.8498 29.7976C12.9876 29.3023 11.9852 29.104 10.9982 29.2333C10.0111 29.3625 9.0945 29.8122 8.39051 30.5126C7.68653 31.213 7.23451 32.1249 7.10456 33.1069C6.97461 34.0889 7.174 35.0861 7.67179 35.9439C8.16958 36.8017 8.93796 37.4721 9.85776 37.8511C10.7776 38.2302 11.7974 38.2967 12.759 38.0403C13.7207 37.7839 14.5704 37.2191 15.1765 36.4333C15.7826 35.6475 16.1111 34.6847 16.1111 33.6942L22.9567 33.6942Z" fill="#01FF01"/>
<path fill-rule="evenodd" clip-rule="evenodd" d="M3.46673 47.7158C4.42891 47.6298 5.40169 47.6306 6.35896 47.767C6.949 47.8709 7.57494 48.0227 8.01808 48.4506C8.48243 48.9662 8.59669 49.6823 8.6987 50.3423C8.866 51.712 8.84641 53.1012 8.6987 54.4717C8.59995 55.1407 8.50284 55.8633 8.06215 56.4073C7.58147 56.8928 6.87147 57.0308 6.22023 57.1331C5.25887 57.2525 4.28364 57.2801 3.3182 57.1843C2.66451 57.1177 1.98226 57.0032 1.42569 56.6322C1.06579 56.4049 0.872377 56.0038 0.740986 55.6149C0.477388 54.8046 0.443929 53.944 0.408021 53.0996C0.40394 51.984 0.425159 50.8571 0.643871 49.7594C0.762204 49.2471 0.905837 48.6836 1.34081 48.3418C1.9537 47.8993 2.73307 47.7921 3.46673 47.7158ZM3.62587 49.2447C4.44115 49.1797 5.27356 49.1602 6.07986 49.3177C6.39242 49.3802 6.7613 49.5312 6.82006 49.8852C7.06488 50.8815 7.00776 51.9191 7.01755 52.9372C6.98735 53.6614 7.00449 54.41 6.76048 55.1034C6.54748 55.5589 5.96724 55.5962 5.52981 55.6628C4.65251 55.7123 3.74176 55.7561 2.89057 55.4971C2.49803 55.394 2.37399 54.9751 2.3136 54.6235C2.15038 53.5819 2.20342 52.5223 2.22383 51.4725C2.26708 50.8839 2.25973 50.2733 2.47273 49.7139C2.71674 49.3388 3.22109 49.3055 3.62587 49.2447Z" fill="white"/>
<path fill-rule="evenodd" clip-rule="evenodd" d="M12.2226 50.8888C12.8069 50.5193 13.5324 50.4593 14.2065 50.5202C14.8357 50.5737 15.5343 50.7865 15.8713 51.3629C16.2737 52.0863 16.2965 52.9413 16.3243 53.7483C16.3063 54.5781 16.2908 55.4444 15.9464 56.2157C15.7497 56.6842 15.2976 56.9911 14.8137 57.112C14.0727 57.2931 13.2582 57.3126 12.5441 57.0187C12.1581 56.8685 11.8912 56.5421 11.6701 56.2076C11.6701 57.4717 11.6701 58.7359 11.6701 60H10.0379C10.0387 56.8612 10.0363 53.7215 10.0387 50.5827C10.5667 50.5802 11.0947 50.5802 11.6219 50.5827C11.604 50.9058 11.586 51.2281 11.5771 51.5521C11.7729 51.3142 11.9549 51.0528 12.2226 50.8888ZM12.7539 51.7364C13.2109 51.7015 13.694 51.6917 14.1216 51.8793C14.3926 51.9954 14.5354 52.2804 14.5835 52.5564C14.7255 53.2685 14.7076 54.0041 14.657 54.725C14.6064 55.1602 14.5362 55.7237 14.0547 55.8925C13.4981 56.0736 12.8632 56.085 12.3132 55.8731C11.8015 55.6587 11.7419 55.0425 11.6913 54.5643C11.6611 53.8303 11.6244 53.0752 11.8325 52.3624C11.9427 51.958 12.3654 51.7664 12.7539 51.7364Z" fill="white"/>
<path fill-rule="evenodd" clip-rule="evenodd" d="M18.2772 50.9009C19.0794 50.4909 20.0187 50.4763 20.8993 50.5177C21.6321 50.5786 22.5217 50.7004 22.9256 51.3978C23.381 52.2398 23.3067 53.2303 23.3704 54.1543C21.8819 54.1543 20.3933 54.1543 18.9056 54.1543C18.9578 54.6308 18.8958 55.1448 19.1373 55.5816C19.3438 55.9266 19.782 55.9973 20.1526 56.0176C20.6104 56.0208 21.1033 56.0582 21.5252 55.8463C21.7668 55.6579 21.7684 55.3234 21.7994 55.0474C22.3217 55.0465 22.844 55.0465 23.3663 55.0474C23.3467 55.5897 23.2766 56.197 22.8391 56.5786C22.1822 57.1648 21.242 57.2257 20.4015 57.2419C19.6596 57.22 18.8762 57.1827 18.2119 56.8189C17.6741 56.5031 17.5027 55.8544 17.408 55.2828C17.2881 54.4336 17.2579 53.5681 17.3599 52.7156C17.4431 52.0425 17.6251 51.2509 18.2772 50.9009ZM19.2312 51.9345C19.6768 51.6649 20.2285 51.7193 20.7287 51.7266C21.0388 51.7599 21.4167 51.7778 21.6183 52.0506C21.8239 52.3875 21.7872 52.8 21.7888 53.1783C20.8283 53.18 19.8686 53.1824 18.9088 53.1775C18.9235 52.757 18.8901 52.2438 19.2312 51.9345Z" fill="white"/>
<path fill-rule="evenodd" clip-rule="evenodd" d="M26.8462 50.8969C27.4109 50.5072 28.1405 50.4528 28.8048 50.5291C29.3703 50.5884 29.9693 50.8027 30.3031 51.2882C30.5994 51.6909 30.6818 52.2041 30.6859 52.692C30.6834 54.1811 30.6867 55.6693 30.685 57.1583C30.1676 57.1591 29.6511 57.1591 29.1353 57.1583C29.1328 55.7497 29.1369 54.3418 29.1328 52.934C29.1173 52.6262 29.1296 52.2706 28.897 52.0336C28.6489 51.7664 28.2596 51.7145 27.9128 51.7169C27.4933 51.7145 27.0396 51.7859 26.7164 52.0742C26.4006 52.3421 26.2806 52.774 26.279 53.1735C26.2765 54.5018 26.2798 55.83 26.2773 57.1575C25.7608 57.1591 25.2442 57.1591 24.7284 57.1583C24.7276 54.9662 24.7276 52.774 24.7284 50.5819C25.236 50.5802 25.7444 50.5811 26.252 50.5819C26.2496 50.9667 26.2112 51.3491 26.1998 51.734C26.3663 51.423 26.5409 51.095 26.8462 50.8969Z" fill="white"/>
<path fill-rule="evenodd" clip-rule="evenodd" d="M33.4916 48.0162C34.3469 47.7304 35.2584 47.6898 36.1529 47.6582C37.0196 47.6622 37.9254 47.6704 38.735 48.0178C39.1463 48.1883 39.4311 48.5618 39.5699 48.9743C39.7959 49.5905 39.8024 50.2579 39.8073 50.9066C39.2108 50.9066 38.6142 50.9082 38.0185 50.9058C38.0087 50.4495 38.0438 49.938 37.7598 49.5499C37.4725 49.2576 37.0236 49.2584 36.6425 49.2138C35.8672 49.1992 35.0601 49.1496 34.3175 49.416C34.0498 49.5004 33.9111 49.7667 33.8572 50.0233C33.7046 50.7118 33.7038 51.4222 33.7046 52.1245C33.7136 53.063 33.6989 54.0154 33.9005 54.9386C33.9535 55.2763 34.2661 55.4842 34.5794 55.5588C35.3041 55.7383 36.0607 55.7123 36.8009 55.6685C37.1869 55.6181 37.6569 55.593 37.8993 55.2406C38.158 54.82 38.1148 54.3028 38.1009 53.8303C38.7032 53.8279 39.3046 53.8287 39.9069 53.8303C39.8996 54.5764 39.8865 55.3469 39.6139 56.0533C39.4736 56.4227 39.1838 56.7361 38.8084 56.8774C38.0715 57.1713 37.2636 57.19 36.4818 57.2371C35.5751 57.2525 34.657 57.2306 33.7707 57.0203C33.2509 56.8855 32.6829 56.6484 32.4421 56.1345C32.1344 55.4549 32.0781 54.699 31.999 53.9675C31.9329 53.0013 31.8904 52.0335 31.9141 51.0658C31.9606 50.2823 32.0324 49.4565 32.4576 48.7737C32.6837 48.3938 33.0803 48.1559 33.4916 48.0162Z" fill="white"/>
<path fill-rule="evenodd" clip-rule="evenodd" d="M40.2007 47.7426C40.8225 47.7434 41.4444 47.7256 42.0655 47.7515C42.6702 49.6603 43.3345 51.5497 43.9449 53.456C44.1824 54.1884 44.3505 54.9418 44.5962 55.6717C44.8712 54.8842 45.0475 54.0658 45.3168 53.2766C45.9133 51.4327 46.5262 49.5946 47.122 47.7507C47.7357 47.7248 48.351 47.7475 48.9655 47.7394V47.9415C47.9552 51.0049 46.9685 54.0763 45.9786 57.1469C45.0548 57.1656 44.1293 57.1681 43.2055 57.1453C42.2213 54.0057 41.1898 50.8806 40.2007 47.7426Z" fill="white"/>
</g>
<defs>
<clipPath id="clip0_72_152">
<rect width="48.9655" height="60" fill="white"/>
</clipPath>
</defs>
</svg>
