<svg width="61" height="73" viewBox="0 0 61 73" fill="none" xmlns="http://www.w3.org/2000/svg">
<path d="M30.9183 66.4424L30.5647 66.0889L12.6966 48.2224L12.6965 48.2224C2.64853 38.1738 2.6485 21.826 12.6965 11.7785L30.9183 66.4424ZM30.9183 66.4424L31.2718 66.0889L49.142 48.2211L48.8053 47.8844M30.9183 66.4424L48.8053 47.8844M48.8053 47.8844L49.142 48.2211M48.8053 47.8844L49.142 48.2211M49.142 48.2211C59.1895 38.1738 59.1895 21.8258 49.1409 11.7785L49.142 48.2211ZM30.9184 4.23082C24.036 4.23082 17.5627 6.9123 12.6966 11.7785L49.1409 11.7785C44.2747 6.91229 37.8008 4.23082 30.9184 4.23082ZM10.0581 9.14075L9.70455 8.78719L10.0581 9.14075C15.8188 3.38019 23.3677 0.5 30.9183 0.5C38.469 0.5 46.0192 3.38021 51.7797 9.14074C63.2984 20.6594 63.2984 39.3402 51.7796 50.8601C51.7796 50.8601 51.7796 50.8601 51.7796 50.8601L30.9183 71.7179L10.0581 50.8601C-1.46111 39.3402 -1.46109 20.6594 10.0581 9.14075Z" fill="#A783FF" stroke="#A783FF"/>
<path d="M38.2337 22.3435C38.2337 26.3858 34.9586 29.6593 30.9184 29.6593C26.8773 29.6593 23.6021 26.3857 23.6021 22.3435C23.6021 18.3035 26.8771 15.0288 30.9184 15.0288C34.9586 15.0288 38.2337 18.3035 38.2337 22.3435Z" fill="#A783FF" stroke="#A783FF"/>
<path d="M41.6203 43.8114H20.2161C20.4772 38.1277 25.1685 33.5977 30.9183 33.5977C36.6671 33.5977 41.3589 38.1277 41.6203 43.8114Z" fill="#A783FF" stroke="#A783FF"/>
</svg>
