<svg width="207" height="62" viewBox="0 0 207 62" fill="none" xmlns="http://www.w3.org/2000/svg">
<path d="M70.6422 39.8411C67.7933 39.8411 64.8917 38.6638 63.0748 36.3562V48.8222H57.3687V18.0479H62.5283L62.7253 21.4331C64.4951 18.8319 67.638 17.4579 70.6367 17.4579C76.3871 17.4579 80.623 22.2697 80.623 28.6495C80.623 35.0293 76.3927 39.8439 70.6422 39.8411ZM68.8752 21.6824C65.5325 21.6824 62.8307 24.2836 62.8307 28.6523C62.8307 33.0209 65.5325 35.6277 68.8752 35.6277C72.2178 35.6277 74.9197 33.0264 74.9197 28.6578C74.9197 24.2892 72.2178 21.6824 68.8752 21.6824Z" fill="white"/>
<path d="M102.13 39.2566L101.933 35.8714C100.163 38.4727 97.0172 39.8467 94.0185 39.8439C88.2681 39.8439 84.0322 35.0348 84.0322 28.655C84.0322 22.2752 88.2597 17.4634 94.0185 17.4662C97.0172 17.4662 100.163 18.8513 101.933 21.4414L102.13 18.0562H107.3V39.2566H102.13ZM95.7911 21.6852C92.4484 21.6852 89.7466 24.2864 89.7438 28.655C89.741 33.0237 92.4457 35.6277 95.7883 35.6277C99.131 35.6277 101.836 33.0264 101.836 28.6578C101.836 24.2892 99.1337 21.6852 95.7911 21.6852Z" fill="white"/>
<path d="M127.237 39.2594V27.5303C127.237 23.4083 125.814 22.0342 123.209 22.0342C120.504 22.0342 117.556 24.4859 117.556 27.4306V39.2594H111.852V18.0562H117.065L117.312 21.9844C118.737 19.2834 121.93 17.4689 125.176 17.4689C130.826 17.4689 132.943 21.3971 132.943 26.6466V39.2622L127.237 39.2594Z" fill="white"/>
<path d="M153.839 39.2649L153.642 35.877C151.873 38.4782 148.727 39.8522 145.731 39.8522C139.981 39.8522 135.745 35.0404 135.745 28.6606C135.745 22.2808 139.972 17.4717 145.731 17.4717C148.58 17.4717 151.479 18.6518 153.299 20.9566V9.81762H159.002V39.2649H153.839ZM147.501 21.6935C144.172 21.6935 141.456 24.2947 141.456 28.6606C141.456 33.0264 144.158 35.6276 147.501 35.6276C150.844 35.6276 153.545 33.0292 153.545 28.6606C153.545 24.292 150.852 21.6935 147.501 21.6935Z" fill="white"/>
<path d="M180.422 39.2677L180.226 35.8825C178.456 38.4837 175.31 39.855 172.311 39.855C166.561 39.855 162.325 35.0459 162.325 28.6634C162.325 22.2808 166.553 17.4745 172.311 17.4745C175.31 17.4745 178.456 18.8596 180.226 21.4525L180.422 18.0645H185.582V39.2649L180.422 39.2677ZM174.084 21.6963C170.755 21.6963 168.039 24.2975 168.037 28.6661C168.034 33.0347 170.741 35.6277 174.081 35.6277C177.421 35.6277 180.128 33.0264 180.128 28.6578C180.128 24.2892 177.427 21.6963 174.084 21.6963Z" fill="white"/>
<path d="M198.212 39.9575C195.213 39.9326 192.276 39.101 189.71 37.5502L190.645 33.6248C192.364 34.6553 194.969 35.9822 198.115 35.9822C200.376 35.9822 201.949 35.2952 201.949 33.5278C201.949 32.007 200.326 31.4668 197.427 30.7798C192.217 29.6495 190.351 26.9015 190.351 23.9069C190.351 20.5688 192.955 17.4302 198.706 17.4302C202.195 17.4302 205.244 18.951 205.918 19.3444L204.983 23.0758C203.127 21.9596 201.009 21.3501 198.842 21.3084C196.534 21.3084 195.402 22.0924 195.402 23.3695C195.402 24.7906 196.878 25.4305 199.136 25.9707C204.739 27.148 207 29.7493 207 32.597C207.011 37.1596 203.668 39.9575 198.212 39.9575Z" fill="white"/>
<path d="M17.415 3.60958H10.7325V17.4662H17.415V3.60958Z" fill="white"/>
<path d="M17.415 32.0735H10.7325V45.9301H17.415V32.0735Z" fill="white"/>
<path d="M17.415 21.5107H10.7325V28.0484H17.415V21.5107Z" fill="#FFCA00"/>
<path d="M6.68252 15.0035H0V61.0637H6.68252V15.0035Z" fill="white"/>
<path d="M27.9285 43.5061H21.2459V57.3627H27.9285V43.5061Z" fill="white"/>
<path d="M27.9285 15.0201H21.2459V28.8767H27.9285V15.0201Z" fill="white"/>
<path d="M27.9285 32.9212H21.2459V39.4588H27.9285V32.9212Z" fill="#E70488"/>
<path d="M38.4391 0H31.7566V46.0603H38.4391V0Z" fill="white"/>
</svg>
