<svg width="100" height="101" viewBox="0 0 100 101" fill="none" xmlns="http://www.w3.org/2000/svg">
<path d="M8.33325 73.3351V10.0018C8.33589 9.11855 8.68793 8.27223 9.31248 7.64768C9.93703 7.02313 10.7833 6.67109 11.6666 6.66846H88.3333C89.2165 6.67109 90.0628 7.02313 90.6874 7.64768C91.3119 8.27223 91.664 9.11855 91.6666 10.0018V73.3351H8.33325Z" fill="#205B75"/>
<path d="M98.3334 86.6686V91.6686C98.3334 92.1106 98.1578 92.5346 97.8453 92.8471C97.5327 93.1597 97.1088 93.3353 96.6668 93.3353H3.33341C2.89139 93.3353 2.46746 93.1597 2.1549 92.8471C1.84234 92.5346 1.66675 92.1106 1.66675 91.6686V86.6686L8.33342 70.002H91.6668L98.3334 86.6686Z" fill="#CADBEA"/>
<path d="M98.3334 86.6685V91.6685C98.3334 92.1105 98.1578 92.5344 97.8453 92.847C97.5327 93.1595 97.1088 93.3351 96.6668 93.3351H3.33341C2.89139 93.3351 2.46746 93.1595 2.1549 92.847C1.84234 92.5344 1.66675 92.1105 1.66675 91.6685V86.6685H98.3334Z" fill="#ABBBCC"/>
<path d="M75.45 13.3354H83.3333C83.7754 13.3354 84.1993 13.511 84.5119 13.8236C84.8244 14.1362 85 14.5601 85 15.0021V61.6688C85 62.1108 84.8244 62.5347 84.5119 62.8473C84.1993 63.1599 83.7754 63.3354 83.3333 63.3354H16.6667C16.2246 63.3354 15.8007 63.1599 15.4882 62.8473C15.1756 62.5347 15 62.1108 15 61.6688V15.0021C15 14.5601 15.1756 14.1362 15.4882 13.8236C15.8007 13.511 16.2246 13.3354 16.6667 13.3354H75.45Z" fill="#114559"/>
<path d="M31.6667 86.6688L34.5817 79.3838C34.7053 79.0745 34.9187 78.8094 35.1944 78.6225C35.47 78.4356 35.7954 78.3357 36.1284 78.3354H63.8718C64.2048 78.3357 64.5301 78.4356 64.8058 78.6225C65.0815 78.8094 65.2949 79.0745 65.4184 79.3838L68.3334 86.6688H31.6667Z" fill="#E1EAF4"/>
<path d="M24.9999 30.002C25.3295 30.0019 25.6516 29.9041 25.9257 29.721C26.1997 29.5378 26.4132 29.2776 26.5394 28.9731C26.6655 28.6686 26.6985 28.3335 26.6342 28.0103C26.5699 27.687 26.4112 27.3901 26.1782 27.157L24.0232 25.002L26.1782 22.847C26.4818 22.5326 26.6498 22.1116 26.646 21.6746C26.6422 21.2377 26.4669 20.8196 26.1579 20.5106C25.8489 20.2016 25.4309 20.0263 24.9939 20.0225C24.5569 20.0187 24.1359 20.1867 23.8216 20.4903L20.4882 23.8236C20.1758 24.1362 20.0002 24.56 20.0002 25.002C20.0002 25.4439 20.1758 25.8678 20.4882 26.1803L23.8216 29.5136C24.134 29.8262 24.5579 30.0019 24.9999 30.002Z" fill="white"/>
<path d="M40.4882 29.5136C40.8008 29.8261 41.2246 30.0016 41.6666 30.0016C42.1085 30.0016 42.5323 29.8261 42.8449 29.5136L46.1782 26.1803C46.4907 25.8678 46.6662 25.4439 46.6662 25.002C46.6662 24.56 46.4907 24.1362 46.1782 23.8236L42.8449 20.4903C42.5306 20.1867 42.1095 20.0187 41.6726 20.0225C41.2356 20.0263 40.8175 20.2016 40.5085 20.5106C40.1995 20.8196 40.0242 21.2377 40.0204 21.6746C40.0166 22.1116 40.1846 22.5326 40.4882 22.847L42.6432 25.002L40.4882 27.157C40.1758 27.4695 40.0002 27.8934 40.0002 28.3353C40.0002 28.7773 40.1758 29.2011 40.4882 29.5136Z" fill="white"/>
<path d="M30.9216 29.8355C31.1175 29.9334 31.3307 29.9918 31.5492 30.0072C31.7676 30.0227 31.987 29.995 32.1947 29.9256C32.4024 29.8563 32.5944 29.7467 32.7598 29.6031C32.9251 29.4595 33.0605 29.2847 33.1583 29.0888L36.4916 22.4221C36.5895 22.2262 36.6478 22.013 36.6632 21.7946C36.6786 21.5762 36.6509 21.3568 36.5815 21.1492C36.5122 20.9415 36.4026 20.7495 36.2591 20.5841C36.1155 20.4188 35.9408 20.2833 35.745 20.1855C35.5491 20.0876 35.3358 20.0293 35.1174 20.0139C34.899 19.9985 34.6797 20.0262 34.472 20.0956C34.2643 20.1649 34.0723 20.2745 33.9069 20.418C33.7416 20.5615 33.6061 20.7362 33.5083 20.9321L30.175 27.5988C30.077 27.7947 30.0187 28.0079 30.0032 28.2264C29.9877 28.4448 30.0154 28.6641 30.0848 28.8719C30.1541 29.0796 30.2637 29.2716 30.4073 29.4369C30.5509 29.6023 30.7257 29.7377 30.9216 29.8355Z" fill="white"/>
<path d="M30.0001 35.0021C30.0001 34.5601 29.8245 34.1362 29.5119 33.8236C29.1994 33.511 28.7754 33.3354 28.3334 33.3354H23.3334C22.8914 33.3354 22.4675 33.511 22.1549 33.8236C21.8423 34.1362 21.6667 34.5601 21.6667 35.0021C21.6667 35.4441 21.8423 35.8681 22.1549 36.1806C22.4675 36.4932 22.8914 36.6688 23.3334 36.6688H28.3334C28.7754 36.6688 29.1994 36.4932 29.5119 36.1806C29.8245 35.8681 30.0001 35.4441 30.0001 35.0021Z" fill="#E5BB33"/>
<path d="M33.3333 35.0021C33.3333 35.4441 33.5088 35.8681 33.8214 36.1806C34.134 36.4932 34.5579 36.6688 34.9999 36.6688H48.3333C48.7753 36.6688 49.1992 36.4932 49.5118 36.1806C49.8243 35.8681 49.9999 35.4441 49.9999 35.0021C49.9999 34.5601 49.8243 34.1362 49.5118 33.8236C49.1992 33.511 48.7753 33.3354 48.3333 33.3354H34.9999C34.5579 33.3354 34.134 33.511 33.8214 33.8236C33.5088 34.1362 33.3333 34.5601 33.3333 35.0021Z" fill="#EB6374"/>
<path d="M41.6667 41.6686C41.6667 41.2266 41.4911 40.8027 41.1785 40.4901C40.866 40.1775 40.442 40.002 40 40.002H26.6667C26.2246 40.002 25.8007 40.1775 25.4882 40.4901C25.1756 40.8027 25 41.2266 25 41.6686C25 42.1106 25.1756 42.5346 25.4882 42.8471C25.8007 43.1597 26.2246 43.3353 26.6667 43.3353H40C40.442 43.3353 40.866 43.1597 41.1785 42.8471C41.4911 42.5346 41.6667 42.1106 41.6667 41.6686Z" fill="#E5BB33"/>
<path d="M26.6667 46.6685C26.2246 46.6685 25.8007 46.8441 25.4882 47.1566C25.1756 47.4692 25 47.8931 25 48.3351C25 48.7772 25.1756 49.2011 25.4882 49.5136C25.8007 49.8262 26.2246 50.0018 26.6667 50.0018H35C35.442 50.0018 35.866 49.8262 36.1785 49.5136C36.4911 49.2011 36.6667 48.7772 36.6667 48.3351C36.6667 47.8931 36.4911 47.4692 36.1785 47.1566C35.866 46.8441 35.442 46.6685 35 46.6685H26.6667Z" fill="#E5BB33"/>
<path d="M68.3334 50.0018H73.3334C73.7754 50.0018 74.1994 49.8262 74.5119 49.5136C74.8245 49.2011 75.0001 48.7772 75.0001 48.3351C75.0001 47.8931 74.8245 47.4692 74.5119 47.1566C74.1994 46.8441 73.7754 46.6685 73.3334 46.6685H68.3334C67.8914 46.6685 67.4675 46.8441 67.1549 47.1566C66.8423 47.4692 66.6667 47.8931 66.6667 48.3351C66.6667 48.7772 66.8423 49.2011 67.1549 49.5136C67.4675 49.8262 67.8914 50.0018 68.3334 50.0018Z" fill="#82ECFF"/>
<path d="M40 48.3351C40 48.7772 40.1756 49.2011 40.4882 49.5136C40.8007 49.8262 41.2246 50.0018 41.6667 50.0018H61.6667C62.1087 50.0018 62.5326 49.8262 62.8452 49.5136C63.1577 49.2011 63.3333 48.7772 63.3333 48.3351C63.3333 47.8931 63.1577 47.4692 62.8452 47.1566C62.5326 46.8441 62.1087 46.6685 61.6667 46.6685H41.6667C41.2246 46.6685 40.8007 46.8441 40.4882 47.1566C40.1756 47.4692 40 47.8931 40 48.3351Z" fill="#EB6374"/>
<path d="M30 53.3354H26.6667C26.2246 53.3354 25.8007 53.511 25.4882 53.8236C25.1756 54.1362 25 54.5601 25 55.0021C25 55.4441 25.1756 55.8681 25.4882 56.1806C25.8007 56.4932 26.2246 56.6688 26.6667 56.6688H30C30.442 56.6688 30.866 56.4932 31.1785 56.1806C31.4911 55.8681 31.6667 55.4441 31.6667 55.0021C31.6667 54.5601 31.4911 54.1362 31.1785 53.8236C30.866 53.511 30.442 53.3354 30 53.3354Z" fill="#E5BB33"/>
<path d="M73.3333 53.3354H54.9999C54.5579 53.3354 54.134 53.511 53.8214 53.8236C53.5088 54.1362 53.3333 54.5601 53.3333 55.0021C53.3333 55.4441 53.5088 55.8681 53.8214 56.1806C54.134 56.4932 54.5579 56.6688 54.9999 56.6688H73.3333C73.7753 56.6688 74.1992 56.4932 74.5118 56.1806C74.8243 55.8681 74.9999 55.4441 74.9999 55.0021C74.9999 54.5601 74.8243 54.1362 74.5118 53.8236C74.1992 53.511 73.7753 53.3354 73.3333 53.3354Z" fill="#82ECFF"/>
<path d="M48.3333 53.3354H36.6667C36.2246 53.3354 35.8007 53.511 35.4882 53.8236C35.1756 54.1362 35 54.5601 35 55.0021C35 55.4441 35.1756 55.8681 35.4882 56.1806C35.8007 56.4932 36.2246 56.6688 36.6667 56.6688H48.3333C48.7754 56.6688 49.1993 56.4932 49.5118 56.1806C49.8244 55.8681 50 55.4441 50 55.0021C50 54.5601 49.8244 54.1362 49.5118 53.8236C49.1993 53.511 48.7754 53.3354 48.3333 53.3354Z" fill="#EB6374"/>
</svg>
