<svg width="60" height="60" viewBox="0 0 60 60" fill="none" xmlns="http://www.w3.org/2000/svg">
<path d="M36.5625 22.5V24.375C37.8012 24.3896 38.985 24.8882 39.8609 25.7641C40.7368 26.64 41.2354 27.8238 41.25 29.0625H42.1875H43.125C43.1079 27.3273 42.411 25.668 41.184 24.441C39.957 23.214 38.2977 22.5171 36.5625 22.5Z" fill="#A783FF"/>
<path d="M45.9938 29.1656H46.9313C46.9288 26.4121 45.8371 23.7713 43.8944 21.8199C41.9518 19.8685 39.316 18.7649 36.5625 18.75V20.625C38.8171 20.6398 40.9746 21.5446 42.5653 23.1424C44.1561 24.7402 45.0514 26.9016 45.0563 29.1562L45.9938 29.1656Z" fill="#A783FF"/>
<path d="M50.6907 29.1375C50.671 25.3957 49.1765 21.8126 46.5315 19.1658C43.8865 16.5191 40.3044 15.0222 36.5626 15H36.5063L36.5626 16.875C39.8209 16.8997 42.9374 18.2115 45.2326 20.5243C47.5279 22.8371 48.8158 25.9635 48.8157 29.2219L50.6907 29.1375Z" fill="#A783FF"/>
<path d="M16.875 29.1377H18.75C18.7646 27.899 19.2632 26.7152 20.1391 25.8393C21.015 24.9633 22.1988 24.4648 23.4375 24.4502V22.5752C21.7023 22.5923 20.043 23.2892 18.816 24.5162C17.589 25.7432 16.8921 27.4025 16.875 29.1377Z" fill="#A783FF"/>
<path d="M23.4376 18.75C20.6865 18.7673 18.0535 19.8704 16.1117 21.8193C14.1698 23.7682 13.0762 26.4051 13.0688 29.1562H14.9438C14.9487 26.9016 15.844 24.7402 17.4348 23.1424C19.0255 21.5446 21.183 20.6398 23.4376 20.625V18.75Z" fill="#A783FF"/>
<path d="M23.5031 15.9375L23.4375 15C19.6892 15.0222 16.1015 16.5243 13.4554 19.1792C10.8093 21.834 9.31915 25.4267 9.30933 29.175H10.2468L11.1843 29.1187C11.2065 25.8767 12.5048 22.7739 14.7982 20.4823C17.0916 18.1906 20.1954 16.8946 23.4375 16.875H23.4937L23.5031 15.9375Z" fill="#A783FF"/>
<path d="M57.1875 1.875H47.8125C47.5639 1.875 47.3254 1.97377 47.1496 2.14959C46.9738 2.3254 46.875 2.56386 46.875 2.8125V6.5625H40.3125V4.6875C40.3125 4.43886 40.2137 4.2004 40.0379 4.02459C39.8621 3.84877 39.6236 3.75 39.375 3.75H20.625C20.3764 3.75 20.1379 3.84877 19.9621 4.02459C19.7863 4.2004 19.6875 4.43886 19.6875 4.6875V6.5625H13.125V2.8125C13.125 2.56386 13.0262 2.3254 12.8504 2.14959C12.6746 1.97377 12.4361 1.875 12.1875 1.875H2.8125C2.56386 1.875 2.3254 1.97377 2.14959 2.14959C1.97377 2.3254 1.875 2.56386 1.875 2.8125V12.1875C1.875 12.4361 1.97377 12.6746 2.14959 12.8504C2.3254 13.0262 2.56386 13.125 2.8125 13.125H12.1875C12.4361 13.125 12.6746 13.0262 12.8504 12.8504C13.0262 12.6746 13.125 12.4361 13.125 12.1875V8.4375H19.6875V10.3125C19.6875 10.5611 19.7863 10.7996 19.9621 10.9754C20.1379 11.1512 20.3764 11.25 20.625 11.25H26.25V15.9375C26.25 16.1861 26.3488 16.4246 26.5246 16.6004C26.7004 16.7762 26.9389 16.875 27.1875 16.875H29.0625V24.4219C26.742 24.6551 24.5917 25.7448 23.0315 27.4783C21.4713 29.2119 20.6133 31.4647 20.625 33.7969C20.6256 34.4265 20.6884 35.0546 20.8125 35.6719H15C14.8592 35.6725 14.7203 35.7049 14.5937 35.7666C14.4671 35.8282 14.3561 35.9176 14.2688 36.0281L12.1875 38.6063C11.8872 38.4958 11.5699 38.4387 11.25 38.4375C10.6937 38.4375 10.15 38.6025 9.68746 38.9115C9.22495 39.2205 8.86446 39.6598 8.65159 40.1737C8.43872 40.6876 8.38302 41.2531 8.49154 41.7987C8.60006 42.3443 8.86793 42.8454 9.26126 43.2387C9.6546 43.6321 10.1557 43.8999 10.7013 44.0085C11.2469 44.117 11.8124 44.0613 12.3263 43.8484C12.8402 43.6355 13.2795 43.2751 13.5885 42.8125C13.8975 42.35 14.0625 41.8063 14.0625 41.25C14.0635 40.7281 13.9138 40.217 13.6313 39.7781L15.45 37.5H21.4125C21.8936 38.5987 22.581 39.5948 23.4375 40.4344V47.3625L21.1594 49.1812C20.7205 48.8987 20.2094 48.749 19.6875 48.75C19.1312 48.75 18.5875 48.915 18.125 49.224C17.6624 49.533 17.302 49.9723 17.0891 50.4862C16.8762 51.0001 16.8205 51.5656 16.929 52.1112C17.0376 52.6568 17.3054 53.1579 17.6988 53.5512C18.0921 53.9446 18.5932 54.2124 19.1388 54.321C19.6844 54.4295 20.2499 54.3738 20.7638 54.1609C21.2777 53.948 21.717 53.5876 22.026 53.125C22.3351 52.6625 22.5 52.1188 22.5 51.5625C22.4988 51.2426 22.4417 50.9253 22.3312 50.625L24.9563 48.525C25.0643 48.4397 25.1522 48.3316 25.2138 48.2085C25.2754 48.0853 25.3091 47.9501 25.3125 47.8125V41.8594C26.4593 42.541 27.7372 42.9723 29.0625 43.125V52.6688C28.437 52.8899 27.9098 53.3251 27.5741 53.8973C27.2384 54.4696 27.1158 55.1421 27.228 55.796C27.3402 56.4499 27.6799 57.0431 28.1872 57.4707C28.6944 57.8984 29.3365 58.1329 30 58.1329C30.6635 58.1329 31.3056 57.8984 31.8128 57.4707C32.3201 57.0431 32.6598 56.4499 32.772 55.796C32.8842 55.1421 32.7616 54.4696 32.4259 53.8973C32.0902 53.3251 31.563 52.8899 30.9375 52.6688V43.125C32.2592 42.9867 33.537 42.5714 34.6875 41.9062V47.8125C34.6881 47.9533 34.7205 48.0922 34.7822 48.2188C34.8439 48.3454 34.9333 48.4564 35.0438 48.5437L37.6688 50.625C37.5583 50.9253 37.5012 51.2426 37.5 51.5625C37.5 52.1188 37.665 52.6625 37.974 53.125C38.283 53.5876 38.7223 53.948 39.2362 54.1609C39.7501 54.3738 40.3156 54.4295 40.8612 54.321C41.4068 54.2124 41.9079 53.9446 42.3012 53.5512C42.6946 53.1579 42.9624 52.6568 43.071 52.1112C43.1795 51.5656 43.1238 51.0001 42.9109 50.4862C42.698 49.9723 42.3376 49.533 41.875 49.224C41.4125 48.915 40.8688 48.75 40.3125 48.75C39.7906 48.749 39.2795 48.8987 38.8406 49.1812L36.5625 47.3625V40.4344C37.419 39.5948 38.1064 38.5987 38.5875 37.5H44.55L46.3687 39.7781C46.0862 40.217 45.9365 40.7281 45.9375 41.25C45.9375 41.8063 46.1025 42.35 46.4115 42.8125C46.7205 43.2751 47.1598 43.6355 47.6737 43.8484C48.1876 44.0613 48.7531 44.117 49.2987 44.0085C49.8443 43.8999 50.3454 43.6321 50.7387 43.2387C51.1321 42.8454 51.3999 42.3443 51.5085 41.7987C51.617 41.2531 51.5613 40.6876 51.3484 40.1737C51.1355 39.6598 50.7751 39.2205 50.3125 38.9115C49.85 38.6025 49.3063 38.4375 48.75 38.4375C48.4301 38.4387 48.1128 38.4958 47.8125 38.6063L45.7125 35.9813C45.6272 35.8732 45.5191 35.7853 45.396 35.7237C45.2728 35.6621 45.1376 35.6284 45 35.625H39.1875C39.3116 35.0077 39.3744 34.3797 39.375 33.75C39.375 31.4259 38.5118 29.1846 36.9527 27.461C35.3937 25.7374 33.25 24.6543 30.9375 24.4219V16.875H32.8125C33.0611 16.875 33.2996 16.7762 33.4754 16.6004C33.6512 16.4246 33.75 16.1861 33.75 15.9375V11.25H39.375C39.6236 11.25 39.8621 11.1512 40.0379 10.9754C40.2137 10.7996 40.3125 10.5611 40.3125 10.3125V8.4375H46.875V12.1875C46.875 12.4361 46.9738 12.6746 47.1496 12.8504C47.3254 13.0262 47.5639 13.125 47.8125 13.125H57.1875C57.4361 13.125 57.6746 13.0262 57.8504 12.8504C58.0262 12.6746 58.125 12.4361 58.125 12.1875V2.8125C58.125 2.56386 58.0262 2.3254 57.8504 2.14959C57.6746 1.97377 57.4361 1.875 57.1875 1.875ZM11.25 11.25H3.75V3.75H11.25V11.25ZM11.25 42.1875C11.0646 42.1875 10.8833 42.1325 10.7292 42.0295C10.575 41.9265 10.4548 41.7801 10.3839 41.6088C10.3129 41.4375 10.2943 41.249 10.3305 41.0671C10.3667 40.8852 10.456 40.7182 10.5871 40.5871C10.7182 40.456 10.8852 40.3667 11.0671 40.3305C11.249 40.2943 11.4375 40.3129 11.6088 40.3839C11.7801 40.4548 11.9265 40.575 12.0295 40.7292C12.1325 40.8833 12.1875 41.0646 12.1875 41.25C12.1875 41.4986 12.0887 41.7371 11.9129 41.9129C11.7371 42.0887 11.4986 42.1875 11.25 42.1875ZM19.6875 52.5C19.5021 52.5 19.3208 52.445 19.1667 52.342C19.0125 52.239 18.8923 52.0926 18.8214 51.9213C18.7504 51.75 18.7318 51.5615 18.768 51.3796C18.8042 51.1977 18.8935 51.0307 19.0246 50.8996C19.1557 50.7685 19.3227 50.6792 19.5046 50.643C19.6865 50.6068 19.875 50.6254 20.0463 50.6964C20.2176 50.7673 20.364 50.8875 20.467 51.0417C20.57 51.1958 20.625 51.3771 20.625 51.5625C20.625 51.8111 20.5262 52.0496 20.3504 52.2254C20.1746 52.4012 19.9361 52.5 19.6875 52.5ZM40.3125 50.625C40.4979 50.625 40.6792 50.68 40.8333 50.783C40.9875 50.886 41.1077 51.0324 41.1786 51.2037C41.2496 51.375 41.2682 51.5635 41.232 51.7454C41.1958 51.9273 41.1065 52.0943 40.9754 52.2254C40.8443 52.3565 40.6773 52.4458 40.4954 52.482C40.3135 52.5182 40.125 52.4996 39.9537 52.4286C39.7824 52.3577 39.636 52.2375 39.533 52.0833C39.43 51.9292 39.375 51.7479 39.375 51.5625C39.375 51.3139 39.4738 51.0754 39.6496 50.8996C39.8254 50.7238 40.0639 50.625 40.3125 50.625ZM49.6875 41.25C49.6875 41.4354 49.6325 41.6167 49.5295 41.7708C49.4265 41.925 49.2801 42.0452 49.1088 42.1161C48.9375 42.1871 48.749 42.2057 48.5671 42.1695C48.3852 42.1333 48.2182 42.044 48.0871 41.9129C47.956 41.7818 47.8667 41.6148 47.8305 41.4329C47.7943 41.251 47.8129 41.0625 47.8839 40.8912C47.9548 40.7199 48.075 40.5735 48.2292 40.4705C48.3833 40.3675 48.5646 40.3125 48.75 40.3125C48.9986 40.3125 49.2371 40.4113 49.4129 40.5871C49.5887 40.7629 49.6875 41.0014 49.6875 41.25ZM30 56.25C29.8146 56.25 29.6333 56.195 29.4792 56.092C29.325 55.989 29.2048 55.8426 29.1339 55.6713C29.0629 55.5 29.0443 55.3115 29.0805 55.1296C29.1167 54.9477 29.206 54.7807 29.3371 54.6496C29.4682 54.5185 29.6352 54.4292 29.8171 54.393C29.999 54.3568 30.1875 54.3754 30.3588 54.4464C30.5301 54.5173 30.6765 54.6375 30.7795 54.7917C30.8825 54.9458 30.9375 55.1271 30.9375 55.3125C30.9375 55.5611 30.8387 55.7996 30.6629 55.9754C30.4871 56.1512 30.2486 56.25 30 56.25ZM37.5 33.75C37.5 35.2334 37.0601 36.6834 36.236 37.9168C35.4119 39.1501 34.2406 40.1114 32.8701 40.6791C31.4997 41.2468 29.9917 41.3953 28.5368 41.1059C27.082 40.8165 25.7456 40.1022 24.6967 39.0533C23.6478 38.0044 22.9335 36.668 22.6441 35.2132C22.3547 33.7583 22.5032 32.2503 23.0709 30.8799C23.6386 29.5094 24.5999 28.3381 25.8332 27.514C27.0666 26.6899 28.5166 26.25 30 26.25C31.9891 26.25 33.8968 27.0402 35.3033 28.4467C36.7098 29.8532 37.5 31.7609 37.5 33.75ZM38.4375 9.375H32.8125C32.5639 9.375 32.3254 9.47377 32.1496 9.64959C31.9738 9.8254 31.875 10.0639 31.875 10.3125V15H28.125V10.3125C28.125 10.0639 28.0262 9.8254 27.8504 9.64959C27.6746 9.47377 27.4361 9.375 27.1875 9.375H21.5625V5.625H38.4375V9.375ZM56.25 11.25H48.75V3.75H56.25V11.25Z" fill="#A783FF"/>
</svg>
