<svg width="77" height="98" viewBox="0 0 77 98" fill="none" xmlns="http://www.w3.org/2000/svg">
<path d="M38.5 24.3833H15.4C15.4 24.3833 8.98334 24.3833 8.98334 38.5C8.98334 52.6167 15.4 52.6167 15.4 52.6167H21.8167C21.8167 52.6167 21.8167 51.3333 21.8167 46.2C21.8167 41.0667 25.6667 37.2167 30.8 37.2167C35.9333 37.2167 42.333 37.2167 46.1915 37.2167C50.05 37.2167 52.6167 34.65 52.6698 30.7384C52.7229 26.8268 52.6167 15.4 52.6167 15.4C52.6167 15.4 52.6167 8.98334 38.5 8.98334C24.3833 8.98334 24.3833 15.4 24.3833 15.4V21.8167H38.5V24.3833Z" fill="#387EB8"/>
<path d="M38.5 52.6167H61.6C61.6 52.6167 68.0167 52.6167 68.0167 38.5C68.0167 24.3833 61.6 24.3833 61.6 24.3833H55.1834C55.1834 24.3833 55.1834 25.6667 55.1834 30.8C55.1834 35.9333 51.3334 39.7833 46.2 39.7833C41.0667 39.7833 34.65 39.7833 30.8 39.7833C26.95 39.7833 24.3834 42.35 24.3834 46.2C24.3834 50.05 24.3834 61.6 24.3834 61.6C24.3834 61.6 24.3834 68.0167 38.5 68.0167C52.6167 68.0167 52.6167 61.6 52.6167 61.6V55.1833H38.5V52.6167Z" fill="#FFC331"/>
<path d="M30.8 17.9667C32.2175 17.9667 33.3667 16.8175 33.3667 15.4C33.3667 13.9825 32.2175 12.8333 30.8 12.8333C29.3825 12.8333 28.2333 13.9825 28.2333 15.4C28.2333 16.8175 29.3825 17.9667 30.8 17.9667Z" fill="white"/>
<path d="M46.2 64.1667C47.6176 64.1667 48.7667 63.0175 48.7667 61.6C48.7667 60.1825 47.6176 59.0333 46.2 59.0333C44.7825 59.0333 43.6334 60.1825 43.6334 61.6C43.6334 63.0175 44.7825 64.1667 46.2 64.1667Z" fill="white"/>
<path d="M20.5054 83V75.7273H23.2327C23.7914 75.7273 24.2602 75.8314 24.6389 76.0398C25.0201 76.2481 25.3077 76.5346 25.5019 76.8991C25.6984 77.2614 25.7966 77.6733 25.7966 78.1349C25.7966 78.6013 25.6984 79.0156 25.5019 79.3778C25.3054 79.7401 25.0154 80.0253 24.6318 80.2337C24.2483 80.4396 23.776 80.5426 23.2149 80.5426H21.4074V79.4595H23.0374C23.3641 79.4595 23.6316 79.4027 23.8399 79.2891C24.0483 79.1754 24.2021 79.0192 24.3016 78.8203C24.4034 78.6214 24.4543 78.393 24.4543 78.1349C24.4543 77.8769 24.4034 77.6496 24.3016 77.4531C24.2021 77.2566 24.0471 77.1039 23.8364 76.995C23.628 76.8838 23.3593 76.8281 23.0303 76.8281H21.8229V83H20.5054ZM27.6831 85.0455C27.508 85.0455 27.3458 85.0313 27.1966 85.0028C27.0499 84.9768 26.9327 84.946 26.8451 84.9105L27.1434 83.9091C27.3304 83.9635 27.4973 83.9896 27.6441 83.9872C27.7909 83.9848 27.9199 83.9387 28.0312 83.8487C28.1448 83.7611 28.2407 83.6143 28.3188 83.4084L28.4289 83.1136L26.4509 77.5455H27.8145L29.0716 81.6648H29.1285L30.3891 77.5455H31.7563L29.5724 83.6605C29.4706 83.9493 29.3356 84.1967 29.1675 84.4027C28.9994 84.611 28.7935 84.7696 28.5496 84.8786C28.3081 84.9898 28.0193 85.0455 27.6831 85.0455ZM35.3696 77.5455V78.5398H32.2339V77.5455H35.3696ZM33.0081 76.2386H34.2936V81.3594C34.2936 81.5322 34.3196 81.6648 34.3717 81.7571C34.4262 81.8471 34.4972 81.9086 34.5848 81.9418C34.6724 81.9749 34.7694 81.9915 34.876 81.9915C34.9565 81.9915 35.0299 81.9856 35.0961 81.9737C35.1648 81.9619 35.2169 81.9512 35.2524 81.9418L35.469 82.9467C35.4004 82.9704 35.3021 82.9964 35.1743 83.0249C35.0488 83.0533 34.8949 83.0698 34.7126 83.0746C34.3907 83.084 34.1006 83.0355 33.8426 82.929C33.5845 82.8201 33.3798 82.652 33.2282 82.4247C33.0791 82.1974 33.0057 81.9134 33.0081 81.5724V76.2386ZM37.8474 79.804V83H36.5619V75.7273H37.819V78.4723H37.8829C38.0107 78.1645 38.2084 77.9219 38.4759 77.7443C38.7458 77.5644 39.0891 77.4744 39.5058 77.4744C39.8846 77.4744 40.2148 77.5537 40.4965 77.7124C40.7783 77.871 40.9961 78.103 41.1499 78.4084C41.3062 78.7138 41.3843 79.0866 41.3843 79.527V83H40.0988V79.7259C40.0988 79.3589 40.0041 79.0736 39.8147 78.87C39.6277 78.6641 39.3649 78.5611 39.0264 78.5611C38.7991 78.5611 38.5955 78.6108 38.4156 78.7102C38.238 78.8073 38.0983 78.9482 37.9965 79.1328C37.8971 79.3175 37.8474 79.5412 37.8474 79.804ZM45.074 83.1065C44.5413 83.1065 44.0796 82.9893 43.689 82.755C43.2984 82.5206 42.9954 82.1927 42.7799 81.7713C42.5669 81.3499 42.4603 80.8575 42.4603 80.294C42.4603 79.7306 42.5669 79.237 42.7799 78.8132C42.9954 78.3894 43.2984 78.0604 43.689 77.826C44.0796 77.5916 44.5413 77.4744 45.074 77.4744C45.6066 77.4744 46.0683 77.5916 46.4589 77.826C46.8495 78.0604 47.1514 78.3894 47.3644 78.8132C47.5799 79.237 47.6876 79.7306 47.6876 80.294C47.6876 80.8575 47.5799 81.3499 47.3644 81.7713C47.1514 82.1927 46.8495 82.5206 46.4589 82.755C46.0683 82.9893 45.6066 83.1065 45.074 83.1065ZM45.0811 82.0767C45.3699 82.0767 45.6114 81.9974 45.8055 81.8388C45.9996 81.6778 46.144 81.4624 46.2387 81.1925C46.3358 80.9226 46.3843 80.6219 46.3843 80.2905C46.3843 79.9567 46.3358 79.6548 46.2387 79.3849C46.144 79.1127 45.9996 78.8961 45.8055 78.7351C45.6114 78.5741 45.3699 78.4936 45.0811 78.4936C44.7851 78.4936 44.5389 78.5741 44.3424 78.7351C44.1483 78.8961 44.0027 79.1127 43.9056 79.3849C43.8109 79.6548 43.7636 79.9567 43.7636 80.2905C43.7636 80.6219 43.8109 80.9226 43.9056 81.1925C44.0027 81.4624 44.1483 81.6778 44.3424 81.8388C44.5389 81.9974 44.7851 82.0767 45.0811 82.0767ZM50.0642 79.804V83H48.7787V77.5455H50.0074V78.4723H50.0713C50.1968 78.1669 50.3968 77.9242 50.6714 77.7443C50.9484 77.5644 51.2905 77.4744 51.6977 77.4744C52.0741 77.4744 52.402 77.5549 52.6814 77.7159C52.9631 77.8769 53.1809 78.1101 53.3348 78.4155C53.491 78.7209 53.568 79.0914 53.5656 79.527V83H52.2801V79.7259C52.2801 79.3613 52.1854 79.076 51.996 78.87C51.809 78.6641 51.5497 78.5611 51.2183 78.5611C50.9934 78.5611 50.7934 78.6108 50.6182 78.7102C50.4453 78.8073 50.3092 78.9482 50.2098 79.1328C50.1127 79.3175 50.0642 79.5412 50.0642 79.804ZM8.83549 95V87.7273H11.5628C12.1215 87.7273 12.5902 87.8314 12.969 88.0398C13.3502 88.2481 13.6378 88.5346 13.8319 88.8991C14.0284 89.2614 14.1267 89.6733 14.1267 90.1349C14.1267 90.6013 14.0284 91.0156 13.8319 91.3778C13.6354 91.7401 13.3454 92.0253 12.9619 92.2337C12.5784 92.4396 12.1061 92.5426 11.545 92.5426H9.73748V91.4595H11.3675C11.6942 91.4595 11.9617 91.4027 12.17 91.2891C12.3783 91.1754 12.5322 91.0192 12.6317 90.8203C12.7335 90.6214 12.7844 90.393 12.7844 90.1349C12.7844 89.8769 12.7335 89.6496 12.6317 89.4531C12.5322 89.2566 12.3772 89.1039 12.1665 88.995C11.9581 88.8838 11.6894 88.8281 11.3604 88.8281H10.153V95H8.83549ZM16.0132 97.0455C15.838 97.0455 15.6759 97.0313 15.5267 97.0028C15.3799 96.9768 15.2628 96.946 15.1752 96.9105L15.4735 95.9091C15.6605 95.9635 15.8274 95.9896 15.9742 95.9872C16.1209 95.9848 16.25 95.9387 16.3612 95.8487C16.4749 95.7611 16.5708 95.6143 16.6489 95.4084L16.759 95.1136L14.781 89.5455H16.1446L17.4017 93.6648H17.4585L18.7192 89.5455H20.0864L17.9024 95.6605C17.8006 95.9493 17.6657 96.1967 17.4976 96.4027C17.3295 96.611 17.1236 96.7696 16.8797 96.8786C16.6382 96.9898 16.3494 97.0455 16.0132 97.0455ZM23.6997 89.5455V90.5398H20.564V89.5455H23.6997ZM21.3382 88.2386H22.6237V93.3594C22.6237 93.5322 22.6497 93.6648 22.7018 93.7571C22.7562 93.8471 22.8273 93.9086 22.9149 93.9418C23.0025 93.9749 23.0995 93.9915 23.2061 93.9915C23.2865 93.9915 23.3599 93.9856 23.4262 93.9737C23.4949 93.9619 23.547 93.9512 23.5825 93.9418L23.7991 94.9467C23.7304 94.9704 23.6322 94.9964 23.5044 95.0249C23.3789 95.0533 23.225 95.0698 23.0427 95.0746C22.7207 95.084 22.4307 95.0355 22.1727 94.929C21.9146 94.8201 21.7098 94.652 21.5583 94.4247C21.4092 94.1974 21.3358 93.9134 21.3382 93.5724V88.2386ZM27.1309 95.1065C26.5841 95.1065 26.1118 94.9929 25.714 94.7656C25.3187 94.536 25.0145 94.2116 24.8014 93.7926C24.5883 93.3712 24.4818 92.8752 24.4818 92.3047C24.4818 91.7436 24.5883 91.2512 24.8014 90.8274C25.0168 90.4013 25.3175 90.0698 25.7034 89.8331C26.0893 89.594 26.5426 89.4744 27.0635 89.4744C27.3997 89.4744 27.7169 89.5289 28.0152 89.6378C28.3158 89.7443 28.581 89.91 28.8106 90.1349C29.0426 90.3598 29.2249 90.6463 29.3575 90.9943C29.4901 91.34 29.5564 91.7519 29.5564 92.2301V92.6243H25.0855V91.7578H28.3241C28.3218 91.5116 28.2685 91.2926 28.1643 91.1009C28.0602 90.9067 27.9146 90.754 27.7275 90.6428C27.5429 90.5315 27.3274 90.4759 27.0812 90.4759C26.8184 90.4759 26.5876 90.5398 26.3888 90.6676C26.1899 90.7931 26.0348 90.9588 25.9236 91.1648C25.8147 91.3684 25.759 91.5921 25.7567 91.8359V92.5923C25.7567 92.9096 25.8147 93.1818 25.9307 93.4091C26.0467 93.634 26.2088 93.8068 26.4172 93.9276C26.6255 94.0459 26.8693 94.1051 27.1487 94.1051C27.3357 94.1051 27.505 94.0791 27.6565 94.027C27.808 93.9725 27.9394 93.8932 28.0507 93.7891C28.162 93.6849 28.246 93.5559 28.3028 93.402L29.5031 93.5369C29.4273 93.8542 29.2829 94.1312 29.0699 94.3679C28.8592 94.6023 28.5893 94.7846 28.2602 94.9148C27.9311 95.0426 27.5547 95.1065 27.1309 95.1065ZM34.955 90.9872L33.7831 91.1151C33.75 90.9967 33.692 90.8854 33.6091 90.7812C33.5286 90.6771 33.4197 90.593 33.2824 90.5291C33.1451 90.4652 32.977 90.4332 32.7781 90.4332C32.5106 90.4332 32.2857 90.4912 32.1034 90.6072C31.9235 90.7232 31.8347 90.8736 31.8371 91.0582C31.8347 91.2169 31.8927 91.3459 32.0111 91.4453C32.1318 91.5447 32.3307 91.6264 32.6077 91.6903L33.5381 91.8892C34.0542 92.0005 34.4377 92.1768 34.6887 92.4183C34.942 92.6598 35.0698 92.9759 35.0722 93.3665C35.0698 93.7098 34.9692 94.0128 34.7703 94.2756C34.5738 94.536 34.3004 94.7396 33.95 94.8864C33.5996 95.0331 33.1972 95.1065 32.7426 95.1065C32.075 95.1065 31.5376 94.9669 31.1304 94.6875C30.7232 94.4058 30.4806 94.014 30.4024 93.5121L31.656 93.3913C31.7128 93.6375 31.8335 93.8234 32.0182 93.9489C32.2029 94.0743 32.4432 94.1371 32.7391 94.1371C33.0445 94.1371 33.2895 94.0743 33.4742 93.9489C33.6612 93.8234 33.7547 93.6683 33.7547 93.4837C33.7547 93.3274 33.6943 93.1984 33.5736 93.0966C33.4552 92.9948 33.2706 92.9167 33.0196 92.8622L32.0892 92.6669C31.566 92.558 31.1789 92.3745 30.928 92.1165C30.6771 91.8561 30.5528 91.527 30.5551 91.1293C30.5528 90.7931 30.6439 90.5019 30.8286 90.2557C31.0156 90.0071 31.2748 89.8153 31.6063 89.6804C31.9401 89.5431 32.3248 89.4744 32.7604 89.4744C33.3996 89.4744 33.9027 89.6106 34.2696 89.8828C34.6389 90.1551 34.8674 90.5232 34.955 90.9872ZM40.4433 90.9872L39.2714 91.1151C39.2383 90.9967 39.1802 90.8854 39.0974 90.7812C39.0169 90.6771 38.908 90.593 38.7707 90.5291C38.6334 90.4652 38.4653 90.4332 38.2664 90.4332C37.9989 90.4332 37.774 90.4912 37.5917 90.6072C37.4118 90.7232 37.323 90.8736 37.3254 91.0582C37.323 91.2169 37.381 91.3459 37.4994 91.4453C37.6201 91.5447 37.819 91.6264 38.096 91.6903L39.0264 91.8892C39.5425 92.0005 39.926 92.1768 40.1769 92.4183C40.4302 92.6598 40.5581 92.9759 40.5605 93.3665C40.5581 93.7098 40.4575 94.0128 40.2586 94.2756C40.0621 94.536 39.7887 94.7396 39.4383 94.8864C39.0879 95.0331 38.6855 95.1065 38.2309 95.1065C37.5633 95.1065 37.0259 94.9669 36.6187 94.6875C36.2115 94.4058 35.9688 94.014 35.8907 93.5121L37.1443 93.3913C37.2011 93.6375 37.3218 93.8234 37.5065 93.9489C37.6911 94.0743 37.9314 94.1371 38.2274 94.1371C38.5328 94.1371 38.7778 94.0743 38.9624 93.9489C39.1495 93.8234 39.243 93.6683 39.243 93.4837C39.243 93.3274 39.1826 93.1984 39.0619 93.0966C38.9435 92.9948 38.7588 92.9167 38.5079 92.8622L37.5775 92.6669C37.0543 92.558 36.6672 92.3745 36.4163 92.1165C36.1653 91.8561 36.041 91.527 36.0434 91.1293C36.041 90.7931 36.1322 90.5019 36.3169 90.2557C36.5039 90.0071 36.7631 89.8153 37.0945 89.6804C37.4284 89.5431 37.8131 89.4744 38.2487 89.4744C38.8879 89.4744 39.391 89.6106 39.7579 89.8828C40.1272 90.1551 40.3557 90.5232 40.4433 90.9872ZM43.1901 95.1101C42.8444 95.1101 42.5331 95.0485 42.2561 94.9254C41.9815 94.8 41.7637 94.6153 41.6027 94.3714C41.4441 94.1276 41.3648 93.8269 41.3648 93.4695C41.3648 93.1617 41.4216 92.9072 41.5352 92.706C41.6489 92.5047 41.8039 92.3438 42.0004 92.223C42.1969 92.1023 42.4183 92.0111 42.6645 91.9496C42.9131 91.8857 43.17 91.8395 43.4351 91.8111C43.7547 91.7779 44.0139 91.7483 44.2128 91.7223C44.4117 91.6939 44.5561 91.6513 44.646 91.5945C44.7384 91.5353 44.7845 91.4441 44.7845 91.321V91.2997C44.7845 91.0322 44.7052 90.825 44.5466 90.6783C44.388 90.5315 44.1595 90.4581 43.8612 90.4581C43.5464 90.4581 43.2966 90.5268 43.1119 90.6641C42.9297 90.8014 42.8066 90.9635 42.7426 91.1506L41.5423 90.9801C41.637 90.6487 41.7933 90.3717 42.0111 90.1491C42.2289 89.9242 42.4952 89.7562 42.8101 89.6449C43.125 89.5312 43.473 89.4744 43.8541 89.4744C44.1169 89.4744 44.3785 89.5052 44.6389 89.5668C44.8994 89.6283 45.1373 89.7301 45.3527 89.8722C45.5682 90.0118 45.741 90.2024 45.8712 90.4439C46.0038 90.6854 46.07 90.9872 46.07 91.3494V95H44.8343V94.2507H44.7916C44.7135 94.4022 44.6034 94.5443 44.4614 94.6768C44.3217 94.8071 44.1453 94.9124 43.9323 94.9929C43.7216 95.071 43.4742 95.1101 43.1901 95.1101ZM43.5239 94.1655C43.7819 94.1655 44.0057 94.1146 44.195 94.0128C44.3844 93.9086 44.53 93.7713 44.6318 93.6009C44.736 93.4304 44.7881 93.2446 44.7881 93.0433V92.4006C44.7478 92.4337 44.6792 92.4645 44.5821 92.4929C44.4874 92.5213 44.3809 92.5462 44.2625 92.5675C44.1441 92.5888 44.027 92.6077 43.911 92.6243C43.795 92.6409 43.6943 92.6551 43.6091 92.6669C43.4173 92.6929 43.2457 92.7356 43.0942 92.7947C42.9427 92.8539 42.8231 92.9368 42.7355 93.0433C42.6479 93.1475 42.6041 93.2824 42.6041 93.4482C42.6041 93.6849 42.6905 93.8636 42.8634 93.9844C43.0362 94.1051 43.2564 94.1655 43.5239 94.1655ZM47.3627 95V89.5455H48.6091V90.4545H48.6659C48.7654 90.1397 48.9358 89.897 49.1773 89.7266C49.4211 89.5537 49.6993 89.4673 50.0118 89.4673C50.0828 89.4673 50.1621 89.4709 50.2497 89.478C50.3397 89.4827 50.4143 89.491 50.4735 89.5028V90.6854C50.419 90.6664 50.3326 90.6499 50.2142 90.6357C50.0982 90.6191 49.9858 90.6108 49.8769 90.6108C49.6425 90.6108 49.4318 90.6617 49.2448 90.7635C49.0601 90.8629 48.9145 91.0014 48.808 91.179C48.7014 91.3565 48.6482 91.5613 48.6482 91.7933V95H47.3627ZM52.7994 95.1101C52.4538 95.1101 52.1425 95.0485 51.8655 94.9254C51.5909 94.8 51.3731 94.6153 51.2121 94.3714C51.0535 94.1276 50.9742 93.8269 50.9742 93.4695C50.9742 93.1617 51.031 92.9072 51.1446 92.706C51.2583 92.5047 51.4133 92.3438 51.6098 92.223C51.8063 92.1023 52.0277 92.0111 52.2739 91.9496C52.5225 91.8857 52.7793 91.8395 53.0445 91.8111C53.3641 91.7779 53.6233 91.7483 53.8222 91.7223C54.021 91.6939 54.1655 91.6513 54.2554 91.5945C54.3477 91.5353 54.3939 91.4441 54.3939 91.321V91.2997C54.3939 91.0322 54.3146 90.825 54.156 90.6783C53.9974 90.5315 53.7689 90.4581 53.4706 90.4581C53.1557 90.4581 52.906 90.5268 52.7213 90.6641C52.539 90.8014 52.4159 90.9635 52.352 91.1506L51.1517 90.9801C51.2464 90.6487 51.4027 90.3717 51.6205 90.1491C51.8383 89.9242 52.1046 89.7562 52.4195 89.6449C52.7343 89.5312 53.0824 89.4744 53.4635 89.4744C53.7263 89.4744 53.9879 89.5052 54.2483 89.5668C54.5087 89.6283 54.7467 89.7301 54.9621 89.8722C55.1775 90.0118 55.3503 90.2024 55.4806 90.4439C55.6131 90.6854 55.6794 90.9872 55.6794 91.3494V95H54.4436V94.2507H54.401C54.3229 94.4022 54.2128 94.5443 54.0708 94.6768C53.9311 94.8071 53.7547 94.9124 53.5416 94.9929C53.3309 95.071 53.0835 95.1101 52.7994 95.1101ZM53.1333 94.1655C53.3913 94.1655 53.615 94.1146 53.8044 94.0128C53.9938 93.9086 54.1394 93.7713 54.2412 93.6009C54.3454 93.4304 54.3975 93.2446 54.3975 93.0433V92.4006C54.3572 92.4337 54.2886 92.4645 54.1915 92.4929C54.0968 92.5213 53.9903 92.5462 53.8719 92.5675C53.7535 92.5888 53.6363 92.6077 53.5203 92.6243C53.4043 92.6409 53.3037 92.6551 53.2185 92.6669C53.0267 92.6929 52.8551 92.7356 52.7036 92.7947C52.5521 92.8539 52.4325 92.9368 52.3449 93.0433C52.2573 93.1475 52.2135 93.2824 52.2135 93.4482C52.2135 93.6849 52.2999 93.8636 52.4727 93.9844C52.6456 94.1051 52.8657 94.1655 53.1333 94.1655ZM59.3513 95.1065C58.8068 95.1065 58.3392 94.987 57.9486 94.7479C57.5603 94.5088 57.2609 94.1785 57.0502 93.7571C56.8418 93.3333 56.7377 92.8456 56.7377 92.294C56.7377 91.7401 56.8442 91.2512 57.0573 90.8274C57.2703 90.4013 57.571 90.0698 57.9593 89.8331C58.3499 89.594 58.8115 89.4744 59.3442 89.4744C59.7869 89.4744 60.1787 89.5561 60.5196 89.7195C60.8629 89.8804 61.1363 90.1089 61.3399 90.4048C61.5435 90.6984 61.6595 91.0417 61.6879 91.4347H60.4593C60.4095 91.1719 60.2912 90.9529 60.1041 90.7777C59.9195 90.6001 59.6721 90.5114 59.3619 90.5114C59.0992 90.5114 58.8683 90.5824 58.6695 90.7244C58.4706 90.8641 58.3155 91.0653 58.2043 91.3281C58.0954 91.5909 58.0409 91.9058 58.0409 92.2727C58.0409 92.6444 58.0954 92.964 58.2043 93.2315C58.3132 93.4967 58.4659 93.7015 58.6624 93.8459C58.8612 93.9879 59.0944 94.0589 59.3619 94.0589C59.5513 94.0589 59.7206 94.0234 59.8698 93.9524C60.0213 93.879 60.1479 93.7737 60.2497 93.6364C60.3515 93.4991 60.4214 93.3321 60.4593 93.1357H61.6879C61.6572 93.5215 61.5435 93.8636 61.347 94.1619C61.1505 94.4579 60.883 94.6899 60.5445 94.858C60.2059 95.0237 59.8082 95.1065 59.3513 95.1065ZM65.4672 89.5455V90.5398H62.3316V89.5455H65.4672ZM63.1057 88.2386H64.3912V93.3594C64.3912 93.5322 64.4173 93.6648 64.4694 93.7571C64.5238 93.8471 64.5948 93.9086 64.6824 93.9418C64.77 93.9749 64.8671 93.9915 64.9736 93.9915C65.0541 93.9915 65.1275 93.9856 65.1938 93.9737C65.2625 93.9619 65.3145 93.9512 65.3501 93.9418L65.5667 94.9467C65.498 94.9704 65.3998 94.9964 65.2719 95.0249C65.1465 95.0533 64.9926 95.0698 64.8103 95.0746C64.4883 95.084 64.1983 95.0355 63.9403 94.929C63.6822 94.8201 63.4774 94.652 63.3259 94.4247C63.1768 94.1974 63.1034 93.9134 63.1057 93.5724V88.2386Z" fill="white"/>
</svg>
