<svg width="61" height="61" viewBox="0 0 61 61" fill="none" xmlns="http://www.w3.org/2000/svg">
<path d="M30.5 16.3833H7.4C7.4 16.3833 0.983337 16.3833 0.983337 30.5C0.983337 44.6167 7.4 44.6167 7.4 44.6167H13.8167C13.8167 44.6167 13.8167 43.3333 13.8167 38.2C13.8167 33.0667 17.6667 29.2167 22.8 29.2167C27.9333 29.2167 34.333 29.2167 38.1915 29.2167C42.05 29.2167 44.6167 26.65 44.6698 22.7384C44.7229 18.8268 44.6167 7.4 44.6167 7.4C44.6167 7.4 44.6167 0.983337 30.5 0.983337C16.3833 0.983337 16.3833 7.4 16.3833 7.4V13.8167H30.5V16.3833Z" fill="#387EB8"/>
<path d="M30.5 44.6167H53.6C53.6 44.6167 60.0167 44.6167 60.0167 30.5C60.0167 16.3833 53.6 16.3833 53.6 16.3833H47.1834C47.1834 16.3833 47.1834 17.6667 47.1834 22.8C47.1834 27.9333 43.3334 31.7833 38.2 31.7833C33.0667 31.7833 26.65 31.7833 22.8 31.7833C18.95 31.7833 16.3834 34.35 16.3834 38.2C16.3834 42.05 16.3834 53.6 16.3834 53.6C16.3834 53.6 16.3834 60.0167 30.5 60.0167C44.6167 60.0167 44.6167 53.6 44.6167 53.6V47.1833H30.5V44.6167Z" fill="#FFC331"/>
<path d="M22.8 9.96668C24.2175 9.96668 25.3667 8.81754 25.3667 7.40001C25.3667 5.98248 24.2175 4.83334 22.8 4.83334C21.3825 4.83334 20.2333 5.98248 20.2333 7.40001C20.2333 8.81754 21.3825 9.96668 22.8 9.96668Z" fill="white"/>
<path d="M38.2 56.1667C39.6176 56.1667 40.7667 55.0175 40.7667 53.6C40.7667 52.1825 39.6176 51.0333 38.2 51.0333C36.7825 51.0333 35.6334 52.1825 35.6334 53.6C35.6334 55.0175 36.7825 56.1667 38.2 56.1667Z" fill="white"/>
</svg>
