<svg width="224" height="56" viewBox="0 0 224 56" fill="none" xmlns="http://www.w3.org/2000/svg">
<g clip-path="url(#clip0_68_121)">
<path d="M28.7297 12.7654L25.6959 15.8403C30.6604 20.8719 30.6604 28.9784 25.6959 33.9168C20.7314 38.9484 12.733 38.9484 7.86046 33.9168C2.89596 28.8852 2.89596 20.7787 7.86046 15.8403L15.7209 7.87354L16.8241 6.75542V0.745422L4.9645 12.7654C-1.65483 19.4742 -1.65483 30.2829 4.9645 36.9917C11.5838 43.7005 22.2483 43.7005 28.7297 36.9917C35.3491 30.2363 35.3491 19.4742 28.7297 12.7654Z" fill="#EE4C2C"/>
<path d="M22.7999 12.02C24.0185 12.02 25.0064 11.0187 25.0064 9.78369C25.0064 8.54863 24.0185 7.54739 22.7999 7.54739C21.5813 7.54739 20.5935 8.54863 20.5935 9.78369C20.5935 11.0187 21.5813 12.02 22.7999 12.02Z" fill="#EE4C2C"/>
<path d="M59.3901 28.1398H54.2877V41.4176H50.4264V3.63394C50.4264 3.63394 59.2522 3.63394 59.8038 3.63394C69.5949 3.63394 74.2836 8.52579 74.2836 15.3744C74.4215 23.807 68.6296 28.1398 59.3901 28.1398ZM59.8038 7.40764C59.3901 7.40764 54.4256 7.40764 54.4256 7.40764V24.7853L59.6659 24.6456C66.699 24.5058 70.5602 21.7105 70.5602 15.8403C70.5602 10.3428 66.699 7.40764 59.8038 7.40764Z" fill="white"/>
<path d="M91.5674 41.2779L89.361 47.2879C86.8787 53.9967 84.2586 55.9534 80.5352 55.9534C78.4667 55.9534 76.9497 55.3943 75.2949 54.6955L76.3981 51.2013C77.6392 51.9002 79.0183 52.4592 80.5352 52.4592C82.6037 52.4592 84.1207 51.3411 86.1892 46.0299L87.9819 41.1381L77.3634 13.8369H81.3626L89.9126 36.6655L98.3247 13.8369H102.186L91.5674 41.2779Z" fill="white"/>
<path d="M114.781 7.40765V41.5574H110.92V7.40765H97.819V3.77371H127.79V7.40765C127.744 7.40765 114.781 7.40765 114.781 7.40765Z" fill="white"/>
<path d="M138.684 42.2562C131.1 42.2562 125.583 36.5258 125.583 27.7205C125.583 18.9151 131.375 13.0449 139.098 13.0449C146.82 13.0449 152.199 18.7753 152.199 27.5807C152.061 36.386 146.269 42.2562 138.684 42.2562ZM138.822 16.5391C133.03 16.5391 129.307 21.1514 129.307 27.7205C129.307 34.4293 133.168 39.0416 138.96 39.0416C144.752 39.0416 148.475 34.4293 148.475 27.8602C148.475 21.0116 144.614 16.5391 138.822 16.5391Z" fill="white"/>
<path d="M161.438 41.5574H157.715V13.8369L161.438 12.9983V18.8686C163.231 15.3744 165.851 12.9983 169.436 12.9983C171.229 12.9983 172.884 13.5574 174.263 14.2562L173.298 17.7504C172.057 17.0516 170.678 16.4925 169.161 16.4925C166.265 16.4925 163.645 18.7288 161.438 23.6206V41.5574Z" fill="white"/>
<path d="M188.789 42.2562C180.515 42.2562 175.412 36.2463 175.412 27.7205C175.412 19.0549 181.066 13.0449 188.789 13.0449C192.099 13.0449 194.994 13.8835 197.339 15.421L196.373 18.7754C194.305 17.3777 191.685 16.5391 188.789 16.5391C182.859 16.5391 179.274 21.0116 179.274 27.5807C179.274 34.2895 183.135 38.762 188.927 38.762C191.685 38.762 194.443 37.9234 196.511 36.5258L197.339 40.0199C194.857 41.4176 191.961 42.2562 188.789 42.2562Z" fill="white"/>
<path d="M220.139 41.5574V23.6206C220.139 18.7288 218.208 16.6323 214.347 16.6323C211.175 16.6323 208.141 18.3095 205.935 20.5457V41.5574H202.211V0.838597L205.935 0C205.935 0 205.935 17.3777 205.935 17.5175C208.831 14.5824 212.416 13.1847 215.45 13.1847C220.69 13.1847 224 16.6788 224 22.6888V41.604H220.139V41.5574Z" fill="white"/>
</g>
<defs>
<clipPath id="clip0_68_121">
<rect width="224" height="56" fill="white"/>
</clipPath>
</defs>
</svg>
