<svg width="141" height="69" viewBox="0 0 141 69" fill="none" xmlns="http://www.w3.org/2000/svg">
<path d="M102.347 14.1915V38.7134H108.181V31.3192H120.822V38.6596H126.657V14.1915H102.347ZM120.822 25.4468H108.181V20.0638H120.822V25.4468ZM96.9983 27.6489V38.6596H73.1741V32.7872H91.1638V29.3617H73.1741V14.1915H96.9983V20.0638H79.0086V23.4894H96.9983V27.6489ZM43.5155 14.1915V38.7134H49.35V31.3192H61.9914V38.6596H67.8259V14.1915H43.5155ZM61.9914 25.4468H49.35V20.0638H61.9914V25.4468ZM30.3442 29.3323L37.8123 26.5968L38.1672 26.4549V14.1915H14.3431V38.6596H20.0998V33.076L24.4756 31.4806L31.0637 38.6596H38.2693L30.3442 29.3323ZM20.1338 26.8268V20.0638H32.3328V22.3541L20.1338 26.8268Z" fill="white"/>
<path d="M120.166 44.3068H131.791V9.02383H9.20875V44.3068H96.726L120.156 55.9634V44.3068H120.166ZM2.67413 2.44681H138.326V50.8936H126.701V66.5532L95.209 50.8936H2.67413V2.44681Z" fill="white"/>
</svg>
