<svg width="51" height="51" viewBox="0 0 51 51" fill="none" xmlns="http://www.w3.org/2000/svg">
<g clip-path="url(#clip0_191_527)">
<path fill-rule="evenodd" clip-rule="evenodd" d="M10.6285 46.2139L11.0944 47.8456C11.2305 48.3224 10.9534 48.8215 10.4765 48.9575C10.3957 48.9805 10.3129 48.9923 10.229 48.9923C9.82813 48.9923 9.47462 48.7253 9.36445 48.3391L8.11954 43.9756C8.04363 43.7093 8.09384 43.4238 8.2571 43.1999C8.41986 42.9766 8.67565 42.8401 8.95177 42.8301L13.4865 42.6665C13.9809 42.6486 14.4015 43.0383 14.4187 43.5333C14.436 44.029 14.0476 44.4473 13.5516 44.4651L11.3903 44.5427C14.7962 47.0728 18.7938 48.6232 23.019 49.068C26.1121 49.3935 29.2462 49.1192 32.2295 48.236C35.2182 47.3513 37.9888 45.8795 40.4105 43.9191C45.3307 39.9362 48.4053 34.2756 49.0682 27.9803C49.3385 25.4145 49.1975 22.8237 48.6324 20.3058C48.1023 17.9447 47.2079 15.685 45.991 13.594C45.7415 13.1652 45.8875 12.6139 46.316 12.3642C46.7448 12.1144 47.2964 12.2603 47.546 12.689C48.853 14.9336 49.8138 17.3595 50.3844 19.894C50.9957 22.609 51.1484 25.4019 50.8571 28.1689C50.1443 34.9415 46.8356 41.0326 41.5428 45.3175C36.9916 49.0019 31.4019 51.0001 25.5477 51.0001C24.6401 51.0001 23.7328 50.9518 22.8303 50.8568C18.4147 50.3916 14.2276 48.8035 10.6285 46.2139ZM41.5615 26.3569L26.9862 26.3507L34.3699 38.9114C38.4912 36.1766 41.2853 31.5951 41.5615 26.3569ZM25.5 41.5846C28.1687 41.5846 30.688 40.9302 32.9056 39.7752L24.7667 25.9299C24.6905 25.8003 24.6498 25.6515 24.6498 25.4996V9.43668C16.1744 9.87964 9.41486 16.9156 9.41486 25.4995C9.41486 34.3693 16.6301 41.5846 25.5 41.5846ZM26.3501 9.43668V24.6495L41.5631 24.657C41.1379 16.4586 34.5473 9.8659 26.3501 9.43668ZM40.3714 4.78582C36.7721 2.19398 32.5866 0.607604 28.1696 0.142627C24.8388 -0.207998 21.4635 0.0881409 18.251 1.04001C15.0387 1.99197 12.0604 3.57427 9.45709 5.68161C4.16385 9.9664 0.855621 16.0574 0.142717 22.8302C-0.147346 25.5861 0.00316395 28.3693 0.608689 31.0744C1.17845 33.6199 2.14168 36.0563 3.45393 38.3101C3.6155 38.5876 3.91174 38.7566 4.23188 38.7566C4.39106 38.7566 4.54615 38.715 4.68381 38.635C5.11283 38.3854 5.25806 37.8341 5.00844 37.4052C3.78971 35.3116 2.89482 33.0485 2.3653 30.6842C1.80191 28.1691 1.66186 25.5814 1.9317 23.0188C2.5948 16.7235 5.66924 11.063 10.5894 7.08012C13.015 5.11662 15.7908 3.6434 18.7847 2.75917C21.7635 1.87942 24.8926 1.60629 27.9804 1.93121C32.208 2.37597 36.2025 3.92509 39.6097 6.45647L37.4479 6.53406C36.9519 6.55179 36.5636 6.97015 36.5813 7.46601C36.5985 7.94891 36.9969 8.33291 37.4798 8.33291C37.4922 8.33291 37.5043 8.33271 37.5167 8.33151L42.0483 8.16905C42.3242 8.15919 42.5804 8.02243 42.7431 7.7993C42.9062 7.57538 42.9565 7.2899 42.8806 7.02354L41.6358 2.65996C41.4997 2.18293 41.0007 1.90571 40.5238 2.04158C40.0468 2.17745 39.7691 2.67689 39.9054 3.15372L40.3714 4.78582Z" fill="white"/>
</g>
<defs>
<clipPath id="clip0_191_527">
<rect width="51" height="51" fill="white"/>
</clipPath>
</defs>
</svg>
