<svg width="66" height="66" viewBox="0 0 66 66" fill="none" xmlns="http://www.w3.org/2000/svg">
<path d="M9.375 42.1012V40.875C9.375 39.0142 10.8893 37.5 12.75 37.5H31.875V42.1012C32.2418 42.0394 32.6164 42 33 42C33.3836 42 33.7582 42.0394 34.125 42.1012V37.5H53.25C55.1107 37.5 56.625 39.0142 56.625 40.875V42.1012C56.9917 42.0394 57.3664 42 57.75 42C58.1336 42 58.5083 42.0394 58.875 42.1012V40.875C58.875 37.7734 56.3516 35.25 53.25 35.25H34.125V31.4486H31.875V35.25H12.75C9.64838 35.25 7.125 37.7734 7.125 40.875V42.1012C7.49175 42.0394 7.86638 42 8.25 42C8.63363 42 9.00825 42.0394 9.375 42.1012Z" fill="white"/>
<path d="M24.1361 22.875C24.4736 22.875 24.7897 22.7434 25.0282 22.506L25.881 21.6532C26.1184 21.4147 26.25 21.0986 26.25 20.7611C26.25 20.0659 25.6841 19.5 24.9889 19.5C24.6514 19.5 24.3353 19.6316 24.0968 19.869L23.244 20.7218C23.0066 20.9603 22.875 21.2764 22.875 21.6139C22.875 22.3091 23.4409 22.875 24.1361 22.875Z" fill="white"/>
<path d="M27.5111 26.25C27.8486 26.25 28.1647 26.1184 28.4032 25.881L29.256 25.0282C29.4934 24.7897 29.625 24.4736 29.625 24.1361C29.625 23.4409 29.0591 22.875 28.3639 22.875C28.0264 22.875 27.7103 23.0066 27.4718 23.244L26.619 24.0968C26.3816 24.3353 26.25 24.6514 26.25 24.9889C26.25 25.6841 26.8159 26.25 27.5111 26.25Z" fill="white"/>
<path d="M27.375 10.0343C27.375 10.2908 27.5842 10.5 27.8407 10.5H32.0674C32.3677 10.5 32.6512 10.383 32.8639 10.1704L34.7842 8.25H36.5674C38.319 8.25 39.966 7.56825 41.2046 6.32963L42.7954 7.92037C42.4939 8.22187 42.1688 8.49075 41.8324 8.74162L47.0051 13.9144C48.1313 12.4507 48.7489 10.6721 48.7489 8.79562C48.75 4.15275 44.9722 0.375 40.3294 0.375C38.0794 0.375 35.9655 1.25137 34.3748 2.841L27.5111 9.70463C27.4245 9.79125 27.375 9.91163 27.375 10.0343Z" fill="white"/>
<path d="M21.6139 16.125C21.2764 16.125 20.9603 16.2566 20.7218 16.494L19.869 17.3468C19.6316 17.5853 19.5 17.9014 19.5 18.2389C19.5 18.9341 20.0659 19.5 20.7611 19.5C21.0986 19.5 21.4147 19.3684 21.6532 19.131L22.506 18.2782C22.7434 18.0397 22.875 17.7236 22.875 17.3861C22.875 16.6909 22.3091 16.125 21.6139 16.125Z" fill="white"/>
<path d="M30.8861 29.625C31.2236 29.625 31.5397 29.4934 31.7782 29.256L32.631 28.4032C32.8684 28.1647 33 27.8486 33 27.5111C33 26.8159 32.4341 26.25 31.7389 26.25C31.4014 26.25 31.0853 26.3816 30.8468 26.619L29.994 27.4718C29.7566 27.7103 29.625 28.0264 29.625 28.3639C29.625 29.0591 30.1909 29.625 30.8861 29.625Z" fill="white"/>
<path d="M21.6139 13.875C23.5084 13.875 25.0463 15.3847 25.1126 17.2624C26.9486 17.3276 28.4224 18.8014 28.4876 20.6374C30.3236 20.7026 31.7974 22.1764 31.8626 24.0124C33.7402 24.0787 35.25 25.6178 35.25 27.5111C35.25 27.9893 35.1521 28.4527 34.971 28.8802L35.3467 29.256C35.5852 29.4934 35.9014 29.625 36.2389 29.625C36.9341 29.625 37.5 29.0591 37.5 28.3639C37.5 28.0264 37.3684 27.7103 37.131 27.4718L32.2046 22.5454L33.7954 20.9546L38.7217 25.881C38.9602 26.1184 39.2764 26.25 39.6139 26.25C40.3091 26.25 40.875 25.6841 40.875 24.9889C40.875 24.6514 40.7434 24.3353 40.506 24.0968L35.5796 19.1704L37.1704 17.5796L42.0967 22.506C42.3352 22.7434 42.6514 22.875 42.9889 22.875C43.6841 22.875 44.25 22.3091 44.25 21.6139C44.25 21.2764 44.1184 20.9603 43.881 20.7218L38.9546 15.7954L40.5454 14.2046L45.4717 19.131C45.7102 19.3684 46.0264 19.5 46.3639 19.5C47.0591 19.5 47.625 18.9341 47.625 18.2389C47.625 17.9014 47.4934 17.5853 47.256 17.3468L39.795 9.88575C38.7803 10.2851 37.6913 10.5 36.5674 10.5H35.7158L34.4546 11.7611C33.8179 12.399 32.9696 12.75 32.0674 12.75H27.8407C26.3434 12.75 25.125 11.5316 25.125 10.0343C25.125 9.30863 25.4074 8.62687 25.9204 8.11387L31.3991 2.63512C29.8354 1.1805 27.8171 0.375 25.6706 0.375C21.0278 0.375 17.25 4.15275 17.25 8.79562C17.25 10.9601 18.0679 12.9941 19.5461 14.5624C20.1435 14.1225 20.8567 13.875 21.6139 13.875Z" fill="white"/>
<path d="M33 55.5C28.6575 55.5 25.125 59.0325 25.125 63.375V65.625H27.375V61.125H29.625V65.625H36.375V61.125H38.625V65.625H40.875V63.375C40.875 59.0325 37.3425 55.5 33 55.5Z" fill="white"/>
<path d="M33 53.25C35.4853 53.25 37.5 51.2353 37.5 48.75C37.5 46.2647 35.4853 44.25 33 44.25C30.5147 44.25 28.5 46.2647 28.5 48.75C28.5 51.2353 30.5147 53.25 33 53.25Z" fill="white"/>
<path d="M57.75 55.5C53.4075 55.5 49.875 59.0325 49.875 63.375V65.625H52.125V61.125H54.375V65.625H61.125V61.125H63.375V65.625H65.625V63.375C65.625 59.0325 62.0925 55.5 57.75 55.5Z" fill="white"/>
<path d="M57.75 53.25C60.2353 53.25 62.25 51.2353 62.25 48.75C62.25 46.2647 60.2353 44.25 57.75 44.25C55.2647 44.25 53.25 46.2647 53.25 48.75C53.25 51.2353 55.2647 53.25 57.75 53.25Z" fill="white"/>
<path d="M8.25 53.25C10.7353 53.25 12.75 51.2353 12.75 48.75C12.75 46.2647 10.7353 44.25 8.25 44.25C5.76472 44.25 3.75 46.2647 3.75 48.75C3.75 51.2353 5.76472 53.25 8.25 53.25Z" fill="white"/>
<path d="M8.25 55.5C3.9075 55.5 0.375 59.0325 0.375 63.375V65.625H2.625V61.125H4.875V65.625H11.625V61.125H13.875V65.625H16.125V63.375C16.125 59.0325 12.5925 55.5 8.25 55.5Z" fill="white"/>
<path d="M39.75 39.75H42V42H39.75V39.75Z" fill="white"/>
<path d="M44.25 39.75H46.5V42H44.25V39.75Z" fill="white"/>
<path d="M48.75 39.75H51V42H48.75V39.75Z" fill="white"/>
<path d="M15 39.75H17.25V42H15V39.75Z" fill="white"/>
<path d="M19.5 39.75H21.75V42H19.5V39.75Z" fill="white"/>
<path d="M24 39.75H26.25V42H24V39.75Z" fill="white"/>
</svg>
