<svg width="59" height="59" viewBox="0 0 59 59" fill="none" xmlns="http://www.w3.org/2000/svg">
<path d="M29.4939 32.1698C18.4157 32.1698 9.13221 28.9153 6.59759 24.5276C6.15196 25.2999 5.89185 26.1024 5.89185 26.9352V34.1156C5.89185 39.6627 16.4618 44.1633 29.4939 44.1633C42.534 44.1633 53.108 39.6627 53.108 34.1156V26.9352C53.108 26.1024 52.8438 25.2999 52.3942 24.5276C49.8596 28.9133 40.5841 32.1698 29.4939 32.1698Z" fill="white"/>
<path d="M29.4939 47.0024C18.4157 47.0024 9.13221 43.7439 6.59759 39.3643C6.15196 40.1325 5.89185 40.935 5.89185 41.7658V48.9523C5.89185 54.5014 16.4618 59 29.4939 59C42.534 59 53.108 54.5034 53.108 48.9523V41.7658C53.108 40.935 52.8438 40.1325 52.3942 39.3663C49.8596 43.7439 40.5841 47.0024 29.4939 47.0024Z" fill="white"/>
<path d="M52.4627 10.1667C51.999 14.2318 41.9129 17.4843 29.4939 17.4843C17.0809 17.4843 6.99482 14.2318 6.53306 10.1688C6.12777 10.9068 5.89185 11.677 5.89185 12.4695V19.6499C5.89185 25.199 16.4618 29.6976 29.4939 29.6976C42.534 29.6976 53.108 25.2011 53.108 19.6499V12.4695C53.108 11.677 52.868 10.9068 52.4627 10.1667Z" fill="white"/>
<path d="M29.4939 15.2057C42.2033 15.2057 52.501 11.804 52.501 7.60185C52.501 3.40369 42.2033 0 29.4939 0C16.7925 0.0020164 6.49072 3.40571 6.49072 7.60386C6.49072 11.804 16.7925 15.2057 29.4939 15.2057Z" fill="white"/>
</svg>
