<svg width="61" height="61" viewBox="0 0 61 61" fill="none" xmlns="http://www.w3.org/2000/svg">
<path fill-rule="evenodd" clip-rule="evenodd" d="M4.28906 9.16048H19.8056C21.1179 9.16048 22.1884 10.231 22.1884 11.5433V21.3041C22.1884 22.6166 21.118 23.6869 19.8056 23.6869H4.28906C2.97673 23.6869 1.90625 22.6166 1.90625 21.3041V11.5433C1.90625 10.231 2.97661 9.16048 4.28906 9.16048ZM59.0938 50.5615C59.0938 48.4253 57.5012 46.6936 55.5367 46.6936C54.1996 46.6936 53.0349 47.496 52.4272 48.682C52.3828 48.7687 52.2596 48.7687 52.2153 48.682C51.6077 47.496 50.4431 46.6936 49.1058 46.6936C47.1413 46.6936 45.5488 48.4253 45.5488 50.5615C45.5488 53.0029 50.1525 57.0883 51.7834 58.853C52.0801 59.174 52.5622 59.174 52.859 58.853C54.4899 57.0883 59.0936 53.003 59.0936 50.5615H59.0938ZM38.6402 1.90625H56.0483C57.7257 1.90625 59.0938 3.27434 59.0938 4.95172V13.8046C59.0938 15.4818 57.7257 16.8499 56.0483 16.8499H47.1797C47.0934 16.8499 47.0193 16.8765 46.9526 16.9313L41.8006 21.1684C41.5673 21.3604 41.2162 21.1945 41.2162 20.8924V17.2074C41.2162 17.0105 41.0556 16.8499 40.8588 16.8499H38.6402C36.9628 16.8499 35.5947 15.4818 35.5947 13.8046V4.95172C35.5947 3.27434 36.9628 1.90625 38.6402 1.90625ZM54.7375 12.0141H47.0516C46.6568 12.0141 46.3368 12.3342 46.3368 12.729C46.3368 13.1238 46.6568 13.4438 47.0516 13.4438H54.7375C55.1323 13.4438 55.4523 13.1238 55.4523 12.729C55.4523 12.3342 55.1323 12.0141 54.7375 12.0141ZM54.7375 5.31248H39.9511C39.5562 5.31248 39.2362 5.63249 39.2362 6.02732C39.2362 6.42216 39.5562 6.74217 39.9511 6.74217H54.7375C55.1323 6.74217 55.4523 6.42216 55.4523 6.02732C55.4523 5.63249 55.1323 5.31248 54.7375 5.31248ZM54.7375 8.66331H39.9511C39.5562 8.66331 39.2362 8.98332 39.2362 9.37815C39.2362 9.77299 39.5562 10.093 39.9511 10.093H54.7375C55.1323 10.093 55.4523 9.77299 55.4523 9.37815C55.4523 8.98332 55.1323 8.66331 54.7375 8.66331ZM41.6833 41.973C41.3425 41.7756 41.2262 41.3393 41.4235 40.9984C41.6209 40.6577 42.0572 40.5414 42.3981 40.7387L46.7781 43.2675C47.1189 43.4648 47.2351 43.9012 47.0378 44.242C46.8404 44.5829 46.4041 44.6991 46.0632 44.5018L41.6833 41.973ZM39.668 30.5524C39.4721 30.8933 39.037 31.0108 38.6963 30.8149C38.3555 30.619 38.2379 30.1839 38.4338 29.8432L40.9626 25.4631C41.1584 25.1222 41.5935 25.0048 41.9343 25.2006C42.275 25.3965 42.3926 25.8316 42.1968 26.1723L39.668 30.5524ZM43.0411 35.8473C42.6602 35.949 42.2688 35.7228 42.1671 35.3419C42.0653 34.961 42.2916 34.5696 42.6725 34.4679L47.5577 33.1589C47.9386 33.0571 48.33 33.2834 48.4317 33.6643C48.5335 34.0451 48.3072 34.4365 47.9263 34.5383L43.0411 35.8473ZM29.3219 23.2777C28.3494 23.5384 27.767 24.5471 28.0276 25.5196L34.8334 50.9188C35.0939 51.8913 36.1027 52.4737 37.0753 52.2131C38.0478 51.9525 38.6302 50.9436 38.3697 49.9713L31.564 24.572C31.3035 23.5997 30.2946 23.0171 29.3221 23.2777H29.3219ZM15.2868 47.5569C12.7959 48.1351 10.3525 48.9096 7.88187 49.5716C5.38682 50.2401 2.79837 48.7457 2.08472 46.0823C1.37107 43.419 2.86545 40.8306 5.36061 40.1619C7.83111 39.5 10.3345 38.949 12.7807 38.2042L15.2867 47.5568L15.2868 47.5569ZM35.6087 34.1436L37.4713 34.16C37.7428 34.1624 37.9711 34.3392 38.0414 34.6015L38.9645 38.0468C39.0348 38.3092 38.9255 38.5764 38.6915 38.7143L37.0867 39.6598L35.6086 34.1436H35.6087ZM14.141 37.7645C20.6443 35.5283 25.0095 31.9175 27.3549 28.5332L32.744 48.6454C29.0206 46.8872 23.4348 45.9429 16.6847 47.2578L14.1409 37.7646L14.141 37.7645ZM13.5689 49.4639C12.2007 49.8313 10.8411 50.233 9.4768 50.6158L13.7778 58.0654C14.3443 59.0466 15.6105 59.3859 16.5916 58.8194C17.5729 58.2529 17.9121 56.9866 17.3457 56.0055L13.5689 49.4639ZM15.1542 17.146C15.7119 16.8241 15.7119 16.0235 15.1542 15.7015L11.3232 13.4898C10.7657 13.1679 10.0723 13.5681 10.0723 14.212V18.6356C10.0723 19.2796 10.7657 19.6798 11.3232 19.3578L15.1542 17.146Z" fill="white"/>
</svg>
