<svg width="63" height="63" viewBox="0 0 63 63" fill="none" xmlns="http://www.w3.org/2000/svg">
<path d="M58.5002 31.5C56.8427 31.5 55.4072 32.4117 54.6264 33.75H47.2502C46.6526 33.75 46.0813 33.9873 45.6594 34.4092L41.8186 38.25H36.0002V42.75H42.7502C43.3479 42.75 43.9192 42.5127 44.3411 42.0908L48.1819 38.25H54.6264C55.4072 39.5883 56.8427 40.5 58.5002 40.5C60.9809 40.5 63.0002 38.4807 63.0002 36C63.0002 33.5193 60.9809 31.5 58.5002 31.5Z" fill="white"/>
<path d="M58.5002 54C56.8427 54 55.4072 54.9117 54.6264 56.25H48.1819L44.3411 52.4092C43.9192 51.9873 43.3479 51.75 42.7502 51.75H36.0002V56.25H41.8186L45.6594 60.0908C46.0813 60.5127 46.6526 60.75 47.2502 60.75H54.6264C55.4072 62.0883 56.8427 63 58.5002 63C60.9809 63 63.0002 60.9807 63.0002 58.5C63.0002 56.0193 60.9809 54 58.5002 54Z" fill="white"/>
<path d="M58.5002 42.75C56.8427 42.75 55.4072 43.6617 54.6264 45H36.0002V49.5H54.6264C55.4072 50.8383 56.8427 51.75 58.5002 51.75C60.9809 51.75 63.0002 49.7307 63.0002 47.25C63.0002 44.7693 60.9809 42.75 58.5002 42.75Z" fill="white"/>
<path d="M27.0002 6.75006L14.6578 0.329796C13.9453 -0.109932 13.0551 -0.109932 12.3427 0.329796L0.000244141 6.75006L13.5002 13.5001L27.0002 6.75006Z" fill="white"/>
<path d="M1.0022 23.3603L12.3752 29.2501V15.3001L0.000244141 9.19238V21.4883C0.000244141 22.2406 0.376251 22.943 1.0022 23.3603Z" fill="white"/>
<path d="M27.0002 9.19238L14.6252 15.3001V29.2501L25.9983 23.3603C26.6242 22.943 27.0002 22.2406 27.0002 21.4883V9.19238Z" fill="white"/>
<path d="M5.62524 49.5H1.12524C0.503967 49.5 0.000244141 50.0036 0.000244141 50.625V63H6.75024V50.625C6.75024 50.0036 6.24651 49.5 5.62524 49.5Z" fill="white"/>
<path d="M14.6252 42.75H10.1252C9.50397 42.75 9.00024 43.2536 9.00024 43.875V63H15.7502V43.875C15.7502 43.2536 15.2465 42.75 14.6252 42.75Z" fill="white"/>
<path d="M23.6252 33.75H19.1252C18.504 33.75 18.0002 34.2536 18.0002 34.875V63H24.7502V34.875C24.7502 34.2536 24.2465 33.75 23.6252 33.75Z" fill="white"/>
<path d="M32.6252 27.0001H28.1252C27.504 27.0001 27.0002 27.5037 27.0002 28.1251V63.0001H33.7502V28.1251C33.7502 27.5037 33.2465 27.0001 32.6252 27.0001Z" fill="white"/>
<path d="M48.3752 29.25C52.9839 29.25 57.0948 27.0988 59.7774 23.7514L47.6282 15.0578C47.3337 14.8464 47.1579 14.5031 47.1579 14.1399V0.00939941C39.662 0.632461 33.7502 6.93119 33.7502 14.5988C33.7502 22.6779 40.3106 29.25 48.3752 29.25Z" fill="white"/>
<path d="M63.0002 14.5989C63.0002 6.86877 56.9907 0.534606 49.408 0.00012207V13.5609L61.0449 21.8861C62.2816 19.7369 63.0002 17.2528 63.0002 14.5989Z" fill="white"/>
</svg>
