<svg width="62" height="64" viewBox="0 0 62 64" fill="none" xmlns="http://www.w3.org/2000/svg">
<path d="M31.0001 16.7688L33.3524 13.2413H28.6477L31.0001 16.7688Z" fill="white"/>
<path d="M0.103516 37.5172C0.103516 40.5641 2.57388 43.0344 5.62076 43.0344H12.2414C14.0696 43.0344 15.5518 44.5167 15.5518 46.3448V61.7931H19.9656V41.931C19.9656 38.8841 17.4952 36.4138 14.4483 36.4138H10.0345C8.20642 36.4138 6.7242 34.9315 6.7242 33.1034V20.9655C6.7242 20.3561 7.21828 19.862 7.82765 19.862C8.43703 19.862 8.9311 20.3561 8.9311 20.9655V33.1034C8.9311 33.7128 9.42517 34.2069 10.0345 34.2069H23.2759V29.7931H13.3449V18.7586C13.3449 16.9305 11.8627 15.4482 10.0345 15.4482H5.62076C2.57388 15.4482 0.103516 17.9186 0.103516 20.9655V37.5172Z" fill="white"/>
<path d="M61.8965 37.5172V20.9655C61.8965 17.9186 59.4262 15.4482 56.3793 15.4482H51.9655C50.1374 15.4482 48.6552 16.9305 48.6552 18.7586V29.7931H38.7241V34.2069H51.9655C52.5749 34.2069 53.0689 33.7128 53.0689 33.1034V20.9655C53.0689 20.3561 53.563 19.862 54.1724 19.862C54.7818 19.862 55.2758 20.3561 55.2758 20.9655V33.1034C55.2758 34.9315 53.7936 36.4138 51.9655 36.4138H47.5517C44.5048 36.4138 42.0345 38.8841 42.0345 41.931V61.7931H46.4483V46.3448C46.4483 44.5167 47.9305 43.0344 49.7586 43.0344H56.3793C59.4262 43.0344 61.8965 40.5641 61.8965 37.5172Z" fill="white"/>
<path d="M21.0688 27.5862H25.4826V34.2069H36.5171V27.5862H40.9309V18.7586C40.9218 15.9337 38.7763 13.5744 35.9654 13.2974L30.9999 20.7446L26.0344 13.2942C23.2219 13.5711 21.0764 15.9327 21.0688 18.7586V27.5862Z" fill="white"/>
<path d="M2.3103 44.8551H4.5172V64H2.3103V44.8551Z" fill="white"/>
<path d="M57.4827 44.8551H59.6896V64H57.4827V44.8551Z" fill="white"/>
<path d="M32.1034 43.0344H29.8965V61.793H25.4827V63.9999H36.5171V61.793H32.1034V43.0344Z" fill="white"/>
<path d="M57.4827 7.72415C57.4827 10.771 55.0124 13.2414 51.9655 13.2414C48.9186 13.2414 46.4482 10.771 46.4482 7.72415C46.4482 4.67728 48.9186 2.20691 51.9655 2.20691C55.0124 2.20691 57.4827 4.67728 57.4827 7.72415Z" fill="white"/>
<path d="M39.916 40.8276C40.1574 39.1498 40.9451 37.5986 42.1568 36.4138H19.8433C21.055 37.5986 21.8427 39.1498 22.0841 40.8276H39.916Z" fill="white"/>
<path d="M36.5171 5.51724C36.5171 8.56412 34.0468 11.0345 30.9999 11.0345C27.953 11.0345 25.4827 8.56412 25.4827 5.51724C25.4827 2.47037 27.953 0 30.9999 0C34.0468 0 36.5171 2.47037 36.5171 5.51724Z" fill="white"/>
<path d="M15.5518 7.72415C15.5518 10.771 13.0814 13.2414 10.0346 13.2414C6.9877 13.2414 4.51733 10.771 4.51733 7.72415C4.51733 4.67728 6.9877 2.20691 10.0346 2.20691C13.0814 2.20691 15.5518 4.67728 15.5518 7.72415Z" fill="white"/>
</svg>
