<svg width="64" height="64" viewBox="0 0 64 64" fill="none" xmlns="http://www.w3.org/2000/svg">
<g clip-path="url(#clip0_191_541)">
<path d="M22.8571 25.1428C22.8571 27.0362 21.322 28.5714 19.4286 28.5714C17.5352 28.5714 16 27.0362 16 25.1428C16 23.2494 17.5352 21.7142 19.4286 21.7142C21.322 21.7142 22.8571 23.2494 22.8571 25.1428Z" fill="white"/>
<path d="M36.5714 3.42857C36.5714 2.79743 37.0831 2.28571 37.7143 2.28571H47.7896C47.3069 0.920759 46.019 0.0061384 44.5714 0H19.4286C17.5352 0 16 1.53516 16 3.42857V4.57143H36.5714V3.42857Z" fill="white"/>
<path d="M25.1429 38.6284V36.5715C25.1429 33.4158 22.5843 30.8572 19.4286 30.8572C16.2729 30.8572 13.7144 33.4158 13.7144 36.5715V38.6284C15.1396 39.3577 16.6915 39.8064 18.2858 39.9509V37.7143H20.5715V39.9476C22.1652 39.8036 23.7171 39.3561 25.1429 38.6284Z" fill="white"/>
<path d="M6.91528 26.2857H9.14296V28.5714H6.91807C7.20546 31.7377 8.68091 34.6774 11.0481 36.8002C11.1703 36.914 11.302 37.0067 11.4287 37.111V36.5714C11.4315 33.5859 13.0966 30.8504 15.7473 29.4765C13.9114 27.9302 13.2378 25.4012 14.0609 23.1467C14.884 20.8917 17.0286 19.3917 19.4287 19.3917C21.8288 19.3917 23.9733 20.8917 24.7964 23.1467C25.6195 25.4012 24.946 27.9302 23.11 29.4765C25.7607 30.8504 27.4259 33.5859 27.4287 36.5714V37.1166C27.5542 37.0111 27.6859 36.9152 27.8093 36.8058C30.1776 34.6819 31.6536 31.7399 31.9393 28.5714H29.7144V26.2857H31.9421C31.3835 20.2522 26.605 15.4738 20.5715 14.9152V17.1428H18.2858V14.9152C12.2523 15.4738 7.47388 20.2522 6.91528 26.2857Z" fill="white"/>
<path d="M38.8572 16H61.7143V4.57141H38.8572V16ZM48 6.85713H59.4286V9.14284H48V6.85713ZM41.1429 6.85713H45.7143V9.14284H41.1429V6.85713ZM41.1429 11.4286H59.4286V13.7143H41.1429V11.4286Z" fill="white"/>
<path d="M25.1429 59.4285C25.1429 60.0597 24.6311 60.5714 24 60.5714H16C16 62.4648 17.5352 64 19.4286 64H44.5714C46.4648 64 48 62.4648 48 60.5714V57.1428H25.1429V59.4285ZM30.8571 59.4285H33.1429V61.7143H30.8571V59.4285Z" fill="white"/>
<path d="M22.8571 51.4286H0V58.2857H22.8571V51.4286ZM8 56H2.28571V53.7143H8V56ZM20.5714 56H10.2857V53.7143H20.5714V56Z" fill="white"/>
<path d="M62.6552 22.8572C62.3277 22.8566 62.0113 22.9766 61.7657 23.1931L43.9543 38.9096L47.9488 42.9029L63.6642 25.0916C64.0135 24.6948 64.0983 24.1306 63.8807 23.6485C63.6631 23.1669 63.1837 22.8572 62.6552 22.8572Z" fill="white"/>
<path d="M36.5714 45.7143V47.7305C36.5731 48.6239 36.3476 49.5034 35.9163 50.2857H41.1428C44.1199 50.2824 46.5976 47.9961 46.8387 45.0285L41.8286 40.0184C38.861 40.2601 36.5753 42.7372 36.5714 45.7143Z" fill="white"/>
<path d="M41.1429 52.5715H33.1429C32.6077 52.5776 32.1401 52.2115 32.0173 51.6903C31.8951 51.1697 32.1501 50.6334 32.6323 50.4002C33.6468 49.8979 34.2879 48.8628 34.2857 47.7305V45.7143C34.2907 41.4772 37.5988 37.9794 41.8287 37.7372L48 32.2913V18.2857H37.7143C37.0832 18.2857 36.5714 17.774 36.5714 17.1429V6.85718H16V12.9861C16.7517 12.8081 17.5156 12.6887 18.2857 12.6295V9.14289H20.5714V12.6295C27.8644 13.1993 33.6579 18.9928 34.2277 26.2857H37.7143V28.5715H34.2249C33.6858 35.8784 27.8784 41.6898 20.5714 42.2333V45.7143H18.2857V42.2333C17.5156 42.173 16.7511 42.0525 16 41.8722V49.1429H24C24.6311 49.1429 25.1429 49.6546 25.1429 50.2858V54.8572H48V48.6708C46.5586 51.086 43.9554 52.567 41.1429 52.5715Z" fill="white"/>
<path d="M9.14286 4.57141H0V11.4286H9.14286V4.57141ZM6.85714 9.14284H2.28571V6.85713H6.85714V9.14284Z" fill="white"/>
</g>
<defs>
<clipPath id="clip0_191_541">
<rect width="64" height="64" fill="white"/>
</clipPath>
</defs>
</svg>
