<svg width="74" height="72" viewBox="0 0 74 72" fill="none" xmlns="http://www.w3.org/2000/svg">
<path d="M38.3501 65.85V57.45H35.3501V65.85L31.7501 62.25L29.6501 64.35L36.8501 71.55L44.2001 64.35L41.9501 62.25L38.3501 65.85Z" fill="white"/>
<path d="M44.2001 7.34995L41.9501 5.24995L38.3501 8.84995V0.449951H35.3501V8.84995L31.7501 5.24995L29.6501 7.34995L36.8501 14.55L44.2001 7.34995Z" fill="white"/>
<path d="M36.8502 17.5499C26.3502 17.5499 17.9502 26.0999 17.9502 36.45C17.9502 46.95 26.5002 55.4999 36.8502 55.4999C47.2002 55.4999 55.7502 46.95 55.7502 36.45C55.9002 25.95 47.3502 17.5499 36.8502 17.5499Z" fill="white"/>
<path fill-rule="evenodd" clip-rule="evenodd" d="M29 30L37 28L45 30L37 32L29 30ZM29 41V31L36.5 33V43L29 41ZM45 31V41L37.5 43V33L45 31Z" fill="#FA5BA3"/>
<path d="M73.1501 52.95C73.1501 56.25 70.4501 58.95 67.1501 58.95C64.3001 58.95 62.0501 57 61.3001 54.45H56.6501L52.6001 50.4L54.7001 48.3L57.8501 51.45H61.1501C61.7501 48.9 64.1501 46.95 67.0001 46.95C70.4501 46.95 73.1501 49.65 73.1501 52.95Z" fill="white"/>
<path d="M54.7001 24.75L52.6001 22.65L56.6501 18.6H61.3001C61.9001 16.05 64.3001 14.1 67.1501 14.1C70.4501 14.1 73.1501 16.8 73.1501 20.1C73.1501 23.4 70.4501 26.1 67.1501 26.1C64.3001 26.1 62.0501 24.15 61.3001 21.6H58.0001L54.7001 24.75Z" fill="white"/>
<path d="M73.1501 36.45C73.1501 39.75 70.4501 42.45 67.1501 42.45C64.3001 42.45 62.0501 40.5 61.3001 37.95H57.4001V34.95H61.3001C61.9001 32.4 64.3001 30.45 67.1501 30.45C70.4501 30.45 73.1501 33.15 73.1501 36.45Z" fill="white"/>
<path d="M0.850098 19.95C0.850098 16.65 3.5501 13.95 6.8501 13.95C9.7001 13.95 11.9501 15.9 12.7001 18.45H17.2001L21.2501 22.5L19.1501 24.6L16.0001 21.45H12.7001C11.9501 24 9.7001 25.95 6.8501 25.95C3.5501 25.95 0.850098 23.25 0.850098 19.95Z" fill="white"/>
<path d="M0.850098 36.45C0.850098 33.15 3.5501 30.45 6.8501 30.45C9.7001 30.45 11.9501 32.4 12.7001 34.95H16.6001V37.95H12.7001C11.9501 40.5 9.7001 42.45 6.8501 42.45C3.5501 42.45 0.850098 39.75 0.850098 36.45Z" fill="white"/>
<path d="M19.3001 48.15L21.4001 50.25L17.3501 54.3H12.8501C12.5501 55.35 12.1001 56.25 11.3501 57C10.0001 58.35 8.5001 58.95 6.8501 58.95C3.5501 58.95 0.850098 56.25 0.850098 52.95C0.850098 49.65 3.5501 46.95 6.8501 46.95C9.7001 46.95 11.9501 48.9 12.7001 51.45H16.0001L19.3001 48.15Z" fill="white"/>
</svg>
