<svg width="60" height="56" viewBox="0 0 60 56" fill="none" xmlns="http://www.w3.org/2000/svg">
<path d="M57.3517 40.5968C58.8129 40.5968 59.9976 39.3865 59.9999 37.9259C59.9976 36.4653 58.8129 35.3053 57.3517 35.3053H52.9153V40.5968H57.3517Z" fill="white"/>
<path d="M57.3517 49.4159C58.8127 49.4159 59.9972 48.2036 59.9999 46.7433C59.9973 45.2831 58.8127 44.1244 57.3517 44.1244H52.9153V49.4159H57.3517Z" fill="white"/>
<path d="M57.3517 31.7776C58.8124 31.7776 59.9968 30.5621 59.9999 29.1022C59.9969 27.6425 58.8124 26.4861 57.3517 26.4861H52.9153V31.7776H57.3517Z" fill="white"/>
<path d="M57.3517 22.9584C58.8143 22.9584 59.9997 21.7607 60 20.2985C59.9997 18.8363 58.8143 17.6669 57.3517 17.6669H52.9153V22.9584H57.3517Z" fill="white"/>
<path d="M37.0112 35.2759C37.9853 35.2759 38.775 34.4862 38.775 33.512C38.775 32.5379 37.9853 31.7482 37.0112 31.7482C36.037 31.7482 35.2473 32.5379 35.2473 33.512C35.2473 34.4862 36.037 35.2759 37.0112 35.2759Z" fill="white"/>
<path d="M15.6365 45.8883H21.1661V42.3313V35.3053H8.81921V42.3313V45.8883H12.0216C11.0197 49.6512 7.57887 52.4734 3.49828 52.4734H0V56.001H3.49828C9.53333 56.001 14.5702 51.5326 15.6365 45.8883Z" fill="white"/>
<path d="M0 35.3053H5.29152V42.3607H0V35.3053Z" fill="white"/>
<path d="M0 24.7222H5.29152V31.7775H0V24.7222Z" fill="white"/>
<path d="M37.0112 28.2352C39.9289 28.2352 42.3027 30.6016 42.3027 33.5195C42.3027 36.4373 39.9288 38.8221 37.0112 38.8221C34.7117 38.8221 32.7511 37.3044 32.023 35.3054H24.6937V42.3313L30.8377 49.416H49.3874V17.6669H37.9813V12.3754H30.9259V15.4447C30.6907 15.372 28.2817 13.6265 24.4411 13.6265C19.4419 13.6265 14.961 16.6085 13.0463 21.1945H8.81909V24.6929V31.7776H21.166V24.6929V21.1946H17.0207C18.6192 18.7252 21.3843 17.1543 24.4264 17.1543C26.3997 17.1543 28.3006 17.7978 29.8409 18.9937C28.9914 19.9327 24.6937 24.6929 24.6937 24.6929V31.7776H32.023C32.7511 29.661 34.7117 28.2352 37.0112 28.2352Z" fill="white"/>
<path d="M30.926 -0.000976562V8.84763H37.9814V5.29055C37.9814 1.39399 34.8065 -0.000976562 30.926 -0.000976562Z" fill="white"/>
</svg>
