<svg width="61" height="61" viewBox="0 0 61 61" fill="none" xmlns="http://www.w3.org/2000/svg">
<path d="M38.7524 46.4481C38.6265 46.31 38.294 45.9888 37.9259 45.9888C37.5639 45.9888 37.192 46.3065 37.0027 46.4959L36.7659 46.7328L44.1713 54.1383C44.2013 54.1069 44.2328 54.0765 44.2624 54.0449C44.2893 54.0115 44.3188 53.9802 44.3505 53.9513C45.0258 53.2335 45.0164 52.7064 44.3227 52.0197L38.7827 46.4796C38.7721 46.4691 38.7621 46.4587 38.7524 46.4481Z" fill="white"/>
<path d="M19.3111 28.8044C20.0497 28.0657 20.0497 27.616 19.3111 26.8778L16.5757 24.1424C16.5728 24.1393 16.5698 24.1364 16.5669 24.1334C16.4091 23.9709 16.252 23.8104 16.0953 23.6519C15.9333 23.4875 15.7731 23.3239 15.6147 23.1612C14.9629 22.4879 14.4114 21.9303 13.8407 21.3967C13.8338 21.3903 13.8271 21.3837 13.8203 21.3771L13.7887 21.3452C13.5818 21.1384 13.2611 20.8899 12.9173 20.8899C12.6353 20.8899 12.3096 21.0548 11.9741 21.3665L11.687 21.6535L19.0752 29.0416C19.1536 28.9631 19.2318 28.8838 19.3111 28.8044Z" fill="white"/>
<path d="M15.573 44.9128C19.546 49.6902 24.4929 53.5646 30.0831 56.2772C32.0847 57.2345 34.7505 58.3586 37.5883 58.5401C37.7132 58.5484 37.8569 58.5484 37.9958 58.5484C39.3139 58.5484 40.2849 58.1427 41.1412 57.2336C41.7232 56.5621 42.339 55.9207 42.9862 55.3118L35.5863 47.9122L33.5761 49.9225C32.9552 50.5433 32.2444 50.8581 31.4634 50.8581C30.988 50.8551 30.5202 50.7391 30.0985 50.5196C30.0561 50.4984 30.0121 50.4727 29.969 50.4456L29.9603 50.4402C29.9437 50.4313 29.9274 50.4221 29.9116 50.4122C29.6535 50.252 29.3294 50.0905 28.9863 49.9184C28.539 49.7032 28.1031 49.4651 27.6803 49.205C24.3964 47.1283 21.4272 44.4304 18.6044 40.9581C18.5905 40.9429 18.5772 40.9271 18.5644 40.9105C16.9798 38.8981 15.9457 37.2085 15.2123 35.4325C15.205 35.4145 15.1982 35.3964 15.1921 35.3779L15.1619 35.2873C15.1605 35.2832 15.1592 35.2793 15.158 35.2753C15.0177 34.8311 14.5938 33.489 15.8436 32.2015C15.8801 32.1583 15.9204 32.1184 15.964 32.0824L15.9676 32.0792C16.6228 31.4914 17.2355 30.8951 17.8994 30.2249L10.5076 22.8334L8.56727 24.7736C7.89413 25.4219 7.48713 26.2981 7.42591 27.2307C7.28485 28.9527 7.61546 30.776 8.49817 33.1401C9.97838 37.1387 12.2261 40.8788 15.573 44.9128Z" fill="white"/>
<path d="M41.1059 9.87313L38.3945 8.30762L31.1272 12.5034L33.8387 14.0689L41.1059 9.87313Z" fill="white"/>
<path d="M38.3942 16.699L45.6617 12.5031L42.7739 10.8361L35.5066 15.0318L38.3942 16.699Z" fill="white"/>
<path d="M37.5293 18.1434L30.2617 13.9476V22.3395L37.5293 26.536V18.1434Z" fill="white"/>
<path d="M30.7057 30.7908C30.8635 30.8834 30.9864 31.0252 31.0556 31.1946C31.1247 31.3639 31.1363 31.5512 31.0885 31.7278L30.0386 35.6084L34.3061 32.618C34.4018 32.5511 34.5104 32.5049 34.6251 32.4826C34.7397 32.4603 34.8577 32.4622 34.9716 32.4883C38.7118 33.3534 42.6408 32.7738 45.9718 30.8654C49.3029 28.9571 51.7902 25.8609 52.9356 22.1968C54.081 18.5327 53.8001 14.5711 52.149 11.1053C50.4979 7.63951 47.5986 4.92532 44.0316 3.50617C40.4645 2.08703 36.4931 2.06769 32.9124 3.45203C29.3317 4.83637 26.4061 7.5222 24.7213 10.9718C23.0366 14.4213 22.7171 18.3799 23.8268 22.055C24.9364 25.7301 27.3934 28.8504 30.7057 30.7911V30.7908ZM28.5939 12.5035C28.5969 12.3559 28.6384 12.2116 28.7143 12.085C28.7902 11.9583 28.8978 11.8536 29.0265 11.7813L37.9699 6.62248C38.0973 6.54928 38.2418 6.51075 38.3888 6.51075C38.5358 6.51075 38.6802 6.54928 38.8077 6.62248L47.7296 11.7813C47.8547 11.8552 47.958 11.961 48.0288 12.0879C48.0997 12.2148 48.1356 12.3582 48.1329 12.5035V22.8211C48.1359 22.9662 48.1004 23.1095 48.0299 23.2364C47.9594 23.3633 47.8566 23.4692 47.7318 23.5433L38.8042 28.7033C38.6784 28.7765 38.5355 28.8151 38.39 28.8151C38.2445 28.8151 38.1016 28.7765 37.9758 28.7033L29.0256 23.5433C28.897 23.4709 28.7896 23.3662 28.7139 23.2395C28.6382 23.1128 28.5968 22.9686 28.5939 22.8211V12.5035Z" fill="white"/>
<path d="M39.1973 26.5365L46.4648 22.3395V13.9473L39.1973 18.1434V26.5365Z" fill="white"/>
</svg>
