<svg width="62" height="62" viewBox="0 0 62 62" fill="none" xmlns="http://www.w3.org/2000/svg">
<path d="M44.5625 11.625H42.625V15.5C42.6326 16.4905 42.2498 17.4441 41.5594 18.1544C41.0774 18.7866 40.456 19.2991 39.7435 19.6519C39.0311 20.0048 38.2469 20.1885 37.4519 20.1888H35.6112C34.6663 20.1984 33.7369 19.9488 32.9239 19.4671C32.1109 18.9855 31.4455 18.2902 31 17.4569C30.5513 18.2876 29.8852 18.9806 29.0729 19.4618C28.2607 19.943 27.3328 20.1943 26.3888 20.1888H24.5481C23.7531 20.1885 22.9689 20.0048 22.2565 19.6519C21.544 19.2991 20.9226 18.7866 20.4406 18.1544C19.7502 17.4441 19.3674 16.4905 19.375 15.5V11.625H17.4375C15.8973 11.6296 14.4216 12.2435 13.3325 13.3325C12.2435 14.4216 11.6296 15.8973 11.625 17.4375V50.375C11.6296 51.9152 12.2435 53.3909 13.3325 54.48C14.4216 55.569 15.8973 56.1829 17.4375 56.1875H44.5625C46.1027 56.1829 47.5784 55.569 48.6675 54.48C49.7565 53.3909 50.3704 51.9152 50.375 50.375V17.4375C50.3704 15.8973 49.7565 14.4216 48.6675 13.3325C47.5784 12.2435 46.1027 11.6296 44.5625 11.625ZM21.3125 27.125H31C31.5139 27.125 32.0067 27.3291 32.37 27.6925C32.7334 28.0558 32.9375 28.5486 32.9375 29.0625C32.9375 29.5764 32.7334 30.0692 32.37 30.4325C32.0067 30.7959 31.5139 31 31 31H21.3125C20.7986 31 20.3058 30.7959 19.9425 30.4325C19.5791 30.0692 19.375 29.5764 19.375 29.0625C19.375 28.5486 19.5791 28.0558 19.9425 27.6925C20.3058 27.3291 20.7986 27.125 21.3125 27.125ZM40.6875 46.5H21.3125C20.7986 46.5 20.3058 46.2959 19.9425 45.9325C19.5791 45.5692 19.375 45.0764 19.375 44.5625C19.375 44.0486 19.5791 43.5558 19.9425 43.1925C20.3058 42.8291 20.7986 42.625 21.3125 42.625H40.6875C41.2014 42.625 41.6942 42.8291 42.0575 43.1925C42.4209 43.5558 42.625 44.0486 42.625 44.5625C42.625 45.0764 42.4209 45.5692 42.0575 45.9325C41.6942 46.2959 41.2014 46.5 40.6875 46.5ZM40.6875 38.75H21.3125C20.7986 38.75 20.3058 38.5459 19.9425 38.1825C19.5791 37.8192 19.375 37.3264 19.375 36.8125C19.375 36.2986 19.5791 35.8058 19.9425 35.4425C20.3058 35.0791 20.7986 34.875 21.3125 34.875H40.6875C41.2014 34.875 41.6942 35.0791 42.0575 35.4425C42.4209 35.8058 42.625 36.2986 42.625 36.8125C42.625 37.3264 42.4209 37.8192 42.0575 38.1825C41.6942 38.5459 41.2014 38.75 40.6875 38.75Z" fill="#6F3AF1"/>
<path d="M26.3984 18.2455C27.069 18.2576 27.7264 18.0582 28.2772 17.6757C28.8281 17.2931 29.2445 16.7468 29.4674 16.1143C29.5739 15.7919 29.7793 15.5112 30.0545 15.3123C30.3296 15.1134 30.6605 15.0063 31 15.0063C31.3395 15.0063 31.6704 15.1134 31.9455 15.3123C32.2207 15.5112 32.4261 15.7919 32.5326 16.1143C32.7555 16.7468 33.1719 17.2931 33.7228 17.6757C34.2736 18.0582 34.931 18.2576 35.6016 18.2455H37.4577C38.314 18.2445 39.1349 17.9039 39.7404 17.2984C40.3459 16.6929 40.6865 15.872 40.6875 15.0157V10.172C40.6865 9.31567 40.3459 8.49475 39.7404 7.88926C39.1349 7.28378 38.314 6.94316 37.4577 6.94214H24.5423C23.686 6.94316 22.8651 7.28378 22.2596 7.88926C21.6541 8.49475 21.3135 9.31567 21.3125 10.172V15.0157C21.3135 15.872 21.6541 16.6929 22.2596 17.2984C22.8651 17.9039 23.686 18.2445 24.5423 18.2455H26.3984Z" fill="#A783FF"/>
</svg>
