<svg width="61" height="61" viewBox="0 0 61 61" fill="none" xmlns="http://www.w3.org/2000/svg">
<path fill-rule="evenodd" clip-rule="evenodd" d="M35.7798 24.903L49.1306 48.0273C50.2283 49.9285 50.2283 52.2228 49.1306 54.124C48.033 56.0253 46.0459 57.1724 43.8507 57.1724H17.1492C14.9539 57.1724 12.9669 56.0252 11.8693 54.124C10.7716 52.2229 10.7716 49.9285 11.8693 48.0273L25.22 24.903C26.3177 23.0018 28.3047 21.8547 30.5 21.8547C32.6953 21.8547 34.6822 23.0019 35.7798 24.903ZM43.1412 24.0838L48.3265 17.9767C48.5347 17.7316 48.361 17.3563 48.0394 17.3563H45.5392V5.67753H40.169V17.3562H37.6687C37.3472 17.3562 37.1734 17.7315 37.3816 17.9765L42.5669 24.0837C42.7175 24.2611 42.9909 24.261 43.1412 24.0838ZM21.126 22.2338L26.3114 16.1266C26.5195 15.8816 26.3458 15.5063 26.0242 15.5063H23.5241V3.82764H18.1538V15.5063H15.6535C15.332 15.5063 15.1583 15.8816 15.3664 16.1266L20.5518 22.2338C20.7021 22.4111 20.9755 22.411 21.126 22.2338ZM7.75641 43.0536L12.9418 36.9463C13.1499 36.7013 12.9762 36.326 12.6546 36.326H10.1545V21.6955H4.78421V36.326H2.28392C1.96236 36.326 1.78866 36.7013 1.99679 36.9463L7.18215 43.0536C7.33263 43.2309 7.60593 43.2308 7.75641 43.0536ZM53.8178 40.9704L59.0032 34.8632C59.2113 34.6181 59.0376 34.2428 58.7161 34.2428H56.2159V19.6123H50.8456V34.2429H48.3454C48.0238 34.2429 47.8501 34.6182 48.0582 34.8633L53.2436 40.9706C53.3941 41.1477 53.6674 41.1476 53.8178 40.9704ZM30.5 48.6616C29.3707 48.6616 28.4553 49.577 28.4553 50.7063C28.4553 51.8355 29.3708 52.7509 30.5 52.7509C31.6292 52.7509 32.5447 51.8356 32.5447 50.7063C32.5447 49.577 31.6292 48.6616 30.5 48.6616ZM30.5 45.0116C31.3589 45.0116 32.064 44.3314 32.0949 43.4731L32.4985 32.3006C32.5312 31.3913 31.8134 30.6469 30.9034 30.6469C30.333 30.6469 30.6668 30.6469 30.0965 30.6469C29.1866 30.6469 28.4687 31.3913 28.5014 32.3006L28.9049 43.4731C28.9359 44.3315 29.6411 45.0116 30.5 45.0116Z" fill="white"/>
</svg>
