<svg width="64" height="60" viewBox="0 0 64 60" fill="none" xmlns="http://www.w3.org/2000/svg">
<path d="M30 1.11953e-10C26.0604 -1.07467e-05 22.1593 0.775956 18.5195 2.2836C14.8797 3.79124 11.5726 6.00102 8.78679 8.78679C6.00102 11.5726 3.79124 14.8797 2.2836 18.5195C0.775956 22.1593 -1.07467e-05 26.0604 1.11628e-10 30.0001C0.00175846 34.9715 1.23895 39.8645 3.60035 44.2393C3.7727 44.2796 3.93807 44.3453 4.09888 44.4193C4.68073 44.6871 5.23047 45.0741 5.55665 45.6254C5.71973 45.901 5.82309 46.2145 5.83618 46.5345C5.84916 46.8515 5.76976 47.1739 5.59771 47.4404C8.37267 51.3242 12.0343 54.4898 16.2785 56.6742C20.5226 58.8586 25.2267 59.9987 30 59.9999C37.9565 59.9999 45.5871 56.8392 51.2132 51.2132C56.8393 45.5871 60.0001 37.9565 60.0001 30.0001C60.0001 26.0604 59.2241 22.1593 57.7165 18.5195C56.2089 14.8797 53.9991 11.5726 51.2133 8.78679C48.4275 6.00102 45.1204 3.79124 41.4806 2.2836C37.8408 0.775956 33.9397 -1.07623e-05 30 1.11953e-10Z" fill="white"/>
<path fill-rule="evenodd" clip-rule="evenodd" d="M57.7404 18.7224L59.2715 18.0102L60.3062 15.1823L61.3919 15.5628L60.4593 18.0914L63.0436 18.9822L62.6539 20.0412L59.768 19.0332L58.1767 19.7651" fill="white"/>
<mask id="mask0_68_96" style="mask-type:luminance" maskUnits="userSpaceOnUse" x="0" y="0" width="61" height="60">
<path d="M30.0004 60.0001C46.5689 60.0001 60.0004 46.5686 60.0004 30.0001C60.0004 13.4316 46.5689 0.00012207 30.0004 0.00012207C13.4319 0.00012207 0.000427246 13.4316 0.000427246 30.0001C0.000427246 46.5686 13.4319 60.0001 30.0004 60.0001Z" fill="white"/>
</mask>
<g mask="url(#mask0_68_96)">
<path fill-rule="evenodd" clip-rule="evenodd" d="M41.1528 33.9379C39.0863 31.1114 35.003 29.4681 31.5002 28.6966C27.9974 27.9251 25.8655 27.3284 24.1628 26.4071C22.2193 25.3555 20.6914 22.2545 21.2881 19.5659C22.2245 15.3465 25.9927 12.3104 30.2961 12.9113C32.4452 13.2152 34.2676 14.3531 35.4693 15.9549L40.2342 22.2149C42.9576 25.7224 46.0198 26.7663 49.351 25.11L50.972 24.3439C51.1066 24.2813 51.2698 24.155 51.5339 24.239C51.7981 24.323 51.9277 24.5509 52.0759 24.8175C52.2241 25.084 52.3808 25.3297 52.6597 25.3968C52.9385 25.4639 53.327 25.4178 53.5085 25.2447C54.7433 24.0677 57.2479 21.6709 57.2479 21.6709C57.9252 21.0909 57.7257 20.5586 57.7257 20.5586L56.7931 18.4348C56.7931 18.4348 56.538 17.9256 55.6564 18.0427L50.4693 18.5195C50.1677 18.5623 49.8986 18.7631 49.7827 19.0693C49.7131 19.2479 49.7084 19.4346 49.7595 19.604L49.9451 20.2013C49.9823 20.3254 49.9823 20.4646 49.9312 20.5922C49.8709 20.7499 49.7504 20.8613 49.6065 20.9205L48.1404 21.5411C46.4506 22.1143 44.8602 21.8658 43.6956 20.4415L42.364 18.6726L38.5734 13.642C36.7733 11.2549 34.0591 9.5521 30.8531 9.10444C24.4342 8.20556 18.4769 12.6503 17.5443 19.0321C17.0734 22.2485 17.5159 24.9688 19.9459 27.7478C22.3759 30.5268 27.1016 31.5854 31.1954 32.5237C31.6335 32.6276 32.8657 32.932 33.595 33.1955C34.2692 33.4395 35.822 34.012 37.084 35.0448C38.5919 36.5777 39.3899 38.7676 39.0513 41.0643C38.4806 44.9801 34.8246 47.7083 30.8855 47.1561C28.9126 46.8823 27.2469 45.8366 26.1438 44.3722L21.5924 38.3315C20.6644 37.1002 19.261 36.2205 17.6023 35.9838C15.946 35.7518 14.343 36.2111 13.1007 37.1419L3.59363 44.237C3.99662 45.3833 4.50661 46.5226 5.59422 47.4485L15.3959 40.0993C15.8448 39.7931 16.4016 39.6539 16.9792 39.7328C17.594 39.8209 18.1171 40.1439 18.4604 40.6004L23.2752 47.0709C24.9709 49.1514 27.4347 50.6249 30.3193 51.0304C36.388 51.8794 42.0205 47.676 42.9021 41.6397C43.3102 38.8308 42.6235 36.1185 41.1528 33.9379Z" fill="#F71C1C"/>
</g>
</svg>
