<svg width="64" height="81" viewBox="0 0 64 81" fill="none" xmlns="http://www.w3.org/2000/svg">
<path d="M30 1.11953e-10C26.0604 -1.07467e-05 22.1593 0.775956 18.5195 2.2836C14.8797 3.79124 11.5726 6.00102 8.78679 8.78679C6.00102 11.5726 3.79124 14.8797 2.2836 18.5195C0.775956 22.1593 -1.07467e-05 26.0604 1.11628e-10 30.0001C0.00175846 34.9715 1.23895 39.8645 3.60035 44.2393C3.7727 44.2796 3.93807 44.3453 4.09888 44.4193C4.68073 44.6871 5.23047 45.0741 5.55665 45.6254C5.71973 45.901 5.82309 46.2145 5.83618 46.5345C5.84916 46.8515 5.76976 47.1739 5.59771 47.4404C8.37267 51.3242 12.0343 54.4898 16.2785 56.6742C20.5226 58.8586 25.2267 59.9987 30 59.9999C37.9565 59.9999 45.5871 56.8392 51.2132 51.2132C56.8393 45.5871 60.0001 37.9565 60.0001 30.0001C60.0001 26.0604 59.2241 22.1593 57.7165 18.5195C56.2089 14.8797 53.9991 11.5726 51.2133 8.78679C48.4275 6.00102 45.1204 3.79124 41.4806 2.2836C37.8408 0.775956 33.9397 -1.07623e-05 30 1.11953e-10Z" fill="white"/>
<path fill-rule="evenodd" clip-rule="evenodd" d="M57.7404 18.7224L59.2715 18.0102L60.3062 15.1823L61.3919 15.5628L60.4593 18.0914L63.0436 18.9822L62.6539 20.0412L59.768 19.0332L58.1767 19.7651" fill="white"/>
<mask id="mask0_199_173" style="mask-type:luminance" maskUnits="userSpaceOnUse" x="0" y="0" width="61" height="60">
<path d="M30.0004 60.0001C46.5689 60.0001 60.0004 46.5686 60.0004 30.0001C60.0004 13.4316 46.5689 0.00012207 30.0004 0.00012207C13.4319 0.00012207 0.000427246 13.4316 0.000427246 30.0001C0.000427246 46.5686 13.4319 60.0001 30.0004 60.0001Z" fill="white"/>
</mask>
<g mask="url(#mask0_199_173)">
<path fill-rule="evenodd" clip-rule="evenodd" d="M41.1528 33.9379C39.0863 31.1114 35.003 29.4681 31.5002 28.6966C27.9974 27.9251 25.8655 27.3284 24.1628 26.4071C22.2193 25.3555 20.6914 22.2545 21.2881 19.5659C22.2245 15.3465 25.9927 12.3104 30.2961 12.9113C32.4452 13.2152 34.2676 14.3531 35.4693 15.9549L40.2342 22.2149C42.9576 25.7224 46.0198 26.7663 49.351 25.11L50.972 24.3439C51.1066 24.2813 51.2698 24.155 51.5339 24.239C51.7981 24.323 51.9277 24.5509 52.0759 24.8175C52.2241 25.084 52.3808 25.3297 52.6597 25.3968C52.9385 25.4639 53.327 25.4178 53.5085 25.2447C54.7433 24.0677 57.2479 21.6709 57.2479 21.6709C57.9252 21.0909 57.7257 20.5586 57.7257 20.5586L56.7931 18.4348C56.7931 18.4348 56.538 17.9256 55.6564 18.0427L50.4693 18.5195C50.1677 18.5623 49.8986 18.7631 49.7827 19.0693C49.7131 19.2479 49.7084 19.4346 49.7595 19.604L49.9451 20.2013C49.9823 20.3254 49.9823 20.4646 49.9312 20.5922C49.8709 20.7499 49.7504 20.8613 49.6065 20.9205L48.1404 21.5411C46.4506 22.1143 44.8602 21.8658 43.6956 20.4415L42.364 18.6726L38.5734 13.642C36.7733 11.2549 34.0591 9.5521 30.8531 9.10444C24.4342 8.20556 18.4769 12.6503 17.5443 19.0321C17.0734 22.2485 17.5159 24.9688 19.9459 27.7478C22.3759 30.5268 27.1016 31.5854 31.1954 32.5237C31.6335 32.6276 32.8657 32.932 33.595 33.1955C34.2692 33.4395 35.822 34.012 37.084 35.0448C38.5919 36.5777 39.3899 38.7676 39.0513 41.0643C38.4806 44.9801 34.8246 47.7083 30.8855 47.1561C28.9126 46.8823 27.2469 45.8366 26.1438 44.3722L21.5924 38.3315C20.6644 37.1002 19.261 36.2205 17.6023 35.9838C15.946 35.7518 14.343 36.2111 13.1007 37.1419L3.59363 44.237C3.99662 45.3833 4.50661 46.5226 5.59422 47.4485L15.3959 40.0993C15.8448 39.7931 16.4016 39.6539 16.9792 39.7328C17.594 39.8209 18.1171 40.1439 18.4604 40.6004L23.2752 47.0709C24.9709 49.1514 27.4347 50.6249 30.3193 51.0304C36.388 51.8794 42.0205 47.676 42.9021 41.6397C43.3102 38.8308 42.6235 36.1185 41.1528 33.9379Z" fill="#F71C1C"/>
</g>
<path d="M19.098 71.7145C19.1094 71.3196 18.9886 71.017 18.7358 70.8068C18.4858 70.5966 18.1264 70.4915 17.6577 70.4915C17.3281 70.4915 17.0369 70.5412 16.7841 70.6406C16.5341 70.7372 16.3324 70.8722 16.179 71.0455C16.0256 71.2159 15.9304 71.4105 15.8935 71.6293C15.8622 71.8082 15.8778 71.9645 15.9403 72.098C16.0028 72.2315 16.098 72.3452 16.2259 72.4389C16.3565 72.5327 16.5043 72.6108 16.669 72.6733C16.8366 72.7358 17.0071 72.7884 17.1804 72.831L17.9645 73.0355C18.277 73.1122 18.5753 73.2159 18.8594 73.3466C19.1435 73.4744 19.3892 73.6392 19.5966 73.8409C19.8068 74.0398 19.9602 74.2798 20.0568 74.5611C20.1534 74.8423 20.169 75.1719 20.1037 75.5497C20.0185 76.0611 19.8125 76.5114 19.4858 76.9006C19.1619 77.2869 18.7358 77.5895 18.2074 77.8082C17.6818 78.0241 17.0696 78.1321 16.3707 78.1321C15.6946 78.1321 15.1236 78.027 14.6577 77.8168C14.1918 77.6037 13.8509 77.2955 13.6349 76.892C13.4219 76.4886 13.3537 75.9986 13.4304 75.4219H14.9858C14.9545 75.7259 15.0043 75.9787 15.1349 76.1804C15.2685 76.3821 15.4602 76.5327 15.7102 76.6321C15.9602 76.7315 16.25 76.7812 16.5795 76.7812C16.9233 76.7812 17.2344 76.7301 17.5128 76.6278C17.7912 76.5227 18.0185 76.3778 18.1946 76.1932C18.3736 76.0057 18.483 75.7869 18.5227 75.5369C18.5625 75.3125 18.5298 75.125 18.4247 74.9744C18.3196 74.8239 18.1563 74.6989 17.9347 74.5994C17.7159 74.4972 17.4545 74.4062 17.1506 74.3267L16.2045 74.071C15.5199 73.8835 15 73.6023 14.6449 73.2273C14.2926 72.8523 14.1676 72.3523 14.2699 71.7273C14.3551 71.2102 14.5696 70.7599 14.9134 70.3764C15.2571 69.9901 15.6875 69.6903 16.2045 69.4773C16.7216 69.2614 17.2869 69.1534 17.9006 69.1534C18.5199 69.1534 19.044 69.2614 19.473 69.4773C19.9048 69.6932 20.2202 69.9943 20.419 70.3807C20.6207 70.7642 20.6875 71.2088 20.6193 71.7145H19.098ZM23.8782 78.1278C23.2248 78.1278 22.6879 77.9844 22.2674 77.6974C21.8469 77.4105 21.5529 77.0142 21.3853 76.5085C21.2205 76 21.1935 75.4148 21.3043 74.7528C21.4123 74.0881 21.6353 73.5014 21.9734 72.9929C22.3143 72.4815 22.7433 72.0838 23.2603 71.7997C23.7773 71.5128 24.3555 71.3693 24.9947 71.3693C25.5259 71.3693 25.979 71.4673 26.354 71.6634C26.7319 71.8565 27.0131 72.1307 27.1978 72.4858C27.3853 72.8381 27.4577 73.25 27.4151 73.7216H25.9364C25.9308 73.4062 25.8327 73.1435 25.6424 72.9332C25.4521 72.7202 25.1737 72.6136 24.8072 72.6136C24.489 72.6136 24.1964 72.6989 23.9293 72.8693C23.6623 73.0369 23.4364 73.2784 23.2518 73.5938C23.0671 73.9091 22.9393 74.2869 22.8683 74.7273C22.7944 75.1733 22.7958 75.5568 22.8725 75.8778C22.9521 76.196 23.0955 76.4418 23.3029 76.6151C23.5131 76.7855 23.7788 76.8707 24.0998 76.8707C24.3271 76.8707 24.5387 76.8281 24.7347 76.7429C24.9308 76.6548 25.1026 76.5284 25.2504 76.3636C25.4009 76.1989 25.5188 75.9986 25.604 75.7628H27.0785C26.962 76.2259 26.7546 76.6364 26.4563 76.9943C26.1609 77.3494 25.7944 77.6278 25.3569 77.8295C24.9194 78.0284 24.4265 78.1278 23.8782 78.1278ZM27.9659 78L29.0568 71.4545H30.5994L29.5085 78H27.9659ZM30.054 70.517C29.8068 70.517 29.6023 70.4347 29.4403 70.2699C29.2784 70.1051 29.2074 69.9077 29.2273 69.6776C29.2472 69.4474 29.3509 69.25 29.5384 69.0852C29.7287 68.9205 29.946 68.8381 30.1903 68.8381C30.4375 68.8381 30.6406 68.9205 30.7997 69.0852C30.9616 69.25 31.0327 69.4474 31.0128 69.6776C30.9957 69.9077 30.892 70.1051 30.7017 70.2699C30.5142 70.4347 30.2983 70.517 30.054 70.517ZM31.163 78L32.6119 69.2727H35.8846C36.555 69.2727 37.0977 69.3977 37.5124 69.6477C37.9272 69.8949 38.2156 70.2372 38.3775 70.6747C38.5394 71.1094 38.5735 71.6051 38.4798 72.1619C38.3888 72.7216 38.1886 73.2187 37.8789 73.6534C37.5721 74.0881 37.1673 74.4304 36.6644 74.6804C36.1616 74.9276 35.5735 75.0511 34.9002 75.0511H32.7312L32.9485 73.7514H34.9045C35.2965 73.7514 35.6289 73.6832 35.9016 73.5469C36.1772 73.4105 36.3945 73.223 36.5536 72.9844C36.7127 72.7457 36.8178 72.4716 36.869 72.1619C36.9173 71.8523 36.9016 71.5795 36.8221 71.3438C36.7425 71.108 36.5877 70.9247 36.3576 70.794C36.1303 70.6605 35.8192 70.5938 35.4244 70.5938H33.9755L32.744 78H31.163ZM39.364 80.4545C39.1538 80.4545 38.962 80.4375 38.7887 80.4034C38.6183 80.3722 38.4833 80.3352 38.3839 80.2926L38.9464 79.0909C39.1594 79.1563 39.3512 79.1847 39.5217 79.1761C39.695 79.1705 39.854 79.1122 39.9989 79.0014C40.1467 78.8935 40.2915 78.7159 40.4336 78.4688L40.6296 78.1151L39.3768 71.4545H40.9535L41.6353 76.4062H41.7035L44.043 71.4545H45.7433L41.9123 78.7841C41.7276 79.1392 41.5131 79.4403 41.2688 79.6875C41.0245 79.9375 40.7447 80.1278 40.4293 80.2585C40.1168 80.3892 39.7617 80.4545 39.364 80.4545Z" fill="white"/>
</svg>
