<svg width="53" height="53" viewBox="0 0 53 53" fill="none" xmlns="http://www.w3.org/2000/svg">
<path d="M38.5782 33.9735C38.4451 36.4573 36.4573 38.4451 33.9735 38.5782L45.2926 51.9999C48.9999 51.9999 51.9999 48.9999 51.9999 45.2926L38.5782 33.9735Z" fill="white"/>
<path d="M20.2927 2C10.1899 2 2 10.1899 2 20.2927C2 30.3954 10.1899 38.5854 20.2927 38.5854C30.3954 38.5854 38.5854 30.3954 38.5854 20.2927C38.5854 10.1899 30.3954 2 20.2927 2ZM20.2927 33.5041C12.9962 33.5041 7.0813 27.5891 7.0813 20.2927C7.0813 12.9962 12.9962 7.0813 20.2927 7.0813C27.5891 7.0813 33.5041 12.9962 33.5041 20.2927C33.5041 27.5891 27.5891 33.5041 20.2927 33.5041Z" fill="white"/>
<path d="M20.2926 22.8842C19.4507 22.8842 18.7682 22.2017 18.7682 21.3598V14.1444C18.7682 13.3025 19.4507 12.62 20.2926 12.62C21.1344 12.62 21.817 13.3025 21.817 14.1444V21.3598C21.817 22.2017 21.1344 22.8842 20.2926 22.8842Z" fill="white"/>
<path d="M20.2926 27.9654C21.1345 27.9654 21.817 27.2829 21.817 26.441C21.817 25.5991 21.1345 24.9166 20.2926 24.9166C19.4507 24.9166 18.7682 25.5991 18.7682 26.441C18.7682 27.2829 19.4507 27.9654 20.2926 27.9654Z" fill="white"/>
<path d="M20.2927 33.5041C27.5891 33.5041 33.5041 27.5891 33.5041 20.2927C33.5041 12.9962 27.5891 7.0813 20.2927 7.0813C12.9962 7.0813 7.0813 12.9962 7.0813 20.2927C7.0813 27.5891 12.9962 33.5041 20.2927 33.5041Z" stroke="white" stroke-width="2" stroke-miterlimit="10" stroke-linecap="round" stroke-linejoin="round"/>
<path d="M20.2927 38.5854C30.3955 38.5854 38.5854 30.3955 38.5854 20.2927C38.5854 10.1899 30.3955 2 20.2927 2C10.1899 2 2 10.1899 2 20.2927C2 30.3955 10.1899 38.5854 20.2927 38.5854Z" stroke="white" stroke-width="3" stroke-miterlimit="10" stroke-linecap="round" stroke-linejoin="round"/>
<path d="M35.1301 31.0651L52 45.2927C52 49 49 52 45.2927 52L31.0651 35.1301" stroke="white" stroke-miterlimit="10" stroke-linecap="round" stroke-linejoin="round"/>
</svg>
