<svg width="60" height="60" viewBox="0 0 60 60" fill="none" xmlns="http://www.w3.org/2000/svg">
<path d="M56.0573 8.39725C55.9496 7.62366 55.393 6.98732 54.6406 6.77817L30.5256 0.0717647C30.1818 -0.0239216 29.8186 -0.0239216 29.4746 0.0717647L5.35956 6.77817C4.60715 6.98732 4.05055 7.6234 3.94283 8.39725C3.80296 9.40301 0.612114 33.1667 8.79643 44.9884C16.9711 56.7959 29.0304 59.8218 29.5397 59.945C29.6911 59.9816 29.8453 59.9996 30.0001 59.9996C30.1549 59.9996 30.3091 59.9813 30.4605 59.945C30.97 59.8218 43.0294 56.7959 51.2037 44.9884C59.3881 33.1669 56.1972 9.40327 56.0573 8.39725ZM45.5512 22.2707L29.1023 38.7196C28.7196 39.1023 28.2176 39.294 27.7159 39.294C27.2142 39.294 26.7122 39.1026 26.3295 38.7196L16.1593 28.5494C15.7915 28.1818 15.5849 27.683 15.5849 27.163C15.5849 26.643 15.7917 26.1442 16.1593 25.7766L18.1786 23.7573C18.9444 22.9918 20.186 22.9915 20.9515 23.7573L27.7159 30.5217L40.759 17.4783C41.1266 17.1105 41.6254 16.9039 42.1454 16.9039C42.6654 16.9039 43.1643 17.1105 43.5318 17.4783L45.5512 19.4976C46.3169 20.2634 46.3169 21.505 45.5512 22.2707Z" fill="white"/>
</svg>
