<svg width="63" height="62" viewBox="0 0 63 62" fill="none" xmlns="http://www.w3.org/2000/svg">
<path d="M61.3504 16.8376H1.5V10.7029C1.5 5.9149 5.39027 1.875 10.3279 1.875H52.6721C57.4601 1.875 61.5 5.76527 61.5 10.7029V16.8376H61.3504Z" stroke="#A783FF" stroke-width="2" stroke-miterlimit="10" stroke-linecap="round" stroke-linejoin="round"/>
<path d="M40.4027 58.7331H10.3279C5.5399 58.7331 1.5 54.8428 1.5 49.9052V43.7705H43.3953" stroke="#A783FF" stroke-width="2" stroke-miterlimit="10" stroke-linecap="round" stroke-linejoin="round"/>
<path d="M43.3953 37.7853H3.74439C2.54738 37.7853 1.5 36.738 1.5 35.541V25.0671C1.5 23.8701 2.54738 22.8228 3.74439 22.8228H59.106C60.303 22.8228 61.3504 23.8701 61.3504 25.0671V36.1395" stroke="#A783FF" stroke-width="2" stroke-miterlimit="10" stroke-linecap="round" stroke-linejoin="round"/>
<path d="M61.3503 48.2588H46.3877V60.2289H61.3503V48.2588Z" stroke="#A783FF" stroke-width="2" stroke-miterlimit="10" stroke-linecap="round" stroke-linejoin="round"/>
<path d="M58.3577 48.2591H49.3801V45.2666C49.3801 42.723 51.3253 40.7778 53.8689 40.7778C56.4125 40.7778 58.3577 42.723 58.3577 45.2666V48.2591Z" stroke="#A783FF" stroke-width="2" stroke-miterlimit="10" stroke-linecap="round" stroke-linejoin="round"/>
<path d="M23.9438 10.8524H8.9812C8.9812 9.2065 10.3278 7.85986 11.9737 7.85986H23.9438V10.8524Z" stroke="#A783FF" stroke-width="2" stroke-miterlimit="10" stroke-linecap="round" stroke-linejoin="round"/>
<path d="M23.9438 28.8076H8.9812V31.8001H23.9438V28.8076Z" stroke="#A783FF" stroke-width="2" stroke-miterlimit="10" stroke-linecap="round" stroke-linejoin="round"/>
<path d="M23.9438 49.7554H8.9812C8.9812 51.4013 10.3278 52.7479 11.9737 52.7479H23.9438V49.7554Z" stroke="#A783FF" stroke-width="2" stroke-miterlimit="10" stroke-linecap="round" stroke-linejoin="round"/>
</svg>
