<svg width="60" height="60" viewBox="0 0 60 60" fill="none" xmlns="http://www.w3.org/2000/svg">
<path d="M35.625 17.8125V19.3884C35.307 19.5386 35.0016 19.7141 34.7119 19.9134L33.3488 19.1259C33.2421 19.0644 33.1243 19.0245 33.0022 19.0085C32.8802 18.9925 32.7561 19.0007 32.6372 19.0327C32.5183 19.0646 32.4068 19.1197 32.3092 19.1947C32.2115 19.2698 32.1296 19.3633 32.0681 19.47L30.1931 22.7175C30.1314 22.8242 30.0914 22.9419 30.0752 23.0641C30.0591 23.1862 30.0672 23.3104 30.099 23.4294C30.1309 23.5484 30.1859 23.66 30.2609 23.7578C30.336 23.8555 30.4295 23.9375 30.5363 23.9991L32.4375 25.0978C32.5442 25.1603 32.6622 25.2012 32.7847 25.2179C32.9071 25.2347 33.0317 25.227 33.1513 25.1954C33.2708 25.1638 33.3829 25.1089 33.4811 25.0338C33.5793 24.9587 33.6617 24.8649 33.7235 24.7578C33.7854 24.6507 33.8254 24.5325 33.8413 24.4099C33.8573 24.2873 33.8488 24.1627 33.8164 24.0434C33.784 23.9241 33.7283 23.8124 33.6526 23.7146C33.5768 23.6169 33.4825 23.5352 33.375 23.4741L32.2819 22.8431L33.2194 21.2194L34.3125 21.8513C34.4806 21.9483 34.6747 21.9908 34.868 21.9728C35.0613 21.9548 35.2442 21.8773 35.3916 21.7509C35.8285 21.3781 36.3303 21.0889 36.8719 20.8978C37.0551 20.8338 37.214 20.7144 37.3265 20.5562C37.439 20.398 37.4996 20.2088 37.5 20.0147V18.75H39.375V20.0147C39.3751 20.2084 39.4352 20.3972 39.547 20.5554C39.6588 20.7135 39.8168 20.8331 39.9994 20.8978C40.541 21.0889 41.0428 21.3781 41.4797 21.7509C41.627 21.8773 41.81 21.9548 42.0033 21.9728C42.1966 21.9908 42.3907 21.9483 42.5588 21.8513L43.6519 21.2194L44.5894 22.8431L43.4963 23.4741C43.3285 23.5708 43.1949 23.7171 43.1136 23.8928C43.0324 24.0686 43.0075 24.2652 43.0425 24.4556C43.1525 25.0216 43.1525 25.6034 43.0425 26.1694C43.0075 26.3598 43.0324 26.5564 43.1136 26.7322C43.1949 26.9079 43.3285 27.0542 43.4963 27.1509L45.4013 28.2506C45.5436 28.3332 45.7054 28.3766 45.87 28.3763C46.0767 28.3766 46.2777 28.3087 46.4417 28.183C46.6058 28.0573 46.7237 27.8809 46.7772 27.6813C46.8307 27.4816 46.8167 27.2699 46.7374 27.0791C46.6581 26.8882 46.518 26.7289 46.3388 26.6259L44.9775 25.8403C44.9925 25.6631 45 25.4878 45 25.3125C45 25.1372 44.9925 24.9619 44.9775 24.7847L46.3388 23.9991C46.4455 23.9375 46.5391 23.8555 46.6141 23.7578C46.6891 23.66 46.7441 23.5484 46.776 23.4294C46.8079 23.3104 46.816 23.1862 46.7998 23.0641C46.7837 22.9419 46.7436 22.8242 46.6819 22.7175L44.8069 19.47C44.7454 19.3633 44.6635 19.2698 44.5659 19.1947C44.4682 19.1197 44.3568 19.0646 44.2379 19.0327C44.1189 19.0007 43.9949 18.9925 43.8728 19.0085C43.7507 19.0245 43.6329 19.0644 43.5263 19.1259L42.1631 19.9134C41.8734 19.7141 41.568 19.5386 41.25 19.3884V17.8125C41.25 17.5639 41.1512 17.3254 40.9754 17.1496C40.7996 16.9738 40.5612 16.875 40.3125 16.875H36.5625C36.3139 16.875 36.0754 16.9738 35.8996 17.1496C35.7238 17.3254 35.625 17.5639 35.625 17.8125Z" fill="#A783FF"/>
<path d="M44.8069 31.1548C44.9312 30.9395 44.9649 30.6836 44.9005 30.4434C44.8362 30.2032 44.6791 29.9985 44.4638 29.8742L42.5625 28.7735C42.3944 28.6765 42.2003 28.634 42.007 28.652C41.8137 28.6699 41.6308 28.7475 41.4834 28.8738C41.0465 29.2466 40.5447 29.5358 40.0031 29.727C39.8206 29.7917 39.6626 29.9113 39.5507 30.0694C39.4389 30.2275 39.3789 30.4164 39.3788 30.6101V31.8748H38.4375C38.1889 31.8748 37.9504 31.9736 37.7746 32.1494C37.5988 32.3252 37.5 32.5636 37.5 32.8123C37.5 33.0609 37.5988 33.2994 37.7746 33.4752C37.9504 33.651 38.1889 33.7498 38.4375 33.7498H40.3125C40.5611 33.7498 40.7996 33.651 40.9754 33.4752C41.1512 33.2994 41.25 33.0609 41.25 32.8123V31.2363C41.568 31.0862 41.8734 30.9107 42.1631 30.7113L43.5263 31.4988C43.6329 31.5604 43.7507 31.6003 43.8728 31.6163C43.9949 31.6323 44.1189 31.624 44.2378 31.5921C44.3568 31.5601 44.4682 31.5051 44.5659 31.43C44.6635 31.355 44.7454 31.2615 44.8069 31.1548Z" fill="#A783FF"/>
<path d="M41.25 25.3125C41.25 24.7562 41.085 24.2125 40.776 23.75C40.467 23.2874 40.0277 22.927 39.5138 22.7141C38.9999 22.5012 38.4344 22.4455 37.8888 22.554C37.3432 22.6626 36.8421 22.9304 36.4488 23.3238C36.0554 23.7171 35.7876 24.2182 35.679 24.7638C35.5705 25.3094 35.6262 25.8749 35.8391 26.3888C36.052 26.9027 36.4124 27.342 36.875 27.651C37.3375 27.9601 37.8812 28.125 38.4375 28.125C39.1834 28.125 39.8988 27.8287 40.4262 27.3012C40.9537 26.7738 41.25 26.0584 41.25 25.3125ZM37.5 25.3125C37.5 25.1271 37.555 24.9458 37.658 24.7917C37.761 24.6375 37.9074 24.5173 38.0787 24.4464C38.25 24.3754 38.4385 24.3568 38.6204 24.393C38.8023 24.4292 38.9693 24.5185 39.1004 24.6496C39.2315 24.7807 39.3208 24.9477 39.357 25.1296C39.3932 25.3115 39.3746 25.5 39.3036 25.6713C39.2327 25.8426 39.1125 25.989 38.9583 26.092C38.8042 26.195 38.6229 26.25 38.4375 26.25C38.1889 26.25 37.9504 26.1512 37.7746 25.9754C37.5988 25.7996 37.5 25.5611 37.5 25.3125Z" fill="#A783FF"/>
<path d="M9.40781 51.1641C9.98806 50.4933 10.309 49.6369 10.3125 48.75C10.3125 47.7554 9.91741 46.8016 9.21415 46.0984C8.51089 45.3951 7.55706 45 6.5625 45C5.56794 45 4.61411 45.3951 3.91085 46.0984C3.20759 46.8016 2.8125 47.7554 2.8125 48.75C2.81602 49.6369 3.13694 50.4933 3.71719 51.1641C3.15782 51.4933 2.69381 51.9625 2.3708 52.5255C2.04779 53.0885 1.87692 53.7259 1.875 54.375V57.1875C1.875 57.4361 1.97377 57.6746 2.14959 57.8504C2.3254 58.0262 2.56386 58.125 2.8125 58.125H6.5625C6.81114 58.125 7.0496 58.0262 7.22541 57.8504C7.40123 57.6746 7.5 57.4361 7.5 57.1875C7.5 56.9389 7.40123 56.7004 7.22541 56.5246C7.0496 56.3488 6.81114 56.25 6.5625 56.25H3.75V54.375C3.75 53.8777 3.94754 53.4008 4.29917 53.0492C4.65081 52.6975 5.12772 52.5 5.625 52.5H7.5C7.99728 52.5 8.47419 52.6975 8.82582 53.0492C9.17746 53.4008 9.375 53.8777 9.375 54.375V57.1875C9.375 57.4361 9.47377 57.6746 9.64959 57.8504C9.8254 58.0262 10.0639 58.125 10.3125 58.125C10.5611 58.125 10.7996 58.0262 10.9754 57.8504C11.1512 57.6746 11.25 57.4361 11.25 57.1875V54.375C11.2481 53.7259 11.0772 53.0885 10.7542 52.5255C10.4312 51.9625 9.96718 51.4933 9.40781 51.1641ZM6.5625 46.875C6.93334 46.875 7.29585 46.985 7.60419 47.191C7.91254 47.397 8.15286 47.6899 8.29477 48.0325C8.43669 48.3751 8.47382 48.7521 8.40147 49.1158C8.32913 49.4795 8.15055 49.8136 7.88832 50.0758C7.6261 50.338 7.29201 50.5166 6.92829 50.589C6.56458 50.6613 6.18758 50.6242 5.84497 50.4823C5.50236 50.3404 5.20952 50.1 5.00349 49.7917C4.79747 49.4834 4.6875 49.1208 4.6875 48.75C4.6875 48.2527 4.88504 47.7758 5.23667 47.4242C5.58831 47.0725 6.06522 46.875 6.5625 46.875Z" fill="#A783FF"/>
<path d="M29.3371 12.9609C29.5129 13.1366 29.7513 13.2354 29.9999 13.2354C30.2485 13.2354 30.4869 13.1366 30.6627 12.9609L35.4881 8.13556C36.1621 7.445 36.5369 6.5166 36.531 5.5516C36.5252 4.58661 36.1393 3.6628 35.4569 2.98044C34.7746 2.29807 33.8508 1.91214 32.8858 1.90632C31.9208 1.90049 30.9924 2.27523 30.3018 2.94931L29.9999 3.25118L29.6981 2.94931C29.0075 2.27523 28.0791 1.90049 27.1141 1.90632C26.1491 1.91214 25.2253 2.29807 24.5429 2.98044C23.8606 3.6628 23.4746 4.58661 23.4688 5.5516C23.463 6.5166 23.8377 7.445 24.5118 8.13556L29.3371 12.9609ZM25.8374 4.27493C26.1737 3.94037 26.6287 3.75255 27.1031 3.75255C27.5774 3.75255 28.0324 3.94037 28.3687 4.27493L29.3334 5.23962C29.5092 5.41537 29.7476 5.51411 29.9962 5.51411C30.2448 5.51411 30.4832 5.41537 30.659 5.23962L31.6274 4.27493C31.9688 3.96872 32.4145 3.80499 32.8729 3.81743C33.3314 3.82986 33.7676 4.01752 34.0918 4.34178C34.4161 4.66604 34.6037 5.10225 34.6162 5.56066C34.6286 6.01907 34.4649 6.46482 34.1587 6.80618L29.9999 10.9687L25.8374 6.80618C25.5031 6.46981 25.3154 6.01482 25.3154 5.54056C25.3154 5.06629 25.5031 4.6113 25.8374 4.27493Z" fill="#A783FF"/>
<path d="M50.6249 17.8125C51.9239 17.8126 53.2007 17.4754 54.3302 16.8338C55.4597 16.1921 56.4032 15.2681 57.0683 14.1523C57.7333 13.0364 58.0972 11.7669 58.1241 10.4682C58.1511 9.16943 57.8403 7.88595 57.2221 6.74344C57.1012 6.52943 56.9011 6.37147 56.6648 6.30357C56.4286 6.23567 56.1752 6.26326 55.9591 6.3804C55.743 6.49754 55.5815 6.69486 55.5095 6.92987C55.4375 7.16487 55.4606 7.41877 55.574 7.63688C56.2165 8.82544 56.4097 10.2055 56.1183 11.5249C55.8269 12.8442 55.0704 14.0145 53.9871 14.8219C52.9038 15.6293 51.566 16.0198 50.2185 15.922C48.8709 15.8242 47.6036 15.2446 46.6482 14.2892C45.6928 13.3338 45.1132 12.0665 45.0154 10.719C44.9176 9.3714 45.3081 8.03366 46.1155 6.95034C46.9229 5.86701 48.0932 5.1105 49.4126 4.81911C50.7319 4.52773 52.112 4.72095 53.3005 5.36344C53.5186 5.47678 53.7725 5.49992 54.0075 5.42789C54.2426 5.35587 54.4399 5.19443 54.557 4.97834C54.6741 4.76225 54.7017 4.5088 54.6338 4.27257C54.5659 4.03634 54.408 3.83622 54.194 3.71531C53.1899 3.17233 52.0751 2.86571 50.9345 2.81883C49.794 2.77194 48.6578 2.98603 47.6125 3.44476C46.5672 3.9035 45.6404 4.59479 44.9027 5.46595C44.1651 6.33711 43.636 7.36516 43.3559 8.47176C43.0757 9.57836 43.0518 10.7343 43.2861 11.8515C43.5203 12.9688 44.0065 14.0178 44.7076 14.9186C45.4086 15.8195 46.3061 16.5485 47.3315 17.05C48.357 17.5515 49.4834 17.8123 50.6249 17.8125Z" fill="#A783FF"/>
<path d="M53.9203 9.50888L49.2328 6.69638C49.0906 6.61093 48.9282 6.56475 48.7623 6.56258C48.5964 6.56041 48.4328 6.60231 48.2884 6.68401C48.144 6.76571 48.0238 6.88428 47.9402 7.02761C47.8566 7.17093 47.8125 7.33389 47.8125 7.49982V13.1248C47.8125 13.2908 47.8566 13.4537 47.9402 13.597C48.0238 13.7404 48.144 13.8589 48.2884 13.9406C48.4328 14.0223 48.5964 14.0642 48.7623 14.0621C48.9282 14.0599 49.0906 14.0137 49.2328 13.9283L53.9203 11.1158C54.0589 11.0324 54.1736 10.9146 54.2532 10.7738C54.3329 10.6331 54.3747 10.4741 54.3747 10.3123C54.3747 10.1506 54.3329 9.99159 54.2532 9.85081C54.1736 9.71002 54.0589 9.59223 53.9203 9.50888ZM49.6875 11.4683V9.15638L51.6159 10.3123L49.6875 11.4683Z" fill="#A783FF"/>
<path d="M18.3309 23.3438C18.4743 23.4154 18.6335 23.4491 18.7936 23.4416C18.9536 23.4342 19.1091 23.3858 19.2452 23.3012C19.3812 23.2166 19.4933 23.0985 19.5707 22.9583C19.6482 22.818 19.6884 22.6602 19.6875 22.5V20.4647C20.2355 20.2701 20.7098 19.9107 21.0455 19.4359C21.3812 18.9611 21.5618 18.394 21.5625 17.8125V14.0625C21.5625 13.3166 21.2662 12.6012 20.7387 12.0738C20.2113 11.5463 19.4959 11.25 18.75 11.25H11.25C10.5041 11.25 9.78871 11.5463 9.26126 12.0738C8.73382 12.6012 8.4375 13.3166 8.4375 14.0625V15.8269L5.625 17.2331V15.9375C5.625 15.6889 5.52623 15.4504 5.35041 15.2746C5.1746 15.0988 4.93614 15 4.6875 15C4.43886 15 4.2004 14.9012 4.02459 14.7254C3.84877 14.5496 3.75 14.3111 3.75 14.0625V10.3125C3.75 10.0639 3.84877 9.8254 4.02459 9.64959C4.2004 9.47377 4.43886 9.375 4.6875 9.375H12.1875C12.4361 9.375 12.6746 9.27623 12.8504 9.10041C13.0262 8.9246 13.125 8.68614 13.125 8.4375C13.125 8.18886 13.0262 7.9504 12.8504 7.77459C12.6746 7.59877 12.4361 7.5 12.1875 7.5H4.6875C3.94158 7.5 3.22621 7.79632 2.69876 8.32376C2.17132 8.85121 1.875 9.56658 1.875 10.3125V14.0625C1.87571 14.644 2.05629 15.2111 2.39198 15.6859C2.72767 16.1607 3.20202 16.5201 3.75 16.7147V18.75C3.74993 18.9098 3.79071 19.067 3.86848 19.2066C3.94625 19.3463 4.05842 19.4637 4.19435 19.5477C4.33027 19.6318 4.48543 19.6797 4.64508 19.687C4.80474 19.6942 4.9636 19.6605 5.10656 19.5891L8.44781 17.9175C8.47492 18.6433 8.78176 19.3305 9.30408 19.8351C9.8264 20.3398 10.5237 20.6228 11.25 20.625H12.9037L18.3309 23.3438ZM10.3125 17.8125V14.0625C10.3125 13.8139 10.4113 13.5754 10.5871 13.3996C10.7629 13.2238 11.0014 13.125 11.25 13.125H18.75C18.9986 13.125 19.2371 13.2238 19.4129 13.3996C19.5887 13.5754 19.6875 13.8139 19.6875 14.0625V17.8125C19.6875 18.0611 19.5887 18.2996 19.4129 18.4754C19.2371 18.6512 18.9986 18.75 18.75 18.75C18.5014 18.75 18.2629 18.8488 18.0871 19.0246C17.9113 19.2004 17.8125 19.4389 17.8125 19.6875V20.9831L13.5441 18.8484C13.4139 18.7836 13.2704 18.7499 13.125 18.75H11.25C11.0014 18.75 10.7629 18.6512 10.5871 18.4754C10.4113 18.2996 10.3125 18.0611 10.3125 17.8125Z" fill="#A783FF"/>
<path d="M39.028 53.5778C34.7996 55.2646 30.1831 55.7331 25.702 54.9303C21.2208 54.1275 17.0542 52.0855 13.6743 49.0357C13.5838 48.9482 13.4767 48.8798 13.3592 48.8345C13.2418 48.7893 13.1164 48.7682 12.9906 48.7725C12.8649 48.7768 12.7412 48.8063 12.6271 48.8594C12.513 48.9125 12.4107 48.988 12.3264 49.0814C12.2421 49.1749 12.1775 49.2843 12.1364 49.4033C12.0953 49.5222 12.0785 49.6483 12.0872 49.7738C12.0958 49.8994 12.1296 50.0219 12.1866 50.1341C12.2436 50.2463 12.3227 50.3459 12.419 50.4269C16.0584 53.7116 20.5453 55.911 25.371 56.7758C30.1967 57.6406 35.1682 57.1362 39.7218 55.3197C39.9509 55.2264 40.1339 55.0463 40.2308 54.8187C40.3277 54.5911 40.3307 54.3344 40.2392 54.1046C40.1476 53.8747 39.969 53.6904 39.7421 53.5917C39.5152 53.4931 39.2586 53.4881 39.028 53.5778Z" fill="#A783FF"/>
<path d="M6.57839 21.2814C6.46291 21.2387 6.34014 21.2191 6.2171 21.2238C6.09406 21.2285 5.97315 21.2575 5.86128 21.3089C5.74941 21.3604 5.64877 21.4333 5.56511 21.5237C5.48145 21.614 5.41641 21.72 5.3737 21.8355C4.13305 25.2001 3.59408 28.783 3.78998 32.3638C3.98587 35.9445 4.91247 39.4472 6.51277 42.6564C6.56817 42.7665 6.64472 42.8647 6.73805 42.9452C6.83137 43.0258 6.93965 43.0871 7.0567 43.1258C7.17374 43.1645 7.29726 43.1798 7.42021 43.1708C7.54315 43.1617 7.66311 43.1285 7.77324 43.0731C7.88336 43.0177 7.9815 42.9412 8.06204 42.8479C8.14258 42.7545 8.20395 42.6463 8.24265 42.5292C8.28134 42.4122 8.29661 42.2886 8.28756 42.1657C8.27852 42.0428 8.24536 41.9228 8.18995 41.8127C6.70482 38.8334 5.84487 35.5817 5.66301 32.2578C5.48115 28.9338 5.98122 25.6078 7.13245 22.4842C7.21818 22.2512 7.208 21.9938 7.10413 21.7683C7.00026 21.5428 6.81119 21.3677 6.57839 21.2814Z" fill="#A783FF"/>
<path d="M52.6706 42.2323C52.7829 42.2831 52.9041 42.3113 53.0272 42.3152C53.1504 42.3191 53.2731 42.2988 53.3884 42.2552C53.5037 42.2117 53.6093 42.1458 53.6991 42.0615C53.7889 41.9771 53.8612 41.8758 53.9119 41.7635C55.4651 38.3344 56.2624 34.6113 56.2498 30.8468C56.2372 27.0823 55.4149 23.3646 53.8387 19.946C53.7346 19.7201 53.5449 19.5449 53.3115 19.4588C53.0781 19.3727 52.8201 19.3829 52.5942 19.4871C52.3683 19.5913 52.1931 19.7809 52.107 20.0143C52.0209 20.2477 52.0311 20.5057 52.1353 20.7316C53.5992 23.9057 54.363 27.3576 54.3748 30.8529C54.3866 34.3483 53.6462 37.8053 52.2037 40.9891C52.1526 41.1014 52.124 41.2226 52.1198 41.3459C52.1156 41.4692 52.1358 41.5921 52.1791 41.7076C52.2225 41.8231 52.2882 41.9289 52.3726 42.0189C52.4569 42.1089 52.5582 42.1814 52.6706 42.2323Z" fill="#A783FF"/>
<path d="M40.3125 8.4375C40.8303 8.4375 41.25 8.01777 41.25 7.5C41.25 6.98223 40.8303 6.5625 40.3125 6.5625C39.7947 6.5625 39.375 6.98223 39.375 7.5C39.375 8.01777 39.7947 8.4375 40.3125 8.4375Z" fill="#A783FF"/>
<path d="M20.625 9.375C21.1428 9.375 21.5625 8.95527 21.5625 8.4375C21.5625 7.91973 21.1428 7.5 20.625 7.5C20.1072 7.5 19.6875 7.91973 19.6875 8.4375C19.6875 8.95527 20.1072 9.375 20.625 9.375Z" fill="#A783FF"/>
<path d="M35.625 40.3125C35.8736 40.3125 36.1121 40.2137 36.2879 40.0379C36.4637 39.8621 36.5625 39.6236 36.5625 39.375V33.75C36.5625 33.5014 36.4637 33.2629 36.2879 33.0871C36.1121 32.9113 35.8736 32.8125 35.625 32.8125H33.9806C33.9291 32.6822 33.8756 32.5528 33.8175 32.4225L34.9809 31.2591C35.1567 31.0833 35.2554 30.8448 35.2554 30.5963C35.2554 30.3477 35.1567 30.1092 34.9809 29.9334L31.0041 25.9566C30.8283 25.7808 30.5898 25.6821 30.3412 25.6821C30.0927 25.6821 29.8542 25.7808 29.6784 25.9566L28.5141 27.12C28.3847 27.0619 28.2553 27.0084 28.125 26.9569V25.3125C28.125 25.0639 28.0262 24.8254 27.8504 24.6496C27.6746 24.4738 27.4361 24.375 27.1875 24.375H21.5625C21.3139 24.375 21.0754 24.4738 20.8996 24.6496C20.7238 24.8254 20.625 25.0639 20.625 25.3125V26.9569C20.4947 27.0084 20.3653 27.0619 20.2359 27.12L19.0716 25.9566C18.8958 25.7808 18.6573 25.6821 18.4087 25.6821C18.1602 25.6821 17.9217 25.7808 17.7459 25.9566L13.7691 29.9334C13.5933 30.1092 13.4946 30.3477 13.4946 30.5963C13.4946 30.8448 13.5933 31.0833 13.7691 31.2591L14.9325 32.4225C14.8753 32.5528 14.8209 32.6822 14.7684 32.8125H13.125C12.8764 32.8125 12.6379 32.9113 12.4621 33.0871C12.2863 33.2629 12.1875 33.5014 12.1875 33.75V39.375C12.1875 39.6236 12.2863 39.8621 12.4621 40.0379C12.6379 40.2137 12.8764 40.3125 13.125 40.3125H14.7684C14.8209 40.4428 14.8753 40.5722 14.9325 40.7025L13.7691 41.8659C13.5933 42.0417 13.4946 42.2802 13.4946 42.5287C13.4946 42.7773 13.5933 43.0158 13.7691 43.1916L17.7459 47.1684C17.9217 47.3442 18.1602 47.4429 18.4087 47.4429C18.6573 47.4429 18.8958 47.3442 19.0716 47.1684L20.2359 46.005C20.3653 46.0631 20.4947 46.1166 20.625 46.1681V47.8125C20.625 48.0611 20.7238 48.2996 20.8996 48.4754C21.0754 48.6512 21.3139 48.75 21.5625 48.75C21.8111 48.75 22.0496 48.6512 22.2254 48.4754C22.4012 48.2996 22.5 48.0611 22.5 47.8125V45.5072C22.5 45.3077 22.4364 45.1134 22.3184 44.9525C22.2003 44.7917 22.0341 44.6727 21.8437 44.6128C21.3724 44.4623 20.915 44.2709 20.4769 44.0409C20.3 43.9485 20.0982 43.915 19.9009 43.9451C19.7037 43.9753 19.5212 44.0677 19.38 44.2087L18.4087 45.18L15.7575 42.5287L16.7287 41.5575C16.8698 41.4163 16.9622 41.2338 16.9924 41.0366C17.0225 40.8393 16.989 40.6375 16.8966 40.4606C16.666 40.0224 16.4746 39.5647 16.3247 39.0928C16.2648 38.9025 16.1458 38.7362 15.985 38.6182C15.8241 38.5002 15.6298 38.4366 15.4303 38.4366H14.0625V34.6875H15.4303C15.6298 34.6875 15.8241 34.6239 15.985 34.5059C16.1458 34.3878 16.2648 34.2216 16.3247 34.0312C16.4746 33.5593 16.666 33.1016 16.8966 32.6634C16.989 32.4866 17.0225 32.2848 16.9924 32.0875C16.9622 31.8902 16.8698 31.7077 16.7287 31.5666L15.7575 30.5953L18.4087 27.9441L19.38 28.9153C19.5212 29.0564 19.7037 29.1487 19.9009 29.1789C20.0982 29.2091 20.3 29.1755 20.4769 29.0831C20.915 28.8531 21.3724 28.6618 21.8437 28.5113C22.0341 28.4514 22.2003 28.3324 22.3184 28.1715C22.4364 28.0107 22.5 27.8164 22.5 27.6169V26.25H26.25V27.6178C26.25 27.8173 26.3136 28.0116 26.4316 28.1725C26.5497 28.3333 26.7159 28.4523 26.9063 28.5122C27.3776 28.6627 27.835 28.8541 28.2731 29.0841C28.45 29.1765 28.6518 29.21 28.8491 29.1799C29.0463 29.1497 29.2288 29.0573 29.37 28.9162L30.3412 27.945L32.9925 30.5963L32.0212 31.5675C31.8802 31.7087 31.7878 31.8912 31.7576 32.0884C31.7275 32.2857 31.761 32.4875 31.8534 32.6644C32.0836 33.1027 32.275 33.5604 32.4253 34.0322C32.4852 34.2225 32.6042 34.3888 32.765 34.5068C32.9259 34.6248 33.1202 34.6884 33.3197 34.6884H34.6875V38.4384H33.3197C33.1202 38.4384 32.9259 38.5021 32.765 38.6201C32.6042 38.7381 32.4852 38.9044 32.4253 39.0947C32.275 39.5664 32.0836 40.0241 31.8534 40.4625C31.761 40.6394 31.7275 40.8412 31.7576 41.0384C31.7878 41.2357 31.8802 41.4182 32.0212 41.5594L32.9925 42.5306L30.3412 45.1819L29.37 44.2106C29.2288 44.0695 29.0463 43.9772 28.8491 43.947C28.6518 43.9168 28.45 43.9504 28.2731 44.0428C27.835 44.2728 27.3776 44.4642 26.9063 44.6147C26.7159 44.6745 26.5497 44.7935 26.4316 44.9544C26.3136 45.1152 26.25 45.3096 26.25 45.5091V46.875H25.3125C25.0639 46.875 24.8254 46.9738 24.6496 47.1496C24.4738 47.3254 24.375 47.5639 24.375 47.8125C24.375 48.0611 24.4738 48.2996 24.6496 48.4754C24.8254 48.6512 25.0639 48.75 25.3125 48.75H27.1875C27.4361 48.75 27.6746 48.6512 27.8504 48.4754C28.0262 48.2996 28.125 48.0611 28.125 47.8125V46.1681C28.2553 46.1166 28.3847 46.0631 28.5141 46.005L29.6784 47.1684C29.8542 47.3442 30.0927 47.4429 30.3412 47.4429C30.5898 47.4429 30.8283 47.3442 31.0041 47.1684L34.9809 43.1916C35.1567 43.0158 35.2554 42.7773 35.2554 42.5287C35.2554 42.2802 35.1567 42.0417 34.9809 41.8659L33.8175 40.7025C33.8756 40.5722 33.9291 40.4428 33.9806 40.3125H35.625Z" fill="#A783FF"/>
<path d="M24.3749 32.8125C24.8416 32.8154 25.3037 32.9057 25.7371 33.0788C25.967 33.1627 26.2206 33.1535 26.4437 33.053C26.6669 32.9525 26.8419 32.7687 26.9314 32.5409C27.0209 32.3131 27.0177 32.0594 26.9226 31.8339C26.8275 31.6084 26.648 31.429 26.4224 31.3341C25.2132 30.8566 23.8764 30.8105 22.6371 31.2034C21.3978 31.5963 20.3318 32.4044 19.6186 33.4914C18.9054 34.5784 18.5886 35.878 18.7215 37.1713C18.8545 38.4645 19.4291 39.6725 20.3485 40.5916C21.268 41.5108 22.4761 42.085 23.7694 42.2176C25.0627 42.3502 26.3622 42.033 27.449 41.3195C28.5358 40.606 29.3435 39.5397 29.7361 38.3003C30.1287 37.0609 30.0821 35.7241 29.6043 34.515C29.5134 34.2835 29.3343 34.0976 29.1064 33.9982C28.8784 33.8988 28.6203 33.894 28.3888 33.9848C28.1574 34.0757 27.9715 34.2548 27.872 34.4828C27.7726 34.7107 27.7678 34.9688 27.8587 35.2003C28.1485 35.946 28.1919 36.7649 27.9825 37.5371C27.773 38.3092 27.3218 38.994 26.6949 39.491C26.0679 39.9881 25.2983 40.2712 24.4987 40.299C23.6991 40.3268 22.9117 40.0977 22.2518 39.6454C21.5919 39.1931 21.0942 38.5413 20.8316 37.7855C20.5691 37.0298 20.5556 36.2098 20.793 35.4458C21.0304 34.6818 21.5062 34.0139 22.1508 33.54C22.7954 33.0661 23.5749 32.8112 24.3749 32.8125Z" fill="#A783FF"/>
<path d="M57.1875 51.5625C57.4361 51.5625 57.6746 51.4637 57.8504 51.2879C58.0262 51.1121 58.125 50.8736 58.125 50.625V47.8125C58.125 47.5639 58.0262 47.3254 57.8504 47.1496C57.6746 46.9738 57.4361 46.875 57.1875 46.875H53.4375C53.1889 46.875 52.9504 46.9738 52.7746 47.1496C52.5988 47.3254 52.5 47.5639 52.5 47.8125H52.2384L50.5763 42.8287C50.5141 42.6421 50.3948 42.4798 50.2353 42.3647C50.0758 42.2497 49.8842 42.1876 49.6875 42.1875C49.1107 42.1875 48.5421 42.3245 48.0286 42.5873C47.5151 42.8502 47.0714 43.2313 46.7341 43.6992C46.3968 44.1672 46.1755 44.7086 46.0885 45.2788C46.0016 45.8491 46.0513 46.4318 46.2338 46.9791L46.515 47.8125H45C44.2541 47.8125 43.5387 48.1088 43.0113 48.6363C42.4838 49.1637 42.1875 49.8791 42.1875 50.625V55.3125C42.1875 56.0584 42.4838 56.7738 43.0113 57.3012C43.5387 57.8287 44.2541 58.125 45 58.125H50.625C50.8101 58.1247 50.9911 58.0699 51.1453 57.9675L52.5 57.0638V57.1875C52.5 57.4361 52.5988 57.6746 52.7746 57.8504C52.9504 58.0262 53.1889 58.125 53.4375 58.125H57.1875C57.4361 58.125 57.6746 58.0262 57.8504 57.8504C58.0262 57.6746 58.125 57.4361 58.125 57.1875V54.375C58.125 54.1264 58.0262 53.8879 57.8504 53.7121C57.6746 53.5363 57.4361 53.4375 57.1875 53.4375C56.9389 53.4375 56.7004 53.5363 56.5246 53.7121C56.3488 53.8879 56.25 54.1264 56.25 54.375V56.25H54.375V48.75H56.25V50.625C56.25 50.8736 56.3488 51.1121 56.5246 51.2879C56.7004 51.4637 56.9389 51.5625 57.1875 51.5625ZM50.3438 56.25H45C44.7514 56.25 44.5129 56.1512 44.3371 55.9754C44.1613 55.7996 44.0625 55.5611 44.0625 55.3125V50.625C44.0625 50.3764 44.1613 50.1379 44.3371 49.9621C44.5129 49.7863 44.7514 49.6875 45 49.6875H47.8125C47.961 49.6874 48.1073 49.652 48.2394 49.5843C48.3715 49.5166 48.4857 49.4184 48.5725 49.298C48.6593 49.1775 48.7162 49.0381 48.7386 48.8914C48.761 48.7446 48.7482 48.5946 48.7013 48.4537L48.0131 46.3913C47.8706 45.9605 47.8986 45.4914 48.0915 45.0807C48.2844 44.67 48.6275 44.3488 49.05 44.1834L50.6737 49.0509C50.7367 49.2367 50.8563 49.398 51.0157 49.5122C51.1752 49.6264 51.3664 49.6877 51.5625 49.6875H52.5V54.8109L50.3438 56.25Z" fill="#A783FF"/>
</svg>
