<svg width="158" height="56" viewBox="0 0 158 56" fill="none" xmlns="http://www.w3.org/2000/svg">
<path d="M19.5609 22.7944C15.9778 22.3737 15.7124 17.615 11.1208 18.0357C8.89131 18.0357 6.82109 18.9559 6.82109 20.9803C6.82109 24.03 11.572 24.3193 14.4384 25.0817C19.322 26.554 24.0464 27.5531 24.0464 32.8113C24.0464 39.4892 18.7647 41.8028 11.7843 41.8028C5.94523 41.8028 0.026535 39.7521 0.026535 34.4413C0.026535 32.969 1.45976 31.8122 2.83991 31.8122C4.59163 31.8122 5.20208 32.5484 5.81252 33.7577C7.16613 36.1239 8.67898 37.3859 12.4478 37.3859C14.8365 37.3859 17.2783 36.492 17.2783 34.4413C17.2783 31.523 14.2792 30.892 11.1739 30.1822C5.67982 28.6573 0.955478 27.8685 0.398112 21.8216C-0.185795 11.5155 21.4984 11.1211 22.7458 20.1653C22.7193 21.7953 21.1799 22.7944 19.5609 22.7944ZM45.359 13.7502C52.9763 13.7502 57.3025 20.0601 57.3025 27.8423C57.3025 35.6507 53.109 41.9343 45.359 41.9343C41.0593 41.9343 38.3786 40.1202 36.4411 37.3333V47.6394C36.4411 50.7418 35.4325 52.2404 33.15 52.2404C30.3632 52.2404 29.8589 50.4789 29.8589 47.6394V17.6676C29.8589 15.2225 30.894 13.724 33.15 13.724C35.2733 13.724 36.4411 15.3803 36.4411 17.6676V18.5089C38.591 15.8272 41.0593 13.7502 45.359 13.7502ZM43.5542 36.5709C48.0131 36.5709 50.0037 32.4958 50.0037 27.7371C50.0037 23.0836 47.9866 18.9033 43.5542 18.9033C38.9095 18.9033 36.7596 22.6892 36.7596 27.7371C36.7596 32.6535 38.936 36.5709 43.5542 36.5709ZM62.4781 21.1117C62.4781 15.6958 68.7683 13.7502 74.8728 13.7502C83.4456 13.7502 86.9756 16.2216 86.9756 24.4244V32.3117C86.9756 34.1784 88.1434 37.9117 88.1434 39.0423C88.1434 40.7512 86.551 41.8291 84.8523 41.8291C82.9679 41.8291 81.5612 39.6207 80.5527 38.0432C77.7658 40.2517 74.8197 41.8291 70.3077 41.8291C65.318 41.8291 61.3899 38.9108 61.3899 34.0995C61.3899 29.8404 64.4687 27.3953 68.1844 26.554C68.1844 26.5803 80.128 23.7671 80.128 23.7408C80.128 20.1127 78.8275 18.5089 74.979 18.5089C71.5817 18.5089 69.8565 19.4291 68.5295 21.4535C67.4678 22.9784 67.6005 23.8986 65.5569 23.8986C63.9113 23.8723 62.4781 22.7681 62.4781 21.1117ZM72.6699 37.3859C77.8985 37.3859 80.1014 34.6516 80.1014 29.2094V28.0526C78.6948 28.5258 73.0149 29.9193 71.4755 30.1559C69.83 30.4714 68.1844 31.6808 68.1844 33.6C68.2375 35.7033 70.4139 37.3859 72.6699 37.3859ZM111.075 3.47043C118.454 3.47043 126.442 7.83475 126.442 14.7756C126.442 16.5634 125.089 18.0357 123.311 18.0357C120.895 18.0357 120.55 16.7474 119.489 14.9333C117.71 11.6995 115.614 9.54366 111.049 9.54366C103.989 9.49108 100.83 15.4854 100.83 22.9521C100.83 30.4714 103.458 35.8873 110.757 35.8873C115.614 35.8873 118.294 33.1005 119.674 29.4986C120.232 27.8423 121.24 26.2385 123.337 26.2385C124.983 26.2385 126.628 27.8948 126.628 29.6826C126.628 37.0441 119.037 42.1446 111.234 42.1446C102.688 42.1446 97.8575 38.569 95.2034 32.6272C93.9029 29.7878 93.0801 26.8432 93.0801 22.7944C93.027 11.384 99.742 3.47043 111.075 3.47043ZM153.276 13.7502C155.16 13.7502 156.248 14.9596 156.248 16.8526C156.248 17.615 155.638 19.1399 155.399 19.9549L146.322 43.5906C144.305 48.7174 142.792 52.2667 135.918 52.2667C132.653 52.2667 129.813 51.9775 129.813 49.1643C129.813 47.5343 131.061 46.7193 132.786 46.7193C133.104 46.7193 133.635 46.877 133.954 46.877C134.458 46.877 134.803 47.0347 135.121 47.0347C138.572 47.0347 139.05 43.538 140.27 41.1193L131.512 19.6394C131.008 18.4826 130.663 17.6939 130.663 17.0103C130.663 15.1174 132.149 13.7502 134.139 13.7502C136.369 13.7502 137.245 15.4855 137.802 17.3784L143.588 34.415L149.374 18.6667C150.25 16.2216 150.33 13.7502 153.276 13.7502Z" fill="#09A3D5"/>
</svg>
