<svg width="67" height="67" viewBox="0 0 67 67" fill="none" xmlns="http://www.w3.org/2000/svg">
<path fill-rule="evenodd" clip-rule="evenodd" d="M46.9823 15.2169L46.4961 15.7031L54.49 23.6971C56.4709 25.6672 58.0414 28.0107 59.1106 30.5918C60.1797 33.173 60.7263 35.9406 60.7187 38.7344C60.7242 43.1325 59.3427 47.4204 56.7708 50.9881C54.1988 54.5557 50.5672 57.2215 46.3928 58.6062L45.7321 56.6196C49.4891 55.3732 52.7574 52.9739 55.0721 49.7629C57.3868 46.5519 58.63 42.6927 58.625 38.7344C58.6318 36.2157 58.1391 33.7206 57.1752 31.3936C56.2113 29.0665 54.7954 26.9538 53.0096 25.1777L44.5819 16.75H42.3087L42.4356 16.8769C42.9231 17.3619 43.3097 17.9387 43.5728 18.5741C43.836 19.2094 43.9706 19.8906 43.9687 20.5783V23.0313H41.875V20.5783C41.8761 20.1657 41.7953 19.7569 41.6374 19.3757C41.4795 18.9945 41.2476 18.6484 40.955 18.3574L39.7812 17.1837L38.6073 18.3575C38.3148 18.6485 38.0828 18.9946 37.925 19.3758C37.7671 19.757 37.6863 20.1657 37.6875 20.5783V23.0313H35.5937V20.5783C35.5918 19.8906 35.7264 19.2094 35.9895 18.5741C36.2527 17.9388 36.6392 17.362 37.1268 16.877L37.2538 16.75H34.9805L26.5528 25.1777C24.767 26.9538 23.3511 29.0665 22.3872 31.3936C21.4233 33.7206 20.9306 36.2157 20.9375 38.7344C20.9334 41.1112 21.3813 43.4671 22.2572 45.6766L20.3109 46.4485C19.3374 43.9933 18.8395 41.3755 18.8437 38.7344C18.8361 35.9406 19.3827 33.173 20.4518 30.5918C21.521 28.0107 23.0915 25.6672 25.0724 23.6971L33.0986 15.6709C31.3218 13.5571 30.3514 10.8823 30.3593 8.12097C30.3587 7.36536 30.5961 6.62876 31.0379 6.01577C31.4797 5.40278 32.1034 4.94457 32.8204 4.70623L34.2158 4.2412C34.3671 4.19088 34.5278 4.17573 34.6858 4.1969C34.8438 4.21807 34.9949 4.275 35.1275 4.36336L36.4716 5.25945C36.7344 5.43454 37.0543 5.50239 37.3655 5.44909C37.6768 5.39579 37.9558 5.22537 38.1454 4.97281L39.1479 3.63623C39.508 3.15838 39.9739 2.77045 40.5091 2.50284C41.0443 2.23523 41.6342 2.09521 42.2326 2.09377C42.9492 2.09133 43.6521 2.28972 44.2617 2.66646C44.8713 3.04319 45.3631 3.58319 45.6814 4.22522L46.7095 6.28127H49.2031C49.4807 6.28128 49.747 6.39157 49.9433 6.5879C50.1397 6.78422 50.25 7.0505 50.25 7.32815C50.254 8.79382 49.9672 10.2457 49.4063 11.5998C48.8455 12.954 48.0215 14.1834 46.9823 15.2169ZM34.9951 14.6563H44.582L45.5018 13.7364C46.9507 12.2959 47.8659 10.405 48.0968 8.37502H46.0625C45.868 8.37503 45.6775 8.3209 45.5121 8.2187C45.3467 8.1165 45.2131 7.97026 45.1261 7.79638L43.8088 5.16168C43.6633 4.86826 43.4385 4.62146 43.1599 4.44927C42.8813 4.27709 42.5601 4.18641 42.2326 4.18752C41.9591 4.18819 41.6895 4.25217 41.445 4.37447C41.2004 4.49677 40.9874 4.67405 40.8228 4.89243L39.8204 6.22901C39.3096 6.90963 38.5577 7.36892 37.719 7.51258C36.8803 7.65624 36.0184 7.47337 35.3103 7.00152L34.3921 6.38939L33.4825 6.69264C33.1826 6.79233 32.9217 6.98398 32.7369 7.24039C32.5521 7.4968 32.4528 7.80491 32.4531 8.12097C32.4466 10.5419 33.3544 12.876 34.9951 14.6563ZM31.7499 52.9504L43.4311 59.2402C44.0218 59.5583 44.4895 60.0645 44.7599 60.6785C45.0304 61.2925 45.0882 61.9792 44.9242 62.6298C44.7602 63.2804 44.3837 63.8576 43.8545 64.27C43.3252 64.6824 42.6735 64.9063 42.0025 64.9063H7.32812V62.8126H19.8906V51.2969H7.32812V49.2032H20.6662L28.503 44.8494C29.1707 44.4785 29.9396 44.3311 30.6971 44.4288C31.4546 44.5265 32.1609 44.8642 32.7126 45.3925C33.2643 45.9207 33.6324 46.6117 33.7629 47.3643C33.8934 48.1168 33.7795 48.8914 33.4379 49.5745L31.7499 52.9504ZM21.9844 62.8126H42.0025C42.2073 62.8125 42.4061 62.7442 42.5676 62.6184C42.7291 62.4925 42.8439 62.3164 42.894 62.1179C42.944 61.9194 42.9264 61.7098 42.8438 61.5225C42.7613 61.3351 42.6186 61.1807 42.4383 61.0837L29.863 54.3125C29.6234 54.1834 29.4434 53.9661 29.3613 53.7066C29.2792 53.4471 29.3013 53.1659 29.423 52.9224L31.5652 48.6381C31.7068 48.3549 31.754 48.0339 31.6999 47.722C31.6458 47.4101 31.4933 47.1237 31.2646 46.9047C31.0359 46.6858 30.7432 46.5458 30.4292 46.5053C30.1153 46.4648 29.7966 46.5259 29.5198 46.6797L21.9844 50.866V62.8126ZM53.3906 38.7344C53.3891 36.7533 52.9551 34.7964 52.1189 33.0004C51.2828 31.2044 50.0646 29.6126 48.5494 28.3363C47.0343 27.0599 45.2588 26.1297 43.3469 25.6106C41.435 25.0916 39.4328 24.9962 37.4802 25.3312C35.5277 25.6661 33.6717 26.4234 32.0421 27.5499C30.4125 28.6765 29.0486 30.1453 28.0454 31.8536C27.0423 33.562 26.4243 35.4688 26.2345 37.4408C26.0447 39.4127 26.2877 41.4024 26.9466 43.2707L28.9206 42.573C28.0529 40.113 28.047 37.4311 28.9039 34.9673C29.7608 32.5035 31.4296 30.4041 33.6366 29.0135C35.8436 27.6229 38.4576 27.0236 41.05 27.314C43.6423 27.6044 46.059 28.7673 47.9035 30.6118C49.7481 32.4563 50.911 34.873 51.2014 37.4653C51.4919 40.0576 50.8927 42.6717 49.5021 44.8787C48.1115 47.0857 46.0121 48.7546 43.5484 49.6115C41.0846 50.4685 38.4027 50.4626 35.9427 49.5949L35.2448 51.5691C37.2978 52.2928 39.4944 52.5138 41.6505 52.2136C43.8065 51.9134 45.8592 51.1007 47.6364 49.8437C49.4136 48.5866 50.8636 46.9219 51.8648 44.9889C52.866 43.056 53.3892 40.9112 53.3906 38.7344ZM36.102 33.4398L37.1792 35.2353L35.5938 36.1865V41.2823L39.7812 43.7948L43.9688 41.2823L43.9687 36.1863L39.7812 33.6739L38.575 34.3977L37.4979 32.6023L39.2427 31.5554C39.4054 31.4578 39.5915 31.4062 39.7812 31.4062C39.971 31.4062 40.1571 31.4578 40.3198 31.5554L45.5541 34.6959C45.7092 34.7889 45.8375 34.9205 45.9265 35.0778C46.0156 35.2351 46.0624 35.4128 46.0624 35.5936L46.0625 41.875C46.0625 42.0558 46.0157 42.2335 45.9266 42.3908C45.8376 42.5481 45.7093 42.6797 45.5543 42.7727L40.3199 45.9134C40.1572 46.011 39.971 46.0625 39.7812 46.0625C39.5915 46.0625 39.4053 46.011 39.2426 45.9134L34.0082 42.7727C33.8532 42.6797 33.7249 42.5481 33.6359 42.3908C33.5468 42.2335 33.5 42.0558 33.5 41.875V35.5938C33.5 35.413 33.5468 35.2353 33.6359 35.0779C33.725 34.9206 33.8533 34.789 34.0083 34.696L36.102 33.4398Z" fill="url(#paint0_linear_467_446)"/>
<defs>
<linearGradient id="paint0_linear_467_446" x1="34.1375" y1="38.7344" x2="46.0894" y2="38.4501" gradientUnits="userSpaceOnUse">
<stop stop-color="#6F3AF1"/>
<stop offset="0.690345" stop-color="#FB6369"/>
</linearGradient>
</defs>
</svg>
