<svg width="66" height="66" viewBox="0 0 66 66" fill="none" xmlns="http://www.w3.org/2000/svg">
<path d="M34.9336 34.1163V47.6515L46.6554 40.8839V27.3488L34.9336 34.1163Z" fill="#FFFCFC"/>
<path d="M33 30.7673L44.7217 23.9996L33 17.2322L21.2782 23.9998L33 30.7673Z" fill="#FFFCFC"/>
<path d="M31.0664 34.1163L19.3446 27.3488V40.8839L31.0664 47.6515V34.1163Z" fill="#FFFCFC"/>
<path d="M60.0373 40.9078C61.54 35.7705 61.5383 30.2586 60.0324 25.0964C62.5299 23.0313 63.2521 19.3981 61.5789 16.5C59.907 13.6039 56.4031 12.4125 53.3671 13.539C49.6695 9.669 44.8951 6.9144 39.6716 5.63746C39.1317 2.44213 36.3464 0 33 0C29.6557 0 26.872 2.43891 26.3298 5.63114C21.1297 6.89829 16.3573 9.65547 12.6397 13.5403C11.3313 13.0509 9.90699 12.9779 8.53053 13.3467C6.78437 13.8146 5.32502 14.9344 4.42126 16.5C2.74908 19.3963 3.46941 23.0265 5.96285 25.0922C4.46019 30.2294 4.46186 35.7413 5.96774 40.9036C3.47031 42.9687 2.74792 46.6018 4.42113 49.5C5.32502 51.0656 6.78437 52.1854 8.5304 52.6532C9.11344 52.8094 9.70512 52.8868 10.2929 52.8868C11.0905 52.8868 11.8802 52.741 12.6323 52.4606C16.33 56.3309 21.1047 59.0856 26.3285 60.3627C26.8683 63.5579 29.6535 66 33 66C36.3442 66 39.1281 63.5611 39.6703 60.3687C44.87 59.1017 49.6422 56.3448 53.3596 52.4602C54.1243 52.745 54.9187 52.8825 55.7065 52.8824C58.047 52.8822 60.3267 51.6685 61.5788 49.4999C63.251 46.6039 62.5308 42.9736 60.0373 40.9078ZM39.19 56.5014C38.1381 54.1266 35.7602 52.4648 33 52.4648C30.2421 52.4648 27.8657 54.124 26.8125 56.4959C22.6201 55.3891 18.7832 53.1765 15.7446 50.114C16.2324 49.447 16.5988 48.6898 16.8191 47.8678C17.2869 46.1218 17.0469 44.298 16.143 42.7324C14.7639 40.344 12.139 39.1158 9.5583 39.3896C8.42031 35.2046 8.41812 30.7744 9.55185 26.611C9.79136 26.6367 10.0314 26.6501 10.2706 26.6501C12.6112 26.6501 14.8909 25.4362 16.143 23.2676C17.0469 21.702 17.287 19.8784 16.8191 18.1322C16.5993 17.3122 16.2342 16.5567 15.7482 15.891C18.8035 12.8142 22.6383 10.598 26.8099 9.49859C27.862 11.8734 30.2399 13.5352 33 13.5352C35.758 13.5352 38.1342 11.876 39.1875 9.50413C43.3812 10.6113 47.2192 12.8248 50.258 15.8886C48.7274 17.9869 48.4772 20.8771 49.8571 23.2676C51.1092 25.4363 53.3886 26.6499 55.7294 26.6499C55.9667 26.6499 56.2046 26.6367 56.4422 26.6115C57.58 30.7966 57.5819 35.2267 56.4479 39.3901C53.8653 39.1138 51.2372 40.342 49.8571 42.7324C48.4782 45.1209 48.727 48.0084 50.2544 50.1064C47.1988 53.1847 43.3629 55.4017 39.19 56.5014Z" fill="#FAFAFA"/>
</svg>
