<svg width="60" height="60" viewBox="0 0 60 60" fill="none" xmlns="http://www.w3.org/2000/svg">
<path d="M49.6464 49.6182C45.2608 54.0039 39.4971 56.1976 33.7371 56.1976C27.9771 56.1976 22.2133 54.0039 17.8277 49.6182C13.5771 45.3695 11.2371 39.7182 11.2371 33.7089C11.2371 29.6251 12.3414 25.7195 14.3683 22.2939L21.3846 29.3101C19.7421 33.9339 20.7564 39.2889 24.4558 42.9901C29.5821 48.1164 37.8921 48.1164 43.0164 42.9901C48.1408 37.8639 48.1427 29.5539 43.0164 24.4276C39.3171 20.7282 33.9602 19.7139 29.3383 21.3545L22.3277 14.3439C30.9508 9.26637 42.2496 10.4007 49.6464 17.7976C58.4196 26.5707 58.4196 40.847 49.6464 49.6182ZM32.8258 38.4245C31.3239 38.4245 29.9102 37.8395 28.8489 36.7764L26.3027 34.2301C26.4246 35.9682 27.1164 37.6764 28.4421 39.002C29.9008 40.4607 31.8189 41.1901 33.7352 41.1901C35.6514 41.1901 37.5696 40.4607 39.0283 39.002C41.9477 36.0826 41.9477 31.3332 39.0283 28.4157C37.7027 27.0901 35.9946 26.3982 34.2564 26.2764L36.8027 28.8226C38.9964 31.0145 38.9964 34.5845 36.8027 36.7764C35.7414 37.8395 34.3277 38.4245 32.8258 38.4245ZM31.5002 34.1251C31.8658 34.4907 32.3458 34.6745 32.8258 34.6745C33.3058 34.6745 33.7858 34.4907 34.1514 34.1251C34.8846 33.392 34.8846 32.207 34.1514 31.4739L17.5858 14.9064V7.72699C17.5858 7.23012 17.3889 6.75199 17.0364 6.40137L13.0577 2.42449C12.6321 1.99699 12.0208 1.80387 11.4321 1.89949C10.8377 1.99699 10.3258 2.37199 10.0558 2.91199L7.68393 7.65574L2.94018 10.0276C2.40018 10.2976 2.02518 10.8095 1.92768 11.4039C1.83206 11.9982 2.02706 12.6039 2.45268 13.0295L6.43143 17.0064C6.78393 17.3589 7.26018 17.5557 7.75706 17.5557H14.9364L31.5021 34.1232L31.5002 34.1251Z" fill="white"/>
</svg>
