<svg width="158" height="71" viewBox="0 0 158 71" fill="none" xmlns="http://www.w3.org/2000/svg">
<path d="M27.1804 12.7063C29.0588 12.9273 31.0476 13.0378 32.9259 13.3692C34.0308 13.4797 34.9147 14.0322 35.6881 14.8056C36.3511 15.579 36.5721 16.7944 36.1301 17.4574C35.7986 18.1203 35.2462 18.2308 34.5832 18.2308C33.9203 18.2308 33.6993 17.7888 33.4783 17.1259C33.3679 16.9049 33.0364 16.5734 32.7049 16.5734C31.379 16.3525 30.1637 16.021 28.8378 16.021C23.0923 16.021 17.3469 16.5734 11.9329 18.4518C9.61259 19.2252 7.4028 20.3301 5.52448 21.9874C3.97762 23.4238 2.87273 25.0811 3.31469 27.1804C3.42518 27.9539 4.08811 28.6168 4.41958 29.2797C4.64056 29.7217 5.08252 30.1637 5.08252 30.6056C5.08252 31.821 3.75665 32.3735 2.65175 31.7105C0.994406 30.7161 0.331468 29.2797 0.110489 27.5119C-0.441959 23.8658 1.21538 21.1035 3.97762 19.0042C7.15265 16.7144 10.7622 15.0976 14.5846 14.2532C18.7832 13.1483 22.8713 12.8168 27.1804 12.7063Z" fill="#56448E"/>
<path d="M7.51328 46.1846C7.73425 45.4112 7.95523 44.3063 8.39719 43.3119C10.607 37.1245 13.0378 31.158 16.3524 25.4126C17.7888 23.2028 19.1147 20.772 21.1035 18.7832C21.435 18.4517 21.9874 18.2308 22.4294 18.0098C22.9818 17.6783 23.5343 17.7888 23.8657 18.3413C24.1972 18.6727 24.3077 19.2252 24.1972 19.7776C24.1972 20.1091 23.9762 20.4406 23.6448 20.6615C21.214 23.3133 19.3357 26.407 17.6783 29.7217C14.9161 35.0252 12.5958 40.6601 10.828 46.5161L10.7175 47.0685C10.386 47.9524 9.72307 48.3944 8.94964 48.2839C8.06572 48.1734 7.51328 47.5105 7.51328 46.0741V46.1846ZM50.2727 32.3734L49.7203 33.4783C48.0101 36.4246 45.9714 39.1675 43.6434 41.6545C43.3119 42.0965 42.8699 42.428 42.3175 42.6489C41.1021 43.3119 40.1077 42.6489 40.2182 41.1021C40.4392 38.8923 41.4336 36.6825 42.8699 34.8042C44.082 33.0758 45.8292 31.7945 47.842 31.158L48.9469 30.9371C50.0518 30.9371 50.4937 31.379 50.2727 32.3734ZM27.5119 35.1357C28.5063 33.4783 29.7217 32.1524 31.2685 31.2685C31.7105 30.9371 32.1524 30.8266 32.5944 30.7161C32.8154 30.6056 33.2573 30.7161 33.3678 30.8266C33.5888 31.0475 33.4783 31.4895 33.3678 31.6L31.6 33.8098C30.7161 34.5832 29.6112 35.1357 28.6168 35.7986L27.2909 36.1301L27.1804 35.9091C27.1804 35.6881 27.2909 35.3566 27.5119 35.1357ZM80.5469 24.9706C81.9841 21.951 83.8037 19.1288 85.9609 16.5734C86.1818 16.242 86.5133 15.8 87.0658 16.1315V16.3524L86.9553 17.3469C85.8992 19.2401 84.7563 21.0836 83.5301 22.8713L81.3203 25.3021L80.9888 25.6336L80.6574 25.8545L80.4364 25.7441C80.4364 25.4126 80.4364 25.1916 80.6574 24.9706H80.5469ZM95.9049 35.5776V35.3566C96.7298 34.0442 97.7766 32.8852 98.9986 31.9315L100.325 31.0476H100.545C100.766 30.8266 101.098 30.8266 101.319 30.7161H101.871L101.982 30.9371V31.7105L101.319 32.8154C100.745 33.4582 100.117 34.0497 99.4406 34.5832C98.7093 35.1846 97.8894 35.6691 97.0098 36.0196L95.9049 36.2406L95.7944 36.0196V35.6881L95.9049 35.5776ZM123.085 39.9972C123.306 38.3399 123.859 37.4559 123.859 35.5776C123.859 35.2462 125.516 33.6993 125.516 33.3678C125.516 33.5888 123.969 34.2517 123.859 34.4727C122.754 36.9035 119.771 39.6657 117.782 41.3231C117.229 41.765 116.566 42.207 115.904 42.428C115.572 42.6489 115.02 42.6489 114.799 42.428C114.578 42.207 114.578 41.6545 114.688 41.3231C114.688 40.7706 114.909 40.2182 115.241 39.8867L118.224 35.4671C119.329 33.5888 119.108 32.1524 117.45 30.8266L115.02 29.2797C114.467 28.9482 114.246 28.5063 114.357 27.8434C114.578 27.2909 114.688 26.7385 114.688 26.0755C114.688 24.6392 113.804 23.9762 112.478 24.5287C111.696 24.7837 111.036 25.3209 110.627 26.0358C110.219 26.7506 110.091 27.5919 110.269 28.3958C110.576 29.1768 110.576 30.0455 110.269 30.8266C108.722 34.1413 106.954 37.014 104.192 39.5552C102.824 40.8321 101.206 41.8104 99.4406 42.428C98.1592 43.0049 96.7276 43.1596 95.3525 42.8699C94.3581 42.5385 93.9161 41.765 93.9161 40.6601C93.9161 39.8867 94.2476 39.5552 95.3525 39.2238L95.9049 39.0028C97.8937 38.5608 99.7721 37.6769 101.429 36.4615C103.076 35.3349 104.316 33.7077 104.965 31.821C105.628 29.6112 104.192 27.6224 101.871 27.6224C100.65 27.6678 99.4642 28.0502 98.4462 28.7273C95.8158 30.4727 93.6838 32.8713 92.2588 35.6881C91.0567 38.0199 89.1132 39.8857 86.7343 40.9916C86.1818 41.4336 85.5189 40.9916 85.6294 40.1077C85.7399 39.4447 86.0713 38.6713 86.4028 38.0084L88.3916 33.9203C88.8336 32.8154 89.1651 31.821 89.0546 30.6056C89.0266 30.2279 88.9243 29.8595 88.7535 29.5216C88.5827 29.1836 88.3467 28.8828 88.0592 28.6363C87.7717 28.3899 87.4383 28.2027 87.0782 28.0856C86.7181 27.9685 86.3383 27.9237 85.9609 27.9538C84.5391 28.0406 83.1831 28.583 82.0937 29.5007C80.3259 30.8266 78.779 32.5944 77.4532 34.3622C77.3427 34.5832 77.1217 35.0252 76.7902 34.9147C76.5693 34.9147 76.7902 34.5832 76.7902 34.4727C77.3427 32.2629 78.2266 30.4951 80.1049 29.0587C83.6406 26.628 86.5133 23.5343 88.6126 19.7776C89.3541 18.5442 89.7367 17.1285 89.7175 15.6895C89.7175 13.7007 88.0602 12.5958 86.1818 13.2587C85.0376 13.7142 84.0428 14.4794 83.3091 15.4685C80.8783 18.4517 78.8895 21.7664 77.5637 25.4126C76.9007 26.8489 76.4588 28.2853 75.1329 29.3902C74.6909 29.7217 74.5804 30.1636 74.6909 30.7161V31.821C74.249 33.6993 73.1441 35.1357 72.0392 36.4615C70.3818 38.4503 68.7245 40.3287 66.5147 41.5441C65.0814 42.5263 63.3905 43.0643 61.6532 43.0909C60.1063 43.0909 59.1119 42.0965 59.1119 40.5496L59.4434 38.5608C59.9958 36.4615 61.2112 34.6937 62.6476 33.0364C63.642 31.9315 64.8574 30.8266 66.4042 30.3846C66.7357 30.3846 67.2881 30.3846 67.5091 30.6056C67.7301 30.7161 67.6196 31.379 67.5091 31.7105L66.1832 33.3678C65.6308 34.0308 65.6308 34.8042 66.1832 35.3566C66.7357 35.9091 67.7301 35.9091 68.2825 35.3566C68.9455 34.4727 69.7189 33.6993 70.1609 32.7049C71.2658 30.1636 69.9399 27.8434 67.0672 27.5119C65.5203 27.4014 64.3049 28.0643 63.0895 28.8378C60.2168 30.6056 58.5595 33.2573 57.1231 36.1301C56.5706 37.235 55.9077 38.3399 55.0238 39.4448C54.4713 39.9972 53.6979 40.5496 52.9245 40.9916C52.0406 41.5441 51.2671 41.1021 51.2671 40.1077C51.2671 39.2238 51.2671 38.3399 51.4881 37.5664C51.9301 35.3566 52.9245 33.3678 53.8084 31.379L54.4713 29.7217C54.6923 28.3958 53.9189 27.8434 52.593 28.1748H51.0462C49.6395 27.9699 48.2047 28.0831 46.8476 28.5063C43.9748 29.5007 41.765 31.379 40.1077 33.9203C38.8219 35.9347 37.3012 37.7892 35.5776 39.4448C34.2292 40.7721 32.608 41.7901 30.8266 42.428C29.5332 42.9678 28.1019 43.0839 26.7385 42.7594C25.7441 42.5385 25.1916 41.6545 25.3021 40.6601C25.3021 39.8867 25.6336 39.5552 26.7385 39.2238L27.2909 39.0028C29.2797 38.5608 31.158 37.6769 32.8154 36.4615C34.4621 35.3349 35.7019 33.7077 36.3511 31.821C36.9035 29.9427 36.0196 28.0643 34.1413 27.7329C33.2573 27.7329 32.1524 27.7329 31.2685 28.0643C29.0587 28.8378 27.4014 30.3846 25.965 32.2629C24.1972 34.4727 22.6503 37.014 22.3189 39.9972C21.8769 43.3119 24.0867 45.8531 27.5119 45.8531C30.7161 45.8531 33.3678 44.7482 35.9091 42.9804L37.3455 41.8755V42.5385C37.5664 44.0853 38.4504 45.3007 39.6657 45.7427C40.7706 46.0741 41.8755 45.9636 42.8699 45.5217C44.5273 44.7482 45.9636 43.5329 47.179 42.207C48.0629 41.1021 48.1734 41.1021 48.8364 42.207C49.9413 44.0853 51.4881 44.7482 53.4769 43.9748C54.5818 43.5329 55.4657 42.8699 56.4601 42.207V42.428C57.4546 44.8587 59.3329 45.8531 61.8741 46.0741C64.4154 46.1846 66.5147 45.0797 68.5035 43.8643L70.9343 41.8755L70.7133 42.9804L70.3818 44.0853C70.3818 44.7482 70.3818 45.3007 71.1553 45.6322C71.7077 45.8531 72.2602 45.6322 72.7021 44.9692L74.1385 42.7594C76.9722 38.4395 80.3934 34.5349 84.3035 31.158C85.8504 30.1636 85.9609 31.6 85.7399 32.2629V32.4839L83.7511 36.351C83.0029 37.7024 82.622 39.2262 82.6462 40.7706C82.8672 42.8699 84.635 44.3063 86.4028 44.0853C86.9553 43.9748 87.5077 43.8643 88.0602 43.5329L90.8224 41.986C91.2644 42.7594 91.7063 43.7538 92.3693 44.4168C93.9161 45.9636 95.9049 46.0741 97.8937 45.7427C101.54 45.3007 104.523 43.4224 107.064 40.7706C109.274 38.5608 110.821 35.9091 112.147 33.0364C113.031 31.2685 113.252 31.158 115.02 32.3734C116.014 32.9259 116.125 33.4783 115.462 34.3622C114.578 35.5776 113.694 36.793 113.031 38.1189C112.478 39.0028 112.036 39.8867 111.705 40.8811C110.931 43.6434 112.699 45.7426 115.572 45.4112C116.677 45.4112 117.782 44.8587 118.887 44.0853L122.312 40.7706L123.085 40.1077V39.9972Z" fill="#56448E"/>
<path d="M142.532 49.7203C140.826 53.3274 138.465 56.5867 135.571 59.3329C134.687 60.1063 133.582 60.6588 132.366 60.6588C131.151 60.6588 130.378 59.8854 130.709 58.67C131.041 57.8965 131.483 57.0126 132.035 56.3497C133.361 54.4714 135.129 53.3665 136.897 52.0406C138.788 50.8232 140.703 49.6444 142.642 48.5049C142.863 48.5049 142.863 48.5049 142.863 48.7259L142.532 49.8308V49.7203ZM126.179 32.042C127.988 26.2945 130.917 20.962 134.797 16.3525C135.018 16.1315 135.35 16.1315 135.571 16.1315C135.571 16.1315 135.902 16.463 135.902 16.7944L134.797 20.1091C133.037 24.1165 130.691 27.8401 127.836 31.1581L126.842 32.3735L125.627 33.5888L126.179 32.042ZM154.906 34.4728L154.685 34.6937C153.249 37.1245 151.592 39.2238 149.492 40.9916L148.387 41.7651V40.6602L148.719 39.0028L150.376 31.9315C150.597 31.1581 150.266 30.3846 149.603 30.1637C148.94 29.9427 148.166 30.1637 147.725 30.9371C146.223 34.7382 143.968 38.196 141.095 41.1021L138.443 42.9805C137.67 43.4224 136.897 42.9805 136.786 42.0965V40.2182C137.539 36.8903 138.927 33.739 140.874 30.9371L141.648 29.5007C141.758 28.9483 141.537 28.3958 141.095 28.0644C140.895 27.8932 140.64 27.7991 140.377 27.7991C140.114 27.7991 139.859 27.8932 139.659 28.0644L138.443 29.1693L135.681 33.8098C134.483 36.4374 132.88 38.8608 130.93 40.9916C130.046 41.7651 129.162 42.649 127.836 42.9805C126.842 43.2014 126.069 42.9805 125.627 42.207C125.001 41.26 124.695 40.1371 124.755 39.0035C124.814 37.8698 125.236 36.7852 125.958 35.9091C127.063 34.5832 128.278 34.8042 129.383 33.4784C132.9 29.6195 135.706 25.1679 137.67 20.3301C138.333 18.7832 138.775 17.2364 138.775 15.579C138.775 13.8112 137.228 12.4853 135.46 12.7063C134.024 12.9273 132.919 13.8112 132.146 14.9161C127.947 19.6672 125.406 25.3021 123.527 31.379L122.422 35.4672C122.091 37.677 122.312 39.3343 122.422 41.6546C122.975 43.8644 124.522 45.5217 126.4 45.7427C128.057 45.9637 129.494 45.5217 130.82 44.6378L133.803 42.207L134.024 42.9805C134.466 44.4168 135.129 45.5217 136.786 45.8532C138.001 46.0742 139.217 45.8532 140.211 45.1902C141.869 44.3063 143.084 42.9805 144.299 41.5441L144.962 40.8812C145.183 42.7595 144.41 44.4168 143.084 45.3007L137.67 48.3944C134.919 49.9633 132.392 51.8959 130.157 54.1399C129.052 55.2448 128.278 56.3497 127.947 57.8965C127.394 59.9958 128.057 61.7637 129.825 62.6476C130.488 63.0896 131.151 63.2 131.925 63.421H133.14C136.565 62.5371 138.885 60.3273 140.874 57.5651C143.084 54.2504 144.962 50.9357 146.178 47.1791C146.288 46.7371 146.841 46.1846 147.283 45.9637C151.747 43.4059 155.33 39.5531 157.558 34.9147C157.779 34.5832 157.558 34.2518 157.558 34.2518C156.674 32.9259 155.68 32.9259 154.796 34.4728H154.906Z" fill="#71C3BB"/>
</svg>
