<svg width="59" height="59" viewBox="0 0 59 59" fill="none" xmlns="http://www.w3.org/2000/svg">
<g clip-path="url(#clip0_38_142)">
<path d="M29.5 32.0928C23.3048 32.0928 18.2646 37.1329 18.2646 43.3281V50.2422H40.7354V43.3281C40.7354 37.1329 35.6952 32.0928 29.5 32.0928Z" fill="#6F3AF1"/>
<path d="M37.2783 22.3145C37.2783 18.0251 33.7893 14.5361 29.5 14.5361C25.2107 14.5361 21.7217 18.0251 21.7217 22.3145C21.7217 26.6038 25.2107 30.0928 29.5 30.0928C33.7893 30.0928 37.2783 26.6038 37.2783 22.3145Z" fill="#A783FF"/>
<path d="M19.1289 14.5361C19.1289 10.2468 15.6399 6.75781 11.3506 6.75781C7.06126 6.75781 3.57227 10.2468 3.57227 14.5361C3.57227 18.8255 7.06126 22.3145 11.3506 22.3145C15.6399 22.3145 19.1289 18.8255 19.1289 14.5361Z" fill="#A783FF"/>
<path d="M47.6494 24.3145C43.0832 24.3145 39.1612 27.063 37.4057 30.9836C41.4754 33.5989 44.1924 38.1421 44.1924 43.3281H59V35.5498C59 29.3546 53.8446 24.3145 47.6494 24.3145Z" fill="#6F3AF1"/>
<path d="M55.4277 14.5361C55.4277 10.2468 51.9387 6.75781 47.6494 6.75781C43.3601 6.75781 39.8711 10.2468 39.8711 14.5361C39.8711 18.8255 43.3601 22.3145 47.6494 22.3145C51.9387 22.3145 55.4277 18.8255 55.4277 14.5361Z" fill="#A783FF"/>
<path d="M21.5943 30.9836C19.8388 27.063 15.9167 24.3145 11.3506 24.3145C5.15539 24.3145 0 29.3546 0 35.5498V43.3281H14.8076C14.8076 38.1421 17.5246 33.5989 21.5943 30.9836Z" fill="#6F3AF1"/>
</g>
<defs>
<clipPath id="clip0_38_142">
<rect width="59" height="59" fill="white"/>
</clipPath>
</defs>
</svg>
