<svg width="30" height="30" viewBox="0 0 30 30" fill="none" xmlns="http://www.w3.org/2000/svg">
<path fill-rule="evenodd" clip-rule="evenodd" d="M14.9998 0C6.71548 0 -0.000244141 6.71572 -0.000244141 15C-0.000244141 23.2843 6.71548 30 14.9998 30C23.284 30 29.9998 23.2843 29.9998 15C29.9998 6.71572 23.284 0 14.9998 0ZM14.9998 28.636C7.46858 28.636 1.3634 22.5308 1.3634 14.9996C1.3634 7.46846 7.46858 1.36328 14.9998 1.36328C22.5309 1.36328 28.6361 7.46846 28.6361 14.9996C28.6361 22.5308 22.5309 28.636 14.9998 28.636ZM11.6375 19.9781L11.8856 16.4881L18.2775 10.7487C18.5556 10.5025 18.2175 10.3663 17.8456 10.6125L9.94375 15.5569L6.54187 14.4987C5.80187 14.2694 5.78812 13.7631 6.69625 13.4106L20.0025 8.31625C20.6187 8.08687 21.1575 8.4525 20.9569 9.3875L20.9563 9.38812L18.6925 19.9956C18.5219 20.7444 18.0763 20.93 17.4438 20.5775L13.995 18.0519L12.3306 19.6425C12.1463 19.8256 11.9925 19.9781 11.6375 19.9781Z" fill="#546179"/>
</svg>
