<svg width="255" height="57" viewBox="0 0 255 57" fill="none" xmlns="http://www.w3.org/2000/svg">
<mask id="mask0_68_103" style="mask-type:luminance" maskUnits="userSpaceOnUse" x="22" y="4" width="21" height="48">
<path d="M42.3514 15.675L22.2902 4.275V51.1219L30.3147 46.4906V33.3094L36.3776 36.7828L36.2885 27.7875L30.3147 24.3141V19.0594L42.3514 26.0953V15.675Z" fill="white"/>
</mask>
<g mask="url(#mask0_68_103)">
<path d="M-1.42657 4.09688H47.7902V51.2109H-1.42657V4.09688Z" fill="url(#paint0_linear_68_103)"/>
</g>
<mask id="mask1_68_103" style="mask-type:luminance" maskUnits="userSpaceOnUse" x="0" y="4" width="21" height="48">
<path d="M0.445801 15.675L20.507 4.275V51.1219L12.4825 46.4906V19.0594L0.445801 26.0953V15.675Z" fill="white"/>
</mask>
<g mask="url(#mask1_68_103)">
<path d="M-1.69406 4.09688H47.5227V51.2109H-1.69406V4.09688Z" fill="url(#paint1_linear_68_103)"/>
</g>
<path d="M78.6399 18.7922H69.7238V43.4625H64.7308V18.7922H55.8147V14.7844H78.6399V18.7922Z" fill="white"/>
<path d="M84.6136 43.8188C81.5822 43.8188 79.0857 42.8391 77.2133 40.9688C75.3409 39.0984 74.3601 36.5156 74.3601 33.3094V32.6859C74.3601 30.7266 74.7168 28.7672 75.6084 26.9859C76.4108 25.3828 77.5699 24.0469 79.0857 23.0672C80.6014 22.0875 82.2955 21.6422 84.0787 21.6422C87.021 21.6422 89.25 22.5328 90.8549 24.4031C92.4598 26.2734 93.2622 28.8563 93.2622 32.2406V34.2H79.264C79.3531 35.8031 79.9773 37.2281 81.0472 38.3859C82.1171 39.4547 83.4545 39.9891 84.9703 39.9C87.1101 39.9891 89.0717 38.9203 90.3199 37.2281L92.9056 39.7219C92.014 40.9687 90.8549 42.0375 89.5175 42.6609C87.9126 43.5516 86.3077 43.9078 84.6136 43.8188ZM84.0787 25.5609C82.8304 25.4719 81.6713 26.0063 80.8689 26.8969C79.9773 27.9656 79.4423 29.3016 79.3531 30.7266H88.5367V30.3703C88.4476 28.7672 88.0017 27.5203 87.2885 26.7188C86.3969 26.0063 85.2378 25.4719 84.0787 25.5609ZM101.376 22.0875L101.554 24.5813C103.07 22.7109 105.388 21.6422 107.795 21.7312C112.253 21.7312 114.483 24.3141 114.572 29.3906V43.4625H109.757V29.6578C109.757 28.3219 109.49 27.3422 108.865 26.6297C108.241 26.0062 107.35 25.65 106.012 25.65C104.14 25.5609 102.446 26.6297 101.643 28.2328V43.3734H96.8287V21.9984L101.376 22.0875ZM130.086 37.6734C130.086 36.8719 129.729 36.1594 129.016 35.7141C127.946 35.0906 126.698 34.7344 125.538 34.5562C124.112 34.2891 122.774 33.8438 121.437 33.2203C119.03 32.0625 117.871 30.3703 117.871 28.2328C117.871 26.4516 118.762 24.6703 120.189 23.6016C121.705 22.3547 123.755 21.7312 126.073 21.7312C128.659 21.7312 130.71 22.3547 132.226 23.6016C133.741 24.7594 134.633 26.6297 134.544 28.5H129.729C129.729 27.6094 129.372 26.8078 128.659 26.1844C127.857 25.5609 126.965 25.2047 125.895 25.2937C125.003 25.2937 124.112 25.4719 123.309 26.0063C122.685 26.4516 122.329 27.1641 122.329 27.9656C122.329 28.6781 122.685 29.3016 123.22 29.6578C123.844 30.1031 125.093 30.4594 126.965 30.9047C128.481 31.1719 129.996 31.7063 131.423 32.4188C132.404 32.8641 133.206 33.5766 133.83 34.4672C134.365 35.3578 134.633 36.3375 134.633 37.4062C134.633 39.2766 133.741 40.9688 132.226 42.0375C130.621 43.1953 128.57 43.8188 125.984 43.8188C124.379 43.8188 122.774 43.5516 121.348 42.8391C120.1 42.3047 118.941 41.4141 118.138 40.2563C117.425 39.1875 116.979 37.9406 116.979 36.6938H121.615C121.615 37.6734 122.061 38.6531 122.864 39.2766C123.755 39.9 124.914 40.2562 125.984 40.1672C127.233 40.1672 128.213 39.9 128.837 39.4547C129.729 39.0984 130.086 38.3859 130.086 37.6734ZM137.308 32.5969C137.308 30.6375 137.664 28.6781 138.556 26.9859C139.358 25.3828 140.517 24.0469 142.033 23.1562C143.638 22.2656 145.421 21.7312 147.205 21.8203C150.058 21.8203 152.465 22.7109 154.248 24.5813C156.031 26.4516 157.012 28.8563 157.191 31.9734V33.1313C157.191 35.0906 156.834 36.9609 155.942 38.7422C155.229 40.3453 153.981 41.6812 152.465 42.5719C150.86 43.4625 149.077 43.9969 147.205 43.9078C144.173 43.9078 141.766 42.9281 139.983 40.8797C138.199 38.9203 137.308 36.2484 137.219 32.8641L137.308 32.5969ZM142.033 33.0422C142.033 35.2687 142.479 36.9609 143.371 38.2078C144.976 40.2563 147.918 40.7016 150.058 39.0984C150.414 38.8313 150.682 38.5641 150.949 38.2078C151.841 36.9609 152.287 35.0906 152.287 32.6859C152.287 30.5484 151.841 28.8562 150.86 27.5203C149.344 25.4719 146.402 25.0266 144.262 26.5406C143.906 26.8078 143.549 27.1641 143.281 27.4312C142.568 28.6781 142.033 30.5484 142.033 33.0422ZM171.545 26.5406C170.921 26.4516 170.208 26.3625 169.584 26.3625C167.355 26.3625 165.928 27.1641 165.126 28.8563V43.4625H160.311V22.0875H164.858L164.948 24.4922C166.107 22.6219 167.712 21.7312 169.762 21.7312C170.297 21.7312 170.921 21.8203 171.456 21.9984L171.545 26.5406ZM191.607 31.2609H180.016V43.4625H175.023V14.7844H193.301V18.7922H180.016V27.3422H191.607V31.2609ZM201.147 43.4625H196.332V14.6953H201.147V43.4625ZM204.624 32.5969C204.624 30.6375 204.981 28.6781 205.872 26.9859C206.675 25.3828 207.834 24.0469 209.35 23.1562C210.955 22.2656 212.738 21.7312 214.521 21.8203C217.374 21.8203 219.781 22.7109 221.565 24.5813C223.348 26.4516 224.329 28.8563 224.507 31.9734V33.1313C224.507 35.0906 224.15 36.9609 223.348 38.7422C222.635 40.3453 221.386 41.6812 219.871 42.5719C218.266 43.4625 216.482 43.9969 214.61 43.9078C211.579 43.9078 209.171 42.9281 207.388 40.8797C205.605 38.9203 204.624 36.2484 204.624 32.8641V32.5969ZM209.439 33.0422C209.439 35.2687 209.885 36.9609 210.776 38.2078C211.668 39.4547 213.094 40.1672 214.61 40.0781C216.126 40.1672 217.552 39.4547 218.355 38.2078C219.246 36.9609 219.692 35.0906 219.692 32.6859C219.692 30.5484 219.246 28.8562 218.266 27.5203C216.75 25.4719 213.808 25.0266 211.668 26.5406C211.311 26.8078 210.955 27.1641 210.687 27.4312C209.885 28.6781 209.439 30.5484 209.439 33.0422ZM246.173 36.8719L249.561 22.1766H254.198L248.402 43.5516H244.479L239.932 28.8563L235.385 43.5516H231.462L225.577 22.1766H230.302L233.78 36.7828L238.149 22.1766H241.804L246.173 36.8719Z" fill="white"/>
<defs>
<linearGradient id="paint0_linear_68_103" x1="-1.42657" y1="27.6539" x2="47.7902" y2="27.6539" gradientUnits="userSpaceOnUse">
<stop stop-color="#FF6F00"/>
<stop offset="1" stop-color="#FFA800"/>
</linearGradient>
<linearGradient id="paint1_linear_68_103" x1="-1.69406" y1="27.6539" x2="47.5227" y2="27.6539" gradientUnits="userSpaceOnUse">
<stop stop-color="#FF6F00"/>
<stop offset="1" stop-color="#FFA800"/>
</linearGradient>
</defs>
</svg>
