<svg width="155" height="68" viewBox="0 0 155 68" fill="none" xmlns="http://www.w3.org/2000/svg">
<path fill-rule="evenodd" clip-rule="evenodd" d="M8.68242 19.654L8.67133 19.6552V17.7486H32.0886V24.1075H26.2381V48.9306H20.552C20.552 48.9229 20.5542 48.9162 20.5564 48.9091C20.5586 48.9019 20.5609 48.8946 20.5609 48.8861C20.5609 48.464 20.3323 48.111 20.0058 47.8971V21.8401C20.3323 21.6263 20.5609 21.2733 20.5609 20.8501C20.5609 20.1886 20.0314 19.654 19.3764 19.654C18.9723 19.654 18.6326 19.8712 18.4194 20.183H9.64048C9.42734 19.8712 9.08762 19.654 8.68242 19.654ZM68.0104 30.1179H62.1468V23.9928H68.0104V30.1179ZM71.0335 17.7486C72.7741 17.7486 74.1841 19.1752 74.1841 20.9347V30.1925C74.1872 30.9979 73.8715 31.7716 73.3059 32.3435C72.7405 32.9153 71.9718 33.2384 71.169 33.2416H71.0812C72.8084 33.2733 74.1904 34.6903 74.1841 36.4233V48.7291H68.0095V36.361H62.1446V48.7291H55.97V17.7486H71.0335ZM97.8377 17.7864V48.768H104.012V17.7864H97.8377ZM83.0396 42.5272H88.9044V36.362H83.0396V42.5272ZM88.9044 30.119H83.0396V23.9939H88.9044V30.119ZM91.9296 17.7486C93.6703 17.7486 95.0812 19.1752 95.0812 20.9347V30.1925C95.0846 30.9979 94.7686 31.7716 94.2033 32.3435C93.6378 32.9153 92.8691 33.2384 92.0661 33.2416H90.8095V33.2973H91.9307C93.6703 33.2973 95.0812 34.725 95.0812 36.4845V45.7411C95.0846 46.5465 94.7686 47.3203 94.2033 47.8921C93.6378 48.464 92.8691 48.787 92.0661 48.7904H88.9056V48.768H76.865V17.7864H79.1485V17.7486H91.9296ZM124.909 20.9347C124.909 19.1752 123.498 17.7486 121.76 17.7486H108.977V17.7876H106.693V48.7692H112.869V23.9916H118.734V48.8171H124.909V20.9347ZM36.4669 17.7486H53.329V23.9916H41.0952V30.1568H50.115V36.3999H41.0952V42.4859H53.329V48.7291H34.9206V17.7486H36.4669ZM134.095 23.9916H146.329V17.7486H127.919V48.7291H146.329V42.4859H134.095V36.3999H143.113V30.1568H134.095V23.9916Z" fill="white"/>
<path d="M9.66707 21.4796C9.45615 21.8137 9.10424 22.0475 8.68349 22.0475L8.67239 22.0453V24.1089H16.2613V48.9309H18.2007C18.2007 48.9153 18.193 48.903 18.193 48.8864C18.193 48.4744 18.4105 48.1291 18.7236 47.9141V21.8237C18.5907 21.7329 18.478 21.6153 18.3928 21.4785L9.66707 21.4796Z" fill="#F7941D"/>
</svg>
