<svg width="59" height="55" viewBox="0 0 59 55" fill="none" xmlns="http://www.w3.org/2000/svg">
<path d="M39.9844 38.8906V33.6065C38.8217 33.5 37.7198 33.0393 36.8273 32.2866C35.9348 31.5339 35.2949 30.5255 34.9938 29.3975L34.2656 30.1218V35.0781C34.2671 36.3415 34.7697 37.5528 35.6631 38.4462C36.5565 39.3396 37.7678 39.8422 39.0312 39.8437C39.284 39.8437 39.5265 39.7433 39.7052 39.5645C39.884 39.3858 39.9844 39.1434 39.9844 38.8906Z" fill="white"/>
<path d="M21.8855 26.3913C22.0646 26.3015 22.2674 26.2703 22.4652 26.3023C22.663 26.3343 22.8457 26.4278 22.9873 26.5696L24.7344 28.3166V27.4531C24.733 26.8273 24.8549 26.2073 25.0931 25.6286C25.3314 25.0499 25.6812 24.5237 26.1228 24.0802C27.0146 23.1845 28.2256 22.6798 29.4895 22.677C30.7535 22.6742 31.9667 23.1736 32.8624 24.0654C33.7581 24.9572 34.2629 26.1682 34.2656 27.4321L35.1282 26.5696C35.2696 26.4265 35.4526 26.3319 35.6511 26.2992C35.8496 26.2665 36.0533 26.2974 36.2331 26.3875C36.4129 26.4777 36.5596 26.6223 36.6522 26.8009C36.7448 26.9795 36.7785 27.1827 36.7485 27.3816C36.6365 28.1735 36.7762 28.9805 37.1481 29.6886C37.52 30.3966 38.1051 30.9698 38.8206 31.327C39.5362 31.6842 40.3459 31.8073 41.1353 31.679C41.9247 31.5506 42.6537 31.1772 43.2193 30.6117C43.7848 30.0462 44.1581 29.3172 44.2865 28.5278C44.4148 27.7384 44.2917 26.9286 43.9345 26.2131C43.5773 25.4975 43.0042 24.9124 42.2961 24.5406C41.5881 24.1687 40.781 24.0289 39.9892 24.141C39.7903 24.171 39.587 24.1372 39.4084 24.0447C39.2299 23.9521 39.0852 23.8054 38.9951 23.6256C38.9049 23.4457 38.874 23.242 38.9067 23.0436C38.9394 22.8451 39.0341 22.6621 39.1771 22.5207L45.2418 16.4464L40.9699 12.1755C40.5756 13.001 39.989 13.72 39.2594 14.2719C38.5297 14.8238 37.6783 15.1926 36.7766 15.3473C35.8748 15.502 34.9492 15.4381 34.0773 15.161C33.2053 14.8838 32.4127 14.4016 31.7657 13.7547C31.1188 13.1077 30.6365 12.315 30.3594 11.4431C30.0823 10.5712 30.0184 9.64555 30.1731 8.74384C30.3278 7.84212 30.6966 6.99069 31.2485 6.26102C31.8004 5.53135 32.5194 4.94475 33.3449 4.55047L29.0616 0.283325L22.9873 6.34806C22.8459 6.4911 22.6629 6.58574 22.4644 6.61843C22.266 6.65113 22.0622 6.6202 21.8824 6.53008C21.7026 6.43996 21.5559 6.29527 21.4633 6.11671C21.3708 5.93816 21.337 5.73489 21.367 5.536C21.4502 4.95125 21.3963 4.35517 21.2098 3.79477C21.0232 3.23438 20.709 2.725 20.2919 2.30681C19.5652 1.61455 18.6001 1.22842 17.5964 1.22842C16.5928 1.22842 15.6277 1.61455 14.901 2.30681C14.3375 2.87288 13.966 3.60164 13.839 4.39021C13.712 5.17878 13.8358 5.98733 14.1931 6.70172C14.5503 7.41611 15.1229 8.00026 15.83 8.3717C16.5371 8.74314 17.343 8.88311 18.134 8.77186C18.3329 8.74189 18.5362 8.77562 18.7147 8.8682C18.8933 8.96078 19.038 9.10748 19.1281 9.28729C19.2182 9.46711 19.2491 9.67082 19.2164 9.86928C19.1837 10.0677 19.0891 10.2508 18.9461 10.3922L12.8804 16.454L18.947 22.5283C19.0902 22.6698 19.1849 22.8529 19.2176 23.0515C19.2503 23.25 19.2193 23.4539 19.129 23.6338C19.0388 23.8136 18.8939 23.9603 18.7151 24.0528C18.5364 24.1453 18.333 24.1788 18.134 24.1486C17.3421 24.0366 16.5351 24.1763 15.827 24.5482C15.119 24.9201 14.5458 25.5052 14.1886 26.2207C13.8314 26.9363 13.7083 27.746 13.8367 28.5354C13.965 29.3248 14.3384 30.0538 14.9039 30.6193C15.4694 31.1849 16.1984 31.5582 16.9878 31.6866C17.7772 31.8149 18.587 31.6918 19.3025 31.3346C20.0181 30.9774 20.6032 30.4042 20.975 29.6962C21.3469 28.9882 21.4867 28.1811 21.3746 27.3892C21.3434 27.1903 21.376 26.9865 21.4678 26.8072C21.5596 26.6279 21.7058 26.4823 21.8855 26.3913Z" fill="white"/>
<path d="M32.6608 51.4061L33.6139 49.4999C34.0751 48.573 34.3151 47.5518 34.3151 46.5166C34.3151 45.4813 34.0751 44.4602 33.6139 43.5333L33.2651 42.8337C32.671 41.6417 32.3611 40.3283 32.3596 38.9964V27.4531C32.3596 26.6948 32.0583 25.9675 31.5221 25.4312C30.9859 24.895 30.2586 24.5938 29.5002 24.5938C28.7419 24.5938 28.0146 24.895 27.4783 25.4312C26.9421 25.9675 26.6408 26.6948 26.6408 27.4531V40.7969C26.6408 41.0497 26.5404 41.2921 26.3617 41.4708C26.1829 41.6496 25.9405 41.75 25.6877 41.75C25.4349 41.75 25.1925 41.6496 25.0137 41.4708C24.835 41.2921 24.7346 41.0497 24.7346 40.7969V31.0121L23.12 29.3985C22.7951 30.6137 22.0778 31.6876 21.0796 32.4532C20.0815 33.2189 18.8584 33.6333 17.6004 33.6322C17.4994 33.6322 17.4012 33.6227 17.3012 33.6179L14.9698 40.3279C14.7774 40.7398 14.6847 41.1913 14.6992 41.6456C14.7138 42.1 14.8352 42.5446 15.0537 42.9433C15.0709 42.9741 15.0862 43.0059 15.0994 43.0386L18.444 50.9534C18.8184 51.6523 19.0148 52.4327 19.0158 53.2256V54.1406H32.3596V52.6842C32.36 52.2407 32.463 51.8032 32.6608 51.4061Z" fill="white"/>
<path d="M57.1406 17.9219H51.4219C51.1691 17.9219 50.9267 17.8215 50.7479 17.6427C50.5692 17.464 50.4688 17.2215 50.4688 16.9688C50.4688 16.716 50.5692 16.4735 50.7479 16.2948C50.9267 16.116 51.1691 16.0156 51.4219 16.0156H57.1406C57.3934 16.0156 57.6358 16.116 57.8146 16.2948C57.9933 16.4735 58.0938 16.716 58.0938 16.9688C58.0938 17.2215 57.9933 17.464 57.8146 17.6427C57.6358 17.8215 57.3934 17.9219 57.1406 17.9219Z" fill="white"/>
<path d="M50.3916 6.96095C50.1818 6.96094 49.9778 6.89171 49.8114 6.76398C49.6449 6.63625 49.5253 6.45718 49.471 6.25452C49.4167 6.05186 49.4307 5.83695 49.511 5.64311C49.5913 5.44927 49.7333 5.28733 49.915 5.18242L54.8712 2.32305C55.09 2.19865 55.3492 2.16584 55.5921 2.23179C55.835 2.29773 56.0419 2.45707 56.1678 2.67504C56.2936 2.89301 56.3281 3.15191 56.2638 3.39523C56.1995 3.63856 56.0415 3.84657 55.8244 3.97386L50.8681 6.83323C50.7234 6.91723 50.5589 6.96131 50.3916 6.96095Z" fill="white"/>
<path d="M55.3431 31.7422C55.1757 31.7425 55.0113 31.6985 54.8665 31.6145L49.9103 28.7551C49.801 28.693 49.7051 28.6098 49.6281 28.5105C49.5511 28.4111 49.4945 28.2976 49.4615 28.1762C49.4286 28.0549 49.42 27.9283 49.4362 27.8037C49.4524 27.679 49.4931 27.5588 49.5559 27.4499C49.6188 27.3411 49.7025 27.2457 49.8024 27.1694C49.9022 27.093 50.0162 27.0372 50.1377 27.005C50.2592 26.9729 50.3859 26.9651 50.5105 26.9822C50.635 26.9992 50.755 27.0407 50.8634 27.1043L55.8196 29.9636C56.0013 30.0686 56.1433 30.2305 56.2236 30.4243C56.3039 30.6182 56.318 30.8331 56.2637 31.0357C56.2094 31.2384 56.0897 31.4175 55.9233 31.5452C55.7568 31.6729 55.5529 31.7422 55.3431 31.7422Z" fill="white"/>
<path d="M7.57812 17.9219H1.85938C1.60659 17.9219 1.36416 17.8215 1.18541 17.6427C1.00667 17.464 0.90625 17.2215 0.90625 16.9688C0.90625 16.716 1.00667 16.4735 1.18541 16.2948C1.36416 16.116 1.60659 16.0156 1.85938 16.0156H7.57812C7.83091 16.0156 8.07334 16.116 8.25209 16.2948C8.43083 16.4735 8.53125 16.716 8.53125 16.9688C8.53125 17.2215 8.43083 17.464 8.25209 17.6427C8.07334 17.8215 7.83091 17.9219 7.57812 17.9219Z" fill="white"/>
<path d="M8.60849 6.96095C8.44113 6.96131 8.27668 6.91723 8.13193 6.83323L3.17568 3.97386C2.95855 3.84657 2.80059 3.63856 2.73625 3.39523C2.67192 3.15191 2.70645 2.89301 2.83229 2.67504C2.95814 2.45707 3.16509 2.29773 3.40799 2.23179C3.65089 2.16584 3.91001 2.19865 4.1288 2.32305L9.08505 5.18242C9.26675 5.28733 9.40875 5.44927 9.48903 5.64311C9.56932 5.83695 9.5834 6.05186 9.5291 6.25452C9.47479 6.45718 9.35514 6.63625 9.18869 6.76398C9.02224 6.89171 8.8183 6.96094 8.60849 6.96095Z" fill="white"/>
<path d="M3.65719 31.7422C3.44738 31.7422 3.24343 31.6729 3.07699 31.5452C2.91054 31.4175 2.79088 31.2384 2.73658 31.0357C2.68228 30.8331 2.69636 30.6182 2.77664 30.4243C2.85693 30.2305 2.99893 30.0686 3.18062 29.9636L8.13687 27.1043C8.24531 27.0407 8.36525 26.9992 8.48979 26.9822C8.61433 26.9651 8.74101 26.9729 8.86253 27.005C8.98405 27.0372 9.09802 27.093 9.19787 27.1694C9.29772 27.2457 9.38148 27.3411 9.44433 27.4499C9.50719 27.5588 9.54788 27.679 9.56408 27.8037C9.58029 27.9283 9.57167 28.0549 9.53874 28.1762C9.5058 28.2976 9.4492 28.4111 9.37219 28.5105C9.29517 28.6098 9.19927 28.693 9.09 28.7551L4.13375 31.6145C3.989 31.6985 3.82454 31.7425 3.65719 31.7422Z" fill="white"/>
</svg>
