<svg width="51" height="51" viewBox="0 0 51 51" fill="none" xmlns="http://www.w3.org/2000/svg">
<path d="M43.6688 35.445C43.8601 35.1103 44.2506 34.943 44.6171 35.0625L46.4898 35.6761C46.9121 35.8116 47.3584 35.5805 47.4938 35.1581L49.0876 30.2812H40.7045C38.6804 36.7519 32.6401 41.4375 25.5001 41.4375C18.3601 41.4375 12.3198 36.7519 10.2957 30.2812H1.9126L3.50635 35.1581C3.64182 35.5805 4.08807 35.8116 4.51041 35.6761L6.38307 35.0625C6.74963 34.943 7.1401 35.1103 7.33135 35.445C8.17603 36.9989 9.21994 38.4333 10.4232 39.7083C10.6862 39.9872 10.726 40.4175 10.4949 40.7283L9.33947 42.322C9.0765 42.6806 9.15619 43.1747 9.51478 43.4377L13.3796 46.2427C13.7382 46.5056 14.2403 46.4259 14.4953 46.0673L15.6507 44.4736C15.8818 44.1628 16.2962 44.0672 16.6468 44.2266C18.2167 44.9756 19.8981 45.5334 21.6512 45.8602C22.0337 45.9319 22.3126 46.2586 22.3126 46.6411V48.6094C22.3126 49.0477 22.6712 49.4062 23.1095 49.4062H27.8907C28.329 49.4062 28.6876 49.0477 28.6876 48.6094V46.6411C28.6876 46.2586 28.9665 45.9319 29.349 45.8602C31.1021 45.5334 32.7835 44.9756 34.3534 44.2266C34.704 44.0672 35.1184 44.1628 35.3495 44.4736L36.5049 46.0673C36.7599 46.4259 37.262 46.5056 37.6206 46.2427L41.4854 43.4377C41.844 43.1747 41.9237 42.6806 41.6607 42.322L40.5053 40.7283C40.2742 40.4175 40.314 39.9872 40.577 39.7083C41.7803 38.4333 42.8242 36.9989 43.6688 35.445Z" fill="white"/>
<path d="M0.796875 27.0938H50.2031V28.6875H0.796875V27.0938Z" fill="white"/>
<path d="M2.39062 13.5469H8.76562V25.5H2.39062V13.5469Z" fill="white"/>
<path d="M21.5156 10.3594H29.4844V25.5H21.5156V10.3594Z" fill="white"/>
<path d="M42.2344 14.3438H48.6094V25.5H42.2344V14.3438Z" fill="white"/>
<path d="M31.0781 10.3594V25.5H40.6406V1.59375H31.0781V10.3594ZM36.6562 4.78125H38.25V6.375H36.6562V4.78125ZM36.6562 8.76562H38.25V10.3594H36.6562V8.76562ZM36.6562 12.75H38.25V14.3438H36.6562V12.75ZM33.4688 4.78125H35.0625V6.375H33.4688V4.78125ZM33.4688 8.76562H35.0625V10.3594H33.4688V8.76562ZM33.4688 12.75H35.0625V14.3438H33.4688V12.75Z" fill="white"/>
<path d="M10.3594 25.5H19.9219V6.375L15.1406 2.39062L10.3594 6.375V25.5ZM12.75 7.96875H17.5312V9.5625H12.75V7.96875ZM12.75 11.9531H17.5312V13.5469H12.75V11.9531Z" fill="white"/>
</svg>
