<svg width="52" height="52" viewBox="0 0 52 52" fill="none" xmlns="http://www.w3.org/2000/svg">
<path d="M45.5239 10.4624H51.8989V14.712H45.5239V10.4624Z" fill="white"/>
<path d="M47.6499 25.3372H51.8995V29.5867H47.6499V25.3372Z" fill="white"/>
<path d="M51.2807 46.7711L42.2658 37.7569C41.4396 36.9307 39.9919 35.6838 39.0535 34.9908L34.9531 31.9602C35.5511 31.213 36.0878 30.4187 36.5691 29.5861H44.4607V25.3366H38.3854C38.8731 23.6478 39.1484 21.8692 39.1484 20.0243C39.1484 18.1787 38.8724 16.4001 38.3854 14.7114H42.3359V10.4625H36.5691C33.2624 4.75114 27.101 0.900024 20.0261 0.900024C9.46149 0.900024 0.899902 9.46225 0.899902 20.0249C0.899902 30.587 9.46149 39.1492 20.0261 39.1492C24.5447 39.1492 28.6884 37.574 31.9607 34.9538L34.9913 39.0523C35.6843 39.992 36.9338 41.4385 37.7593 42.264L46.7735 51.2814C47.6004 52.107 48.9532 52.107 49.7794 51.2814L51.2813 49.7769C52.1062 48.9507 52.1062 47.5973 51.2807 46.7711ZM27.4619 10.4625H31.4029C32.4586 11.7183 33.3032 13.154 33.9018 14.712H27.4619V10.4625ZM20.0248 10.4625H24.275V14.712H20.0248V10.4625ZM9.40029 10.4625H16.8373V14.712H9.40029V10.4625ZM9.40029 17.8995H13.6498V22.1497H9.40029V17.8995ZM21.0875 29.5868H9.40029V25.3372H21.0875V29.5868ZM31.4029 29.5868H24.275V25.3372H33.9018C33.3032 26.8952 32.4586 28.3315 31.4029 29.5868ZM34.7293 22.1497H16.8373V17.8995H34.7293C34.8288 18.595 34.8995 19.3001 34.8995 20.0249C34.8995 20.7498 34.8294 21.4542 34.7293 22.1497Z" fill="white"/>
<path d="M42.3369 17.8995H51.8994V22.1497H42.3369V17.8995Z" fill="white"/>
</svg>
