<svg width="47" height="53" viewBox="0 0 47 53" fill="none" xmlns="http://www.w3.org/2000/svg">
<path d="M15.683 18.4666C15.008 19.4333 14.508 20.5166 14.2247 21.7L11.833 22V25.175L14.083 25.4583C14.2913 26.7583 14.758 27.9666 15.433 29.0333L14.1247 30.7083L16.3747 32.9583L17.9747 31.7166C19.058 32.4916 20.308 33.0416 21.658 33.3083L21.908 35.25H25.083L25.333 33.3083C26.683 33.0416 27.933 32.4916 29.0163 31.7166L30.6163 32.9583L32.8663 30.7083L31.558 29.0333C32.233 27.9666 32.6997 26.7583 32.908 25.4583L35.1663 25.175V22L32.7663 21.7C32.483 20.5166 31.983 19.4333 31.308 18.4666L32.8663 16.4666L30.6163 14.2166L28.5247 15.8416C27.583 15.2583 26.5413 14.8166 25.4163 14.5916L25.083 11.9166H21.908L21.5747 14.5916C20.4497 14.8166 19.408 15.2583 18.4663 15.8416L16.3747 14.2166L14.1247 16.4666L15.683 18.4666ZM23.4997 18.9916C26.233 18.9916 28.4413 21.2083 28.4413 23.9416C28.4413 26.675 26.233 28.8916 23.4997 28.8916C20.758 28.8916 18.5497 26.675 18.5497 23.9416C18.5497 21.2083 20.758 18.9916 23.4997 18.9916Z" fill="white"/>
<path d="M2.6665 43.5833C2.6665 45.425 4.15817 46.9166 5.99984 46.9166H40.9998C42.8415 46.9166 44.3332 45.425 44.3332 43.5833V41.9166H2.6665V43.5833Z" fill="white"/>
<path d="M34.333 51.0834H30.9997V48.5834H15.9997V51.0834H12.6663C12.1997 51.0834 11.833 51.4584 11.833 51.9167C11.833 52.3834 12.1997 52.75 12.6663 52.75H34.333C34.7913 52.75 35.1663 52.3834 35.1663 51.9167C35.1663 51.4584 34.7913 51.0834 34.333 51.0834Z" fill="white"/>
<path d="M33.5163 7.75005H36.8329C36.8829 7.75005 36.9246 7.73338 36.9746 7.72505C37.3079 8.70838 38.2329 9.42505 39.3329 9.42505C40.7163 9.42505 41.8329 8.30838 41.8329 6.92505C41.8329 5.54172 40.7163 4.42505 39.3329 4.42505C38.2329 4.42505 37.3163 5.13338 36.9746 6.11672C36.9329 6.10005 36.8829 6.08338 36.8329 6.08338H32.6829C32.2246 6.08338 31.8496 6.45838 31.8496 6.91672V13.0917L33.5163 14.7667V7.75005Z" fill="white"/>
<path d="M44.333 11.0834C43.233 11.0834 42.3163 11.7917 41.9747 12.775C41.9247 12.7667 41.883 12.75 41.833 12.75H38.4997C38.033 12.75 37.6663 13.125 37.6663 13.5834V22.75H36.833V24.4167H38.4997C38.958 24.4167 39.333 24.05 39.333 23.5834V14.4167H41.833C41.883 14.4167 41.9247 14.4 41.9747 14.3917C42.308 15.375 43.233 16.0917 44.333 16.0917C45.7163 16.0917 46.833 14.975 46.833 13.5917C46.833 12.2084 45.7163 11.0834 44.333 11.0834Z" fill="white"/>
<path d="M5.02484 14.3834C5.07484 14.3917 5.1165 14.4084 5.17484 14.4084H7.67484V23.575C7.67484 24.0417 8.0415 24.4084 8.50817 24.4084H10.1748V22.7417H9.3415V13.575C9.3415 13.1167 8.9665 12.7417 8.50817 12.7417H5.17484C5.12484 12.7417 5.07484 12.7584 5.02484 12.775C4.68317 11.7917 3.7665 11.0834 2.6665 11.0834C1.28317 11.0834 0.166504 12.2 0.166504 13.5834C0.166504 14.9667 1.28317 16.0834 2.6665 16.0834C3.7665 16.0834 4.6915 15.375 5.02484 14.3834Z" fill="white"/>
<path d="M7.6665 9.41663C8.7665 9.41663 9.6915 8.69996 10.0248 7.71663C10.0748 7.72496 10.1165 7.74163 10.1748 7.74163H13.4832V14.7583L15.1498 13.0833V6.91663C15.1498 6.45829 14.7748 6.08329 14.3165 6.08329H10.1665C10.1165 6.08329 10.0665 6.09996 10.0165 6.11663C9.68317 5.12496 8.7665 4.41663 7.6665 4.41663C6.28317 4.41663 5.1665 5.53329 5.1665 6.91663C5.1665 8.29996 6.28317 9.41663 7.6665 9.41663Z" fill="white"/>
<path d="M22.7167 5.11667C22.6917 5.18333 22.6667 5.25 22.6667 5.325V10.25H24.3333V5.325C24.3333 5.25 24.3083 5.18333 24.2917 5.11667C25.2833 4.775 26 3.85 26 2.75C26 1.36667 24.8833 0.25 23.5 0.25C22.1167 0.25 21 1.36667 21 2.75C21 3.85833 21.7167 4.78333 22.7167 5.11667Z" fill="white"/>
<path d="M40.9998 18.5834V23.5834C40.9998 24.9667 39.8748 26.0834 38.4998 26.0834H36.8332V26.6417L34.2832 26.9667C34.0998 27.625 33.8582 28.2667 33.5498 28.875L35.0915 30.8417L30.7582 35.175L28.9165 33.75C28.2582 34.1167 27.5665 34.4167 26.8415 34.6417L26.5498 36.9167H20.4415L20.1498 34.6417C19.4248 34.4167 18.7332 34.1167 18.0748 33.75L16.2332 35.175L11.9082 30.8417L13.4415 28.875C13.1332 28.2667 12.8915 27.625 12.7082 26.9667L10.1665 26.6417V26.0834H8.49984C7.1165 26.0834 5.99984 24.9667 5.99984 23.5834V18.5834C5.07484 18.5834 4.2415 18.9584 3.6415 19.5584C3.0415 20.1667 2.6665 21 2.6665 21.9167V40.25H44.3332V21.9167C44.3332 20.0834 42.8332 18.5834 40.9998 18.5834Z" fill="white"/>
</svg>
