<svg width="51" height="52" viewBox="0 0 51 52" fill="none" xmlns="http://www.w3.org/2000/svg">
<path fill-rule="evenodd" clip-rule="evenodd" d="M21.0176 42.9355C15.6387 42.9355 10.2598 40.9434 6.17578 36.8594C-1.99219 28.5918 -1.99219 15.2441 6.17578 7.07617C14.3438 -1.0918 27.6914 -1.0918 35.8594 7.07617C44.0273 15.3438 44.0273 28.6914 35.8594 36.8594C31.7754 40.9434 26.3965 42.9355 21.0176 42.9355ZM21.0176 38.6523C16.7344 38.6523 12.4512 37.0586 9.26367 33.7715C2.78906 27.2969 2.78906 16.7383 9.26367 10.1641C15.7383 3.68945 26.2969 3.68945 32.8711 10.1641C39.3457 16.7383 39.3457 27.2969 32.8711 33.7715C29.584 37.0586 25.3008 38.6523 21.0176 38.6523ZM10.2598 11.2598C4.2832 17.1367 4.2832 26.7988 10.2598 32.7754C16.1367 38.6523 25.7988 38.6523 31.7754 32.7754C37.6523 26.7988 37.6523 17.1367 31.7754 11.2598C25.8984 5.2832 16.2363 5.2832 10.2598 11.2598ZM31.9746 27.3965H29.1855H23.707H18.3281H12.8496H10.1602C9.66211 27.3965 9.36328 27.0977 9.36328 26.5996C9.36328 26.2012 9.66211 25.9023 10.1602 25.9023H12.1523V19.5273C12.1523 19.1289 12.4512 18.7305 12.8496 18.7305C13.3477 18.7305 13.6465 19.1289 13.6465 19.5273V25.9023H17.5312V15.7422C17.5312 15.3438 17.9297 15.0449 18.3281 15.0449C18.7266 15.0449 19.0254 15.3438 19.0254 15.7422V25.9023H23.0098V19.5273C23.0098 19.1289 23.3086 18.7305 23.707 18.7305C24.2051 18.7305 24.5039 19.1289 24.5039 19.5273V25.9023H28.3887V15.3438C28.3887 14.9453 28.7871 14.6465 29.1855 14.6465C29.584 14.6465 29.8828 14.9453 29.8828 15.3438V25.9023H31.9746C32.373 25.9023 32.6719 26.2012 32.6719 26.5996C32.6719 27.0977 32.373 27.3965 31.9746 27.3965Z" fill="white"/>
<path fill-rule="evenodd" clip-rule="evenodd" d="M46.5176 52C45.4219 52 44.3262 51.502 43.5293 50.6055L33.4688 40.6445C34.6641 39.8477 35.8594 38.8516 36.8555 37.8555C37.9512 36.7598 38.9473 35.5645 39.7441 34.3691L49.7051 44.4297C51.6973 46.5215 51.0996 49.0117 49.6055 50.6055C48.8086 51.4023 47.8125 51.9004 46.7168 52C46.7168 52 46.6172 52 46.5176 52Z" fill="white"/>
</svg>
