<svg width="49" height="51" viewBox="0 0 49 51" fill="none" xmlns="http://www.w3.org/2000/svg">
<path d="M48.0555 38.4453C47.8234 38.0578 47.4498 37.7758 47.0136 37.6587C46.5775 37.5417 46.1129 37.5988 45.718 37.8179L37.0641 42.8109C37.0968 43.2002 37.0649 43.5922 36.9695 43.9711C36.8533 44.4082 36.6514 44.8179 36.3755 45.1764C36.0996 45.5349 35.7553 45.835 35.3625 46.0593C34.8442 46.364 34.2536 46.5243 33.6524 46.5234C33.3505 46.522 33.0501 46.4816 32.7586 46.4031L22.5063 43.6617C22.2852 43.6024 22.0967 43.4578 21.9823 43.2595C21.8678 43.0613 21.8368 42.8257 21.8961 42.6047C21.9554 42.3836 22.1 42.1951 22.2982 42.0807C22.4965 41.9662 22.732 41.9352 22.9531 41.9945L33.2055 44.7445C33.4222 44.8044 33.6488 44.82 33.8718 44.7905C34.0947 44.761 34.3094 44.6869 34.5031 44.5726C34.7998 44.4048 35.0395 44.1522 35.1917 43.8473C35.3438 43.5423 35.4014 43.1988 35.3571 42.8609C35.3128 42.523 35.1686 42.206 34.9429 41.9506C34.7173 41.6952 34.4205 41.513 34.0906 41.4273L21.2688 37.9898C20.5631 37.7994 19.8203 37.7935 19.1117 37.9726L14.1875 39.2015V48.3109L16.0609 49.2476C16.658 49.5484 17.3174 49.7045 17.9859 49.7031H30.8508C31.6052 49.7038 32.3463 49.5052 32.9992 49.1273L47.4367 40.7914C47.8293 40.5617 48.1148 40.1859 48.2308 39.7462C48.3467 39.3064 48.2837 38.8386 48.0555 38.4453Z" fill="white"/>
<path d="M7.3125 50.5625H12.4688V36.8125H7.3125V50.5625ZM9.03125 47.9844C9.03125 47.7565 9.12179 47.5379 9.28296 47.3767C9.44412 47.2155 9.6627 47.125 9.89062 47.125C10.1185 47.125 10.3371 47.2155 10.4983 47.3767C10.6595 47.5379 10.75 47.7565 10.75 47.9844V48.8438C10.75 49.0717 10.6595 49.2903 10.4983 49.4514C10.3371 49.6126 10.1185 49.7031 9.89062 49.7031C9.6627 49.7031 9.44412 49.6126 9.28296 49.4514C9.12179 49.2903 9.03125 49.0717 9.03125 48.8438V47.9844Z" fill="white"/>
<path d="M0.4375 38.5312H5.59375V48.8438H0.4375V38.5312Z" fill="white"/>
<path d="M24.5 20.4844C26.3985 20.4844 27.9375 18.9454 27.9375 17.0469C27.9375 15.1484 26.3985 13.6094 24.5 13.6094C22.6015 13.6094 21.0625 15.1484 21.0625 17.0469C21.0625 18.9454 22.6015 20.4844 24.5 20.4844Z" fill="white"/>
<path d="M17.118 19.3586C17.2508 19.7904 17.4265 20.2078 17.6422 20.6047C17.7298 20.7685 17.7629 20.956 17.7366 21.1399C17.7103 21.3239 17.6261 21.4946 17.4961 21.6273L15.382 23.7328L17.8141 26.1648L19.9195 24.0508C20.0523 23.9208 20.223 23.8365 20.4069 23.8103C20.5909 23.784 20.7784 23.8171 20.9422 23.9047C21.3391 24.1204 21.7565 24.296 22.1883 24.4289C22.3606 24.4851 22.5107 24.5943 22.6172 24.7409C22.7237 24.8875 22.7811 25.0641 22.7812 25.2453V28.2188H26.2188V25.2453C26.2189 25.0641 26.2763 24.8875 26.3828 24.7409C26.4893 24.5943 26.6394 24.4851 26.8117 24.4289C27.2435 24.296 27.6609 24.1204 28.0578 23.9047C28.2216 23.8171 28.4091 23.784 28.5931 23.8103C28.777 23.8365 28.9477 23.9208 29.0805 24.0508L31.1859 26.1648L33.618 23.7328L31.5039 21.6273C31.3739 21.4946 31.2897 21.3239 31.2634 21.1399C31.2371 20.956 31.2702 20.7685 31.3578 20.6047C31.5735 20.2078 31.7492 19.7904 31.882 19.3586C31.9382 19.1863 32.0474 19.0362 32.194 18.9297C32.3407 18.8232 32.5172 18.7658 32.6984 18.7656H35.6719V15.3281H32.6984C32.5172 15.328 32.3407 15.2706 32.194 15.1641C32.0474 15.0576 31.9382 14.9075 31.882 14.7352C31.7492 14.3034 31.5735 13.886 31.3578 13.4891C31.2702 13.3252 31.2371 13.1377 31.2634 12.9538C31.2897 12.7699 31.3739 12.5991 31.5039 12.4664L33.618 10.3609L31.1859 7.92891L29.0805 10.043C28.9477 10.173 28.777 10.2572 28.5931 10.2835C28.4091 10.3098 28.2216 10.2767 28.0578 10.1891C27.6609 9.97333 27.2435 9.79772 26.8117 9.66484C26.6394 9.60866 26.4893 9.49946 26.3828 9.35283C26.2763 9.2062 26.2189 9.02966 26.2188 8.84844V5.875H22.7812V8.84844C22.7811 9.02966 22.7237 9.2062 22.6172 9.35283C22.5107 9.49946 22.3606 9.60866 22.1883 9.66484C21.7565 9.79772 21.3391 9.97333 20.9422 10.1891C20.7784 10.2767 20.5909 10.3098 20.4069 10.2835C20.223 10.2572 20.0523 10.173 19.9195 10.043L17.8141 7.92891L15.382 10.3609L17.4961 12.4664C17.6261 12.5991 17.7103 12.7699 17.7366 12.9538C17.7629 13.1377 17.7298 13.3252 17.6422 13.4891C17.4265 13.886 17.2508 14.3034 17.118 14.7352C17.0618 14.9075 16.9526 15.0576 16.806 15.1641C16.6593 15.2706 16.4828 15.328 16.3016 15.3281H13.3281V18.7656H16.3016C16.4828 18.7658 16.6593 18.8232 16.806 18.9297C16.9526 19.0362 17.0618 19.1863 17.118 19.3586ZM24.5 11.8906C25.5198 11.8906 26.5167 12.193 27.3647 12.7596C28.2126 13.3262 28.8735 14.1315 29.2638 15.0737C29.654 16.0158 29.7561 17.0526 29.5572 18.0528C29.3582 19.053 28.8671 19.9718 28.146 20.6929C27.4249 21.414 26.5062 21.9051 25.5059 22.104C24.5057 22.303 23.469 22.2009 22.5268 21.8106C21.5846 21.4204 20.7793 20.7595 20.2127 19.9115C19.6462 19.0636 19.3438 18.0667 19.3438 17.0469C19.3451 15.6798 19.8888 14.3691 20.8555 13.4024C21.8222 12.4357 23.1329 11.892 24.5 11.8906Z" fill="white"/>
<path d="M40.8281 18.7656H42.5469C42.5469 13.9793 40.6455 9.389 37.2611 6.00456C33.8766 2.62011 29.2863 0.71875 24.5 0.71875C19.7137 0.71875 15.1234 2.62011 11.7389 6.00456C8.35449 9.389 6.45313 13.9793 6.45312 18.7656H8.17188C8.17188 14.4351 9.89216 10.282 12.9543 7.2199C16.0164 4.15778 20.1695 2.4375 24.5 2.4375C28.8305 2.4375 32.9836 4.15778 36.0457 7.2199C39.1078 10.282 40.8281 14.4351 40.8281 18.7656Z" fill="white"/>
<path d="M47.7031 23.9219C47.7031 23.0102 47.341 22.1359 46.6963 21.4912C46.0516 20.8465 45.1773 20.4844 44.2656 20.4844V27.3594C45.1773 27.3594 46.0516 26.9972 46.6963 26.3526C47.341 25.7079 47.7031 24.8336 47.7031 23.9219Z" fill="white"/>
<path d="M39.9688 32.5156H32.8557C32.7059 32.2551 32.4903 32.0386 32.2304 31.8878C31.9705 31.7369 31.6755 31.6571 31.375 31.6562H29.6562C29.2004 31.6562 28.7632 31.8373 28.4409 32.1597C28.1186 32.482 27.9375 32.9192 27.9375 33.375C27.9375 33.8308 28.1186 34.268 28.4409 34.5903C28.7632 34.9127 29.2004 35.0938 29.6562 35.0938H31.375C31.6755 35.0929 31.9705 35.0131 32.2304 34.8622C32.4903 34.7114 32.7059 34.4949 32.8557 34.2344H39.9688C40.6519 34.2323 41.3065 33.9601 41.7895 33.477C42.2726 32.994 42.5448 32.3394 42.5469 31.6562V27.3594H43.4062V20.4844H39.9688V27.3594H40.8281V31.6562C40.8281 31.8842 40.7376 32.1028 40.5764 32.2639C40.4153 32.4251 40.1967 32.5156 39.9688 32.5156Z" fill="white"/>
<path d="M4.73438 27.3594V20.4844C3.82269 20.4844 2.94835 20.8465 2.3037 21.4912C1.65904 22.1359 1.29688 23.0102 1.29688 23.9219C1.29688 24.8336 1.65904 25.7079 2.3037 26.3526C2.94835 26.9972 3.82269 27.3594 4.73438 27.3594Z" fill="white"/>
<path d="M5.59375 20.4844H9.03125V27.3594H5.59375V20.4844Z" fill="white"/>
</svg>
