<svg width="59" height="59" viewBox="0 0 59 59" fill="none" xmlns="http://www.w3.org/2000/svg">
<path d="M56.8546 39.7803C55.7819 38.9758 54.1728 38.8864 52.6531 39.4227L42.2834 43.1773C42.194 42.2833 41.8364 41.5682 41.3001 41.0318C40.2273 39.9591 38.797 40.0485 38.7076 40.0485H28.8743C27.2652 39.3333 25.9243 38.7076 24.7622 38.1712C22.0804 36.8303 20.2925 36.0258 17.6107 36.0258H15.4652V52.7424H17.8788C20.2925 53.4576 22.3485 54.2621 24.2258 54.9773C28.7849 56.7652 32.2713 58.1955 36.741 55.7818L55.6925 46.0379C58.2849 44.6076 59.0001 41.3 56.8546 39.7803Z" fill="white"/>
<path d="M12.7834 34.953H4.46971C4.02274 34.953 3.66517 35.3106 3.57577 35.7575L0.893956 53.9045C0.804562 54.1727 0.893956 54.4409 1.07274 54.6197C1.25153 54.7985 1.51971 54.8879 1.7879 54.8879H12.7834C13.3197 54.8879 13.6773 54.5303 13.6773 53.9939V35.8469C13.6773 35.3106 13.3197 34.953 12.7834 34.953ZM6.70456 51.3121C6.34699 51.6697 5.81062 51.6697 5.45305 51.3121C5.09547 50.9545 5.09547 50.4182 5.45305 50.0606C5.81062 49.703 6.34699 49.703 6.70456 50.0606C6.97274 50.4182 7.06214 50.9545 6.70456 51.3121ZM10.1015 51.3121C9.74396 51.6697 9.20759 51.6697 8.85002 51.3121C8.49244 50.9545 8.49244 50.4182 8.85002 50.0606C9.20759 49.703 9.74396 49.703 10.1015 50.0606C10.4591 50.4182 10.3697 51.0439 10.1015 51.3121Z" fill="white"/>
<path d="M19.6667 28.3379L19.7561 30.3939C19.7561 30.8409 20.2031 31.2879 20.6501 31.2879H24.941C25.388 31.2879 25.8349 30.9303 25.8349 30.3939V30.2152C24.2258 27.8015 23.6001 25.4773 23.1531 22.9743C17.3425 23.3318 14.2137 16.2697 18.3258 12.1576C20.2925 10.1015 23.5107 9.74395 25.9243 11.0849C27.3546 8.85001 29.5001 6.79395 32.1819 5.36364L31.6455 4.82728C31.288 4.46971 30.6622 4.46971 30.394 4.82728L28.8743 6.16819C27.9804 5.63183 26.997 5.18486 25.9243 4.91667L25.8349 2.86061C25.8349 2.41364 25.388 1.96667 24.941 1.96667H20.6501C20.2031 1.96667 19.7561 2.32425 19.7561 2.86061L19.6667 4.91667C18.594 5.18486 17.6107 5.63183 16.7167 6.16819L15.197 4.82728C14.8395 4.46971 14.3031 4.46971 13.9455 4.82728L10.9061 7.86668C10.5486 8.22425 10.5486 8.76061 10.9061 9.11819L12.247 10.6379C11.7107 11.5318 11.2637 12.5152 10.9955 13.5879L8.93947 13.6773C8.4925 13.6773 8.04553 14.1243 8.04553 14.5712V18.7727C8.04553 19.2197 8.40311 19.6667 8.93947 19.6667L10.9955 19.7561C11.2637 20.8288 11.7107 21.8121 12.247 22.7061L10.9061 24.2258C10.5486 24.5833 10.638 25.1197 10.9061 25.4773L13.9455 28.5167C14.3031 28.8743 14.8395 28.8743 15.197 28.5167L16.7167 27.0864C17.6107 27.6227 18.594 27.9803 19.6667 28.3379Z" fill="white"/>
<path d="M28.3379 10.6379C25.3879 14.2137 24.1363 18.8622 24.9409 23.3319C26.1924 30.841 32.6288 36.294 40.3166 36.294C48.8985 36.294 55.9606 29.2319 55.9606 20.65C55.9606 11.9788 48.8985 5.0061 40.3166 5.0061C35.7576 5.0061 31.3773 7.06216 28.3379 10.6379ZM41.3 32.3607C41.3 32.897 40.9424 33.2546 40.406 33.2546C39.8697 33.2546 39.5121 32.897 39.5121 32.3607V31.6455C39.5121 31.1091 39.8697 30.7516 40.406 30.7516C40.9424 30.7516 41.3 31.1091 41.3 31.6455V32.3607ZM51.4015 19.7561H52.1166C52.653 19.7561 53.0106 20.1137 53.0106 20.65C53.0106 21.1864 52.653 21.544 52.1166 21.544H51.4015C50.8651 21.544 50.5076 21.1864 50.5076 20.65C50.5076 20.1137 50.9545 19.7561 51.4015 19.7561ZM47.5576 12.247L48.0045 11.8C48.3621 11.4425 48.8985 11.4425 49.256 11.8C49.6136 12.1576 49.6136 12.694 49.256 13.0516L48.8091 13.4985C48.4515 13.8561 47.9151 13.8561 47.5576 13.4985C47.2 13.141 47.2 12.6046 47.5576 12.247ZM47.5576 27.8016C47.9151 27.444 48.4515 27.444 48.8091 27.8016L49.256 28.2485C49.6136 28.6061 49.6136 29.1425 49.256 29.5C48.8985 29.8576 48.3621 29.8576 48.0045 29.5L47.5576 29.0531C47.2 28.6955 47.2 28.1591 47.5576 27.8016ZM39.5121 8.93944C39.5121 8.40307 39.8697 8.0455 40.406 8.0455C40.9424 8.0455 41.3 8.40307 41.3 8.93944V9.65459C41.3 10.191 40.9424 10.5485 40.406 10.5485C39.8697 10.5485 39.5121 10.191 39.5121 9.65459V8.93944ZM39.5121 17.7V13.141C39.5121 12.6046 39.8697 12.247 40.406 12.247C40.9424 12.247 41.3 12.6046 41.3 13.141V17.7C42.2833 17.9682 43.0879 18.7728 43.356 19.7561H46.1273C46.6636 19.7561 47.0212 20.1137 47.0212 20.65C47.0212 21.1864 46.6636 21.544 46.1273 21.544H43.356C42.9985 22.7955 41.747 23.7788 40.406 23.7788C38.7076 23.7788 37.2773 22.3485 37.2773 20.65C37.2773 19.2197 38.2606 18.0576 39.5121 17.7ZM31.4667 11.7106C31.8242 11.3531 32.3606 11.3531 32.7182 11.7106L33.1651 12.1576C33.5227 12.5152 33.5227 13.0516 33.1651 13.4091C32.8076 13.7667 32.2712 13.7667 31.9136 13.4091L31.4667 12.9622C31.1091 12.694 31.1091 12.0682 31.4667 11.7106ZM31.4667 28.3379L31.9136 27.891C32.2712 27.5334 32.8076 27.5334 33.1651 27.891C33.5227 28.2485 33.5227 28.7849 33.1651 29.1425L32.7182 29.5894C32.3606 29.947 31.8242 29.947 31.4667 29.5894C31.1091 29.2319 31.1091 28.6061 31.4667 28.3379Z" fill="white"/>
<path d="M40.1379 21.9909H40.4061C41.2106 21.9909 41.8364 21.3652 41.8364 20.5606C41.8364 19.8455 41.3894 19.3091 40.7637 19.2197C40.6743 19.2197 40.5849 19.2197 40.4955 19.2197C39.6909 19.2197 39.0652 19.8455 39.0652 20.65C39.0652 21.2758 39.5122 21.9015 40.1379 21.9909Z" fill="#FAFAFA"/>
</svg>
