<svg width="90" height="90" viewBox="0 0 90 90" fill="none" xmlns="http://www.w3.org/2000/svg">
<path d="M45 78.75C63.6396 78.75 78.75 63.6396 78.75 45C78.75 26.3604 63.6396 11.25 45 11.25C26.3604 11.25 11.25 26.3604 11.25 45C11.25 63.6396 26.3604 78.75 45 78.75Z" stroke="#A783FF" stroke-width="2.5"/>
<path d="M45 19.6875V26.0156" stroke="#A783FF" stroke-width="2.5"/>
<path d="M45 70.3125V63.9844" stroke="#A783FF" stroke-width="2.5"/>
<path d="M70.3125 45H63.9844" stroke="#A783FF" stroke-width="2.5"/>
<path d="M19.6875 45H26.0156" stroke="#A783FF" stroke-width="2.5"/>
<path d="M62.9016 27.0984L58.4297 31.5703" stroke="#A783FF" stroke-width="2.5"/>
<path d="M27.0984 62.9016L31.5703 58.4297" stroke="#A783FF" stroke-width="2.5"/>
<path d="M62.9016 62.9016L58.4297 58.4297" stroke="#A783FF" stroke-width="2.5"/>
<path d="M27.0984 27.0984L31.5703 31.5703" stroke="#A783FF" stroke-width="2.5"/>
<path d="M45 56.25C51.2132 56.25 56.25 51.2132 56.25 45C56.25 38.7868 51.2132 33.75 45 33.75C38.7868 33.75 33.75 38.7868 33.75 45C33.75 51.2132 38.7868 56.25 45 56.25Z" stroke="#A783FF" stroke-width="3.5"/>
</svg>
