<svg width="63" height="63" viewBox="0 0 63 63" fill="none" xmlns="http://www.w3.org/2000/svg">
<path d="M31.25 61.25C47.8185 61.25 61.25 47.8185 61.25 31.25C61.25 14.6815 47.8185 1.25 31.25 1.25C14.6815 1.25 1.25 14.6815 1.25 31.25C1.25 47.8185 14.6815 61.25 31.25 61.25Z" stroke="#A783FF" stroke-width="2.5"/>
<path d="M31.25 8.75V14.375" stroke="#A783FF" stroke-width="2.5"/>
<path d="M31.25 53.75V48.125" stroke="#A783FF" stroke-width="2.5"/>
<path d="M53.75 31.25H48.125" stroke="#A783FF" stroke-width="2.5"/>
<path d="M8.75 31.25H14.375" stroke="#A783FF" stroke-width="2.5"/>
<path d="M47.1625 15.3379L43.1875 19.3129" stroke="#A783FF" stroke-width="2.5"/>
<path d="M15.3374 47.1625L19.3124 43.1875" stroke="#A783FF" stroke-width="2.5"/>
<path d="M47.1625 47.1625L43.1875 43.1875" stroke="#A783FF" stroke-width="2.5"/>
<path d="M15.3374 15.3379L19.3124 19.3129" stroke="#A783FF" stroke-width="2.5"/>
<path d="M31.25 41.25C36.7728 41.25 41.25 36.7728 41.25 31.25C41.25 25.7272 36.7728 21.25 31.25 21.25C25.7272 21.25 21.25 25.7272 21.25 31.25C21.25 36.7728 25.7272 41.25 31.25 41.25Z" stroke="#A783FF" stroke-width="3.5"/>
</svg>
