<svg width="164" height="73" viewBox="0 0 164 73" fill="none" xmlns="http://www.w3.org/2000/svg">
<mask id="mask0_1_346" style="mask-type:luminance" maskUnits="userSpaceOnUse" x="0" y="0" width="164" height="73">
<path d="M163.621 0.569458H0.759628V72.3195H163.621V0.569458Z" fill="white"/>
</mask>
<g mask="url(#mask0_1_346)">
<path d="M146.154 43.6627L149.077 36.4488L151.964 43.6627H146.154ZM134.682 53.7568H142.195L144.044 49.1668H154.073L155.924 53.7568H163.621L152.593 28.0665H145.673L134.682 53.7568ZM120.547 54.2674C126.245 54.2674 129.539 51.8252 131.98 48.5108L126.578 44.7203C125.024 46.5791 123.434 47.8183 120.731 47.8183C117.105 47.8183 114.552 44.8293 114.552 41.0042V40.9299C114.552 37.2138 117.105 34.152 120.731 34.152C123.211 34.152 124.913 35.3548 126.393 37.141L131.796 33.0234C129.502 29.9254 126.098 27.7393 120.8 27.7393C112.955 27.7393 107.183 33.5704 107.183 41.0042V41.0769C107.183 48.6925 113.141 54.2674 120.541 54.2674H120.547ZM92.2321 53.7568H99.4117V28.2499H92.2375L92.2321 53.7568ZM69.7001 40.9299V34.19H73.1048C75.6583 34.19 77.2499 35.3202 77.2499 37.5063V37.5806C77.2499 39.5832 75.6583 40.9315 73.1434 40.9315L69.7001 40.9299ZM62.5223 53.7568H69.7001V46.4788H73.2908C79.6928 46.4788 84.3927 43.308 84.3927 37.2588V37.1861C84.3927 31.5747 80.1807 28.2586 73.6611 28.2586H62.5223V53.7568ZM41.2064 47.8911C37.2472 47.8911 34.5464 44.6839 34.5464 41.0042V40.9299C34.5464 37.25 37.1787 34.1156 41.1328 34.1156C45.0868 34.1156 47.756 37.2864 47.756 41.0042V41.0769C47.756 44.7565 45.1236 47.8911 41.2064 47.8911ZM41.1328 54.2674C49.1265 54.2674 55.1215 48.3273 55.1215 41.0042V40.9299C55.1215 33.6068 49.2003 27.7393 41.2064 27.7393C33.2125 27.7393 27.2176 33.6794 27.2176 41.0042V41.0769C27.2176 48.4017 33.1389 54.2674 41.1328 54.2674Z" fill="white"/>
<path d="M0.759628 28.2498V34.4443H8.49379V53.7584H15.6734V34.4443H23.4444V28.2498H0.759628Z" fill="#FEDA6A"/>
<path d="M23.4829 24.626C24.6581 24.6239 25.8062 24.2784 26.7822 23.633C27.7584 22.9876 28.5186 22.0712 28.967 20.9999C29.4151 19.9285 29.5314 18.7502 29.301 17.6137C29.0703 16.4772 28.5034 15.4337 27.6716 14.6148C26.84 13.7961 25.7808 13.2387 24.6281 13.0134C23.4752 12.788 22.2807 12.9048 21.1952 13.3487C20.1097 13.7928 19.182 14.5441 18.5293 15.5079C17.8766 16.4718 17.5282 17.6047 17.5282 18.7638C17.5289 19.5342 17.6834 20.2971 17.9831 21.0088C18.2827 21.7203 18.7215 22.3668 19.2744 22.9112C19.8274 23.4554 20.4837 23.8871 21.2057 24.1814C21.9278 24.4755 22.7016 24.6267 23.4829 24.626Z" fill="#FEDA6A"/>
</g>
</svg>
