<svg width="57" height="57" viewBox="0 0 57 57" fill="none" xmlns="http://www.w3.org/2000/svg">
<path d="M42.5719 25.4718L42.75 25.2344V16.7715L28.5 22.4715L14.25 16.7715V25.234L14.4281 25.4715C14.5751 25.668 18.1541 30.2808 28.5 30.2808C38.8459 30.2808 42.4247 25.6678 42.5719 25.4718Z" fill="white"/>
<path d="M55.6641 54.3281H7.57031C6.27117 54.3281 5.02523 53.812 4.10659 52.8934C3.18796 51.9748 2.67188 50.7288 2.67188 49.4297C2.67188 48.1305 3.18796 46.8846 4.10659 45.966C5.02523 45.0473 6.27117 44.5312 7.57031 44.5312H55.6641C56.0184 44.5312 56.3582 44.3905 56.6087 44.14C56.8592 43.8894 57 43.5496 57 43.1953C57 42.841 56.8592 42.5012 56.6087 42.2507C56.3582 42.0001 56.0184 41.8594 55.6641 41.8594H7.57031C5.56254 41.8594 3.637 42.657 2.21729 44.0767C0.797584 45.4964 0 47.4219 0 49.4297C0 51.4375 0.797584 53.363 2.21729 54.7827C3.637 56.2024 5.56254 57 7.57031 57H55.6641C56.0184 57 56.3582 56.8593 56.6087 56.6087C56.8592 56.3582 57 56.0184 57 55.6641C57 55.3097 56.8592 54.9699 56.6087 54.7194C56.3582 54.4689 56.0184 54.3281 55.6641 54.3281Z" fill="white"/>
<path d="M4.45312 49.4297C4.45312 49.839 4.53375 50.2444 4.69041 50.6226C4.84706 51.0008 5.07667 51.3444 5.36613 51.6339C5.65559 51.9233 5.99922 52.1529 6.37742 52.3096C6.75561 52.4662 7.16096 52.5469 7.57031 52.5469H55.6641V46.3125H7.57031C6.74358 46.3125 5.95071 46.6409 5.36613 47.2255C4.78154 47.8101 4.45313 48.603 4.45312 49.4297Z" fill="white"/>
<path d="M47.2031 23.6016C48.4328 23.6016 49.4297 22.6047 49.4297 21.375C49.4297 20.1453 48.4328 19.1484 47.2031 19.1484C45.9734 19.1484 44.9766 20.1453 44.9766 21.375C44.9766 22.6047 45.9734 23.6016 47.2031 23.6016Z" fill="white"/>
<path d="M43.3335 14.6196L28.183 8.84833L28.8172 7.18287L45.7747 13.6435L53.1633 10.6875L28.5001 0.822021L3.83691 10.6875L28.5001 20.5529L43.3335 14.6196Z" fill="white"/>
<path d="M46.3123 15.7551V17.4752C46.8974 17.3317 47.5085 17.3317 48.0936 17.4752V14.5272L45.7745 13.6438L43.333 14.6204L46.3123 15.7551Z" fill="white"/>
<path d="M8.01562 33.8438C8.01562 34.3162 8.20329 34.7692 8.53734 35.1033C8.87139 35.4373 9.32446 35.625 9.79688 35.625H42.4287L43.0224 32.0625H9.79688C9.32446 32.0625 8.87139 32.2502 8.53734 32.5842C8.20329 32.9183 8.01562 33.3713 8.01562 33.8438Z" fill="white"/>
<path d="M49.875 33.8437L48.4295 25.1707C47.6364 25.4535 46.7699 25.4535 45.9767 25.1707L44.5312 33.8437H49.875Z" fill="white"/>
<path d="M9.79688 40.0781H48.5391C48.8934 40.0781 49.2332 39.9374 49.4837 39.6868C49.7342 39.4363 49.875 39.0965 49.875 38.7422C49.875 38.3879 49.7342 38.0481 49.4837 37.7975C49.2332 37.547 48.8934 37.4062 48.5391 37.4062H9.79688C8.85204 37.4062 7.94591 37.0309 7.27781 36.3628C6.60971 35.6947 6.23438 34.7886 6.23438 33.8438C6.23438 32.8989 6.60971 31.9928 7.27781 31.3247C7.94591 30.6566 8.85204 30.2812 9.79688 30.2812H18.4181C16.8099 29.6464 15.3212 28.7429 14.0157 27.6094H9.79688C8.14342 27.6094 6.55768 28.2662 5.38851 29.4354C4.21933 30.6046 3.5625 32.1903 3.5625 33.8438C3.5625 35.4972 4.21933 37.0829 5.38851 38.2521C6.55768 39.4213 8.14342 40.0781 9.79688 40.0781Z" fill="white"/>
<path d="M43.7643 27.6094H42.9847C41.6792 28.743 40.1904 29.6465 38.582 30.2812H43.319L43.7643 27.6094Z" fill="white"/>
</svg>
