<svg width="30" height="30" viewBox="0 0 30 30" fill="none" xmlns="http://www.w3.org/2000/svg">
<path fill-rule="evenodd" clip-rule="evenodd" d="M15 0C6.71572 0 0 6.71572 0 15C0 23.2843 6.71572 30 15 30C23.2843 30 30 23.2843 30 15C30 6.71572 23.2843 0 15 0ZM15 28.6364C7.46883 28.6364 1.36365 22.5312 1.36365 15C1.36365 7.46884 7.46883 1.36366 15 1.36366C22.5312 1.36366 28.6363 7.46884 28.6363 15C28.6363 22.5312 22.5312 28.6364 15 28.6364ZM20.3454 10.4318C20.9729 10.3066 21.5746 10.0761 22.125 9.75001C21.9135 10.3925 21.4747 10.9356 20.891 11.2773C21.446 11.212 21.9882 11.065 22.5001 10.8409C22.1324 11.392 21.6708 11.8743 21.1365 12.2659V12.6205C21.1365 12.6664 21.136 12.7123 21.1352 12.7582C21.0561 17.0878 17.482 20.5337 13.1524 20.4546C11.6341 20.4557 10.1468 20.0253 8.86371 19.2137C9.08994 19.2407 9.31764 19.2543 9.54551 19.2546C10.7979 19.2498 12.0136 18.8302 13.0023 18.0614C11.8147 18.0444 10.7674 17.2788 10.391 16.1523C10.8097 16.2305 11.2407 16.2142 11.6523 16.1045C10.3465 15.8523 9.40465 14.7072 9.4091 13.3773V13.3432C9.79857 13.5573 10.2331 13.6764 10.6773 13.6909C9.89947 13.1886 9.42961 12.326 9.42955 11.4C9.43453 10.9198 9.56625 10.4494 9.81135 10.0364C11.2443 11.7635 13.3379 12.8078 15.5796 12.9136C15.5303 12.7081 15.5052 12.4976 15.5046 12.2863C15.5307 10.7644 16.7779 9.54763 18.3 9.55905C19.0727 9.557 19.8122 9.87259 20.3454 10.4318Z" fill="#546179"/>
</svg>
