<svg width="60" height="60" viewBox="0 0 60 60" fill="none" xmlns="http://www.w3.org/2000/svg">
<g clip-path="url(#clip0_227_66)">
<path d="M37.7758 53.2353C37.7758 54.9368 36.3925 56.3206 34.6914 56.3206C32.9908 56.3206 31.6074 54.9368 31.6074 53.2353V31.4644C32.8114 31.1825 33.6134 30.6423 34.2968 30.18C35.0704 29.6572 35.5818 29.3116 36.7733 29.3116C37.9644 29.3116 38.4757 29.6572 39.2494 30.18C39.2745 30.1974 39.3011 30.2152 39.3267 30.2321C39.5103 25.7671 39.2864 21.5799 38.3526 17.7864C36.5893 10.6265 33.6244 5.61036 31.6193 2.91871H31.6409V-0.117188H28.1252V2.91093C25.9096 5.7454 22.8971 10.8 21.3196 18.1852C20.5076 21.9846 20.2604 25.7209 20.4366 30.158C21.1919 29.6476 21.706 29.3116 22.8802 29.3116C24.0717 29.3116 24.583 29.6572 25.3567 30.18C26.0401 30.6423 26.8426 31.1825 28.0465 31.4644V53.2353C28.0465 56.9006 31.0275 59.8829 34.6919 59.8829C38.3563 59.8829 41.3372 56.9006 41.3372 53.2353V48.5945H37.7758V53.2353Z" fill="white"/>
<path d="M51.032 10.4806C46.5459 6.41654 40.8943 3.80316 34.7681 2.89404C35.6456 3.92493 36.59 5.18882 37.5133 6.71043C39.3311 9.70512 40.7103 13.0994 41.613 16.7996C42.7139 21.3099 43.104 26.2913 42.7762 31.6069C43.0696 31.6398 43.3814 31.6595 43.7192 31.6595C46.0012 31.6595 47.2142 30.8392 48.1893 30.18C48.9633 29.6572 49.4742 29.3116 50.6658 29.3116C51.8802 29.3116 52.3961 29.6431 53.1771 30.1448C54.1146 30.7467 55.2736 31.4911 57.3912 31.5396L59.8829 31.6673V29.8783C59.8829 22.5404 56.7399 15.6515 51.032 10.4806Z" fill="white"/>
<path d="M22.2524 6.71043C23.1762 5.18882 24.1201 3.92493 24.9981 2.89404C18.8713 3.80316 13.2198 6.41654 8.73369 10.4806C3.02582 15.6515 -0.117188 22.5404 -0.117188 29.8783V31.6595H2.15424C4.45176 31.6595 5.68773 30.7953 6.58998 30.1645C7.35078 29.6325 7.80992 29.3116 8.98638 29.3116C10.1779 29.3116 10.6893 29.6572 11.4629 30.1805C12.4379 30.8392 13.6515 31.6595 15.9334 31.6595C16.3143 31.6595 16.6635 31.6348 16.989 31.5936C16.6626 26.2826 17.0526 21.3062 18.1527 16.7996C19.0558 13.0994 20.4351 9.70512 22.2524 6.71043Z" fill="white"/>
</g>
<defs>
<clipPath id="clip0_227_66">
<rect width="60" height="60" fill="white"/>
</clipPath>
</defs>
</svg>
