<svg width="183" height="82" viewBox="0 0 183 82" fill="none" xmlns="http://www.w3.org/2000/svg">
<path d="M152.205 57.5032C161.168 48.5806 160.954 34.1992 151.885 25.4865C142.814 16.7737 128.301 16.8786 119.338 25.8015C116.243 28.9506 114.109 32.8347 113.255 37.0336C114.322 23.2821 126.487 12.9947 140.36 14.0444C154.338 15.0942 164.796 27.0611 163.729 40.7075C162.875 52.4646 153.698 62.0172 141.853 63.4868C145.802 62.542 149.323 60.4426 152.205 57.5032Z" fill="#009AED"/>
<path d="M122.902 56.4783C132.029 61.547 143.733 58.3791 148.888 49.2978C154.041 40.2162 150.82 28.8118 141.586 23.7432C138.472 22.0536 134.929 21.2088 131.278 21.3144C142.659 19.2025 153.613 26.5943 155.76 37.7876C157.907 48.9809 150.39 59.7518 139.008 61.8637C129.238 63.6589 119.573 58.4846 115.815 49.5089C117.533 52.4657 119.895 54.8944 122.902 56.4783Z" fill="#EF7E6E"/>
<path d="M144.218 34.2319C143.07 32.3437 141.504 30.6652 139.625 29.6162C137.745 28.4621 135.553 27.9377 133.257 27.9377C130.229 27.9377 127.203 29.0916 125.01 31.1899C122.401 33.6025 120.835 37.0644 120.939 40.6313C120.835 43.9882 122.192 47.2402 124.593 49.6533C126.889 52.0659 130.021 53.4297 133.361 53.3249C135.553 53.3249 137.745 52.8004 139.729 51.6465C141.609 50.4924 143.174 48.9189 144.218 46.9256C145.366 44.9324 145.888 42.7294 145.888 40.5263C145.888 38.4282 145.262 36.2253 144.218 34.2319ZM133.361 47.1354C131.796 47.1354 130.229 46.5061 129.082 45.352C127.933 44.0932 127.307 42.3097 127.411 40.6313C127.307 38.8478 127.933 37.1694 129.082 35.9105C130.126 34.7566 131.691 34.0221 133.361 34.1271C135.032 34.0221 136.494 34.7566 137.642 35.9105C138.79 37.1694 139.417 38.8478 139.312 40.6313C139.417 42.4147 138.79 44.0932 137.642 45.352C136.494 46.6109 134.927 47.2402 133.361 47.1354Z" fill="white"/>
<path d="M17.9161 28.5724H25.8077L31.5665 40.3167L37.112 28.5724H44.1503L31.2465 53.3306H30.9266L17.9161 28.5724Z" fill="white"/>
<path d="M54.4183 47.4055C56.751 47.5113 58.9776 46.6649 60.674 45.0779L64.9151 49.3099C62.7945 51.6376 59.6136 53.3306 54.6302 53.3306C46.3602 53.3306 40.9526 47.9345 40.9526 40.6341C40.8466 33.7569 46.3602 28.0434 53.3579 27.9377H53.8881C62.2644 27.9377 67.0356 34.6031 66.5055 43.0676H48.1627C48.9048 45.7126 50.9194 47.4055 54.4183 47.4055ZM59.0835 38.0949C58.6593 35.5555 56.4327 33.651 53.782 33.8627C51.1313 33.651 48.6926 35.4497 48.1627 38.0949H59.0835Z" fill="white"/>
<path d="M80.6526 47.4055C82.9853 47.5113 85.2118 46.6649 86.9082 45.0779L91.1494 49.3099C89.0287 51.6376 85.8479 53.3306 80.8645 53.3306C72.5943 53.3306 67.1869 47.9345 67.1869 40.6341C67.0809 33.7569 72.5943 28.0434 79.5922 27.9377H80.1224C88.4985 27.9377 93.2699 34.6031 92.7398 43.0676H74.3968C75.139 45.7126 77.1534 47.4055 80.6526 47.4055ZM85.3177 38.0949C84.8936 35.5555 82.667 33.651 80.0163 33.8627C77.3656 33.651 74.9269 35.4497 74.3968 38.0949H85.3177Z" fill="white"/>
<path d="M112.499 49.7688C111.198 51.868 108.597 53.1275 104.911 53.1275C98.5147 53.1275 93.4196 47.7745 93.4196 40.5325C93.4196 33.2905 98.6231 27.9377 104.911 27.9377C108.597 27.9377 111.09 29.1972 112.499 31.2963V28.5675H119.654V67.2967H112.499V49.7688ZM112.607 40.5325C112.607 36.6492 110.439 34.1302 106.754 34.1302C103.068 34.1302 100.791 36.6492 100.791 40.5325C100.791 44.4159 103.176 46.9349 106.754 46.9349C110.331 46.9349 112.607 44.4159 112.607 40.5325Z" fill="white"/>
</svg>
