<svg width="49" height="50" viewBox="0 0 49 50" fill="none" xmlns="http://www.w3.org/2000/svg">
<path d="M37.2054 24.7227C36.7464 24.392 36.4116 23.907 36.2686 23.3423L30.9768 29.0404C30.3618 28.6658 29.6468 28.4375 28.8749 28.4375C28.1184 28.4375 27.4173 28.6593 26.8103 29.0209L22.4927 24.2718C22.1141 24.6593 21.7135 25.025 21.291 25.3654L25.6054 30.1112C25.113 30.7832 24.8124 31.6046 24.8124 32.5C24.8124 34.74 26.6348 36.5625 28.8749 36.5625C31.1149 36.5625 32.9374 34.74 32.9374 32.5C32.9374 31.62 32.6489 30.81 32.1712 30.1437L37.2054 24.7227Z" fill="white"/>
<path d="M43.2247 8.75631C42.1684 7.813 40.8465 7.3125 39.4449 7.3125C39.2223 7.3125 38.9973 7.3255 38.7714 7.35069C36.2153 7.63994 34.1239 9.70044 33.7989 12.2493C33.5153 14.4698 34.505 16.5945 36.3802 17.7929C37.2228 18.3316 37.7403 19.2644 37.8005 20.3133H38.6251V14.4008C38.1417 14.1196 37.8126 13.6012 37.8126 13.0008C37.8126 12.103 38.5398 11.3758 39.4376 11.3758C40.3354 11.3758 41.0626 12.103 41.0626 13.0008C41.0626 13.6004 40.7336 14.1188 40.2501 14.4008V20.3125H41.0732C41.126 19.2725 41.6501 18.3357 42.5089 17.7832C44.1469 16.7302 45.1251 14.9419 45.1251 13C45.1251 11.3823 44.4321 9.83531 43.2247 8.75631Z" fill="white"/>
<path d="M37.8125 22.75C37.8125 23.1977 38.1773 23.5625 38.625 23.5625H40.25C40.6977 23.5625 41.0625 23.1977 41.0625 22.75V21.9375H37.8125V22.75Z" fill="white"/>
<path d="M38.625 0.8125H40.25V4.0625H38.625V0.8125Z" fill="white"/>
<path d="M29.9219 4.6405L31.0709 3.49145L33.5086 5.92916L32.3596 7.07821L29.9219 4.6405Z" fill="white"/>
<path d="M45.3579 5.93005L47.7956 3.49235L48.9447 4.6414L46.507 7.0791L45.3579 5.93005Z" fill="white"/>
<path d="M16.2211 16.5278C15.6605 17.6101 14.6384 18.3974 13.4375 18.6468V23.521C15.6207 23.3228 17.5772 22.338 19.0242 20.8503C18.7187 19.0336 17.6755 17.4947 16.2211 16.5278Z" fill="white"/>
<path d="M12.625 13.8125C13.9712 13.8125 15.0625 12.7212 15.0625 11.375C15.0625 10.0288 13.9712 8.9375 12.625 8.9375C11.2788 8.9375 10.1875 10.0288 10.1875 11.375C10.1875 12.7212 11.2788 13.8125 12.625 13.8125Z" fill="white"/>
<path d="M9.83162 14.3106C9.05406 13.5704 8.5625 12.5312 8.5625 11.375C8.5625 9.13494 10.3849 7.3125 12.625 7.3125C14.8651 7.3125 16.6875 9.13494 16.6875 11.375C16.6875 12.5312 16.1959 13.5704 15.4176 14.3106C17.6723 15.1353 19.4646 16.9301 20.2747 19.2221C21.0864 17.8774 21.5625 16.3077 21.5625 14.625C21.5625 9.69719 17.5528 5.6875 12.625 5.6875C7.69719 5.6875 3.6875 9.69719 3.6875 14.625C3.6875 16.3077 4.16363 17.8774 4.97531 19.2229C5.78456 16.9309 7.57775 15.1353 9.83162 14.3106Z" fill="white"/>
<path d="M14.7724 15.8072C14.098 15.5707 13.3765 15.4375 12.625 15.4375C11.8734 15.4375 11.1519 15.5707 10.4775 15.8072C10.8919 16.5888 11.7093 17.1137 12.625 17.1137C13.5407 17.1137 14.358 16.588 14.7724 15.8072Z" fill="white"/>
<path d="M9.02871 16.5278C7.57434 17.4947 6.53109 19.0336 6.22559 20.8511C7.67265 22.338 9.62915 23.3236 11.8123 23.5218V18.6468C10.6115 18.3974 9.58934 17.6101 9.02871 16.5278Z" fill="white"/>
<path d="M44.3125 28.4375H47.5625V49.5625H44.3125V28.4375Z" fill="white"/>
<path d="M19.9375 38.1875H23.1875V49.5625H19.9375V38.1875Z" fill="white"/>
<path d="M28.0625 39.8125H31.3125V49.5625H28.0625V39.8125Z" fill="white"/>
<path d="M14.25 33.3125H13.4375H11.8125H11C10.5523 33.3125 10.1875 33.6773 10.1875 34.125V47.125C10.1875 48.4689 11.2811 49.5625 12.625 49.5625C13.9689 49.5625 15.0625 48.4689 15.0625 47.125V34.125C15.0625 33.6773 14.6977 33.3125 14.25 33.3125Z" fill="white"/>
<path d="M36.1875 31.6875H39.4375V49.5625H36.1875V31.6875Z" fill="white"/>
<path d="M11 28.3335V30.875C11 31.3227 11.3648 31.6875 11.8125 31.6875H13.4375C13.8852 31.6875 14.25 31.3227 14.25 30.875V28.3335C13.7162 28.3961 13.1759 28.4375 12.625 28.4375C12.0741 28.4375 11.5338 28.3961 11 28.3335Z" fill="white"/>
<path d="M24.8125 14.625C24.8125 7.90481 19.3452 2.4375 12.625 2.4375C5.90481 2.4375 0.4375 7.90481 0.4375 14.625C0.4375 21.3452 5.90481 26.8125 12.625 26.8125C19.3452 26.8125 24.8125 21.3452 24.8125 14.625ZM2.0625 14.625C2.0625 8.801 6.801 4.0625 12.625 4.0625C18.449 4.0625 23.1875 8.801 23.1875 14.625C23.1875 20.449 18.449 25.1875 12.625 25.1875C6.801 25.1875 2.0625 20.449 2.0625 14.625Z" fill="white"/>
</svg>
