<svg width="45" height="53" viewBox="0 0 45 53" fill="none" xmlns="http://www.w3.org/2000/svg">
<path d="M42.3872 0.40332H2.60927C1.51733 0.40332 0.635742 1.29303 0.635742 2.38495V43.457C0.724701 43.4174 0.829852 43.4004 0.935003 43.4004H6.16002C8.18208 43.4004 9.83206 45.0423 9.83206 47.0724V52.2893C9.83206 52.3945 9.81587 52.4996 9.77544 52.5967H42.3872C43.4791 52.5967 44.3688 51.7078 44.3688 50.6151V2.38495C44.3688 1.29303 43.4791 0.40332 42.3872 0.40332ZM36.6769 4.00744C38.1651 4.00744 39.4156 5.22796 39.4156 6.74612C39.4156 8.26347 38.1651 9.48398 36.6769 9.48398C35.1587 9.48398 33.939 8.26347 33.939 6.74612C33.939 5.22796 35.1587 4.00744 36.6769 4.00744ZM39.1891 16.126V35.0598C39.1891 35.6413 38.7176 36.1129 38.1361 36.1129H35.1531C34.5715 36.1129 34.1 35.6413 34.1 35.0598V16.126C34.1 15.5445 34.5715 15.073 35.1531 15.073H38.1361C38.7176 15.073 39.1891 15.5445 39.1891 16.126ZM34.0078 8.75847C34.1291 8.92833 34.2666 9.07472 34.4203 9.20332L29.721 13.8298C29.6563 13.757 29.5835 13.6761 29.5108 13.6033C29.4379 13.5305 29.3651 13.4658 29.2924 13.4011L34.0078 8.75847ZM24.5203 15.1643C24.86 14.032 25.8953 13.2151 27.1409 13.2151C27.8931 13.2151 28.5887 13.5305 29.0821 14.032C29.5754 14.5254 29.8828 15.2048 29.8828 15.957C29.8828 17.4695 28.6291 18.6908 27.1409 18.6908C25.6203 18.6908 24.4071 17.4695 24.4071 15.957C24.4071 15.682 24.4475 15.4151 24.5203 15.1643ZM29.8868 25.3806V35.0598C29.8868 35.6413 29.4153 36.1129 28.8337 36.1129H25.7545C25.173 36.1129 24.7015 35.6413 24.7015 35.0598V25.3806C24.7015 24.7983 25.173 24.3267 25.7545 24.3267H28.8337C29.4153 24.3267 29.8868 24.7983 29.8868 25.3806ZM21.0181 14.0643C21.0504 13.9673 21.0828 13.8621 21.099 13.757L24.0431 14.6952C24.0027 14.7923 23.9703 14.8894 23.9379 14.9945C23.9137 15.0916 23.8894 15.1805 23.8732 15.2776L20.913 14.3394C20.9534 14.2504 20.9857 14.1614 21.0181 14.0643ZM17.8394 10.288C19.3276 10.288 20.5813 11.5085 20.5813 13.021C20.5813 13.321 20.5328 13.6033 20.4438 13.8702C20.0798 14.9702 19.0365 15.7629 17.8394 15.7629C17.0872 15.7629 16.4159 15.4636 15.9144 14.9783C15.4129 14.4849 15.1056 13.7894 15.1056 13.021C15.1056 11.5085 16.3188 10.288 17.8394 10.288ZM20.3387 22.3346V35.0598C20.3387 35.6413 19.8663 36.1129 19.2856 36.1129H16.3018C15.7203 36.1129 15.2487 35.6413 15.2487 35.0598V22.3346C15.2487 21.7522 15.7203 21.2807 16.3018 21.2807H19.2856C19.8663 21.2807 20.3387 21.7522 20.3387 22.3346ZM15.2916 15.1967C15.3482 15.2695 15.421 15.3431 15.4938 15.4151C15.5666 15.4879 15.6475 15.5526 15.7284 15.6173L10.8916 20.6805C10.7622 20.5269 10.6166 20.3813 10.4629 20.2519L15.2916 15.1967ZM10.907 35.0598C10.907 35.6413 10.4354 36.1129 9.85388 36.1129H6.87095C6.28941 36.1129 5.81707 35.6413 5.81707 35.0598V29.783C5.81707 29.2015 6.28941 28.7299 6.87095 28.7299H9.85388C10.4354 28.7299 10.907 29.2015 10.907 29.783V35.0598ZM8.32277 25.5521C6.80465 25.5521 5.5849 24.3316 5.5849 22.8134C5.5849 21.2952 6.80465 20.0755 8.32277 20.0755C9.81103 20.0755 11.0615 21.2952 11.0615 22.8134C11.0615 24.3316 9.81103 25.5521 8.32277 25.5521ZM39.1891 48.6027H14.0913C13.9239 48.6027 13.788 48.4669 13.788 48.2994C13.788 48.132 13.9239 47.9961 14.0913 47.9961H39.1891C39.3565 47.9961 39.4924 48.132 39.4924 48.2994C39.4924 48.4669 39.3565 48.6027 39.1891 48.6027ZM39.1891 44.7293H14.0913C13.9239 44.7293 13.788 44.5934 13.788 44.426C13.788 44.2585 13.9239 44.1227 14.0913 44.1227H39.1891C39.3565 44.1227 39.4924 44.2585 39.4924 44.426C39.4924 44.5934 39.3565 44.7293 39.1891 44.7293ZM39.1891 40.8566H14.0913C13.9239 40.8566 13.788 40.7207 13.788 40.5533C13.788 40.3859 13.9239 40.25 14.0913 40.25H39.1891C39.3565 40.25 39.4924 40.3859 39.4924 40.5533C39.4924 40.7207 39.3565 40.8566 39.1891 40.8566Z" fill="white"/>
<path d="M6.157 44.0034H0.935196C0.812273 44.0034 0.701444 44.077 0.654546 44.1903C0.608438 44.3043 0.633516 44.4345 0.720895 44.5211L8.70556 52.5058C8.76381 52.564 8.84068 52.5947 8.91991 52.5947C8.95876 52.5947 8.99835 52.5875 9.03641 52.5721C9.14961 52.5252 9.22322 52.4144 9.22322 52.2914V47.0697C9.22322 45.3792 7.84742 44.0034 6.157 44.0034Z" fill="white"/>
</svg>
