<svg width="60" height="60" viewBox="0 0 60 60" fill="none" xmlns="http://www.w3.org/2000/svg">
<g clip-path="url(#clip0_244_415)">
<path d="M42.3047 24.7266H35.2734V35.096L31.7578 32.8706V17.6953H38.7891V0H21.2109V17.6953H28.2422V32.8706L24.7266 35.096V24.7266H17.6953V17.6953H0V35.2734H17.6953V28.2422H21.2109V37.3215L19.4536 38.4339L30 45.465L40.5464 38.434L38.7891 37.3215V28.2422H42.3047V35.2734H60V17.6953H42.3047V24.7266ZM28.2422 7.14844H31.7578V10.6641H28.2422V7.14844ZM10.6641 28.2422H7.14844V24.7266H10.6641V28.2422ZM49.3359 24.7266H52.8516V28.2422H49.3359V24.7266Z" fill="white"/>
<path d="M31.7578 48.5193V60L42.3047 52.9683V41.4874L31.7578 48.5193Z" fill="white"/>
<path d="M17.6953 41.4874V52.9683L28.2422 60V48.5193L17.6953 41.4874Z" fill="white"/>
</g>
<defs>
<clipPath id="clip0_244_415">
<rect width="60" height="60" fill="white"/>
</clipPath>
</defs>
</svg>
