<svg width="52" height="52" viewBox="0 0 52 52" fill="none" xmlns="http://www.w3.org/2000/svg">
<g clip-path="url(#clip0_244_398)">
<path d="M48.2083 0H3.79167C1.70083 0 0 1.70083 0 3.79167V9.20833C0 11.2992 1.70083 13 3.79167 13H48.2083C50.2992 13 52 11.2992 52 9.20833V3.79167C52 1.70083 50.2992 0 48.2083 0Z" fill="#FBFBFB"/>
<path d="M3.79167 52H20.0417C22.1325 52 23.8333 50.2992 23.8333 48.2084V21.125C23.8333 19.0342 22.1325 17.3334 20.0417 17.3334H3.79167C1.70083 17.3334 0 19.0342 0 21.125V48.2084C0 50.2992 1.70083 52 3.79167 52Z" fill="#FBFBFB"/>
<path d="M48.2082 17.3334H31.9582C29.8673 17.3334 28.1665 19.0342 28.1665 21.125V28.7084C28.1665 30.7992 29.8673 32.5 31.9582 32.5H48.2082C50.299 32.5 51.9998 30.7992 51.9998 28.7084V21.125C51.9998 19.0342 50.299 17.3334 48.2082 17.3334Z" fill="#FBFBFB"/>
<path d="M48.2082 36.8334H31.9582C29.8673 36.8334 28.1665 38.5342 28.1665 40.625V48.2084C28.1665 50.2992 29.8673 52 31.9582 52H48.2082C50.299 52 51.9998 50.2992 51.9998 48.2084V40.625C51.9998 38.5342 50.299 36.8334 48.2082 36.8334Z" fill="#FBFBFB"/>
</g>
<defs>
<clipPath id="clip0_244_398">
<rect width="52" height="52" fill="white"/>
</clipPath>
</defs>
</svg>
