<svg width="51" height="49" viewBox="0 0 51 49" fill="none" xmlns="http://www.w3.org/2000/svg">
<path d="M1.41684 31.3335H7.08314C7.86549 31.3335 8.49998 31.9675 8.49998 32.7498V46.9166C8.49998 47.699 7.86549 48.3335 7.08314 48.3335H1.41684C0.634489 48.3335 0 47.699 0 46.9166V32.7498C0 31.9675 0.634489 31.3335 1.41684 31.3335Z" fill="#F4F4F4"/>
<path d="M15.5828 19.9999H21.2496C22.032 19.9999 22.6665 20.6344 22.6665 21.4167V46.9167C22.6665 47.699 22.032 48.3335 21.2496 48.3335H15.5828C14.8005 48.3335 14.1665 47.699 14.1665 46.9167V21.4167C14.1665 20.6344 14.8005 19.9999 15.5828 19.9999Z" fill="#F4F4F4"/>
<path d="M29.7498 25.6666H35.4167C36.199 25.6666 36.833 26.3011 36.833 27.0835V46.9166C36.833 47.6989 36.199 48.3334 35.4167 48.3334H29.7498C28.9675 48.3334 28.333 47.6989 28.333 46.9166V27.0835C28.333 26.3011 28.9675 25.6666 29.7498 25.6666Z" fill="#F4F4F4"/>
<path d="M43.9168 17.1666H49.5831C50.3655 17.1666 51 17.8011 51 18.5835V46.9166C51 47.6989 50.3655 48.3334 49.5831 48.3334H43.9168C43.1345 48.3334 42.5 47.6989 42.5 46.9166V18.5835C42.5 17.8011 43.1345 17.1666 43.9168 17.1666Z" fill="#F4F4F4"/>
<path d="M46.7499 0.166748C44.4039 0.169342 42.5025 2.07074 42.4999 4.41674C42.5056 4.87951 42.5876 5.33812 42.7427 5.77391L35.6507 9.98966C34.72 9.00239 33.3706 8.52406 32.0259 8.70408C30.6806 8.8841 29.5051 9.70069 28.8664 10.8981L22.6113 7.79982C22.6419 7.61772 22.66 7.43406 22.6668 7.24989C22.6699 5.52956 21.6359 3.97732 20.0474 3.31689C18.4588 2.65698 16.629 3.01962 15.4124 4.23568C14.1953 5.45174 13.8317 7.28102 14.4911 8.8701L6.37706 14.9255C5.73375 14.5421 4.99913 14.3377 4.24999 14.3336C1.90295 14.3336 0 16.236 0 18.5835C0 20.9306 1.90295 22.8335 4.24999 22.8335C6.59703 22.8335 8.49998 20.9306 8.49998 18.5835C8.49635 18.072 8.39985 17.5662 8.21516 17.0894L16.4101 10.9733C18.0132 11.8672 20.0126 11.6052 21.3309 10.3279L28.4441 13.8511C28.9183 15.9631 30.9058 17.3805 33.0573 17.1408C35.2087 16.9011 36.8357 15.0817 36.8331 12.9167C36.8331 12.8088 36.8092 12.7071 36.8014 12.6013L44.5149 8.01564C45.1836 8.43846 45.9582 8.66413 46.7499 8.66673C49.0969 8.66673 50.9999 6.76378 50.9999 4.41674C50.9999 2.0697 49.0969 0.166748 46.7499 0.166748Z" fill="#F4F4F4"/>
</svg>
