<svg width="51" height="51" viewBox="0 0 51 51" fill="none" xmlns="http://www.w3.org/2000/svg">
<g clip-path="url(#clip0_244_419)">
<path d="M45.1562 0H5.84375C2.62013 0 0 2.62013 0 5.84375V34.5312C0 37.7549 2.62013 40.375 5.84375 40.375H8.5V49.4062C8.5 50.0501 8.88888 50.6324 9.48387 50.8789C9.6815 50.9596 9.88762 51 10.0938 51C10.5081 51 10.9161 50.8385 11.22 50.5325L21.3775 40.375H45.1562C48.3799 40.375 51 37.7549 51 34.5312V5.84375C51 2.62013 48.3799 0 45.1562 0ZM40.375 17C40.3474 17 40.3219 16.9915 40.2943 16.9915L37.0196 24.6394C37.7782 25.4065 38.25 26.4626 38.25 27.625C38.25 29.9689 36.3439 31.875 34 31.875C31.6561 31.875 29.75 29.9689 29.75 27.625C29.75 27.3318 29.7798 27.047 29.8371 26.7707L23.6449 22.6312C22.9627 23.0987 22.1383 23.375 21.25 23.375C20.4977 23.375 19.8007 23.1625 19.1887 22.8183L14.6795 26.418C14.7942 26.8026 14.875 27.2021 14.875 27.625C14.875 29.9689 12.9689 31.875 10.625 31.875C8.28113 31.875 6.375 29.9689 6.375 27.625C6.375 25.2811 8.28113 23.375 10.625 23.375C11.3772 23.375 12.0742 23.5875 12.6862 23.9317L17.1955 20.332C17.0807 19.9474 17 19.5479 17 19.125C17 16.7811 18.9061 14.875 21.25 14.875C23.5939 14.875 25.5 16.7811 25.5 19.125C25.5 19.4182 25.4702 19.703 25.4129 19.9793L31.6051 24.1188C32.2873 23.6513 33.1118 23.375 34 23.375C34.0298 23.375 34.0595 23.3835 34.0892 23.3835L37.3618 15.742C36.5989 14.9749 36.125 13.9166 36.125 12.75C36.125 10.4061 38.0311 8.5 40.375 8.5C42.7189 8.5 44.625 10.4061 44.625 12.75C44.625 15.0939 42.7189 17 40.375 17Z" fill="white"/>
</g>
<defs>
<clipPath id="clip0_244_419">
<rect width="51" height="51" fill="white"/>
</clipPath>
</defs>
</svg>
